<svg width="115" height="146" viewBox="0 0 115 146" fill="none" xmlns="http://www.w3.org/2000/svg">
<path d="M114.5 57.5C114.5 26.0198 88.9802 0.5 57.5 0.5C26.0198 0.5 0.5 26.0198 0.5 57.5C0.5 65.3249 3.58548 74.7433 8.3785 84.505C13.1661 94.2556 19.6326 104.3 26.3394 113.361C33.0458 122.422 39.9837 130.489 45.7074 136.286C48.5702 139.186 51.1213 141.509 53.182 143.104C54.213 143.902 55.1113 144.51 55.8572 144.916C56.62 145.331 57.1622 145.5 57.5 145.5C57.8378 145.5 58.38 145.331 59.1428 144.916C59.8887 144.51 60.787 143.902 61.818 143.104C63.8787 141.509 66.4298 139.186 69.2926 136.286C75.0163 130.489 81.9542 122.422 88.6606 113.361C95.3674 104.3 101.834 94.2556 106.621 84.505C111.415 74.7433 114.5 65.3249 114.5 57.5Z" fill="#FCC90E" stroke="black"/>
</svg>
