<svg width="322" height="146" viewBox="0 0 322 146" fill="none" xmlns="http://www.w3.org/2000/svg">
<path d="M115 88.5C115 120.256 89.2564 146 57.5 146C25.7436 146 0 120.256 0 88.5C0 56.7436 50 0 57.5 0C65 0 115 56.7436 115 88.5Z" fill="#CDD2E3"/>
<rect x="147" y="51" width="175" height="22" rx="5" fill="#FCFCFF"/>
<rect x="147" y="82" width="153" height="12" rx="5" fill="#CDD2E3"/>
<rect x="147" y="102" width="162" height="12" rx="5" fill="#CDD2E3"/>
<rect x="147" y="123" width="106" height="12" rx="5" fill="#CDD2E3"/>
<path d="M25.68 86.248C25.68 95.848 33.312 103.48 42.912 103.48C43.248 103.48 43.824 103.48 44.4 103.432L49.488 112.024C49.632 112.264 49.872 112.504 50.256 112.504H56.736C57.504 112.504 57.888 111.736 57.504 111.064L51.312 101.368C56.592 98.152 60.192 92.488 60.192 86.248C60.192 76.648 52.512 68.92 42.912 68.92C33.312 68.92 25.68 76.648 25.68 86.248ZM33.36 86.248C33.36 80.968 37.68 76.6 42.912 76.6C48.192 76.6 52.512 80.968 52.512 86.248C52.512 91.48 48.192 95.8 42.912 95.8C37.68 95.8 33.36 91.48 33.36 86.248ZM63.5996 96.232H77.6636V102.088C77.6636 102.568 78.0956 103 78.5756 103H83.7116C84.1916 103 84.6236 102.568 84.6236 102.088L84.5756 96.184H88.3676C88.8956 96.184 89.2796 95.752 89.2796 95.272V91.288C89.2796 90.808 88.8956 90.424 88.3676 90.424H84.5756L84.5276 70.744C84.5276 70.216 84.0956 69.832 83.6156 69.832H80.1596C79.7276 69.832 79.5836 69.976 79.4396 70.12L62.6876 90.232V95.32C62.6876 95.8 63.0716 96.232 63.5996 96.232ZM70.2236 90.28L77.8556 81.352V90.28H70.2236Z" fill="#101832"/>
</svg>
