<svg width="322" height="146" viewBox="0 0 322 146" fill="none" xmlns="http://www.w3.org/2000/svg">
<path d="M114.5 57.5C114.5 26.0198 88.9802 0.5 57.5 0.5C26.0198 0.5 0.5 26.0198 0.5 57.5C0.5 65.3249 3.58548 74.7433 8.3785 84.505C13.1661 94.2556 19.6326 104.3 26.3394 113.361C33.0458 122.422 39.9837 130.489 45.7074 136.286C48.5702 139.186 51.1213 141.509 53.182 143.104C54.213 143.902 55.1113 144.51 55.8572 144.916C56.62 145.331 57.1622 145.5 57.5 145.5C57.8378 145.5 58.38 145.331 59.1428 144.916C59.8887 144.51 60.787 143.902 61.818 143.104C63.8787 141.509 66.4298 139.186 69.2926 136.286C75.0163 130.489 81.9542 122.422 88.6606 113.361C95.3674 104.3 101.834 94.2556 106.621 84.505C111.415 74.7433 114.5 65.3249 114.5 57.5Z" fill="#FCC90E" stroke="black"/>
<rect x="147" y="15" width="175" height="22" rx="5" fill="#FCFCFF"/>
<rect x="147" y="46" width="153" height="12" rx="5" fill="#CDD2E3"/>
<rect x="147" y="66" width="162" height="12" rx="5" fill="#CDD2E3"/>
<rect x="147" y="87" width="106" height="12" rx="5" fill="#CDD2E3"/>
<path d="M30.68 57.248C30.68 66.848 38.312 74.48 47.912 74.48C48.248 74.48 48.824 74.48 49.4 74.432L54.488 83.024C54.632 83.264 54.872 83.504 55.256 83.504H61.736C62.504 83.504 62.888 82.736 62.504 82.064L56.312 72.368C61.592 69.152 65.192 63.488 65.192 57.248C65.192 47.648 57.512 39.92 47.912 39.92C38.312 39.92 30.68 47.648 30.68 57.248ZM38.36 57.248C38.36 51.968 42.68 47.6 47.912 47.6C53.192 47.6 57.512 51.968 57.512 57.248C57.512 62.48 53.192 66.8 47.912 66.8C42.68 66.8 38.36 62.48 38.36 57.248ZM73.6876 73.088C73.6876 73.568 74.0716 74 74.5996 74H79.9276C80.4076 74 80.7916 73.568 80.7916 73.088V42.272C80.7916 41.792 80.4076 41.36 79.9276 41.36H75.5116L68.5036 46.832C68.3596 46.976 68.2156 47.36 68.2156 47.552V50.576C68.2156 51.056 68.5996 51.488 69.0796 51.488H73.6876V73.088Z" fill="#101832"/>
</svg>
