<svg width="322" height="146" viewBox="0 0 322 146" fill="none" xmlns="http://www.w3.org/2000/svg">
<path d="M115 57.5C115 25.7436 89.2564 0 57.5 0C25.7436 0 0 25.7436 0 57.5C0 89.2564 50 146 57.5 146C65 146 115 89.2564 115 57.5Z" fill="#CDD2E3"/>
<rect x="147" y="15" width="175" height="22" rx="5" fill="#FCFCFF"/>
<rect x="147" y="46" width="153" height="12" rx="5" fill="#CDD2E3"/>
<rect x="147" y="66" width="162" height="12" rx="5" fill="#CDD2E3"/>
<rect x="147" y="87" width="106" height="12" rx="5" fill="#CDD2E3"/>
<path d="M27.68 57.248C27.68 66.848 35.312 74.48 44.912 74.48C45.248 74.48 45.824 74.48 46.4 74.432L51.488 83.024C51.632 83.264 51.872 83.504 52.256 83.504H58.736C59.504 83.504 59.888 82.736 59.504 82.064L53.312 72.368C58.592 69.152 62.192 63.488 62.192 57.248C62.192 47.648 54.512 39.92 44.912 39.92C35.312 39.92 27.68 47.648 27.68 57.248ZM35.36 57.248C35.36 51.968 39.68 47.6 44.912 47.6C50.192 47.6 54.512 51.968 54.512 57.248C54.512 62.48 50.192 66.8 44.912 66.8C39.68 66.8 35.36 62.48 35.36 57.248ZM65.4556 70.208C66.4636 71.504 69.5356 74.48 75.5836 74.48C82.2076 74.48 86.7676 70.544 86.7676 65.312C86.7676 61.184 83.2156 58.208 80.9596 57.248V57.104C83.1196 56.096 85.9036 53.36 85.9036 49.664C85.9036 44.288 81.1036 40.88 75.5356 40.88C70.3036 40.88 66.3676 45.104 66.3676 45.104C66.0316 45.44 65.9836 46.016 66.3676 46.352L69.2956 49.232C69.6796 49.568 70.2556 49.568 70.5916 49.184C71.3116 48.368 72.6556 47.264 74.7676 47.264C76.8316 47.264 78.6076 48.8 78.6076 50.864C78.6076 52.928 76.8316 54.56 73.4716 54.56H70.7836C70.3036 54.56 69.8716 54.944 69.8716 55.472V59.456C69.8716 59.936 70.3036 60.368 70.7836 60.368H73.4716C77.0236 60.368 79.1836 62.144 79.1836 64.256C79.1836 66.368 77.0716 68.096 75.0076 68.096C72.7036 68.096 69.7276 65.888 69.7276 65.888C69.3436 65.6 68.8636 65.648 68.5276 65.984L65.5036 69.008C65.2156 69.344 65.1676 69.872 65.4556 70.208Z" fill="#101832"/>
</svg>
