<svg width="322" height="146" viewBox="0 0 322 146" fill="none" xmlns="http://www.w3.org/2000/svg">
<path d="M115 88.5C115 120.256 89.2564 146 57.5 146C25.7436 146 0 120.256 0 88.5C0 56.7436 50 0 57.5 0C65 0 115 56.7436 115 88.5Z" fill="#FCC90E"/>
<rect x="147" y="51" width="175" height="22" rx="5" fill="#FCFCFF"/>
<rect x="147" y="82" width="153" height="12" rx="5" fill="#CDD2E3"/>
<rect x="147" y="102" width="162" height="12" rx="5" fill="#CDD2E3"/>
<rect x="147" y="123" width="106" height="12" rx="5" fill="#CDD2E3"/>
<path d="M25.68 87.248C25.68 96.848 33.312 104.48 42.912 104.48C43.248 104.48 43.824 104.48 44.4 104.432L49.488 113.024C49.632 113.264 49.872 113.504 50.256 113.504H56.736C57.504 113.504 57.888 112.736 57.504 112.064L51.312 102.368C56.592 99.152 60.192 93.488 60.192 87.248C60.192 77.648 52.512 69.92 42.912 69.92C33.312 69.92 25.68 77.648 25.68 87.248ZM33.36 87.248C33.36 81.968 37.68 77.6 42.912 77.6C48.192 77.6 52.512 81.968 52.512 87.248C52.512 92.48 48.192 96.8 42.912 96.8C37.68 96.8 33.36 92.48 33.36 87.248ZM63.1196 103.088C63.1196 103.568 63.5036 104 64.0316 104H83.2316C83.7116 104 84.1436 103.568 84.1436 103.088V98.768C84.1436 98.288 83.7116 97.856 83.2316 97.856H74.7836C77.0396 94.688 80.9756 89.552 82.5116 86.816C83.6636 84.56 84.3836 83.12 84.3836 80.576C84.3836 75.248 80.3516 70.88 73.4876 70.88C67.7756 70.88 63.8876 75.584 63.8876 75.584C63.5516 75.968 63.5996 76.544 63.9356 76.832L66.8636 79.808C67.2476 80.192 67.8236 80.192 68.2076 79.808C69.1196 78.8 70.8956 77.408 72.8636 77.408C75.5516 77.408 77.0876 79.04 77.0876 80.864C77.0876 82.208 76.4636 83.552 75.8396 84.512C73.0076 88.832 65.9036 98.48 63.1196 102.128V103.088Z" fill="#101832"/>
</svg>
