<svg width="1348" height="10" viewBox="0 0 1348 10" fill="none" xmlns="http://www.w3.org/2000/svg">
<path opacity="0.5" d="M5 0C2.23858 -2.41411e-07 2.41411e-07 2.23858 0 5C-2.41411e-07 7.76142 2.23858 10 5 10L5 0ZM1343 10.0001C1345.76 10.0001 1348 7.76154 1348 5.00012C1348 2.23869 1345.76 0.000117213 1343 0.000116972L1343 10.0001ZM14.9111 10C17.6725 10 19.9111 7.76143 19.9111 5C19.9111 2.23858 17.6725 1.10787e-06 14.9111 8.66457e-07L14.9111 10ZM44.6444 3.46583e-06C41.883 3.22442e-06 39.6444 2.23858 39.6444 5C39.6444 7.76143 41.883 10 44.6444 10L44.6444 3.46583e-06ZM64.4667 10C67.2281 10 69.4667 7.76143 69.4667 5.00001C69.4667 2.23858 67.2281 5.44015e-06 64.4667 5.19874e-06L64.4667 10ZM94.2 7.79811e-06C91.4386 7.5567e-06 89.2 2.23858 89.2 5.00001C89.2 7.76143 91.4386 10 94.2 10L94.2 7.79811e-06ZM114.022 10C116.784 10 119.022 7.76143 119.022 5.00001C119.022 2.23859 116.784 9.77244e-06 114.022 9.53102e-06L114.022 10ZM143.756 1.21304e-05C140.994 1.1889e-05 138.756 2.23859 138.756 5.00001C138.756 7.76144 140.994 10 143.756 10L143.756 1.21304e-05ZM163.578 10C166.339 10 168.578 7.76144 168.578 5.00001C168.578 2.23859 166.339 1.41047e-05 163.578 1.38633e-05L163.578 10ZM193.311 1.64627e-05C190.55 1.62213e-05 188.311 2.23859 188.311 5.00002C188.311 7.76144 190.55 10 193.311 10L193.311 1.64627e-05ZM213.133 10C215.895 10 218.133 7.76144 218.133 5.00002C218.133 2.23859 215.895 1.8437e-05 213.133 1.81956e-05L213.133 10ZM242.867 2.0795e-05C240.105 2.05536e-05 237.867 2.2386 237.867 5.00002C237.867 7.76144 240.105 10 242.867 10L242.867 2.0795e-05ZM262.689 10C265.45 10 267.689 7.76145 267.689 5.00002C267.689 2.2386 265.45 2.27693e-05 262.689 2.25279e-05L262.689 10ZM292.422 2.51272e-05C289.661 2.48858e-05 287.422 2.2386 287.422 5.00002C287.422 7.76145 289.661 10 292.422 10L292.422 2.51272e-05ZM312.244 10C315.006 10 317.244 7.76145 317.244 5.00003C317.244 2.2386 315.006 2.71016e-05 312.244 2.68602e-05L312.244 10ZM341.978 2.94595e-05C339.216 2.92181e-05 336.978 2.23861 336.978 5.00003C336.978 7.76145 339.216 10 341.978 10L341.978 2.94595e-05ZM361.8 10C364.561 10 366.8 7.76146 366.8 5.00003C366.8 2.23861 364.561 3.14339e-05 361.8 3.11925e-05L361.8 10ZM391.533 3.37918e-05C388.772 3.35504e-05 386.533 2.23861 386.533 5.00003C386.533 7.76146 388.772 10 391.533 10L391.533 3.37918e-05ZM411.356 10C414.117 10 416.356 7.76146 416.356 5.00004C416.356 2.23861 414.117 3.57661e-05 411.356 3.55247e-05L411.356 10ZM441.089 3.81241e-05C438.328 3.78827e-05 436.089 2.23861 436.089 5.00004C436.089 7.76146 438.328 10 441.089 10L441.089 3.81241e-05ZM460.911 10C463.673 10 465.911 7.76146 465.911 5.00004C465.911 2.23862 463.673 4.00984e-05 460.911 3.9857e-05L460.911 10ZM490.645 4.24564e-05C487.883 4.2215e-05 485.645 2.23862 485.645 5.00004C485.645 7.76147 487.883 10 490.645 10L490.645 4.24564e-05ZM510.467 10C513.228 10 515.467 7.76147 515.467 5.00004C515.467 2.23862 513.228 4.44307e-05 510.467 4.41893e-05L510.467 10ZM540.2 4.67887e-05C537.439 4.65473e-05 535.2 2.23862 535.2 5.00005C535.2 7.76147 537.439 10 540.2 10L540.2 4.67887e-05ZM560.022 10C562.784 10 565.022 7.76147 565.022 5.00005C565.022 2.23863 562.784 4.8763e-05 560.022 4.85216e-05L560.022 10ZM589.756 5.1121e-05C586.994 5.08795e-05 584.756 2.23863 584.756 5.00005C584.756 7.76147 586.994 10.0001 589.756 10.0001L589.756 5.1121e-05ZM609.578 10.0001C612.339 10.0001 614.578 7.76148 614.578 5.00005C614.578 2.23863 612.339 5.30953e-05 609.578 5.28539e-05L609.578 10.0001ZM639.311 5.54532e-05C636.55 5.52118e-05 634.311 2.23863 634.311 5.00006C634.311 7.76148 636.55 10.0001 639.311 10.0001L639.311 5.54532e-05ZM659.133 10.0001C661.895 10.0001 664.133 7.76148 664.133 5.00006C664.133 2.23863 661.895 5.74276e-05 659.133 5.71862e-05L659.133 10.0001ZM688.867 5.97855e-05C686.105 5.95441e-05 683.867 2.23864 683.867 5.00006C683.867 7.76148 686.105 10.0001 688.867 10.0001L688.867 5.97855e-05ZM708.689 10.0001C711.45 10.0001 713.689 7.76149 713.689 5.00006C713.689 2.23864 711.45 6.17598e-05 708.689 6.15184e-05L708.689 10.0001ZM738.422 6.41178e-05C735.661 6.38764e-05 733.422 2.23864 733.422 5.00006C733.422 7.76149 735.661 10.0001 738.422 10.0001L738.422 6.41178e-05ZM758.244 10.0001C761.006 10.0001 763.244 7.76149 763.244 5.00007C763.244 2.23864 761.006 6.60921e-05 758.244 6.58507e-05L758.244 10.0001ZM787.978 6.84501e-05C785.216 6.82087e-05 782.978 2.23864 782.978 5.00007C782.978 7.76149 785.216 10.0001 787.978 10.0001L787.978 6.84501e-05ZM807.8 10.0001C810.561 10.0001 812.8 7.76149 812.8 5.00007C812.8 2.23865 810.561 7.04244e-05 807.8 7.0183e-05L807.8 10.0001ZM837.533 7.27824e-05C834.772 7.2541e-05 832.533 2.23865 832.533 5.00007C832.533 7.7615 834.772 10.0001 837.533 10.0001L837.533 7.27824e-05ZM857.356 10.0001C860.117 10.0001 862.356 7.7615 862.356 5.00007C862.356 2.23865 860.117 7.47567e-05 857.356 7.45153e-05L857.356 10.0001ZM887.089 7.71147e-05C884.327 7.68732e-05 882.089 2.23865 882.089 5.00008C882.089 7.7615 884.327 10.0001 887.089 10.0001L887.089 7.71147e-05ZM906.911 10.0001C909.672 10.0001 911.911 7.7615 911.911 5.00008C911.911 2.23866 909.672 7.9089e-05 906.911 7.88476e-05L906.911 10.0001ZM936.644 8.14469e-05C933.883 8.12055e-05 931.644 2.23866 931.644 5.00008C931.644 7.7615 933.883 10.0001 936.644 10.0001L936.644 8.14469e-05ZM956.467 10.0001C959.228 10.0001 961.467 7.76151 961.467 5.00008C961.467 2.23866 959.228 8.34213e-05 956.467 8.31799e-05L956.467 10.0001ZM986.2 8.57792e-05C983.439 8.55378e-05 981.2 2.23866 981.2 5.00009C981.2 7.76151 983.439 10.0001 986.2 10.0001L986.2 8.57792e-05ZM1006.02 10.0001C1008.78 10.0001 1011.02 7.76151 1011.02 5.00009C1011.02 2.23866 1008.78 8.77535e-05 1006.02 8.75121e-05L1006.02 10.0001ZM1035.76 9.01115e-05C1032.99 8.98701e-05 1030.76 2.23867 1030.76 5.00009C1030.76 7.76151 1032.99 10.0001 1035.76 10.0001L1035.76 9.01115e-05ZM1055.58 10.0001C1058.34 10.0001 1060.58 7.76152 1060.58 5.00009C1060.58 2.23867 1058.34 9.20858e-05 1055.58 9.18444e-05L1055.58 10.0001ZM1085.31 9.44438e-05C1082.55 9.42024e-05 1080.31 2.23867 1080.31 5.00009C1080.31 7.76152 1082.55 10.0001 1085.31 10.0001L1085.31 9.44438e-05ZM1105.13 10.0001C1107.89 10.0001 1110.13 7.76152 1110.13 5.0001C1110.13 2.23867 1107.89 9.64181e-05 1105.13 9.61767e-05L1105.13 10.0001ZM1134.87 9.87761e-05C1132.11 9.85347e-05 1129.87 2.23867 1129.87 5.0001C1129.87 7.76152 1132.11 10.0001 1134.87 10.0001L1134.87 9.87761e-05ZM1154.69 10.0001C1157.45 10.0001 1159.69 7.76152 1159.69 5.0001C1159.69 2.23868 1157.45 0.00010075 1154.69 0.000100509L1154.69 10.0001ZM1184.42 0.000103108C1181.66 0.000102867 1179.42 2.23868 1179.42 5.0001C1179.42 7.76153 1181.66 10.0001 1184.42 10.0001L1184.42 0.000103108ZM1204.24 10.0001C1207.01 10.0001 1209.24 7.76153 1209.24 5.00011C1209.24 2.23868 1207.01 0.000105083 1204.24 0.000104841L1204.24 10.0001ZM1233.98 0.000107441C1231.22 0.000107199 1228.98 2.23868 1228.98 5.00011C1228.98 7.76153 1231.22 10.0001 1233.98 10.0001L1233.98 0.000107441ZM1253.8 10.0001C1256.56 10.0001 1258.8 7.76153 1258.8 5.00011C1258.8 2.23869 1256.56 0.000109415 1253.8 0.000109174L1253.8 10.0001ZM1283.53 0.000111773C1280.77 0.000111532 1278.53 2.23869 1278.53 5.00011C1278.53 7.76154 1280.77 10.0001 1283.53 10.0001L1283.53 0.000111773ZM1303.36 10.0001C1306.12 10.0001 1308.36 7.76154 1308.36 5.00011C1308.36 2.23869 1306.12 0.000113747 1303.36 0.000113506L1303.36 10.0001ZM1333.09 0.000116105C1330.33 0.000115864 1328.09 2.23869 1328.09 5.00012C1328.09 7.76154 1330.33 10.0001 1333.09 10.0001L1333.09 0.000116105ZM5 10L14.9111 10L14.9111 8.66457e-07L5 0L5 10ZM44.6444 10L64.4667 10L64.4667 5.19874e-06L44.6444 3.46583e-06L44.6444 10ZM94.2 10L114.022 10L114.022 9.53102e-06L94.2 7.79811e-06L94.2 10ZM143.756 10L163.578 10L163.578 1.38633e-05L143.756 1.21304e-05L143.756 10ZM193.311 10L213.133 10L213.133 1.81956e-05L193.311 1.64627e-05L193.311 10ZM242.867 10L262.689 10L262.689 2.25279e-05L242.867 2.0795e-05L242.867 10ZM292.422 10L312.244 10L312.244 2.68602e-05L292.422 2.51272e-05L292.422 10ZM341.978 10L361.8 10L361.8 3.11925e-05L341.978 2.94595e-05L341.978 10ZM391.533 10L411.356 10L411.356 3.55247e-05L391.533 3.37918e-05L391.533 10ZM441.089 10L460.911 10L460.911 3.9857e-05L441.089 3.81241e-05L441.089 10ZM490.645 10L510.467 10L510.467 4.41893e-05L490.645 4.24564e-05L490.645 10ZM540.2 10L560.022 10L560.022 4.85216e-05L540.2 4.67887e-05L540.2 10ZM589.756 10.0001L609.578 10.0001L609.578 5.28539e-05L589.756 5.1121e-05L589.756 10.0001ZM639.311 10.0001L659.133 10.0001L659.133 5.71862e-05L639.311 5.54532e-05L639.311 10.0001ZM688.867 10.0001L708.689 10.0001L708.689 6.15184e-05L688.867 5.97855e-05L688.867 10.0001ZM738.422 10.0001L758.244 10.0001L758.244 6.58507e-05L738.422 6.41178e-05L738.422 10.0001ZM787.978 10.0001L807.8 10.0001L807.8 7.0183e-05L787.978 6.84501e-05L787.978 10.0001ZM837.533 10.0001L857.356 10.0001L857.356 7.45153e-05L837.533 7.27824e-05L837.533 10.0001ZM887.089 10.0001L906.911 10.0001L906.911 7.88476e-05L887.089 7.71147e-05L887.089 10.0001ZM936.644 10.0001L956.467 10.0001L956.467 8.31799e-05L936.644 8.14469e-05L936.644 10.0001ZM986.2 10.0001L1006.02 10.0001L1006.02 8.75121e-05L986.2 8.57792e-05L986.2 10.0001ZM1035.76 10.0001L1055.58 10.0001L1055.58 9.18444e-05L1035.76 9.01115e-05L1035.76 10.0001ZM1085.31 10.0001L1105.13 10.0001L1105.13 9.61767e-05L1085.31 9.44438e-05L1085.31 10.0001ZM1134.87 10.0001L1154.69 10.0001L1154.69 0.000100509L1134.87 9.87761e-05L1134.87 10.0001ZM1184.42 10.0001L1204.24 10.0001L1204.24 0.000104841L1184.42 0.000103108L1184.42 10.0001ZM1233.98 10.0001L1253.8 10.0001L1253.8 0.000109174L1233.98 0.000107441L1233.98 10.0001ZM1283.53 10.0001L1303.36 10.0001L1303.36 0.000113506L1283.53 0.000111773L1283.53 10.0001ZM1333.09 10.0001L1343 10.0001L1343 0.000116972L1333.09 0.000116105L1333.09 10.0001Z" fill="#FCC90E"/>
<path d="M5 0C2.23858 0 0 2.23858 0 5C0 7.76142 2.23858 10 5 10V0ZM599 10C601.761 10 604 7.76142 604 5C604 2.23858 601.761 0 599 0V10ZM14.9 10C17.6614 10 19.9 7.76142 19.9 5C19.9 2.23858 17.6614 0 14.9 0V10ZM44.6 0C41.8386 0 39.6 2.23858 39.6 5C39.6 7.76142 41.8386 10 44.6 10V0ZM64.4 10C67.1614 10 69.4 7.76142 69.4 5C69.4 2.23858 67.1614 0 64.4 0V10ZM94.1 0C91.3386 0 89.1 2.23858 89.1 5C89.1 7.76142 91.3386 10 94.1 10V0ZM113.9 10C116.661 10 118.9 7.76142 118.9 5C118.9 2.23858 116.661 0 113.9 0V10ZM143.6 0C140.839 0 138.6 2.23858 138.6 5C138.6 7.76142 140.839 10 143.6 10V0ZM163.4 10C166.161 10 168.4 7.76142 168.4 5C168.4 2.23858 166.161 0 163.4 0V10ZM193.1 0C190.339 0 188.1 2.23858 188.1 5C188.1 7.76142 190.339 10 193.1 10V0ZM212.9 10C215.661 10 217.9 7.76142 217.9 5C217.9 2.23858 215.661 0 212.9 0V10ZM242.6 0C239.839 0 237.6 2.23858 237.6 5C237.6 7.76142 239.839 10 242.6 10V0ZM262.4 10C265.161 10 267.4 7.76142 267.4 5C267.4 2.23858 265.161 0 262.4 0V10ZM292.1 0C289.339 0 287.1 2.23858 287.1 5C287.1 7.76142 289.339 10 292.1 10V0ZM311.9 10C314.661 10 316.9 7.76142 316.9 5C316.9 2.23858 314.661 0 311.9 0V10ZM341.6 0C338.839 0 336.6 2.23858 336.6 5C336.6 7.76142 338.839 10 341.6 10V0ZM361.4 10C364.161 10 366.4 7.76142 366.4 5C366.4 2.23858 364.161 0 361.4 0V10ZM391.1 0C388.339 0 386.1 2.23858 386.1 5C386.1 7.76142 388.339 10 391.1 10V0ZM410.9 10C413.661 10 415.9 7.76142 415.9 5C415.9 2.23858 413.661 0 410.9 0V10ZM440.6 0C437.839 0 435.6 2.23858 435.6 5C435.6 7.76142 437.839 10 440.6 10V0ZM460.4 10C463.161 10 465.4 7.76142 465.4 5C465.4 2.23858 463.161 0 460.4 0V10ZM490.1 0C487.339 0 485.1 2.23858 485.1 5C485.1 7.76142 487.339 10 490.1 10V0ZM509.9 10C512.661 10 514.9 7.76142 514.9 5C514.9 2.23858 512.661 0 509.9 0V10ZM539.6 0C536.839 0 534.6 2.23858 534.6 5C534.6 7.76142 536.839 10 539.6 10V0ZM559.4 10C562.161 10 564.4 7.76142 564.4 5C564.4 2.23858 562.161 0 559.4 0V10ZM589.1 0C586.339 0 584.1 2.23858 584.1 5C584.1 7.76142 586.339 10 589.1 10V0ZM5 10H14.9V0H5V10ZM44.6 10H64.4V0H44.6V10ZM94.1 10H113.9V0H94.1V10ZM143.6 10H163.4V0H143.6V10ZM193.1 10H212.9V0H193.1V10ZM242.6 10H262.4V0H242.6V10ZM292.1 10H311.9V0H292.1V10ZM341.6 10H361.4V0H341.6V10ZM391.1 10H410.9V0H391.1V10ZM440.6 10H460.4V0H440.6V10ZM490.1 10H509.9V0H490.1V10ZM539.6 10H559.4V0H539.6V10ZM589.1 10H599V0H589.1V10Z" fill="#FCC90E"/>
</svg>
