<svg width="482" height="482" viewBox="0 0 482 482" fill="none" xmlns="http://www.w3.org/2000/svg">
<circle cx="241" cy="241" r="233.5" fill="#F3F6FF" stroke="#FCC90E" stroke-width="15"/>
<mask id="mask0" mask-type="alpha" maskUnits="userSpaceOnUse" x="15" y="15" width="452" height="452">
<circle cx="241" cy="241" r="226" fill="#FCFCFF"/>
</mask>
<g mask="url(#mask0)">
<g clip-path="url(#clip0)">
<g opacity="0.5">
<path opacity="0.5" d="M316.363 86.2428L156.425 86.6339C155.561 86.6358 154.707 86.8085 153.91 87.142C153.113 87.4756 152.39 87.9635 151.781 88.5779C151.172 89.1923 150.69 89.9211 150.362 90.7227C150.034 91.5243 149.866 92.383 149.868 93.2496L150.595 393.56C150.597 394.427 150.769 395.285 151.101 396.085C151.433 396.885 151.919 397.611 152.531 398.222C153.143 398.834 153.869 399.318 154.668 399.647C155.466 399.977 156.321 400.145 157.185 400.142L317.123 399.751C317.987 399.749 318.842 399.576 319.639 399.243C320.436 398.909 321.16 398.42 321.769 397.805C322.378 397.191 322.86 396.461 323.188 395.659C323.516 394.857 323.683 393.998 323.68 393.131L322.953 92.8199C322.951 91.9536 322.778 91.0963 322.446 90.297C322.113 89.4976 321.627 88.7719 321.015 88.1611C320.403 87.5504 319.678 87.0666 318.879 86.7375C318.081 86.4083 317.226 86.2402 316.363 86.2428V86.2428Z" fill="url(#paint0_linear)"/>
</g>
<path d="M314.047 90.3429L158.76 90.7238C155.136 90.7327 152.206 93.6889 152.215 97.3266L152.925 389.321C152.934 392.959 155.879 395.9 159.503 395.892L314.789 395.511C318.413 395.502 321.343 392.546 321.334 388.908L320.624 96.9135C320.615 93.2757 317.67 90.334 314.047 90.3429Z" fill="white"/>
<path opacity="0.4" d="M278.729 98.0787C278.25 101.316 276.633 104.274 274.171 106.418C271.708 108.562 268.563 109.751 265.303 109.77L207.134 109.91C203.877 109.904 200.729 108.729 198.259 106.598C195.789 104.466 194.16 101.518 193.665 98.2863L162.856 98.3636C162.016 98.3655 161.184 98.5335 160.409 98.858C159.633 99.1825 158.929 99.6572 158.337 100.255C157.744 100.853 157.274 101.562 156.954 102.342C156.635 103.122 156.471 103.957 156.473 104.801L157.142 381.826C157.143 382.67 157.311 383.505 157.634 384.284C157.958 385.063 158.431 385.77 159.027 386.365C159.623 386.96 160.33 387.431 161.108 387.752C161.885 388.073 162.718 388.237 163.558 388.234L310.75 387.877C311.59 387.875 312.422 387.707 313.197 387.382C313.973 387.058 314.677 386.583 315.27 385.985C315.862 385.388 316.332 384.679 316.652 383.899C316.971 383.119 317.135 382.283 317.133 381.44L316.465 104.414C316.463 103.571 316.295 102.736 315.972 101.958C315.649 101.179 315.176 100.472 314.581 99.8771C313.985 99.2821 313.279 98.8106 312.502 98.4896C311.725 98.1686 310.893 98.0043 310.053 98.0062L278.729 98.0787Z" fill="#FCC90E"/>
<path d="M252.693 101.59L217.092 102.126C216.561 102.134 216.136 102.573 216.144 103.106L216.151 103.531C216.159 104.065 216.596 104.491 217.127 104.483L252.728 103.946C253.259 103.938 253.683 103.499 253.676 102.966L253.669 102.541C253.661 102.008 253.224 101.582 252.693 101.59Z" fill="#DBDBDB"/>
<path d="M261.658 103.807C262.437 103.795 263.058 103.152 263.046 102.371C263.035 101.589 262.394 100.966 261.616 100.977C260.838 100.989 260.216 101.632 260.228 102.413C260.24 103.195 260.88 103.818 261.658 103.807Z" fill="#DBDBDB"/>
<g opacity="0.5">
<path opacity="0.5" d="M256.429 308.686C256.432 300.444 254.309 292.342 250.267 285.168C246.225 277.994 240.402 271.993 233.365 267.749C226.327 263.505 218.315 261.163 210.108 260.95C201.901 260.737 193.779 262.661 186.532 266.535C179.286 270.408 173.162 276.1 168.757 283.054C164.351 290.009 161.815 297.99 161.394 306.221C160.973 314.452 162.682 322.652 166.355 330.024C170.027 337.395 175.539 343.685 182.352 348.284L182.381 348.496C183.934 349.99 185.767 351.161 187.773 351.939L187.835 351.727C190.063 353.658 199.438 356.715 210.208 356.686H210.443C217.264 356.686 224.672 355.479 231.185 351.939C231.185 351.939 231.243 351.814 231.329 351.577C232.979 350.799 234.493 349.759 235.812 348.496C235.838 348.313 235.864 348.132 235.889 347.955C242.226 343.57 247.406 337.705 250.984 330.864C254.562 324.023 256.431 316.412 256.429 308.686V308.686Z" fill="url(#paint1_linear)"/>
</g>
<path d="M208.875 354.996C234.349 354.996 255 334.264 255 308.691C255 283.117 234.349 262.385 208.875 262.385C183.401 262.385 162.75 283.117 162.75 308.691C162.75 334.264 183.401 354.996 208.875 354.996Z" fill="#F5F5F5"/>
<path d="M191.255 327.731C191.255 327.731 180.264 328.634 183.174 348.733C184.679 350.186 186.456 351.325 188.403 352.084L194.584 331.083L191.255 327.731Z" fill="#FDA57D"/>
<path d="M226.918 327.731C226.918 327.731 237.91 328.634 234.999 348.733C233.494 350.186 231.717 351.325 229.771 352.084L223.59 331.073L226.918 327.731Z" fill="#FDA57D"/>
<path d="M191.732 294.793C191.732 294.793 186.503 310.072 183.65 308.623C183.65 308.623 211.174 332.493 235.48 308.623C235.48 308.623 231.199 300.984 225.018 294.778L191.732 294.793Z" fill="#333333"/>
<path d="M209.375 313.887C220.669 313.887 229.823 304.696 229.823 293.359C229.823 282.021 220.669 272.831 209.375 272.831C198.082 272.831 188.927 282.021 188.927 293.359C188.927 304.696 198.082 313.887 209.375 313.887Z" fill="#333333"/>
<path opacity="0.1" d="M226.707 327.731H191.049L187.72 342.054C187.72 342.054 185.767 348.685 188.201 351.601C190.635 354.518 213.349 361.148 230.05 352.084C231.506 348.267 231.675 344.075 230.531 340.152C228.607 333.468 230.05 339.669 230.05 339.669L226.707 327.731Z" fill="black"/>
<path opacity="0.1" d="M227.183 327.731H191.52L188.191 342.054C188.191 342.054 186.239 348.685 188.672 351.601C191.106 354.518 213.82 361.148 230.521 352.084C231.978 348.267 232.147 344.075 231.002 340.152C229.078 333.468 230.521 339.669 230.521 339.669L227.183 327.731Z" fill="black"/>
<path d="M226.918 327.731H191.255L187.927 342.054C187.927 342.054 185.974 348.685 188.408 351.601C190.842 354.518 213.555 361.148 230.256 352.084C231.713 348.267 231.882 344.075 230.737 340.152C228.813 333.468 230.256 339.669 230.256 339.669L226.918 327.731Z" fill="#FCC90E"/>
<path opacity="0.1" d="M202.194 315.847H216.47V329.707C216.47 330.331 216.348 330.95 216.11 331.527C215.872 332.104 215.523 332.628 215.083 333.07C214.643 333.512 214.12 333.862 213.545 334.101C212.971 334.34 212.355 334.463 211.732 334.463H206.922C205.666 334.463 204.46 333.962 203.572 333.07C202.683 332.178 202.184 330.968 202.184 329.707V315.847H202.194Z" fill="black"/>
<path d="M202.194 315.321H216.47V329.18C216.47 329.805 216.348 330.423 216.11 331C215.872 331.578 215.523 332.102 215.083 332.544C214.643 332.985 214.12 333.336 213.545 333.575C212.971 333.814 212.355 333.937 211.732 333.937H206.922C205.666 333.937 204.46 333.436 203.572 332.544C202.683 331.652 202.184 330.442 202.184 329.18V315.321H202.194Z" fill="#FDA57D"/>
<path opacity="0.1" d="M202.223 317.383C206.821 319.108 211.882 319.121 216.49 317.422V315.664H202.223V317.383Z" fill="black"/>
<path d="M209.375 318.344C220.669 318.344 229.823 309.153 229.823 297.816C229.823 286.478 220.669 277.288 209.375 277.288C198.082 277.288 188.927 286.478 188.927 297.816C188.927 309.153 198.082 318.344 209.375 318.344Z" fill="#FDA57D"/>
<path d="M189.832 290.017H228.823C228.823 290.017 225.494 274.212 210.756 275.221C196.017 276.23 189.832 290.017 189.832 290.017Z" fill="#333333"/>
<path d="M189.355 300.52C190.405 300.52 191.255 298.918 191.255 296.942C191.255 294.966 190.405 293.363 189.355 293.363C188.306 293.363 187.455 294.966 187.455 296.942C187.455 298.918 188.306 300.52 189.355 300.52Z" fill="#FDA57D"/>
<path d="M229.294 300.52C230.344 300.52 231.194 298.918 231.194 296.942C231.194 294.966 230.344 293.363 229.294 293.363C228.245 293.363 227.394 294.966 227.394 296.942C227.394 298.918 228.245 300.52 229.294 300.52Z" fill="#FDA57D"/>
<path opacity="0.1" d="M189.832 290.548H228.823C228.823 290.548 225.494 274.743 210.756 275.752C196.017 276.761 189.832 290.548 189.832 290.548Z" fill="black"/>
<g opacity="0.5">
<path opacity="0.5" d="M217.885 182.755C217.882 174.513 220.004 166.411 224.046 159.237C228.088 152.064 233.911 146.063 240.949 141.819C247.986 137.575 255.998 135.232 264.205 135.019C272.412 134.807 280.534 136.731 287.781 140.604C295.027 144.478 301.151 150.169 305.557 157.124C309.962 164.078 312.499 172.06 312.919 180.291C313.34 188.522 311.631 196.722 307.959 204.093C304.286 211.464 298.775 217.755 291.961 222.353L291.933 222.565C290.383 224.073 288.55 225.257 286.54 226.047L286.478 225.835C284.251 227.766 274.876 230.823 264.106 230.794H263.87C257.049 230.794 249.641 229.587 243.128 226.047C243.128 226.047 243.071 225.922 242.984 225.685C241.334 224.907 239.821 223.867 238.501 222.604C238.475 222.421 238.45 222.24 238.424 222.063C232.082 217.674 226.898 211.803 223.32 204.955C219.742 198.107 217.876 190.488 217.885 182.755V182.755Z" fill="url(#paint2_linear)"/>
</g>
<path d="M265.434 229.065C290.908 229.065 311.558 208.334 311.558 182.76C311.558 157.186 290.908 136.455 265.434 136.455C239.959 136.455 219.309 157.186 219.309 182.76C219.309 208.334 239.959 229.065 265.434 229.065Z" fill="#F5F5F5"/>
<path d="M247.352 200.396C247.352 200.396 236.361 201.299 239.271 221.397C240.777 222.847 242.554 223.982 244.499 224.739L250.68 203.737L247.352 200.396Z" fill="#BE7C5E"/>
<path d="M283.01 200.396C283.01 200.396 294.001 201.299 291.091 221.397C289.585 222.847 287.808 223.982 285.862 224.739L279.681 203.737L283.01 200.396Z" fill="#BE7C5E"/>
<path d="M247.823 167.457C247.823 167.457 246.977 169.929 245.779 172.769C243.162 179.047 246.149 203.052 252.407 205.606C259.43 208.503 268.666 210.319 278.262 206.808C286.598 203.757 289.172 176.386 283.274 169.746C282.582 168.964 281.86 168.186 281.105 167.433L247.823 167.457Z" fill="#333333"/>
<path d="M265.467 186.556C276.76 186.556 285.915 177.365 285.915 166.028C285.915 154.69 276.76 145.499 265.467 145.499C254.174 145.499 245.019 154.69 245.019 166.028C245.019 177.365 254.174 186.556 265.467 186.556Z" fill="#333333"/>
<path opacity="0.1" d="M282.803 200.396H247.14L243.812 214.718C243.812 214.718 241.859 221.349 244.293 224.265C246.727 227.182 269.44 233.812 286.141 224.748C287.598 220.931 287.767 216.739 286.622 212.816C284.698 206.132 286.141 212.333 286.141 212.333L282.803 200.396Z" fill="black"/>
<path opacity="0.1" d="M283.274 200.396H247.612L244.283 214.718C244.283 214.718 242.33 221.349 244.764 224.265C247.198 227.182 269.912 233.812 286.613 224.748C288.069 220.931 288.238 216.739 287.094 212.816C285.17 206.132 286.613 212.333 286.613 212.333L283.274 200.396Z" fill="black"/>
<path d="M283.01 200.396H247.352L244.023 214.718C244.023 214.718 242.07 221.349 244.504 224.265C246.938 227.182 269.652 233.812 286.353 224.748C287.81 220.931 287.979 216.739 286.834 212.816C284.91 206.132 286.353 212.333 286.353 212.333L283.01 200.396Z" fill="#F55F44"/>
<path opacity="0.1" d="M258.285 188.516H272.552V202.375C272.552 203.637 272.053 204.847 271.165 205.739C270.276 206.631 269.071 207.132 267.814 207.132H263.004C261.748 207.132 260.542 206.631 259.654 205.739C258.765 204.847 258.266 203.637 258.266 202.375V188.516H258.285Z" fill="black"/>
<path d="M258.285 187.985H272.552V201.844C272.552 203.106 272.053 204.316 271.165 205.208C270.276 206.1 269.071 206.601 267.814 206.601H263.004C261.748 206.601 260.542 206.1 259.654 205.208C258.765 204.316 258.266 203.106 258.266 201.844V187.985H258.285Z" fill="#BE7C5E"/>
<path opacity="0.1" d="M258.319 190.047C262.917 191.772 267.979 191.785 272.586 190.086V188.328H258.319V190.047Z" fill="black"/>
<path d="M265.467 191.008C276.76 191.008 285.915 181.817 285.915 170.48C285.915 159.143 276.76 149.952 265.467 149.952C254.174 149.952 245.019 159.143 245.019 170.48C245.019 181.817 254.174 191.008 265.467 191.008Z" fill="#BE7C5E"/>
<path d="M245.923 162.686H284.915C284.915 162.686 281.586 146.881 266.848 147.89C252.109 148.899 245.923 162.686 245.923 162.686Z" fill="#333333"/>
<path d="M245.447 173.184C246.496 173.184 247.347 171.582 247.347 169.606C247.347 167.63 246.496 166.028 245.447 166.028C244.398 166.028 243.547 167.63 243.547 169.606C243.547 171.582 244.398 173.184 245.447 173.184Z" fill="#BE7C5E"/>
<path d="M285.386 173.184C286.435 173.184 287.286 171.582 287.286 169.606C287.286 167.63 286.435 166.028 285.386 166.028C284.337 166.028 283.486 167.63 283.486 169.606C283.486 171.582 284.337 173.184 285.386 173.184Z" fill="#BE7C5E"/>
<path opacity="0.1" d="M245.923 163.217H284.915C284.915 163.217 281.586 147.412 266.848 148.421C252.109 149.43 245.923 163.217 245.923 163.217Z" fill="black"/>
<g opacity="0.5">
<path opacity="0.5" d="M53.405 141.351V210.271H161.567C161.567 210.271 169.552 226.047 183.28 230.635C183.28 230.635 178.898 219.46 183.472 210.271H213.584V141.351H53.405Z" fill="url(#paint3_linear)"/>
</g>
<path d="M57.7341 143.713V208.904H165.963C165.963 208.904 165.963 221.943 178.951 226.289C178.951 226.289 174.622 217.596 178.951 208.904H209.255V143.713H57.7341Z" fill="white"/>
<path d="M157.305 156.751H70.7217V165.443H157.305V156.751Z" fill="#FCC90E"/>
<path d="M187.609 169.789H70.7217V178.482H187.609V169.789Z" fill="#FCC90E"/>
<path d="M174.622 182.828H70.7217V191.52H174.622V182.828Z" fill="#FCC90E"/>
<g opacity="0.5">
<path opacity="0.5" d="M421.384 274.149V343.068H313.227C313.227 343.068 305.242 358.845 291.509 363.432C291.509 363.432 295.891 352.258 291.317 343.068H261.205V274.149H421.384Z" fill="url(#paint4_linear)"/>
</g>
<path d="M417.055 276.51V341.702H308.826C308.826 341.702 308.826 354.74 295.839 359.086C295.839 359.086 300.168 350.394 295.839 341.702H265.534V276.51H417.055Z" fill="white"/>
<path d="M369.915 289.549H283.332V298.241H369.915V289.549Z" fill="#FCC90E"/>
<path d="M400.22 302.587H283.332V311.279H400.22V302.587Z" fill="#FCC90E"/>
<path d="M387.232 315.625H283.332V324.317H387.232V315.625Z" fill="#FCC90E"/>
<g opacity="0.5">
<path opacity="0.5" d="M92.8488 409.791H91.4058V418H92.8488V409.791Z" fill="#47E6B1"/>
<path opacity="0.5" d="M96.2158 414.62V413.171H88.0385V414.62H96.2158Z" fill="#47E6B1"/>
</g>
<g opacity="0.5">
<path opacity="0.5" d="M356.928 157.717H355.485V165.926H356.928V157.717Z" fill="#47E6B1"/>
<path opacity="0.5" d="M360.295 162.546V161.097H352.118V162.546H360.295Z" fill="#47E6B1"/>
</g>
<g opacity="0.5">
<path opacity="0.5" d="M387.713 360.535H386.27V368.744H387.713V360.535Z" fill="#47E6B1"/>
<path opacity="0.5" d="M391.08 365.364V363.915H382.903V365.364H391.08Z" fill="#47E6B1"/>
</g>
<g opacity="0.5">
<path opacity="0.5" d="M296.801 65H295.358V73.2093H296.801V65Z" fill="#47E6B1"/>
<path opacity="0.5" d="M300.168 69.829V68.3803H291.99V69.829H300.168Z" fill="#47E6B1"/>
</g>
<path opacity="0.5" d="M175.44 408.975C175.046 408.797 174.731 408.481 174.553 408.086C174.376 407.691 174.349 407.244 174.478 406.831C174.498 406.766 174.511 406.7 174.516 406.633V406.633C174.528 406.441 174.479 406.251 174.375 406.091C174.271 405.93 174.118 405.808 173.939 405.742C173.76 405.675 173.564 405.669 173.382 405.723C173.199 405.778 173.038 405.89 172.924 406.043V406.043C172.885 406.097 172.853 406.156 172.828 406.217C172.651 406.612 172.336 406.929 171.942 407.107C171.549 407.285 171.104 407.312 170.692 407.183C170.628 407.162 170.562 407.149 170.495 407.144V407.144C170.304 407.132 170.115 407.182 169.955 407.286C169.795 407.391 169.673 407.544 169.607 407.724C169.541 407.904 169.535 408.1 169.589 408.283C169.643 408.467 169.755 408.628 169.908 408.743V408.743C169.962 408.782 170.02 408.814 170.081 408.839C170.475 409.017 170.79 409.333 170.967 409.728C171.145 410.123 171.172 410.57 171.043 410.983C171.023 411.048 171.01 411.114 171.005 411.181V411.181C170.992 411.373 171.042 411.563 171.146 411.723C171.25 411.884 171.403 412.006 171.582 412.072C171.761 412.139 171.956 412.145 172.139 412.091C172.322 412.036 172.483 411.924 172.597 411.771V411.771C172.636 411.717 172.668 411.658 172.693 411.597C172.87 411.201 173.185 410.885 173.578 410.707C173.972 410.529 174.417 410.502 174.829 410.631C174.893 410.652 174.959 410.665 175.026 410.67V410.67C175.216 410.682 175.406 410.632 175.565 410.528C175.725 410.423 175.847 410.27 175.913 410.09C175.979 409.91 175.986 409.714 175.932 409.531C175.877 409.347 175.766 409.186 175.613 409.071V409.071C175.559 409.032 175.501 409 175.44 408.975V408.975Z" fill="#4D8AF0"/>
<path opacity="0.5" d="M78.851 255.726C78.4573 255.549 78.142 255.233 77.9648 254.837C77.7875 254.442 77.7605 253.996 77.889 253.582C77.9095 253.518 77.9225 253.451 77.9275 253.384V253.384C77.9398 253.193 77.8902 253.003 77.7862 252.843C77.6822 252.682 77.5293 252.56 77.3503 252.493C77.1713 252.427 76.9758 252.421 76.7929 252.475C76.61 252.529 76.4495 252.642 76.3353 252.795V252.795C76.2966 252.849 76.2643 252.907 76.2391 252.969C76.0622 253.364 75.7473 253.681 75.3538 253.859C74.9603 254.037 74.5154 254.064 74.1034 253.935C74.0394 253.914 73.9732 253.901 73.9061 253.896C73.7158 253.884 73.5266 253.934 73.3666 254.038C73.2067 254.142 73.0847 254.296 73.0187 254.475C72.9528 254.655 72.9464 254.851 73.0005 255.035C73.0547 255.219 73.1665 255.38 73.3193 255.494V255.494C73.3731 255.533 73.4312 255.566 73.4925 255.591C73.8862 255.769 74.2015 256.085 74.3787 256.48C74.556 256.875 74.583 257.321 74.4545 257.735C74.4339 257.799 74.421 257.866 74.416 257.933V257.933C74.3959 258.128 74.4403 258.323 74.5422 258.49C74.6442 258.657 74.7982 258.785 74.9801 258.855C75.1621 258.925 75.362 258.932 75.5487 258.877C75.7355 258.821 75.8987 258.705 76.013 258.546V258.546C76.0517 258.492 76.084 258.434 76.1092 258.373C76.2861 257.977 76.601 257.661 76.9945 257.483C77.3881 257.305 77.8329 257.278 78.2449 257.407C78.3089 257.427 78.3751 257.44 78.4422 257.445V257.445C78.6325 257.458 78.8218 257.408 78.9817 257.304C79.1416 257.199 79.2636 257.046 79.3296 256.866C79.3956 256.686 79.4019 256.49 79.3478 256.306C79.2936 256.123 79.1818 255.962 79.029 255.847C78.975 255.799 78.9152 255.759 78.851 255.726V255.726Z" fill="#4D8AF0"/>
<path opacity="0.5" d="M131.282 297.739C130.888 297.561 130.573 297.245 130.396 296.85C130.218 296.455 130.191 296.008 130.32 295.594C130.34 295.53 130.353 295.464 130.358 295.396V295.396C130.371 295.205 130.321 295.015 130.217 294.855C130.113 294.694 129.96 294.572 129.781 294.506C129.602 294.439 129.407 294.433 129.224 294.487C129.041 294.542 128.88 294.654 128.766 294.807V294.807C128.728 294.861 128.695 294.92 128.67 294.981C128.493 295.376 128.178 295.693 127.785 295.871C127.391 296.049 126.946 296.076 126.534 295.947C126.47 295.926 126.404 295.913 126.337 295.908V295.908C126.147 295.896 125.957 295.946 125.798 296.05C125.638 296.155 125.516 296.308 125.45 296.488C125.384 296.667 125.377 296.864 125.431 297.047C125.486 297.231 125.597 297.392 125.75 297.507C125.804 297.546 125.862 297.578 125.923 297.603C126.317 297.781 126.632 298.097 126.81 298.492C126.987 298.887 127.014 299.334 126.885 299.747C126.865 299.812 126.852 299.878 126.847 299.945V299.945C126.827 300.14 126.871 300.336 126.973 300.502C127.075 300.669 127.229 300.797 127.411 300.867C127.593 300.937 127.793 300.945 127.98 300.889C128.166 300.833 128.33 300.717 128.444 300.559V300.559C128.483 300.505 128.515 300.446 128.54 300.385C128.717 299.99 129.032 299.673 129.425 299.495C129.819 299.317 130.264 299.29 130.676 299.419C130.74 299.44 130.806 299.453 130.873 299.458V299.458C131.063 299.47 131.253 299.42 131.413 299.316C131.572 299.211 131.695 299.058 131.76 298.878C131.826 298.699 131.833 298.502 131.779 298.319C131.725 298.135 131.613 297.974 131.46 297.859V297.859C131.406 297.812 131.346 297.771 131.282 297.739V297.739Z" fill="#4D8AF0"/>
<path opacity="0.5" d="M430.476 411.703C430.082 411.525 429.767 411.209 429.59 410.814C429.412 410.419 429.385 409.973 429.514 409.559C429.534 409.495 429.547 409.428 429.552 409.361V409.361C429.565 409.17 429.515 408.98 429.411 408.819C429.307 408.659 429.154 408.536 428.975 408.47C428.796 408.404 428.601 408.397 428.418 408.452C428.235 408.506 428.074 408.618 427.96 408.772V408.772C427.921 408.826 427.889 408.884 427.864 408.946C427.687 409.341 427.372 409.657 426.979 409.835C426.585 410.013 426.14 410.04 425.728 409.911C425.664 409.891 425.598 409.878 425.531 409.873C425.341 409.86 425.151 409.91 424.991 410.015C424.831 410.119 424.709 410.272 424.643 410.452C424.578 410.632 424.571 410.828 424.625 411.012C424.679 411.195 424.791 411.357 424.944 411.471C424.998 411.51 425.056 411.542 425.117 411.568C425.511 411.745 425.826 412.061 426.004 412.457C426.181 412.852 426.208 413.298 426.079 413.712C426.059 413.776 426.046 413.843 426.041 413.91C426.021 414.104 426.065 414.3 426.167 414.467C426.269 414.633 426.423 414.762 426.605 414.832C426.787 414.901 426.987 414.909 427.173 414.853C427.36 414.798 427.523 414.681 427.638 414.523C427.676 414.469 427.709 414.411 427.734 414.349C427.911 413.954 428.226 413.637 428.619 413.46C429.013 413.282 429.458 413.255 429.87 413.383C429.934 413.404 430 413.417 430.067 413.422C430.257 413.434 430.447 413.385 430.606 413.28C430.766 413.176 430.888 413.022 430.954 412.843C431.02 412.663 431.027 412.467 430.973 412.283C430.918 412.099 430.807 411.938 430.654 411.824V411.824C430.6 411.776 430.54 411.736 430.476 411.703V411.703Z" fill="#4D8AF0"/>
<path opacity="0.5" d="M53.8861 386.129C55.4801 386.129 56.7722 384.831 56.7722 383.231C56.7722 381.631 55.4801 380.334 53.8861 380.334C52.2922 380.334 51 381.631 51 383.231C51 384.831 52.2922 386.129 53.8861 386.129Z" fill="#F55F44"/>
<path opacity="0.5" d="M379.536 98.803C381.13 98.803 382.422 97.5058 382.422 95.9056C382.422 94.3054 381.13 93.0082 379.536 93.0082C377.942 93.0082 376.65 94.3054 376.65 95.9056C376.65 97.5058 377.942 98.803 379.536 98.803Z" fill="#4D8AF0"/>
<path opacity="0.5" d="M101.026 104.598C102.62 104.598 103.912 103.301 103.912 101.7C103.912 100.1 102.62 98.803 101.026 98.803C99.432 98.803 98.1399 100.1 98.1399 101.7C98.1399 103.301 99.432 104.598 101.026 104.598Z" fill="#47E6B1"/>
<path opacity="0.5" d="M382.422 234.981C384.016 234.981 385.308 233.684 385.308 232.083C385.308 230.483 384.016 229.186 382.422 229.186C380.828 229.186 379.536 230.483 379.536 232.083C379.536 233.684 380.828 234.981 382.422 234.981Z" fill="#F55F44"/>
</g>
</g>
<defs>
<linearGradient id="paint0_linear" x1="168.737" y1="405.58" x2="305.721" y2="81.1763" gradientUnits="userSpaceOnUse">
<stop stop-color="#808080" stop-opacity="0.25"/>
<stop offset="0.54" stop-color="#808080" stop-opacity="0.12"/>
<stop offset="1" stop-color="#808080" stop-opacity="0.1"/>
</linearGradient>
<linearGradient id="paint1_linear" x1="50868.2" y1="66194" x2="50868.2" y2="47206.3" gradientUnits="userSpaceOnUse">
<stop stop-color="#808080" stop-opacity="0.25"/>
<stop offset="0.54" stop-color="#808080" stop-opacity="0.12"/>
<stop offset="1" stop-color="#808080" stop-opacity="0.1"/>
</linearGradient>
<linearGradient id="paint2_linear" x1="57033.8" y1="41114.3" x2="57033.8" y2="22119" gradientUnits="userSpaceOnUse">
<stop stop-color="#808080" stop-opacity="0.25"/>
<stop offset="0.54" stop-color="#808080" stop-opacity="0.12"/>
<stop offset="1" stop-color="#808080" stop-opacity="0.1"/>
</linearGradient>
<linearGradient id="paint3_linear" x1="60360.9" y1="38310" x2="60360.9" y2="21802.4" gradientUnits="userSpaceOnUse">
<stop stop-color="#808080" stop-opacity="0.25"/>
<stop offset="0.54" stop-color="#808080" stop-opacity="0.12"/>
<stop offset="1" stop-color="#808080" stop-opacity="0.1"/>
</linearGradient>
<linearGradient id="paint4_linear" x1="-529128" y1="62995.7" x2="-529128" y2="46488.1" gradientUnits="userSpaceOnUse">
<stop stop-color="#808080" stop-opacity="0.25"/>
<stop offset="0.54" stop-color="#808080" stop-opacity="0.12"/>
<stop offset="1" stop-color="#808080" stop-opacity="0.1"/>
</linearGradient>
<clipPath id="clip0">
<rect width="380" height="353" fill="white" transform="translate(51 65)"/>
</clipPath>
</defs>
</svg>
