<svg width="482" height="482" viewBox="0 0 482 482" fill="none" xmlns="http://www.w3.org/2000/svg">
<circle cx="241" cy="241" r="233.5" fill="#F3F6FF" stroke="#CDD2E3" stroke-width="15"/>
<mask id="mask0" mask-type="alpha" maskUnits="userSpaceOnUse" x="15" y="15" width="452" height="452">
<circle cx="241" cy="241" r="226" fill="#F3F6FF"/>
</mask>
<g mask="url(#mask0)">
<g clip-path="url(#clip0)">
<path d="M98.3494 336.653C98.3494 336.653 101.193 340.369 97.0391 345.98C92.8852 351.591 89.4721 356.335 90.8461 359.823C90.8461 359.823 97.1108 349.405 102.213 349.258C107.314 349.11 103.961 342.922 98.3494 336.653Z" fill="#FCC90E"/>
<path opacity="0.1" d="M98.3492 336.653C98.5968 337.013 98.7925 337.406 98.9307 337.82C103.909 343.666 106.557 349.122 101.774 349.258C97.3217 349.385 91.973 357.354 90.6946 359.365C90.7372 359.52 90.7877 359.673 90.8459 359.823C90.8459 359.823 97.1106 349.405 102.212 349.258C107.314 349.11 103.961 342.922 98.3492 336.653Z" fill="black"/>
<path d="M103.634 341.393C103.634 342.699 103.487 343.758 103.308 343.758C103.129 343.758 102.977 342.699 102.977 341.393C102.977 340.086 103.16 340.7 103.344 340.7C103.527 340.7 103.634 340.082 103.634 341.393Z" fill="#FFD037"/>
<path d="M105.446 342.95C104.299 343.575 103.296 343.953 103.212 343.794C103.129 343.635 103.985 342.997 105.132 342.372C106.279 341.747 105.829 342.201 105.928 342.372C106.028 342.543 106.593 342.324 105.446 342.95Z" fill="#FFD037"/>
<path d="M83.3427 336.653C83.3427 336.653 80.4991 340.369 84.653 345.98C88.8069 351.591 92.2201 356.335 90.846 359.823C90.846 359.823 84.5813 349.405 79.4796 349.258C74.3778 349.11 77.7312 342.922 83.3427 336.653Z" fill="#FCC90E"/>
<path opacity="0.1" d="M83.3427 336.653C83.0952 337.013 82.8994 337.406 82.7613 337.82C77.7829 343.666 75.1345 349.122 79.9176 349.258C84.3742 349.385 89.719 357.354 90.9974 359.365C90.9566 359.521 90.906 359.674 90.846 359.823C90.846 359.823 84.5813 349.405 79.4796 349.258C74.3778 349.11 77.7312 342.922 83.3427 336.653Z" fill="black"/>
<path d="M78.0576 341.393C78.0576 342.699 78.205 343.758 78.3882 343.758C78.5714 343.758 78.7148 342.699 78.7148 341.393C78.7148 340.086 78.5316 340.7 78.3484 340.7C78.1652 340.7 78.0576 340.082 78.0576 341.393Z" fill="#FFD037"/>
<path d="M76.2456 342.95C77.3926 343.575 78.3962 343.953 78.4838 343.794C78.5714 343.635 77.7072 342.997 76.5602 342.372C75.4132 341.747 75.8632 342.201 75.7636 342.372C75.6641 342.543 75.0985 342.324 76.2456 342.95Z" fill="#FFD037"/>
<path opacity="0.1" d="M416.862 304.555C414.309 310.708 410.96 316.606 406.272 321.13C400.561 326.641 393.468 329.648 385.873 331.086C383.634 331.503 381.374 331.796 379.103 331.962C373.101 332.424 366.955 332.117 361.061 331.476C346.624 329.9 332.385 326.854 318.566 322.384C316.296 321.652 314.039 320.88 311.796 320.07C308.408 318.862 305.053 317.559 301.732 316.16C288.191 310.501 274.192 303.285 259.786 305.523C252.805 306.61 246.245 309.903 239.248 310.883C234.337 311.528 229.346 311.173 224.576 309.84C222.266 309.222 220.004 308.441 217.805 307.502C212.85 305.348 208.135 302.678 203.738 299.537C193.184 292.162 183.714 283.018 172.602 276.63C160.351 269.585 146.791 266.236 132.975 263.739C130.726 263.333 128.469 262.945 126.204 262.576C119.812 261.521 113.404 260.545 107.087 259.391C101.002 258.267 94.8089 256.894 89.512 253.516C85.7325 251.107 82.5543 247.77 79.639 244.253C74.2596 237.744 69.6442 230.639 65.8829 223.079C65.6838 222.681 65.4887 222.282 65.2975 221.884C59.447 209.881 55.5121 196.795 53.0986 183.255C53.0269 182.857 52.9592 182.458 52.8915 182.06C50.6214 168.787 49.793 155.063 50.0439 141.44L50.0678 140.245C50.2231 133.519 50.6413 126.82 51.2626 120.217C51.7087 115.574 52.3061 110.755 54.7116 106.852C57.1171 102.95 61.044 100.421 64.9669 98.3419C82.2118 89.1545 98.7438 86.5978 117.295 91.0501C120.274 91.763 123.241 92.5316 126.208 93.328C128.466 93.9334 130.724 94.5586 132.979 95.1878C148.563 99.5326 164.107 104.156 180.217 105.542C181.773 105.677 183.33 105.781 184.889 105.853C187.971 105.996 191.054 106.028 194.136 105.948C202.077 105.725 209.99 104.911 217.809 103.511C220.071 103.121 222.328 102.688 224.58 102.213C234.297 100.186 243.927 97.4817 253.402 94.4909C255.338 93.8803 257.271 93.259 259.201 92.6271C263.55 91.2054 267.899 89.7558 272.256 88.346C285.259 84.1287 298.35 80.2777 311.796 78.7245C312.948 78.5918 314.1 78.4763 315.253 78.3781C316.356 78.2825 317.463 78.2068 318.566 78.1511C339.455 77.036 360.583 82.0738 379.103 92.3842C381.399 93.6639 383.656 95.0232 385.873 96.4622C388.945 98.4614 391.923 100.612 394.806 102.914C400.716 107.633 406.248 113.005 410.462 119.461C414.568 125.749 417.232 132.81 418.766 140.233C418.849 140.631 418.929 141.029 419.001 141.428C421.251 153.411 420.55 166.262 418.025 178.269C417.758 179.527 417.475 180.79 417.181 182.048C417.089 182.446 416.993 182.845 416.898 183.243C414.174 194.597 410.693 205.919 411.601 217.527C411.716 218.989 411.9 220.439 412.139 221.872C412.206 222.27 412.274 222.669 412.35 223.067C414.126 232.537 418.164 241.521 420.586 250.9C425.131 268.722 423.826 287.532 416.862 304.555V304.555Z" fill="#FCC90E"/>
<path opacity="0.1" d="M385.873 141.44H419.001C418.929 141.042 418.849 140.644 418.766 140.246H385.873V96.4629C383.659 95.0266 381.402 93.6673 379.103 92.3849V140.246H318.566V78.1518C317.463 78.2075 316.356 78.2832 315.253 78.3788C314.15 78.4744 312.947 78.5938 311.796 78.7253V140.246H225.372L225.165 140.019L272.252 88.3428C267.895 89.7526 263.546 91.2021 259.197 92.6239L224.576 130.612V102.21C222.322 102.685 220.065 103.118 217.805 103.508V131.922L194.132 105.945C191.05 106.019 187.967 105.988 184.885 105.849L216.013 140.007L215.806 140.234H132.967V95.1885C130.713 94.5593 128.454 93.9341 126.196 93.3288V140.246H50.0678L50.0439 141.44H126.204V182.061H52.8915C52.9592 182.459 53.027 182.857 53.0986 183.256H126.204V221.885H65.2975C65.4887 222.283 65.6838 222.681 65.883 223.08H126.204V262.609C128.466 262.978 130.723 263.366 132.975 263.772V223.08H217.805V307.507C220.004 308.445 222.266 309.227 224.576 309.844V223.08H311.796V320.067C314.042 320.88 316.299 321.651 318.566 322.381V223.08H379.103V331.959C381.374 331.792 383.634 331.5 385.873 331.083V223.08H412.35C412.274 222.681 412.206 222.283 412.139 221.885H385.853V183.256H416.878C416.974 182.857 417.069 182.459 417.161 182.061H385.873V141.44ZM379.103 141.44V182.061H318.566V141.44H379.103ZM311.796 182.061H224.576V141.44H311.796V182.061ZM132.975 141.44H216.61L217.805 142.527V182.061H132.975V141.44ZM132.975 221.885V183.256H217.805V221.885H132.975ZM224.576 221.885V183.256H311.796V221.885H224.576ZM379.103 221.885H318.566V183.256H379.103V221.885Z" fill="#FCC90E"/>
<path opacity="0.1" d="M210.732 152.65C210.221 152.209 209.628 151.872 208.987 151.659C207.554 151.215 206.05 151.052 204.555 151.177C203.458 151.239 202.369 151.39 201.297 151.631L151.251 165.788C150.306 166.054 149.376 166.363 148.463 166.716C145.237 165.454 136.117 161.802 135.117 160.492L131.194 161.639L137.734 171.399C137.568 171.472 137.429 171.592 137.333 171.745C137.237 171.898 137.19 172.077 137.197 172.257C137.204 172.437 137.266 172.611 137.374 172.756C137.482 172.901 137.631 173.009 137.802 173.068C145.341 175.657 156.727 172.22 156.727 172.22L200.457 159.727C200.457 159.727 213.655 155.263 210.732 152.65Z" fill="#FCC90E"/>
<path opacity="0.1" d="M153.101 168.877C153.302 168.811 153.375 168.487 153.265 168.152C153.155 167.818 152.903 167.601 152.703 167.667C152.502 167.733 152.429 168.057 152.539 168.391C152.649 168.726 152.901 168.943 153.101 168.877Z" fill="#FCC90E"/>
<path opacity="0.1" d="M154.624 168.375C154.825 168.309 154.898 167.984 154.788 167.65C154.678 167.316 154.427 167.098 154.226 167.164C154.025 167.23 153.952 167.555 154.062 167.889C154.172 168.223 154.424 168.441 154.624 168.375Z" fill="#FCC90E"/>
<path opacity="0.1" d="M157.532 167.417C157.732 167.351 157.806 167.027 157.696 166.693C157.586 166.358 157.334 166.141 157.133 166.207C156.933 166.273 156.859 166.597 156.969 166.932C157.079 167.266 157.331 167.483 157.532 167.417Z" fill="#FCC90E"/>
<path opacity="0.1" d="M165.738 165.009C165.939 164.943 166.012 164.618 165.902 164.284C165.792 163.95 165.54 163.732 165.34 163.798C165.139 163.864 165.066 164.189 165.176 164.523C165.286 164.857 165.538 165.075 165.738 165.009Z" fill="#FCC90E"/>
<path opacity="0.1" d="M166.935 164.987C167.135 164.921 167.21 164.597 167.1 164.263C166.991 163.929 166.74 163.711 166.54 163.776C166.339 163.842 166.265 164.166 166.374 164.5C166.483 164.834 166.734 165.052 166.935 164.987Z" fill="#FCC90E"/>
<path opacity="0.1" d="M168.682 164.182C168.883 164.116 168.956 163.791 168.846 163.457C168.736 163.123 168.484 162.905 168.284 162.971C168.083 163.037 168.01 163.362 168.12 163.696C168.23 164.03 168.482 164.248 168.682 164.182Z" fill="#FCC90E"/>
<path opacity="0.1" d="M170.188 163.684C170.388 163.618 170.462 163.294 170.352 162.96C170.242 162.625 169.99 162.408 169.789 162.474C169.589 162.54 169.515 162.864 169.625 163.199C169.735 163.533 169.987 163.75 170.188 163.684Z" fill="#FCC90E"/>
<path opacity="0.1" d="M171.666 163.199C171.867 163.133 171.94 162.808 171.83 162.474C171.72 162.14 171.468 161.922 171.268 161.988C171.067 162.054 170.994 162.379 171.104 162.713C171.214 163.047 171.466 163.265 171.666 163.199Z" fill="#FCC90E"/>
<path opacity="0.1" d="M173.002 162.759C173.203 162.693 173.276 162.368 173.166 162.034C173.056 161.7 172.804 161.482 172.604 161.548C172.403 161.614 172.33 161.939 172.44 162.273C172.55 162.607 172.802 162.825 173.002 162.759Z" fill="#FCC90E"/>
<path opacity="0.1" d="M174.44 162.285C174.64 162.219 174.714 161.895 174.604 161.56C174.494 161.226 174.242 161.009 174.041 161.075C173.841 161.141 173.767 161.465 173.877 161.799C173.988 162.134 174.239 162.351 174.44 162.285Z" fill="#FCC90E"/>
<path opacity="0.1" d="M175.942 161.789C176.142 161.723 176.216 161.398 176.106 161.064C175.995 160.73 175.744 160.512 175.543 160.578C175.343 160.644 175.269 160.969 175.379 161.303C175.489 161.637 175.741 161.855 175.942 161.789Z" fill="#FCC90E"/>
<path opacity="0.1" d="M177.275 161.35C177.475 161.284 177.549 160.959 177.439 160.625C177.329 160.291 177.077 160.073 176.876 160.139C176.676 160.205 176.602 160.53 176.712 160.864C176.822 161.198 177.074 161.416 177.275 161.35Z" fill="#FCC90E"/>
<path opacity="0.1" d="M184.747 159.421C184.948 159.355 185.021 159.031 184.911 158.697C184.801 158.362 184.55 158.145 184.349 158.211C184.148 158.277 184.075 158.602 184.185 158.936C184.295 159.27 184.547 159.488 184.747 159.421Z" fill="#FCC90E"/>
<path opacity="0.1" d="M187.66 158.464C187.861 158.398 187.934 158.073 187.824 157.739C187.714 157.405 187.462 157.187 187.262 157.253C187.061 157.319 186.988 157.644 187.098 157.978C187.208 158.312 187.46 158.53 187.66 158.464Z" fill="#FCC90E"/>
<path opacity="0.1" d="M189.121 157.983C189.321 157.917 189.395 157.592 189.285 157.258C189.175 156.924 188.923 156.707 188.722 156.773C188.522 156.839 188.448 157.163 188.558 157.497C188.668 157.832 188.92 158.049 189.121 157.983Z" fill="#FCC90E"/>
<path opacity="0.1" d="M190.541 157.515C190.741 157.449 190.815 157.125 190.705 156.791C190.595 156.456 190.343 156.239 190.142 156.305C189.942 156.371 189.868 156.695 189.979 157.03C190.089 157.364 190.34 157.581 190.541 157.515Z" fill="#FCC90E"/>
<path opacity="0.1" d="M191.935 157.054C192.136 156.988 192.209 156.663 192.099 156.329C191.989 155.995 191.738 155.777 191.537 155.843C191.336 155.909 191.263 156.234 191.373 156.568C191.483 156.902 191.735 157.12 191.935 157.054Z" fill="#FCC90E"/>
<path opacity="0.1" d="M193.518 156.537C193.719 156.471 193.792 156.147 193.682 155.813C193.572 155.478 193.32 155.261 193.12 155.327C192.919 155.393 192.846 155.718 192.956 156.052C193.066 156.386 193.318 156.603 193.518 156.537Z" fill="#FCC90E"/>
<path opacity="0.1" d="M186.25 158.925C186.451 158.859 186.524 158.535 186.414 158.2C186.304 157.866 186.052 157.649 185.852 157.715C185.651 157.781 185.578 158.105 185.688 158.439C185.798 158.774 186.05 158.991 186.25 158.925Z" fill="#FCC90E"/>
<path opacity="0.1" d="M156.192 167.859C156.393 167.793 156.466 167.468 156.356 167.134C156.246 166.799 155.994 166.582 155.794 166.648C155.593 166.714 155.52 167.039 155.63 167.373C155.74 167.707 155.991 167.925 156.192 167.859Z" fill="#FCC90E"/>
<path opacity="0.1" d="M179.806 159.364L178.437 159.702L179.026 162.088L180.395 161.75L179.806 159.364Z" fill="#FCC90E"/>
<path opacity="0.1" d="M195.931 154.745L194.562 155.083L195.151 157.469L196.52 157.131L195.931 154.745Z" fill="#FCC90E"/>
<path opacity="0.1" d="M202.914 151.758L201.098 152.236L202.006 153.606L204.698 152.937L202.914 151.758Z" fill="#FCC90E"/>
<path opacity="0.1" d="M208.979 151.659L205.052 152.682L203.563 151.758L204.555 151.177C206.047 151.053 207.549 151.216 208.979 151.659V151.659Z" fill="#FCC90E"/>
<path opacity="0.1" d="M131.198 161.607L137.738 171.399L148.419 166.664C148.419 166.664 136.332 162.053 135.121 160.46L131.198 161.607Z" fill="#FCC90E"/>
<path opacity="0.1" d="M178.64 163.076L161.383 167.736L160.363 169.775L178.64 163.076Z" fill="#FCC90E"/>
<path opacity="0.1" d="M349.997 113.459H349.471C349.655 113.351 349.81 113.199 349.922 113.017C350.034 112.836 350.099 112.629 350.113 112.416V112.416C350.113 111.592 349.105 110.919 347.87 110.919H332.175C330.94 110.919 329.932 111.592 329.932 112.416C329.932 113.236 330.94 113.909 332.175 113.909H332.696C332.513 114.018 332.359 114.17 332.248 114.352C332.137 114.534 332.072 114.74 332.059 114.953C332.059 115.658 332.792 116.247 333.772 116.406H329.251C328.021 116.406 327.013 117.079 327.013 117.904C327.013 118.728 328.021 119.397 329.251 119.397H344.947C346.178 119.397 347.189 118.724 347.189 117.904C347.189 117.203 346.453 116.609 345.473 116.45H349.993C351.224 116.45 352.231 115.777 352.231 114.953C352.231 114.128 351.228 113.459 349.997 113.459Z" fill="#FCC90E"/>
<path opacity="0.1" d="M179.874 127.7H179.349C179.533 127.592 179.688 127.441 179.799 127.259C179.911 127.077 179.977 126.87 179.99 126.657V126.657C179.99 125.837 178.982 125.16 177.748 125.16H162.052C160.817 125.16 159.81 125.837 159.81 126.657C159.81 127.481 160.817 128.154 162.052 128.154H162.574C162.389 128.262 162.235 128.414 162.123 128.596C162.011 128.778 161.946 128.985 161.932 129.198C161.932 129.899 162.669 130.488 163.649 130.647H159.129C157.898 130.647 156.89 131.32 156.89 132.145C156.89 132.969 157.898 133.642 159.129 133.642H174.828C176.059 133.642 177.066 132.969 177.066 132.145C177.066 131.444 176.334 130.851 175.354 130.691H179.874C181.105 130.691 182.112 130.018 182.112 129.198C182.112 128.377 181.105 127.7 179.874 127.7Z" fill="#FCC90E"/>
<path opacity="0.1" d="M374.072 188.655H373.551C373.735 188.547 373.89 188.396 374.002 188.214C374.113 188.032 374.179 187.825 374.192 187.612V187.612C374.192 186.787 373.18 186.114 371.95 186.114H356.25C355.019 186.114 354.012 186.787 354.012 187.612C354.012 188.436 355.019 189.109 356.25 189.109H356.776C356.591 189.217 356.436 189.368 356.324 189.55C356.212 189.732 356.147 189.939 356.135 190.153C356.135 190.854 356.871 191.443 357.851 191.602H353.331C352.1 191.602 351.093 192.275 351.093 193.1C351.093 193.924 352.1 194.597 353.331 194.597H369.03C370.261 194.597 371.269 193.924 371.269 193.1C371.269 192.399 370.536 191.805 369.556 191.646H374.072C375.307 191.646 376.315 190.973 376.315 190.153C376.315 189.332 375.307 188.655 374.072 188.655Z" fill="#FCC90E"/>
<path opacity="0.1" d="M251.518 392.351C318.378 392.351 372.579 384.034 372.579 373.774C372.579 363.513 318.378 355.196 251.518 355.196C184.658 355.196 130.458 363.513 130.458 373.774C130.458 384.034 184.658 392.351 251.518 392.351Z" fill="#FCC90E"/>
<path opacity="0.1" d="M402.289 396.911C418.698 396.911 432 394.87 432 392.351C432 389.833 418.698 387.792 402.289 387.792C385.881 387.792 372.579 389.833 372.579 392.351C372.579 394.87 385.881 396.911 402.289 396.911Z" fill="#FCC90E"/>
<path opacity="0.1" d="M90.8461 388.25C107.255 388.25 120.557 386.208 120.557 383.69C120.557 381.171 107.255 379.13 90.8461 379.13C74.4374 379.13 61.1355 381.171 61.1355 383.69C61.1355 386.208 74.4374 388.25 90.8461 388.25Z" fill="#FCC90E"/>
<path opacity="0.1" d="M126.69 403.996C135.796 403.996 143.178 402.864 143.178 401.467C143.178 400.071 135.796 398.938 126.69 398.938C117.584 398.938 110.202 400.071 110.202 401.467C110.202 402.864 117.584 403.996 126.69 403.996Z" fill="#FCC90E"/>
<path d="M106.14 354.817L105.996 355.976L105.797 357.613L105.713 358.298L105.514 359.939L105.427 360.62L105.228 362.26L102.953 380.894C102.75 382.559 100.034 383.857 96.7525 383.857H84.9399C81.6582 383.857 78.946 382.559 78.7429 380.894L76.4649 362.26L76.2657 360.62L76.1821 359.939L75.979 358.298L75.8953 357.613L75.6962 355.976L75.5528 354.817C75.4413 353.873 76.9109 353.081 78.7668 353.081H102.93C104.793 353.081 106.255 353.873 106.14 354.817Z" fill="#65617D"/>
<path d="M105.996 355.976L105.797 357.613H75.8952L75.696 355.976H105.996Z" fill="#9D9CB5"/>
<path d="M105.713 358.298L105.514 359.939H76.1819L75.9788 358.298H105.713Z" fill="#9D9CB5"/>
<path d="M105.427 360.62L105.227 362.26H76.4648L76.2656 360.62H105.427Z" fill="#9D9CB5"/>
<path d="M321.37 239.463L320.442 236.803L320.788 236.436L318.952 227.388C319.024 227.07 319.05 226.742 319.028 226.416C319.075 225.466 318.794 224.528 318.231 223.76L317.865 221.964C317.865 221.821 317.865 221.681 317.893 221.538C318.646 210.973 314.125 198.197 314.125 198.197V186.441L310.637 163.439C310.704 151.933 306.188 147.907 306.188 147.907C306.188 147.907 305.818 147.82 305.216 147.636C304.021 145.163 301.986 141.265 298.657 135C297.42 132.617 295.806 130.449 293.878 128.581C291.308 125.963 288.033 124.149 284.451 123.36C284.758 123.014 285.092 122.693 285.45 122.4C286.247 121.759 287.131 121.245 287.876 120.556C288.862 119.598 289.616 118.428 290.082 117.135C290.847 115.261 291.055 113.207 290.684 111.217C290.487 110.222 290.092 109.276 289.521 108.437C288.95 107.598 288.216 106.883 287.362 106.335C286.865 106.08 286.395 105.774 285.96 105.423C285.391 104.877 285.124 104.109 284.833 103.388C283.831 100.918 282.323 98.6867 280.404 96.8368C279.608 96.0403 278.628 95.3036 277.489 95.212C276.35 95.1204 275.227 95.7297 274.152 96.1916C272.296 96.9676 270.294 97.3337 268.283 97.2649C266.273 97.1962 264.301 96.6943 262.502 95.7934C260.754 94.8974 259.069 93.5911 257.094 93.623C256.425 93.6529 255.771 93.8267 255.176 94.1326C254.581 94.4384 254.058 94.8691 253.645 95.3952C253.681 95.3195 253.713 95.2438 253.752 95.1682C253.033 95.9756 252.559 96.9718 252.386 98.0395V98.147C252.386 100.998 253.131 104.236 255.485 106.191C255.314 106.407 255.142 106.622 254.983 106.845C253.582 108.762 252.622 110.966 252.171 113.297C251.721 115.629 251.79 118.031 252.374 120.333C252.271 120.38 252.171 120.434 252.076 120.496L249.829 122.018L244.716 126.438L242.43 127.983C244.819 126.223 248.244 123.356 247.424 122.699C246.293 121.795 234.863 125.088 232.242 128.143C231.115 129.461 229.657 131.926 228.367 134.307L228.275 134.132C228.168 134.275 228.044 134.447 227.917 134.63L227.865 134.534C227.331 135.251 226.491 136.478 225.559 137.868C225.221 138.369 224.87 138.895 224.524 139.425C220.903 143.491 213.946 151.683 212.938 155.617C212.938 155.617 206.092 166.716 207.737 172.2C209.382 177.684 216.021 178.755 220.812 177.082C224.233 175.888 232.716 171.798 237.284 169.556L236.83 176.015C236.83 176.015 233.094 202.554 230.175 213.322C229.669 215.182 229.187 216.576 228.753 217.273C228.696 217.364 228.644 217.458 228.598 217.556C225.643 223.183 221.154 254.791 221.154 254.791C221.154 254.791 217.172 259.004 224.85 259.542C230.139 259.909 233.309 264.413 234.767 267.172V267.232C234.612 271.457 234.544 275.062 234.64 277.328C234.922 284.273 234.126 293.046 233.608 297.785C233.346 300.159 233.421 302.557 233.831 304.91C234.954 311.397 237.384 324.643 239.363 330.294C242.031 337.916 240.801 346.343 240.801 346.343C240.801 346.343 243.469 354.566 245.934 357.577C246.117 357.782 246.334 357.953 246.576 358.083C246.544 358.326 246.512 358.573 246.468 358.824C246.07 361.169 245.174 363.877 243.206 365.92C240.291 368.951 236.249 373.089 235.775 376.099C235.552 377.549 236.141 378.736 238.073 379.429C244.047 381.567 251.765 379.429 251.765 379.429C251.765 379.429 256.966 377.557 256.966 375.685C256.966 373.813 259.089 373.813 259.089 373.813L262.51 371.424C262.599 370.187 262.599 368.945 262.51 367.708C262.359 365.319 261.837 362.364 260.308 360.472C259.858 359.914 259.489 359.294 259.213 358.632C259.113 358.385 259.026 358.132 258.954 357.876C260.38 357.637 261.379 357.478 261.542 357.581C262.16 357.979 264.008 346.948 259.284 341.13C254.561 335.311 256.819 330.094 256.819 330.094C256.819 330.094 256.202 308.828 253.123 307.024C253.123 307.024 255.584 300.605 255.381 297.395C255.178 294.185 254.151 287.765 255.381 286.36C255.963 285.695 258.356 281.183 260.702 276.635C260.841 276.368 260.981 276.101 261.1 275.838C262.546 275.938 264.139 275.997 265.8 275.966C265.82 276.228 265.844 276.491 265.868 276.762C266.238 280.768 267.134 285.161 269.125 288.375V308.637C269.125 308.637 270.563 314.456 271.794 316.865C273.024 319.274 267.962 335.921 267.962 335.921C267.962 335.921 265.151 356.283 267.962 358.84C268.564 359.313 269.268 359.64 270.018 359.795C270.061 360.07 270.101 360.349 270.141 360.632C270.539 363.348 270.806 366.315 270.491 368.023C270.124 370.22 270.135 372.464 270.523 374.658C270.583 374.992 270.627 375.175 270.627 375.175C270.627 375.175 269.329 381.663 278.297 380.731C287.266 379.799 288.222 376.983 288.222 376.983C288.222 376.983 288.222 376.892 288.202 376.732C288.153 376.092 288.068 375.455 287.947 374.825C287.401 372.001 286.271 369.322 284.63 366.96C283.914 365.982 283.499 364.817 283.435 363.606C283.435 362.81 283.383 361.942 283.339 361.074C283.339 360.807 283.312 360.54 283.296 360.277C283.941 360.233 284.327 360.198 284.327 360.198C284.327 360.198 287.199 355.184 286.996 345.55C286.792 335.917 289.254 327.096 289.254 327.096C289.254 327.096 289.871 312.652 289.254 310.644C288.636 308.637 287.951 297.283 289.529 295.738C290.62 294.667 292.038 281.509 292.806 273.54C292.834 273.269 292.858 273.007 292.882 272.744C294.893 272.664 296.168 272.652 296.168 272.652C296.168 272.652 296.391 266.754 296.586 258.714L297.458 258.383C297.084 258.985 297.486 260.617 300.393 259.797C304.141 258.746 309.123 257.842 309.123 257.842C309.123 257.842 311.792 255.934 311.911 254.58C312.018 253.888 312.172 253.204 312.373 252.533C318.216 250.203 323.019 248.26 323.019 248.26C323.019 248.26 324.93 245.146 321.37 239.463ZM300.903 205.823L301.612 211.486L299.621 212.1L295.427 212.386C294.26 201.789 296.223 183.956 296.223 183.956L296.578 183.725C298.35 190.881 300.903 205.823 300.903 205.823V205.823ZM279.966 131.994C279.879 131.79 279.795 131.595 279.707 131.356L280.106 131.97C280.059 131.974 280.012 131.982 279.966 131.994V131.994ZM295.562 213.362L295.491 212.801L296.865 212.51L299.035 212.287L295.562 213.362ZM252.386 135.223C251.801 135.363 251.192 135.514 250.614 135.685L250.718 135.625L252.422 134.61C252.398 134.807 252.386 135.005 252.386 135.203V135.223ZM233.067 149.982C231.696 150.651 231.011 150.583 231.011 150.583L234.158 144.49C234.522 143.938 234.851 143.364 235.141 142.77C236.043 142.417 237.024 142.319 237.977 142.487C237.977 142.487 238.738 142.316 239.913 142.029C239.642 142.372 239.39 142.728 239.156 143.096C239.156 143.096 234.433 149.313 233.067 149.982ZM297.952 258.16L298.94 257.782C298.517 258.089 298.163 258.252 297.952 258.16Z" fill="url(#paint0_linear)"/>
<path d="M264.836 126.876C263.57 127.621 263.53 130.803 263.725 133.356C263.864 135.223 264.123 136.752 264.123 136.752L255.883 156.784C255.883 156.784 252.828 142.511 252.781 136.139C252.777 135.636 252.854 135.136 253.008 134.658C254.461 130.066 262.538 127.501 264.836 126.876Z" fill="#67647E"/>
<path d="M265.446 126.705C265.446 126.705 265.223 126.757 264.836 126.865C265.021 126.758 265.232 126.703 265.446 126.705V126.705Z" fill="#67647E"/>
<path d="M262.59 370.572L259.273 372.961C259.273 372.961 257.213 372.961 257.213 374.821C257.213 376.681 252.171 378.536 252.171 378.536C252.171 378.536 244.668 380.659 238.893 378.536C237.021 377.847 236.448 376.669 236.667 375.231C237.125 372.232 241.048 368.134 243.872 365.128C245.779 363.101 246.659 360.413 247.034 358.087C247.31 356.423 247.385 354.731 247.257 353.049L259.404 352.185C258.708 354.018 258.708 356.043 259.404 357.876C259.669 358.531 260.027 359.146 260.467 359.7C261.949 361.579 262.459 364.53 262.602 366.868C262.685 368.101 262.681 369.339 262.59 370.572V370.572Z" fill="#67647E"/>
<path d="M287.549 376.079C287.549 376.079 286.621 378.867 277.923 379.799C269.225 380.731 270.472 374.287 270.472 374.287C270.472 374.287 270.428 374.104 270.372 373.774C269.994 371.595 269.983 369.369 270.34 367.187C270.643 365.49 270.38 362.547 270.002 359.851C269.556 356.641 268.946 353.778 268.946 353.778L282.424 354.773C282.424 354.773 282.659 357.517 282.794 360.289C282.838 361.153 282.874 362.017 282.886 362.806C282.948 364.003 283.352 365.156 284.049 366.131C285.644 368.485 286.739 371.142 287.267 373.937C287.383 374.564 287.465 375.197 287.513 375.832C287.541 376.004 287.549 376.079 287.549 376.079Z" fill="#67647E"/>
<path d="M262.59 370.572L259.272 372.961C259.272 372.961 257.213 372.961 257.213 374.821C257.213 376.681 252.171 378.536 252.171 378.536C252.171 378.536 244.668 380.659 238.893 378.536C237.021 377.847 236.448 376.669 236.667 375.231C236.846 375.231 237.017 375.255 237.161 375.259C239.526 375.335 241.828 375.972 244.182 376.183C245.523 376.282 246.869 376.303 248.213 376.247C248.879 376.242 249.545 376.19 250.204 376.091C251.797 375.809 253.275 374.984 254.696 374.176C255.044 374.013 255.35 373.773 255.593 373.475C255.784 373.144 255.919 372.783 255.991 372.408C256.493 370.608 257.895 369.166 259.504 368.218C260.483 367.661 261.521 367.214 262.598 366.884C262.682 368.112 262.679 369.344 262.59 370.572V370.572Z" fill="#67647E"/>
<path d="M287.549 376.079C287.549 376.079 286.621 378.867 277.923 379.799C269.225 380.731 270.472 374.287 270.472 374.287C270.472 374.287 270.428 374.104 270.372 373.774C270.77 373.981 271.109 374.172 271.264 374.259C272.061 374.725 272.774 375.366 273.602 375.801C275.593 376.848 278.003 376.537 280.229 376.199C281.285 376.04 282.34 375.88 283.391 375.685C284.193 375.575 284.973 375.344 285.705 375C286.249 374.683 286.771 374.329 287.266 373.941C287.383 374.568 287.465 375.201 287.513 375.836C287.541 376.004 287.549 376.079 287.549 376.079Z" fill="#67647E"/>
<path opacity="0.1" d="M262.59 370.572L259.272 372.961C259.272 372.961 257.213 372.961 257.213 374.821C257.213 376.681 252.171 378.536 252.171 378.536C252.171 378.536 244.668 380.659 238.893 378.536C237.021 377.847 236.448 376.669 236.667 375.231C236.846 375.231 237.017 375.255 237.161 375.259C239.526 375.335 241.828 375.972 244.182 376.183C245.523 376.282 246.869 376.303 248.213 376.247C248.879 376.242 249.545 376.19 250.204 376.091C251.797 375.809 253.275 374.984 254.696 374.176C255.044 374.013 255.35 373.773 255.593 373.475C255.784 373.144 255.919 372.783 255.991 372.408C256.493 370.608 257.895 369.166 259.504 368.218C260.483 367.661 261.521 367.214 262.598 366.884C262.682 368.112 262.679 369.344 262.59 370.572V370.572Z" fill="black"/>
<path opacity="0.1" d="M287.549 376.079C287.549 376.079 286.621 378.867 277.923 379.799C269.225 380.731 270.472 374.287 270.472 374.287C270.472 374.287 270.428 374.104 270.372 373.774C270.77 373.981 271.109 374.172 271.264 374.259C272.061 374.725 272.774 375.366 273.602 375.801C275.593 376.848 278.003 376.537 280.229 376.199C281.285 376.04 282.34 375.88 283.391 375.685C284.193 375.575 284.973 375.344 285.705 375C286.249 374.683 286.771 374.329 287.266 373.941C287.383 374.568 287.465 375.201 287.513 375.836C287.541 376.004 287.549 376.079 287.549 376.079Z" fill="black"/>
<path opacity="0.1" d="M259.404 352.185C258.708 354.018 258.708 356.043 259.404 357.876C255.919 358.469 249.423 359.668 247.034 358.087C247.31 356.423 247.385 354.731 247.257 353.049L259.404 352.185Z" fill="black"/>
<path opacity="0.1" d="M282.818 360.289C280.357 360.464 273.733 360.811 270.026 359.851C269.58 356.641 268.97 353.778 268.97 353.778L282.448 354.773C282.448 354.773 282.675 357.517 282.818 360.289Z" fill="black"/>
<path d="M292.528 267.427C292.528 267.427 292.32 269.916 291.99 273.401C291.245 281.31 289.871 294.368 288.804 295.432C287.274 296.965 287.94 308.235 288.537 310.226C289.134 312.217 288.537 326.554 288.537 326.554C287.034 332.543 286.298 338.699 286.346 344.873C286.546 354.431 283.758 359.409 283.758 359.409C283.758 359.409 270.615 360.604 267.895 358.063C265.175 355.522 267.895 335.315 267.895 335.315C267.895 335.315 272.805 318.788 271.611 316.399C270.416 314.009 269.022 308.235 269.022 308.235V288.124C267.09 284.938 266.234 280.557 265.864 276.599C265.569 273.213 265.56 269.808 265.836 266.42C265.836 266.42 263.363 271.477 260.842 276.479C258.563 280.999 256.246 285.472 255.664 286.133C254.469 287.526 255.465 293.898 255.664 297.084C255.863 300.27 253.474 306.642 253.474 306.642C256.461 308.434 257.058 329.541 257.058 329.541C257.058 329.541 254.868 334.718 259.448 340.493C264.028 346.267 262.235 357.219 261.638 356.82C261.041 356.422 248.894 359.807 246.504 356.82C244.114 353.834 241.526 345.67 241.526 345.67C241.526 345.67 242.721 337.307 240.132 329.74C238.212 324.133 235.858 310.987 234.767 304.547C234.369 302.211 234.297 299.831 234.552 297.475C235.054 292.771 235.827 284.066 235.552 277.164C235.46 274.914 235.524 271.338 235.675 267.145C236.189 252.768 237.742 231.167 237.742 231.167L248.567 223.876L255.696 219.041L257.44 219.308L289.947 224.314L291.209 240.347L292.528 267.427Z" fill="#444053"/>
<path opacity="0.1" d="M248.567 223.876L247.998 227.006C247.998 227.006 243.218 249.905 242.223 261.653C241.227 273.401 237.045 270.016 237.045 270.016C236.68 269.029 236.233 268.075 235.707 267.164C236.221 252.788 237.774 231.187 237.774 231.187L248.567 223.876Z" fill="black"/>
<path d="M282.702 137.003C282.702 137.003 260.4 154.857 264.518 151.272C266.772 149.305 265.238 140.918 263.391 133.75C261.869 127.836 260.137 122.746 260.137 122.746C260.137 122.746 279.604 104.535 278.19 119.425C277.692 124.674 278.106 128.405 278.851 131.042C280.217 135.864 282.702 137.003 282.702 137.003Z" fill="#EFB7B9"/>
<path opacity="0.1" d="M280.846 132.256L266.708 143.308L262.59 138.728C262.59 138.728 259.073 137.202 258.806 138.927C258.54 140.651 257.548 151.272 259.603 152.268C261.658 153.264 264.318 153.929 266.64 153.598C268.962 153.268 271.551 150.675 273.279 149.679C275.008 148.684 281.376 143.507 281.376 143.507L284.562 139.062L280.846 132.256Z" fill="black"/>
<path d="M280.846 132.655L266.708 143.706L262.59 139.126C262.59 139.126 259.073 137.601 258.806 139.325C258.54 141.05 257.548 151.671 259.603 152.666C261.658 153.662 264.318 154.327 266.64 153.996C268.962 153.666 271.551 151.073 273.279 150.078C275.008 149.082 281.376 143.905 281.376 143.905L284.562 139.461L280.846 132.655Z" fill="#A36468"/>
<path opacity="0.1" d="M292.528 267.427C292.528 267.427 292.321 269.916 291.99 273.401C287.609 273.568 279.11 274.086 273.144 275.647C270.763 276.236 268.324 276.555 265.872 276.599C265.577 273.213 265.568 269.808 265.844 266.42C265.844 266.42 263.371 271.477 260.85 276.479C258.693 276.334 256.548 276.056 254.426 275.647L257.082 241.131C257.082 241.131 256.994 229.547 257.432 219.296L289.939 224.302L291.201 240.335L292.528 267.427Z" fill="black"/>
<path opacity="0.1" d="M268.102 142.38C268.102 142.38 277.76 131.822 280.05 133.499C282.34 135.175 283.822 139.261 283.822 139.261L275.968 147.887L268.102 142.38Z" fill="black"/>
<path d="M268.5 141.981C268.5 141.981 278.158 131.424 280.448 133.101C282.738 134.777 284.22 138.863 284.22 138.863L276.366 147.489L268.5 141.981Z" fill="#A36468"/>
<path opacity="0.1" d="M260.491 148.747L266.043 141.758C266.043 141.758 265.163 135.152 263.128 135.996C261.093 136.84 260.491 140.221 260.491 140.221V148.747Z" fill="black"/>
<path d="M260.069 148.286L265.621 141.296C265.621 141.296 264.744 134.69 262.705 135.534C260.666 136.378 260.069 139.759 260.069 139.759V148.286Z" fill="#A36468"/>
<path opacity="0.1" d="M285.626 135.741C285.626 135.741 274.191 148.086 267.365 148.915C266.744 148.99 266.13 149.094 265.517 149.217C263.737 149.568 259.85 149.217 260.467 139.011L259.603 137.203L254.294 140.456L252.502 155.056L249.316 192.49L244.604 234.174C244.604 234.174 259.073 232.78 263.124 236.432C267.174 240.084 268.301 216.52 268.301 216.52L279.385 168.731L291.201 137.999L285.626 135.741Z" fill="black"/>
<path opacity="0.1" d="M291.201 139.592L279.385 170.324L268.301 218.113C268.301 218.113 267.17 241.673 263.124 238.025C261.801 236.83 259.364 236.177 256.684 235.839C253.388 235.483 250.067 235.408 246.759 235.616C245.437 235.687 244.604 235.767 244.604 235.767L249.316 194.083L252.502 156.649L254.294 142.049L259.603 138.795L260.467 140.603C260.467 140.87 260.439 141.133 260.427 141.4C260.053 150.83 263.785 151.165 265.517 150.822C266.13 150.699 266.744 150.595 267.365 150.52C272.2 149.926 279.345 143.566 283.101 139.911C284.65 138.397 285.626 137.346 285.626 137.346L291.201 139.592Z" fill="black"/>
<path d="M291.201 138.397L279.385 169.129L268.301 216.918C268.301 216.918 267.17 240.478 263.124 236.83C261.801 235.636 259.364 234.983 256.684 234.644C253.388 234.288 250.067 234.214 246.759 234.421C245.437 234.493 244.604 234.572 244.604 234.572L249.316 192.889L252.502 155.454L254.294 140.854L259.603 137.601L260.467 139.409C260.467 139.676 260.439 139.938 260.427 140.205C260.053 149.636 263.785 149.97 265.517 149.628C266.13 149.504 266.744 149.401 267.365 149.325C272.2 148.732 279.345 142.372 283.101 138.716C284.65 137.202 285.626 136.151 285.626 136.151L291.201 138.397Z" fill="#E1E7EF"/>
<path opacity="0.1" d="M260.467 139.409C260.467 139.676 260.439 139.938 260.427 140.205L260.336 140.269C258.934 141.193 256.684 156.796 256.684 156.796L253.764 196.552L248.388 226.221C248.388 226.221 247.683 229.602 246.759 234.433C245.437 234.505 244.604 234.584 244.604 234.584L249.316 192.9L252.502 155.466L254.294 140.866L259.603 137.613L260.467 139.409Z" fill="black"/>
<path d="M264.127 136.752C264.127 136.752 260.941 139.333 259.539 140.257C258.137 141.181 255.887 156.784 255.887 156.784L252.968 196.54L247.591 226.209C247.591 226.209 242.812 249.108 241.816 260.856C240.821 272.604 236.639 269.219 236.639 269.219C236.639 269.219 233.517 260.06 226.085 259.53C218.653 259 222.501 254.815 222.501 254.815C222.501 254.815 226.854 223.446 229.717 217.858C229.762 217.762 229.812 217.669 229.869 217.579C230.291 216.887 230.757 215.505 231.247 213.657C234.078 202.968 237.698 176.62 237.698 176.62L239.957 143.965C245.731 134.538 263.677 134.865 263.677 134.865L264.127 136.752Z" fill="#67647E"/>
<path opacity="0.1" d="M291.201 138.397L279.385 169.129L268.301 216.918C268.301 216.918 267.17 240.478 263.124 236.83C261.802 235.636 259.364 234.983 256.684 234.644C256.732 226.544 256.979 212.008 258.145 205.899C259.155 200.317 259.577 194.644 259.404 188.974L273.877 157.445C273.877 157.445 284.762 144.028 284.829 142.109C284.853 141.4 284.08 140.086 283.101 138.704C284.65 137.191 285.626 136.139 285.626 136.139L291.201 138.397Z" fill="black"/>
<path d="M254.824 274.85L257.48 240.335C257.48 240.335 257.281 214.581 258.942 205.887C259.952 200.305 260.373 194.632 260.2 188.962L274.673 157.433C274.673 157.433 285.558 144.016 285.626 142.097C285.693 140.177 279.922 133.794 279.922 133.794C279.922 133.794 292.527 135.267 294.188 140.906C295.849 146.545 304.941 148.74 304.941 148.74C304.941 148.74 309.322 152.722 309.255 164.14C309.187 175.557 295.315 184.514 295.315 184.514C295.315 184.514 292.993 206.019 294.985 215.712C296.976 225.405 295.248 272.525 295.248 272.525C295.248 272.525 281.906 272.66 273.542 274.85C265.179 277.041 254.824 274.85 254.824 274.85Z" fill="#67647E"/>
<path d="M274.474 220.104L284.694 258.797C284.694 258.797 286.088 262.25 293.257 259.594C300.425 256.938 321.27 248.312 321.27 248.312C321.27 248.312 323.126 245.257 319.677 239.618L309.255 209.085L274.474 220.104Z" fill="#B07473"/>
<path d="M287.701 237.213L304.229 219.041L314.783 214.76L319.112 236.611L299.051 258.415L287.701 237.213Z" fill="#E1E7EF"/>
<path d="M305.36 243.286C305.36 243.286 300.445 246.177 299.147 246.273C297.848 246.368 293.28 255.002 295.212 254.934C297.143 254.867 301.636 252.545 301.186 253.74C300.736 254.934 297.804 258.519 296.956 258.176C296.108 257.834 295.71 260.808 299.346 259.769C302.982 258.73 307.809 257.83 307.809 257.83C307.809 257.83 310.398 255.938 310.497 254.592C310.597 253.246 312.839 246.177 312.839 246.177L305.36 243.286Z" fill="#EFB7B9"/>
<path d="M226.459 141.336C226.459 141.336 230.713 132.153 233.254 129.118C235.795 126.084 246.878 122.818 247.989 123.714C249.101 124.61 242.414 129.64 241.219 130.285C240.024 130.93 248.937 136.924 249.121 137.055C249.304 137.187 256.09 136.454 252.605 138.744C249.121 141.034 238.817 143.363 238.817 143.363C238.123 143.243 237.412 143.266 236.728 143.431C236.043 143.595 235.399 143.897 234.835 144.319C232.839 145.765 226.459 141.336 226.459 141.336Z" fill="#EFB7B9"/>
<path opacity="0.1" d="M314.942 243.744C314.379 245.59 313.623 247.372 312.688 249.06C311.692 248.16 302.186 245.026 302.186 245.026L303.241 243.397L304.961 240.745C304.961 240.745 313.437 238.905 314.878 240.745C315.364 241.362 315.276 242.501 314.942 243.744Z" fill="black"/>
<path d="M315.34 243.346C314.777 245.192 314.022 246.974 313.086 248.662C312.09 247.762 302.584 244.628 302.584 244.628L303.639 242.999L305.36 240.347C305.36 240.347 313.835 238.507 315.276 240.347C315.762 240.964 315.675 242.103 315.34 243.346Z" fill="#A36468"/>
<path opacity="0.1" d="M236.173 143.407C235.868 144.091 235.508 144.748 235.098 145.374C233.564 147.792 231.243 150.643 231.243 150.643C231.243 150.643 222.186 146.478 222.186 146.294C222.186 146.111 224.934 141.782 227.168 138.369C228.072 136.991 228.889 135.773 229.407 135.06C229.407 135.06 232.788 142.133 236.125 142.18C237.017 142.192 236.536 142.543 236.173 143.407Z" fill="black"/>
<path d="M235.775 143.805C235.469 144.489 235.11 145.147 234.699 145.773C233.166 148.19 230.844 151.041 230.844 151.041C230.844 151.041 221.788 146.876 221.788 146.693C221.788 146.509 224.536 142.18 226.77 138.768C227.674 137.39 228.49 136.171 229.008 135.458C229.008 135.458 232.389 142.531 235.727 142.579C236.619 142.591 236.137 142.941 235.775 143.805Z" fill="#A36468"/>
<path d="M286.852 216.851L285.689 213.366L302.01 212.219L295.913 212.868L288.147 214.537L288.744 216.851H286.852Z" fill="#B07473"/>
<path opacity="0.1" d="M315.34 243.346C313.54 242.497 308.737 240.733 303.639 242.999L305.36 240.347C305.36 240.347 313.835 238.507 315.276 240.347C315.762 240.964 315.675 242.103 315.34 243.346Z" fill="black"/>
<path d="M316.292 221.829C316.252 222.406 316.216 222.984 316.181 223.557C316.081 225.313 316.013 227.054 315.969 228.734C315.77 236.516 316.093 242.935 316.093 242.935C316.093 242.935 309.92 239.22 303.348 242.338L302.695 229.746V229.527L302.022 224.019L299.84 206.23C299.84 206.23 295.726 181.539 294.463 180.611C293.201 179.683 303.822 159.703 303.822 159.703L309.255 164.139L312.64 186.971V198.651C312.64 198.651 317.021 211.343 316.292 221.829Z" fill="#67647E"/>
<path opacity="0.1" d="M235.974 143.244L234.699 145.773C233.166 148.19 230.844 151.041 230.844 151.041C230.844 151.041 221.788 146.876 221.788 146.693C221.788 146.509 224.536 142.181 226.77 138.768C227.459 137.991 227.877 137.533 227.877 137.533C225.221 144.104 235.974 143.244 235.974 143.244Z" fill="black"/>
<path d="M243.672 142.109L239.957 143.973C239.957 143.973 235.376 150.145 234.05 150.81C232.724 151.475 232.059 151.408 232.059 151.408L235.974 143.642C235.974 143.642 225.221 144.502 227.877 137.931C227.877 137.931 215.862 151.073 214.535 156.386C214.535 156.386 207.896 167.401 209.489 172.845C211.082 178.289 217.522 179.348 222.166 177.692C226.81 176.035 241.084 168.731 241.084 168.731L243.672 142.109Z" fill="#67647E"/>
<path opacity="0.1" d="M230.33 155.056C230.33 155.056 220.31 166.274 221.107 167.799C221.903 169.325 229.801 157.314 230.33 155.056Z" fill="black"/>
<path opacity="0.2" d="M275.569 124.857C275.569 124.857 289.672 120.608 297.637 135.94C305.603 151.272 305.87 152.336 305.471 153.064C305.073 153.793 289.608 149.747 288.744 151.539C287.88 153.331 297.506 160.699 297.506 160.699L260.2 188.974L275.876 155.665C276.926 153.332 278.327 151.174 280.03 149.265C282.607 146.382 286.131 141.965 284.881 140.603C283.782 139.409 282.025 136.291 279.652 132.702C277.923 130.074 275.163 127.103 275.569 124.857Z" fill="black"/>
<path d="M275.171 124.459C275.171 124.459 289.274 120.21 297.239 135.542C305.204 150.874 305.471 151.937 305.073 152.666C304.675 153.395 289.21 149.349 288.346 151.141C287.482 152.933 297.108 160.3 297.108 160.3L260.2 188.974L275.478 155.267C276.528 152.934 277.929 150.776 279.632 148.867C282.209 145.984 285.733 141.567 284.483 140.205C283.383 139.011 281.627 135.892 279.253 132.304C277.525 129.676 274.765 126.705 275.171 124.459Z" fill="#67647E"/>
<path opacity="0.1" d="M275.171 124.459C275.171 124.459 289.274 120.21 297.239 135.542C305.204 150.874 305.471 151.937 305.073 152.666C304.675 153.395 289.21 149.349 288.346 151.141C287.482 152.933 297.108 160.3 297.108 160.3L260.2 188.974L276.211 153.646C276.831 152.274 277.669 151.011 278.692 149.906C281.217 147.19 285.908 141.746 284.495 140.205C283.395 139.011 281.639 135.892 279.265 132.304C277.525 129.676 274.765 126.705 275.171 124.459Z" fill="black"/>
<path d="M278.058 194.748C279.671 194.748 280.978 193.441 280.978 191.829C280.978 190.217 279.671 188.91 278.058 188.91C276.446 188.91 275.139 190.217 275.139 191.829C275.139 193.441 276.446 194.748 278.058 194.748Z" fill="#444053"/>
<path d="M278.058 212.868C279.671 212.868 280.978 211.561 280.978 209.949C280.978 208.337 279.671 207.03 278.058 207.03C276.446 207.03 275.139 208.337 275.139 209.949C275.139 211.561 276.446 212.868 278.058 212.868Z" fill="#444053"/>
<path d="M315.969 228.734C314.289 229.132 306.319 228.953 302.695 229.746V229.527L302.022 224.019C306.108 223.509 314.99 222.542 316.192 223.557C317.75 224.883 317.973 228.276 315.969 228.734Z" fill="#67647E"/>
<path opacity="0.1" d="M315.969 229.132C314.289 229.531 306.319 229.351 302.695 230.144V229.925L302.022 224.417C306.108 223.907 314.99 222.94 316.192 223.955C317.75 225.281 317.973 228.674 315.969 229.132Z" fill="black"/>
<path opacity="0.1" d="M315.969 228.734C314.289 229.132 306.319 228.953 302.695 229.746V229.527L302.022 224.019C306.108 223.509 314.99 222.542 316.192 223.557C317.75 224.883 317.973 228.276 315.969 228.734Z" fill="black"/>
<path d="M314.233 227.838C315.205 227.838 315.993 227.05 315.993 226.078C315.993 225.106 315.205 224.318 314.233 224.318C313.261 224.318 312.473 225.106 312.473 226.078C312.473 227.05 313.261 227.838 314.233 227.838Z" fill="#444053"/>
<path opacity="0.1" d="M280.978 233.111L288.414 258.467C288.414 258.467 290.405 259.395 290.405 257.738C290.405 256.081 280.978 233.111 280.978 233.111Z" fill="white"/>
<path opacity="0.1" d="M278.122 129.799C277.653 130.176 277.162 130.526 276.653 130.847C274.124 132.44 271.874 134.602 268.652 134.602C266.862 134.605 265.085 134.313 263.391 133.738C261.869 127.824 260.137 122.734 260.137 122.734C260.137 122.734 279.604 104.523 278.19 119.413C277.692 124.662 277.378 127.163 278.122 129.799Z" fill="black"/>
<path d="M285.004 117.454C285.004 120.688 284.045 123.849 282.248 126.538C280.452 129.227 277.898 131.323 274.91 132.561C271.921 133.798 268.633 134.122 265.461 133.491C262.289 132.86 259.375 131.303 257.088 129.016C254.801 126.729 253.244 123.816 252.613 120.644C251.982 117.472 252.306 114.184 253.544 111.196C254.781 108.208 256.877 105.654 259.567 103.858C262.256 102.061 265.417 101.102 268.652 101.102C270.802 101.092 272.933 101.508 274.921 102.326C276.91 103.144 278.717 104.349 280.237 105.869C281.758 107.389 282.962 109.196 283.78 111.184C284.598 113.173 285.014 115.304 285.004 117.454V117.454Z" fill="#EFB7B9"/>
<path d="M259.384 131.137C259.23 131.509 258.963 131.823 258.619 132.033L256.023 133.626L251.168 136.577L243.485 141.245C243.305 141.351 243.121 141.45 242.936 141.543C242.035 142.001 241.042 142.246 240.032 142.26C239.022 142.273 238.022 142.056 237.109 141.623C236.419 141.313 235.813 140.844 235.341 140.254C234.868 139.664 234.542 138.97 234.389 138.23C234.184 137.199 234.271 136.132 234.638 135.147C235.005 134.163 235.638 133.3 236.468 132.655C236.508 132.618 236.558 132.593 236.611 132.583C238.246 132.121 239.784 131.368 241.151 130.361L245.986 127.016L250.303 123.069L252.486 121.56C252.806 121.338 253.183 121.213 253.572 121.198C253.961 121.184 254.345 121.282 254.68 121.48C256.931 122.758 261.375 126.108 259.384 131.137Z" fill="#E1E7EF"/>
<path d="M256.023 133.606L251.168 136.557C250.156 132.479 247.583 129.6 245.349 127.426L250.304 123.045C254.071 124.913 255.569 131.153 256.023 133.606Z" fill="#A36468"/>
<path opacity="0.1" d="M242.936 141.523C242.035 141.981 241.042 142.226 240.032 142.24C239.021 142.254 238.022 142.036 237.109 141.603C236.419 141.293 235.813 140.824 235.341 140.234C234.868 139.644 234.542 138.95 234.389 138.21C234.184 137.179 234.271 136.112 234.638 135.128C235.005 134.143 235.638 133.28 236.468 132.635C237.674 133.145 238.79 133.846 239.773 134.71C241.146 135.898 242.14 137.462 242.633 139.21C242.828 139.966 242.93 140.743 242.936 141.523V141.523Z" fill="black"/>
<path opacity="0.1" d="M285.004 117.454C285.008 119.835 284.488 122.188 283.483 124.347C282.496 125.33 281.745 126.522 281.285 127.836C280.177 129.182 279.739 129.943 278.262 130.874C277.668 130.249 276.334 129.871 276.091 129.062C275.474 126.98 275.824 124.754 275.856 122.583C275.856 121.619 275.721 120.48 274.872 120.018C274.168 119.62 273.279 119.907 272.586 120.297C271.893 120.687 271.204 121.193 270.408 121.285C269.213 121.42 268.122 120.58 267.453 119.592C266.784 118.605 266.397 117.45 265.764 116.438C264.928 115.104 263.693 114.081 262.478 113.085C261.089 111.938 259.738 110.668 258.257 109.64C257.373 109.023 256.313 108.736 255.441 108.115L255.302 108.011C257.306 105.178 260.16 103.056 263.451 101.952C266.742 100.849 270.298 100.82 273.606 101.872C276.914 102.923 279.801 105 281.85 107.801C283.899 110.603 285.004 113.983 285.004 117.454V117.454Z" fill="black"/>
<path d="M252.785 99.3816C253.131 97.0837 255.027 94.9292 257.349 94.8894C259.264 94.8575 260.897 96.1558 262.594 97.0439C264.331 97.9391 266.244 98.4391 268.197 98.508C270.149 98.5768 272.093 98.2128 273.889 97.4421C274.932 96.9881 275.988 96.3788 277.123 96.4704C278.258 96.562 279.166 97.3067 279.95 98.0634C281.814 99.9067 283.275 102.117 284.24 104.555C284.522 105.272 284.781 106.036 285.331 106.574C285.75 106.925 286.207 107.228 286.693 107.478C287.526 108.03 288.239 108.743 288.792 109.576C289.345 110.408 289.725 111.343 289.911 112.324C290.272 114.298 290.069 116.334 289.326 118.198C288.885 119.482 288.157 120.647 287.199 121.607C286.474 122.288 285.606 122.802 284.845 123.439C283.605 124.492 282.66 125.848 282.102 127.376C281.543 128.903 281.391 130.549 281.659 132.153C279.54 132.643 277.509 130.743 276.88 128.664C276.25 126.585 276.613 124.355 276.645 122.185C276.645 121.221 276.509 120.082 275.661 119.62C274.956 119.222 274.068 119.509 273.375 119.899C272.682 120.289 271.993 120.795 271.196 120.887C270.002 121.022 268.91 120.186 268.241 119.194C267.572 118.202 267.19 117.052 266.553 116.04C265.72 114.706 264.482 113.682 263.267 112.687C261.877 111.544 260.527 110.269 259.049 109.242C258.161 108.625 257.102 108.338 256.23 107.717C253.597 105.829 252.785 102.388 252.785 99.3816Z" fill="#585268"/>
<path opacity="0.1" d="M265.446 126.705C265.446 126.705 265.223 126.757 264.836 126.865C265.021 126.758 265.232 126.703 265.446 126.705V126.705Z" fill="black"/>
<g opacity="0.1">
<path opacity="0.1" d="M277.684 127.362C277.067 125.279 277.417 123.053 277.449 120.883C277.449 119.919 277.314 118.78 276.465 118.318C275.761 117.92 274.872 118.21 274.179 118.597C273.486 118.983 272.797 119.493 272.001 119.584C270.806 119.72 269.715 118.883 269.046 117.896C268.377 116.908 267.994 115.749 267.357 114.738C266.521 113.408 265.286 112.384 264.071 111.385C262.682 110.242 261.331 108.967 259.854 107.94C258.966 107.322 257.906 107.04 257.034 106.415C254.394 104.527 253.581 101.086 253.581 98.0793C253.671 97.5086 253.848 96.9552 254.107 96.4386C253.41 97.2476 252.952 98.235 252.785 99.29C252.785 102.297 253.581 105.737 256.238 107.625C257.11 108.25 258.169 108.533 259.057 109.15C260.535 110.178 261.885 111.452 263.275 112.595C264.49 113.595 265.724 114.618 266.561 115.948C267.198 116.96 267.576 118.119 268.249 119.106C268.922 120.094 270.018 120.93 271.204 120.795C272.001 120.703 272.678 120.194 273.383 119.807C274.088 119.421 274.976 119.146 275.669 119.529C276.517 119.991 276.669 121.122 276.653 122.093C276.621 124.264 276.254 126.474 276.888 128.573C277.521 130.671 279.54 132.555 281.667 132.061C281.601 131.687 281.558 131.31 281.539 130.93C279.771 130.775 278.214 129.138 277.684 127.362Z" fill="black"/>
<path opacity="0.1" d="M287.995 120.305C287.271 120.99 286.402 121.5 285.642 122.137C284.803 122.84 284.1 123.691 283.567 124.646C283.944 124.163 284.373 123.722 284.845 123.332C285.61 122.695 286.474 122.185 287.199 121.5C287.776 120.943 288.265 120.301 288.648 119.596C288.448 119.848 288.229 120.084 287.995 120.305V120.305Z" fill="black"/>
</g>
<path opacity="0.1" d="M265.987 262.461C265.696 263.325 265.282 264.17 265.226 265.082C265.131 266.635 266.079 268.076 266.146 269.634C266.226 271.438 265.127 273.058 264.075 274.532C265.322 274.532 266.684 274.098 267.317 273.027C267.532 272.613 267.689 272.173 267.783 271.716C268.91 267.22 270.006 262.302 268.046 258.104C267.743 257.38 267.304 256.72 266.752 256.161C266.421 258.28 266.7 260.362 265.987 262.461Z" fill="black"/>
<path opacity="0.1" d="M234.835 230.729L231.525 226.265C230.729 225.186 229.904 224.063 229.617 222.753C229.307 221.315 229.669 219.826 229.717 218.372C229.717 218.209 229.717 218.041 229.717 217.874C229.762 217.778 229.812 217.685 229.868 217.595C230.291 216.902 230.757 215.521 231.246 213.673C231.729 214.152 232.104 214.729 232.346 215.365C233.887 219.125 232.461 223.537 233.736 227.392C234.102 228.499 234.699 229.559 234.835 230.729Z" fill="black"/>
<path opacity="0.1" d="M243.258 365.868C244.894 367.04 246.762 367.848 248.736 368.239C250.71 368.63 252.745 368.594 254.704 368.134" fill="black"/>
<path opacity="0.1" d="M270.683 366.526C271.52 367.31 272.509 367.914 273.589 368.301C274.67 368.688 275.818 368.849 276.963 368.774C278.107 368.699 279.225 368.391 280.246 367.867C281.267 367.343 282.169 366.615 282.897 365.729" fill="black"/>
<path opacity="0.1" d="M253.207 306.491C251.618 306.859 249.953 306.701 248.461 306.042C246.97 305.383 245.732 304.257 244.935 302.835" fill="black"/>
<path opacity="0.1" d="M272.085 316.554C274.608 316.741 277.119 316.052 279.194 314.603Z" fill="black"/>
<path opacity="0.1" d="M259.201 340.608C257.078 341.468 255.182 342.814 253.115 343.794C251.048 344.774 248.655 345.415 246.468 344.73" fill="black"/>
<path d="M220.537 222.796H218.048V298.781H220.537V222.796Z" fill="#9D9CB5"/>
<path d="M228.271 222.796H225.778V298.781H228.271V222.796Z" fill="#9D9CB5"/>
<path d="M212.54 376.979C214.891 376.979 216.797 375.073 216.797 372.722C216.797 370.371 214.891 368.465 212.54 368.465C210.189 368.465 208.282 370.371 208.282 372.722C208.282 375.073 210.189 376.979 212.54 376.979Z" fill="#535461"/>
<path d="M197.474 295.276C197.474 295.276 201.719 291.823 205.439 293.018C209.159 294.213 218.845 295.408 220.573 301.513C222.301 307.618 220.573 374.658 220.573 374.658C220.573 374.658 212.325 376.8 210.083 375.721C207.84 374.642 208.091 364.57 208.091 364.57L207.43 305.117L197.474 295.276Z" fill="#FCC90E"/>
<path opacity="0.1" d="M197.474 295.276C197.474 295.276 201.719 291.823 205.439 293.018C209.159 294.213 218.845 295.408 220.573 301.513C222.301 307.618 220.573 374.658 220.573 374.658C220.573 374.658 212.325 376.8 210.083 375.721C207.84 374.642 208.091 364.57 208.091 364.57L207.43 305.117L197.474 295.276Z" fill="black"/>
<path d="M236.105 371.225L218.235 375.207L218.048 372.021L217.933 309.47C217.927 306.547 217.25 303.665 215.953 301.045C214.656 298.426 212.774 296.14 210.453 294.364C210.453 294.364 219.705 294.241 226.782 297.439C228.295 298.12 229.813 298.789 231.37 299.362C233.302 300.075 235.922 301.592 236.089 304.587C236.305 308.49 237.053 347.151 237.32 361.225C237.389 364.599 236.98 367.966 236.105 371.225V371.225Z" fill="#FCC90E"/>
<path d="M221.039 217.153H216.889V223.657H221.039V217.153Z" fill="#535461"/>
<path opacity="0.1" d="M221.039 217.153H216.889V223.657H221.039V217.153Z" fill="black"/>
<path d="M228.837 218.181H224.687V224.684H228.837V218.181Z" fill="#535461"/>
<path d="M228.833 218.181H224.671C223.896 218.201 223.143 218.438 222.497 218.867C221.851 219.295 221.339 219.896 221.019 220.602C220.959 220.73 220.904 220.861 220.852 221L219.936 220.116L218.032 218.276L216.869 217.153C216.869 217.153 224.552 213.27 228.833 218.181Z" fill="#535461"/>
<path d="M230.645 379.978C232.996 379.978 234.903 378.072 234.903 375.721C234.903 373.37 232.996 371.464 230.645 371.464C228.294 371.464 226.388 373.37 226.388 375.721C226.388 378.072 228.294 379.978 230.645 379.978Z" fill="#535461"/>
<path d="M186.685 374.168C189.036 374.168 190.942 372.262 190.942 369.911C190.942 367.559 189.036 365.653 186.685 365.653C184.333 365.653 182.427 367.559 182.427 369.911C182.427 372.262 184.333 374.168 186.685 374.168Z" fill="#535461"/>
<path d="M194.686 294.364C194.686 294.364 182.602 297.55 181.941 327.952C181.28 358.354 181.145 361.536 181.145 361.536C181.145 361.536 181.408 370.297 199.198 375.741H210.083L211.811 305.913C211.811 305.913 209.82 295.276 194.686 294.364Z" fill="#FCC90E"/>
<path opacity="0.1" d="M193.606 341.472C193.606 341.472 190.512 298.964 207.195 298.781L208.76 300.302C208.76 300.302 194.152 295.009 193.606 341.472Z" fill="black"/>
<path d="M201.122 383.69C203.473 383.69 205.379 381.784 205.379 379.433C205.379 377.081 203.473 375.175 201.122 375.175C198.77 375.175 196.864 377.081 196.864 379.433C196.864 381.784 198.77 383.69 201.122 383.69Z" fill="#535461"/>
<path opacity="0.1" d="M224.731 218.157C224.732 218.165 224.732 218.173 224.731 218.181H224.671C223.896 218.201 223.143 218.438 222.497 218.867C221.851 219.295 221.339 219.896 221.019 220.602C220.959 220.73 220.903 220.861 220.852 221L219.936 220.116C219.93 220.038 219.93 219.959 219.936 219.881C220.019 219.262 220.343 218.7 220.836 218.316C221.31 217.923 221.878 217.659 222.484 217.55C223.09 217.44 223.715 217.489 224.297 217.691C224.532 217.767 224.775 217.934 224.731 218.157Z" fill="black"/>
</g>
</g>
<defs>
<linearGradient id="paint0_linear" x1="265.505" y1="380.795" x2="265.505" y2="93.6429" gradientUnits="userSpaceOnUse">
<stop stop-color="#808080" stop-opacity="0.25"/>
<stop offset="0.54" stop-color="#808080" stop-opacity="0.12"/>
<stop offset="1" stop-color="#808080" stop-opacity="0.1"/>
</linearGradient>
<clipPath id="clip0">
<rect width="382" height="326" fill="white" transform="translate(50 78)"/>
</clipPath>
</defs>
</svg>
