<svg width="482" height="482" viewBox="0 0 482 482" fill="none" xmlns="http://www.w3.org/2000/svg">
<circle cx="241" cy="241" r="233.5" fill="#F3F6FF" stroke="#CDD2E3" stroke-width="15"/>
<mask id="mask0" mask-type="alpha" maskUnits="userSpaceOnUse" x="15" y="15" width="452" height="452">
<circle cx="241" cy="241" r="226" fill="#F3F6FF"/>
</mask>
<g mask="url(#mask0)">
<g clip-path="url(#clip0)">
<path opacity="0.1" d="M103.006 127.908C100.78 130.61 99.923 134.41 98.9643 137.982C91.2462 166.77 72.2273 189.926 50.5679 206.465C41.3956 213.471 30.2288 222.867 32.2355 235.428C33.316 242.174 38.0565 247.14 41.5784 252.634C48.9674 264.139 51.3641 279.776 47.8422 293.548C43.8369 309.218 32.6417 323.84 36.1067 339.685C38.2434 349.438 45.4984 356.379 52.4731 362.344C63.3542 371.645 74.582 380.358 86.1564 388.483C93.915 393.928 102.169 399.227 111.212 399.918C119.173 400.528 126.973 397.5 134.532 394.513C141.137 391.9 147.909 389.182 153.243 383.948C156.724 380.53 159.498 376.121 163.366 373.325C172.448 366.758 184.115 370.919 194.53 373.731C219.106 380.331 245.409 377.921 268.794 366.928C304.667 350.064 332.009 314.648 367.098 295.645C382.185 287.473 398.596 282.401 412.566 271.876C420.436 265.883 427.2 258.562 432.552 250.24C443.113 233.941 448.824 213.158 447.175 192.815C445.526 172.472 436.285 152.868 421.771 141.384C406.233 129.091 386.609 126.794 368.93 119.415C350.683 111.783 334.443 98.673 316.37 90.5007C301.737 83.8985 285.812 80.6581 269.763 81.0174C253.715 81.3768 237.951 85.3267 223.627 92.5773C203.946 102.534 184.005 125.762 162.086 127.526C146.471 128.745 115.201 113.108 103.006 127.908Z" fill="#FCC90E"/>
<path d="M384.647 222.046C384.647 222.046 378.732 201.951 385.756 187.163C388.743 180.978 389.644 173.991 388.323 167.25C387.671 164.055 386.727 160.926 385.504 157.903" stroke="#535461" stroke-width="2" stroke-miterlimit="10"/>
<path d="M389.895 148.561C389.895 151.023 385.427 158.163 385.427 158.163C385.427 158.163 380.958 151.023 380.958 148.561C380.913 147.947 380.995 147.332 381.198 146.751C381.401 146.171 381.722 145.639 382.141 145.189C382.559 144.738 383.065 144.379 383.629 144.133C384.192 143.887 384.8 143.761 385.415 143.761C386.029 143.761 386.637 143.887 387.201 144.133C387.764 144.379 388.271 144.738 388.689 145.189C389.107 145.639 389.428 146.171 389.631 146.751C389.835 147.332 389.916 147.947 389.871 148.561H389.895Z" fill="#FCC90E"/>
<path d="M397.244 162.199C395.907 164.267 388.27 167.839 388.27 167.839C388.27 167.839 388.408 159.423 389.745 157.355C390.425 156.451 391.422 155.838 392.535 155.64C393.649 155.443 394.796 155.675 395.745 156.29C396.694 156.905 397.375 157.857 397.65 158.954C397.925 160.052 397.774 161.212 397.227 162.203L397.244 162.199Z" fill="#FCC90E"/>
<path d="M396.922 185.513C394.725 186.622 386.361 185.854 386.361 185.854C386.361 185.854 390.728 178.657 392.925 177.548C393.967 177.115 395.134 177.093 396.192 177.485C397.25 177.877 398.12 178.656 398.628 179.663C399.136 180.671 399.244 181.834 398.931 182.918C398.618 184.002 397.906 184.928 396.939 185.509L396.922 185.513Z" fill="#FCC90E"/>
<path d="M392.71 203.113C390.732 204.576 382.34 205.238 382.34 205.238C382.34 205.238 385.427 197.407 387.409 195.94C388.363 195.361 389.499 195.159 390.595 195.375C391.69 195.591 392.664 196.21 393.327 197.109C393.989 198.008 394.291 199.122 394.173 200.233C394.055 201.343 393.526 202.369 392.69 203.109L392.71 203.113Z" fill="#FCC90E"/>
<path d="M378.927 168.315C380.694 170.03 388.92 171.81 388.92 171.81C388.92 171.81 386.889 163.637 385.138 161.918C384.73 161.46 384.231 161.091 383.674 160.834C383.117 160.577 382.512 160.438 381.899 160.425C381.285 160.412 380.676 160.525 380.108 160.758C379.54 160.992 379.026 161.339 378.599 161.779C378.171 162.22 377.839 162.744 377.622 163.318C377.406 163.893 377.31 164.505 377.341 165.119C377.372 165.732 377.529 166.332 377.802 166.882C378.074 167.432 378.458 167.92 378.927 168.315V168.315Z" fill="#FCC90E"/>
<path d="M374.26 188.943C376.458 190.052 384.822 189.284 384.822 189.284C384.822 189.284 380.455 182.087 378.257 180.978C377.215 180.545 376.048 180.522 374.99 180.915C373.932 181.307 373.062 182.085 372.554 183.093C372.046 184.101 371.938 185.264 372.251 186.348C372.565 187.432 373.276 188.358 374.244 188.939L374.26 188.943Z" fill="#FCC90E"/>
<path d="M372.473 209.615C374.451 211.078 382.843 211.74 382.843 211.74C382.843 211.74 379.756 203.91 377.774 202.443C377.309 202.031 376.764 201.722 376.173 201.533C375.582 201.344 374.959 201.28 374.342 201.346C373.725 201.411 373.128 201.604 372.59 201.913C372.052 202.222 371.584 202.639 371.216 203.139C370.848 203.638 370.588 204.209 370.453 204.815C370.317 205.42 370.309 206.047 370.43 206.656C370.55 207.265 370.795 207.842 371.15 208.351C371.506 208.86 371.963 209.289 372.493 209.611L372.473 209.615Z" fill="#FCC90E"/>
<path opacity="0.1" d="M389.895 148.561C389.895 151.023 385.427 158.163 385.427 158.163C385.427 158.163 380.958 151.023 380.958 148.561C380.913 147.947 380.995 147.332 381.198 146.751C381.401 146.171 381.722 145.639 382.141 145.189C382.559 144.738 383.065 144.379 383.629 144.133C384.192 143.887 384.8 143.761 385.415 143.761C386.029 143.761 386.637 143.887 387.201 144.133C387.764 144.379 388.271 144.738 388.689 145.189C389.107 145.639 389.428 146.171 389.631 146.751C389.835 147.332 389.916 147.947 389.871 148.561H389.895Z" fill="#FCC90E"/>
<path opacity="0.1" d="M397.244 162.199C395.907 164.267 388.27 167.839 388.27 167.839C388.27 167.839 388.408 159.423 389.745 157.355C390.425 156.451 391.422 155.838 392.535 155.64C393.649 155.443 394.796 155.675 395.745 156.29C396.694 156.905 397.375 157.857 397.65 158.954C397.925 160.052 397.774 161.212 397.227 162.203L397.244 162.199Z" fill="#FCC90E"/>
<path opacity="0.1" d="M396.922 185.513C394.725 186.622 386.361 185.854 386.361 185.854C386.361 185.854 390.728 178.657 392.925 177.548C393.967 177.115 395.134 177.093 396.192 177.485C397.25 177.877 398.12 178.656 398.628 179.663C399.136 180.671 399.244 181.834 398.931 182.918C398.618 184.002 397.906 184.928 396.939 185.509L396.922 185.513Z" fill="#FCC90E"/>
<path opacity="0.1" d="M392.71 203.113C390.732 204.576 382.34 205.238 382.34 205.238C382.34 205.238 385.427 197.407 387.409 195.94C388.363 195.361 389.499 195.159 390.595 195.375C391.69 195.591 392.664 196.21 393.327 197.109C393.989 198.008 394.291 199.122 394.173 200.233C394.055 201.343 393.526 202.369 392.69 203.109L392.71 203.113Z" fill="#FCC90E"/>
<path opacity="0.1" d="M378.927 168.315C380.694 170.03 388.92 171.81 388.92 171.81C388.92 171.81 386.889 163.637 385.138 161.918C384.73 161.46 384.231 161.091 383.674 160.834C383.117 160.577 382.512 160.438 381.899 160.425C381.285 160.412 380.676 160.525 380.108 160.758C379.54 160.992 379.026 161.339 378.599 161.779C378.171 162.22 377.839 162.744 377.622 163.318C377.406 163.893 377.31 164.505 377.341 165.119C377.372 165.732 377.529 166.332 377.802 166.882C378.074 167.432 378.458 167.92 378.927 168.315V168.315Z" fill="#FCC90E"/>
<path opacity="0.1" d="M374.26 188.943C376.458 190.052 384.822 189.284 384.822 189.284C384.822 189.284 380.455 182.087 378.257 180.978C377.215 180.545 376.048 180.522 374.99 180.915C373.932 181.307 373.062 182.085 372.554 183.093C372.046 184.101 371.938 185.264 372.251 186.348C372.565 187.432 373.276 188.358 374.244 188.939L374.26 188.943Z" fill="#FCC90E"/>
<path opacity="0.1" d="M372.473 209.615C374.451 211.078 382.843 211.74 382.843 211.74C382.843 211.74 379.756 203.91 377.774 202.443C377.309 202.031 376.764 201.722 376.173 201.533C375.582 201.344 374.959 201.28 374.342 201.346C373.725 201.411 373.128 201.604 372.59 201.913C372.052 202.222 371.584 202.639 371.216 203.139C370.848 203.638 370.588 204.209 370.453 204.815C370.317 205.42 370.309 206.047 370.43 206.656C370.55 207.265 370.795 207.842 371.15 208.351C371.506 208.86 371.963 209.289 372.493 209.611L372.473 209.615Z" fill="#FCC90E"/>
<path d="M409.426 254.15C409.426 254.15 403.511 234.055 410.535 219.267C413.522 213.082 414.423 206.095 413.102 199.354C412.45 196.159 411.506 193.03 410.283 190.007" stroke="#535461" stroke-width="2" stroke-miterlimit="10"/>
<path d="M414.674 180.665C414.674 183.127 410.206 190.267 410.206 190.267C410.206 190.267 405.738 183.127 405.738 180.665C405.692 180.051 405.774 179.436 405.977 178.855C406.181 178.275 406.501 177.743 406.92 177.293C407.338 176.842 407.844 176.483 408.408 176.237C408.971 175.991 409.579 175.865 410.194 175.865C410.808 175.865 411.416 175.991 411.98 176.237C412.543 176.483 413.05 176.842 413.468 177.293C413.886 177.743 414.207 178.275 414.41 178.855C414.614 179.436 414.695 180.051 414.65 180.665H414.674Z" fill="#FCC90E"/>
<path d="M422.023 194.303C420.686 196.371 413.066 199.939 413.066 199.939C413.066 199.939 413.204 191.523 414.54 189.455C414.837 188.918 415.24 188.447 415.726 188.073C416.212 187.699 416.77 187.429 417.365 187.28C417.959 187.131 418.579 187.105 419.183 187.206C419.788 187.306 420.366 187.53 420.881 187.864C421.395 188.197 421.836 188.633 422.175 189.144C422.514 189.655 422.744 190.231 422.851 190.835C422.959 191.439 422.94 192.058 422.798 192.655C422.655 193.252 422.391 193.813 422.023 194.303V194.303Z" fill="#FCC90E"/>
<path d="M421.702 217.617C419.504 218.726 411.14 217.958 411.14 217.958C411.14 217.958 415.507 210.761 417.705 209.652C418.231 209.335 418.818 209.131 419.427 209.051C420.036 208.972 420.656 209.019 421.246 209.19C421.836 209.361 422.385 209.651 422.858 210.044C423.331 210.436 423.718 210.922 423.994 211.471C424.271 212.02 424.432 212.62 424.466 213.234C424.5 213.848 424.408 214.462 424.194 215.038C423.981 215.615 423.65 216.141 423.224 216.584C422.798 217.027 422.285 217.377 421.718 217.613L421.702 217.617Z" fill="#FCC90E"/>
<path d="M417.489 235.217C415.511 236.68 407.119 237.342 407.119 237.342C407.119 237.342 410.206 229.511 412.188 228.044C413.142 227.465 414.279 227.263 415.374 227.479C416.469 227.695 417.443 228.314 418.106 229.213C418.768 230.112 419.07 231.226 418.952 232.337C418.834 233.447 418.305 234.473 417.469 235.213L417.489 235.217Z" fill="#FCC90E"/>
<path d="M403.706 200.419C405.474 202.134 413.699 203.914 413.699 203.914C413.699 203.914 411.668 195.741 409.918 194.022C409.053 193.295 407.945 192.922 406.816 192.978C405.688 193.035 404.623 193.518 403.836 194.328C403.049 195.139 402.598 196.218 402.574 197.348C402.55 198.478 402.954 199.575 403.706 200.419V200.419Z" fill="#FCC90E"/>
<path d="M399.039 221.047C401.237 222.156 409.601 221.388 409.601 221.388C409.601 221.388 405.234 214.191 403.036 213.082C401.994 212.649 400.827 212.626 399.769 213.019C398.712 213.411 397.841 214.189 397.333 215.197C396.825 216.205 396.717 217.368 397.03 218.452C397.344 219.536 398.055 220.462 399.023 221.043L399.039 221.047Z" fill="#FCC90E"/>
<path d="M397.252 241.719C399.23 243.182 407.622 243.844 407.622 243.844C407.622 243.844 404.535 236.014 402.553 234.547C402.088 234.135 401.543 233.826 400.952 233.637C400.361 233.448 399.738 233.384 399.121 233.45C398.504 233.515 397.907 233.708 397.369 234.017C396.831 234.326 396.363 234.743 395.995 235.243C395.627 235.742 395.367 236.313 395.232 236.919C395.096 237.524 395.088 238.151 395.209 238.76C395.329 239.369 395.574 239.946 395.929 240.455C396.285 240.964 396.742 241.393 397.272 241.715L397.252 241.719Z" fill="#FCC90E"/>
<path opacity="0.1" d="M414.674 180.665C414.674 183.127 410.206 190.267 410.206 190.267C410.206 190.267 405.738 183.127 405.738 180.665C405.692 180.051 405.774 179.436 405.977 178.855C406.181 178.275 406.501 177.743 406.92 177.293C407.338 176.842 407.844 176.483 408.408 176.237C408.971 175.991 409.579 175.865 410.194 175.865C410.808 175.865 411.416 175.991 411.98 176.237C412.543 176.483 413.05 176.842 413.468 177.293C413.886 177.743 414.207 178.275 414.41 178.855C414.614 179.436 414.695 180.051 414.65 180.665H414.674Z" fill="#FCC90E"/>
<path opacity="0.1" d="M422.023 194.303C420.686 196.371 413.066 199.939 413.066 199.939C413.066 199.939 413.204 191.523 414.54 189.455C414.837 188.918 415.24 188.447 415.726 188.073C416.212 187.699 416.77 187.429 417.365 187.28C417.959 187.131 418.579 187.105 419.183 187.206C419.788 187.306 420.366 187.53 420.881 187.864C421.395 188.197 421.836 188.633 422.175 189.144C422.514 189.655 422.744 190.231 422.851 190.835C422.959 191.439 422.94 192.058 422.798 192.655C422.655 193.252 422.391 193.813 422.023 194.303V194.303Z" fill="#FCC90E"/>
<path opacity="0.1" d="M421.702 217.617C419.504 218.726 411.14 217.958 411.14 217.958C411.14 217.958 415.507 210.761 417.705 209.652C418.231 209.335 418.818 209.131 419.427 209.051C420.036 208.972 420.656 209.019 421.246 209.19C421.836 209.361 422.385 209.651 422.858 210.044C423.331 210.436 423.718 210.922 423.994 211.471C424.271 212.02 424.432 212.62 424.466 213.234C424.5 213.848 424.408 214.462 424.194 215.038C423.981 215.615 423.65 216.141 423.224 216.584C422.798 217.027 422.285 217.377 421.718 217.613L421.702 217.617Z" fill="#FCC90E"/>
<path opacity="0.1" d="M417.489 235.217C415.511 236.68 407.119 237.342 407.119 237.342C407.119 237.342 410.206 229.511 412.188 228.044C413.142 227.465 414.279 227.263 415.374 227.479C416.469 227.695 417.443 228.314 418.106 229.213C418.768 230.112 419.07 231.226 418.952 232.337C418.834 233.447 418.305 234.473 417.469 235.213L417.489 235.217Z" fill="#FCC90E"/>
<path opacity="0.1" d="M403.706 200.419C405.474 202.134 413.699 203.914 413.699 203.914C413.699 203.914 411.668 195.741 409.918 194.022C409.053 193.295 407.945 192.922 406.816 192.978C405.688 193.035 404.623 193.518 403.836 194.328C403.049 195.139 402.598 196.218 402.574 197.348C402.55 198.478 402.954 199.575 403.706 200.419V200.419Z" fill="#FCC90E"/>
<path opacity="0.1" d="M399.039 221.047C401.237 222.156 409.601 221.388 409.601 221.388C409.601 221.388 405.234 214.191 403.036 213.082C401.994 212.649 400.827 212.626 399.769 213.019C398.712 213.411 397.841 214.189 397.333 215.197C396.825 216.205 396.717 217.368 397.03 218.452C397.344 219.536 398.055 220.462 399.023 221.043L399.039 221.047Z" fill="#FCC90E"/>
<path opacity="0.1" d="M397.252 241.719C399.23 243.182 407.622 243.844 407.622 243.844C407.622 243.844 404.535 236.014 402.553 234.547C402.088 234.135 401.543 233.826 400.952 233.637C400.361 233.448 399.738 233.384 399.121 233.45C398.504 233.515 397.907 233.708 397.369 234.017C396.831 234.326 396.363 234.743 395.995 235.243C395.627 235.742 395.367 236.313 395.232 236.919C395.096 237.524 395.088 238.151 395.209 238.76C395.329 239.369 395.574 239.946 395.929 240.455C396.285 240.964 396.742 241.393 397.272 241.715L397.252 241.719Z" fill="#FCC90E"/>
<path opacity="0.1" d="M251.333 321.337C361.668 310.573 449.708 287.443 447.976 269.676C446.244 251.908 355.395 246.231 245.06 256.996C134.726 267.76 46.6856 290.89 48.4176 308.657C50.1496 326.425 140.998 332.102 251.333 321.337Z" fill="#FCC90E"/>
<path d="M430.59 272.506C438.101 257.105 436.549 232.035 435.749 223.526C435.574 221.664 435.436 220.596 435.436 220.596C435.436 220.596 428.814 219.551 431.256 211.533C432.45 207.608 428.209 205.438 423.578 204.247C420.267 203.455 416.889 202.977 413.488 202.82L349.351 198.858C340.556 184.895 323.252 187.138 323.252 187.138C323.252 187.138 307.815 185.533 296.872 185.366C295.211 183.903 293.391 182.631 291.445 181.575C290.286 180.878 289.051 180.315 287.765 179.897C286.201 179.445 284.553 179.366 282.953 179.666C281.354 179.966 279.846 180.636 278.552 181.624C277.921 182.078 277.407 182.675 277.053 183.367C276.916 183.682 276.814 184.01 276.748 184.346C276.583 184.92 276.448 185.502 276.342 186.09C276.247 186.373 276.11 186.64 275.936 186.882C275.497 187.504 274.741 187.971 274.644 188.723C274.642 188.766 274.642 188.81 274.644 188.853C274.564 188.997 274.51 189.154 274.486 189.316C274.456 189.651 274.528 189.987 274.693 190.28C274.717 190.328 274.746 190.373 274.774 190.418C274.234 191.2 273.793 192.046 273.462 192.937C273.312 193.019 273.166 193.11 273.027 193.21L272.905 193.299V193.547L272.836 193.6L272.686 197.603L272.771 197.668C272.894 199.535 273.457 201.346 274.415 202.954C275.372 204.562 276.697 205.92 278.28 206.917C278.332 207.173 278.381 207.433 278.43 207.705C278.653 209.018 278.754 210.348 278.731 211.68H278.661C276.752 210.867 273.486 212.062 270.679 213.455H234.315C241.408 204.328 250.084 197.249 250.084 197.249V189.227C243.885 188.918 189.428 215.089 177.49 220.868L176.962 221.124L115.603 223.026C104.489 222.957 94.7723 224.59 86.3555 227.252C72.2906 231.672 59.6516 239.75 49.7312 250.659C42.4844 258.616 39.3078 265.192 39.3078 265.192L39.3768 265.744L39.3078 265.887L39.4053 265.972L41.0585 279.025L42.1959 288.006C34.291 293.118 44.5317 295.166 44.5317 295.166C54.2808 303.53 69.9648 303.184 69.9648 303.184C73.7954 308.414 84.9459 307.715 84.9459 307.715H143.477C144.389 302.339 145.61 297.02 147.133 291.785C149.632 309.784 163.829 323.572 180.963 323.572C182.234 323.571 183.503 323.494 184.765 323.341C186.027 323.494 187.296 323.571 188.567 323.572C205.9 323.572 220.223 309.459 222.478 291.159H225.342C224.807 295.248 223.878 299.275 222.567 303.184C275.176 287.847 373.078 280.528 373.078 280.528C373.484 276.668 373.931 272.937 374.414 269.357C378.448 279.374 387.592 286.368 398.235 286.368C399.201 286.367 400.167 286.307 401.127 286.189C402.087 286.307 403.052 286.367 404.019 286.368C416.657 286.368 427.173 276.505 429.546 263.428C429.86 265.736 430.039 268.06 430.082 270.389C429.631 272.608 429.237 274.026 429.184 274.225C429.501 273.646 429.802 273.052 430.086 272.446C430.086 272.681 430.086 272.925 430.086 273.169C429.988 273.575 429.919 273.803 429.899 273.88L430.078 273.547C430.078 273.726 430.078 273.9 430.078 274.079C430.037 274.095 430.253 273.51 430.59 272.506Z" fill="url(#paint0_linear)"/>
<path d="M424.452 217.166H303.847V265.838H424.452V217.166Z" fill="#6F7D95"/>
<path d="M273.182 194.372L290.312 232.763L324.235 230.706L325.604 214.939L326.631 196.428L278.666 192.998L273.182 194.372Z" fill="#4B5C7A"/>
<path d="M273.182 194.372C273.182 194.372 279.681 188.203 287.574 186.829C295.467 185.456 321.838 188.199 321.838 188.199L325.608 194.701L324.901 197.798L273.182 194.372Z" fill="#FF4D52"/>
<path d="M337.766 214.081H216.133V249.729H337.766V214.081Z" fill="#4B5C7A"/>
<path d="M307.84 238.334C311.053 227.585 304.647 220.522 304.647 220.522L294.029 213.11C294.02 213.135 294.009 213.16 293.996 213.183C292.615 211.564 291.627 209.648 291.108 207.583C291.075 207.453 291.047 207.319 291.014 207.177C291.985 206.455 292.835 205.584 293.533 204.596C295.263 203.536 296.035 201.829 296.328 200.126C297.441 198.473 298.328 196.679 298.964 194.79C299.069 194.485 299.159 194.174 299.232 193.86C299.437 193.274 299.528 192.655 299.5 192.035C299.414 191.345 299.184 190.681 298.826 190.085C297.039 186.833 293.821 184.57 290.559 182.725C289.419 182.04 288.205 181.486 286.94 181.075C285.402 180.632 283.782 180.554 282.209 180.849C280.636 181.144 279.154 181.803 277.882 182.774C277.261 183.22 276.756 183.808 276.407 184.489C276.273 184.798 276.172 185.121 276.106 185.452C275.949 186.017 275.82 186.589 275.72 187.167C275.632 187.443 275.503 187.704 275.339 187.943C274.904 188.552 274.165 189.012 274.067 189.755C274.065 189.799 274.065 189.842 274.067 189.885C273.989 190.027 273.936 190.181 273.913 190.341C273.883 190.669 273.954 191 274.116 191.287C274.14 191.336 274.169 191.381 274.197 191.426C273.666 192.195 273.232 193.028 272.905 193.904C272.757 193.985 272.613 194.075 272.475 194.173L272.357 194.258V194.502L272.288 194.555L272.138 198.493L272.219 198.558C272.339 200.394 272.892 202.176 273.833 203.758C274.775 205.34 276.077 206.675 277.634 207.656C277.687 207.908 277.735 208.164 277.78 208.433C278.025 209.85 278.123 211.29 278.072 212.728C278.056 212.604 278.056 212.478 278.072 212.354C275.136 211.025 268.73 214.699 266.15 216.324C265.759 216.51 265.394 216.746 265.065 217.028L265.021 217.06C263.246 218.499 259.74 222.497 256.957 232.775C253.098 247.116 253.501 250.367 250.69 253.691C247.879 257.015 245.088 280.435 245.088 280.435L250.746 281.959L251.469 279.634C258.196 285.771 277.033 288.725 277.033 288.725L277.609 286.933C280.498 287.973 285.327 286.392 285.327 286.392C292.387 283.897 295.032 277.566 300.154 269.215C305.277 260.864 307.84 238.334 307.84 238.334ZM279.364 281.544L292.404 241.081C293.586 247.364 288.37 257.259 287.907 263.729C287.618 267.89 282.776 276.16 279.364 281.544Z" fill="url(#paint1_linear)"/>
<path d="M295.678 195.758C295.678 195.758 297.948 204.409 291.209 205.917C284.47 207.425 288.91 202.028 288.91 202.028L295.41 195.693L295.678 195.758Z" fill="#472727"/>
<path d="M267.503 216.377C267.503 216.377 262.49 218.409 258.806 232.096C255.121 245.783 255.487 248.871 252.835 252.053C250.182 255.235 247.464 277.562 247.464 277.562L252.77 278.992L257.388 264.07L270.09 224.651L267.503 216.377Z" fill="#DDE0E4"/>
<path opacity="0.05" d="M267.503 216.377C267.503 216.377 262.49 218.409 258.806 232.096C255.121 245.783 255.487 248.871 252.835 252.053C250.182 255.235 247.464 277.562 247.464 277.562L252.77 278.992L257.388 264.07L270.09 224.651L267.503 216.377Z" fill="black"/>
<path d="M295.336 214.833C295.336 214.833 274.351 225.505 277.422 218.543C278.942 215.105 278.885 211.541 278.442 208.79C278.189 207.17 277.746 205.585 277.122 204.068C277.122 204.068 291.388 192.779 290.551 201.996C290.351 203.979 290.488 205.983 290.957 207.921C292.192 212.809 295.336 214.833 295.336 214.833Z" fill="#DB8B8B"/>
<path opacity="0.1" d="M290.958 207.937C289.608 209.021 288.021 209.77 286.327 210.123C284.632 210.477 282.878 210.424 281.208 209.969C280.232 209.706 279.296 209.311 278.426 208.794C278.173 207.174 277.73 205.589 277.106 204.072C277.106 204.072 291.372 192.783 290.535 202C290.339 203.988 290.482 205.996 290.958 207.937Z" fill="black"/>
<path d="M294.838 201.67C296.415 195.81 292.945 189.78 287.088 188.202C281.23 186.624 275.203 190.096 273.625 195.956C272.048 201.816 275.518 207.845 281.376 209.423C287.234 211.001 293.261 207.53 294.838 201.67Z" fill="#DB8B8B"/>
<path opacity="0.1" d="M278.714 193.453C278.413 193.638 278.077 193.759 277.728 193.81C277.379 193.861 277.023 193.841 276.681 193.751C276.34 193.661 276.02 193.503 275.741 193.287C275.462 193.07 275.23 192.799 275.058 192.49C274.908 192.215 274.843 191.901 274.871 191.588C274.965 190.881 275.664 190.442 276.09 189.857C276.752 188.91 276.626 187.614 277.106 186.561C277.436 185.918 277.911 185.362 278.495 184.936C279.682 184.007 281.072 183.373 282.551 183.085C284.03 182.797 285.556 182.863 287.005 183.278C288.19 183.665 289.327 184.187 290.393 184.834C293.448 186.577 296.458 188.711 298.111 191.812C298.446 192.381 298.659 193.013 298.737 193.669C298.755 194.377 298.631 195.082 298.371 195.741C297.76 197.563 296.909 199.294 295.84 200.89C295.483 200.446 295.034 200.084 294.524 199.83C294.267 199.708 293.978 199.67 293.698 199.722C293.418 199.774 293.161 199.912 292.964 200.118C292.611 200.569 292.396 201.431 291.859 201.227C291.51 201.097 291.514 200.614 291.53 200.24C291.603 198.614 290.718 197.082 289.528 195.985C288.337 194.888 286.863 194.165 285.409 193.453C284.365 192.941 282.971 191.767 281.826 191.56C280.404 191.296 279.734 192.824 278.714 193.453Z" fill="black"/>
<path d="M278.865 192.897C278.563 193.081 278.228 193.202 277.878 193.253C277.529 193.305 277.173 193.285 276.831 193.195C276.49 193.105 276.17 192.947 275.891 192.73C275.612 192.513 275.38 192.242 275.209 191.934C275.058 191.658 274.993 191.344 275.022 191.031C275.115 190.324 275.814 189.885 276.24 189.3C276.903 188.353 276.777 187.057 277.256 186.004C277.586 185.362 278.062 184.805 278.645 184.379C279.832 183.451 281.222 182.816 282.701 182.528C284.181 182.24 285.707 182.306 287.155 182.721C288.341 183.108 289.478 183.63 290.543 184.277C293.598 186.021 296.608 188.154 298.261 191.255C298.596 191.824 298.809 192.456 298.887 193.112C298.905 193.82 298.781 194.525 298.521 195.185C297.91 197.006 297.059 198.737 295.991 200.333C295.633 199.889 295.184 199.528 294.674 199.273C294.417 199.151 294.128 199.113 293.848 199.165C293.568 199.217 293.311 199.356 293.115 199.561C292.761 200.012 292.546 200.874 292.01 200.671C291.66 200.541 291.664 200.057 291.681 199.683C291.754 198.058 290.868 196.526 289.678 195.428C288.488 194.331 287.013 193.608 285.559 192.897C284.515 192.385 283.122 191.21 281.976 191.003C280.554 190.735 279.884 192.267 278.865 192.897Z" fill="#472727"/>
<path d="M284.617 216.288C284.617 216.288 293.305 214.585 293.683 213.191L303.619 220.209C303.619 220.209 309.599 226.911 306.54 237.168C306.54 237.168 304.05 258.661 299.208 266.638C294.366 274.616 291.583 284.95 284.95 287.364C284.95 287.364 278.572 283.251 276.468 283.3C276.468 283.3 287.269 267.642 287.732 261.477C288.195 255.313 293.131 245.86 292.05 239.878L277.427 285.352C277.427 285.352 253.866 281.695 251.478 273.872C251.478 273.872 253.509 270.82 253.131 267.727C252.753 264.635 262.019 241.37 262.019 241.37L266.455 217.109C266.455 217.109 275.229 210.976 278.722 212.57C278.706 212.545 278.072 215.573 284.617 216.288Z" fill="#DDE0E4"/>
<g opacity="0.1">
<path opacity="0.1" d="M287.781 197.424C285.636 194.498 281.545 196.9 280.875 197.318L279.823 197.212C278.905 196.213 276.09 193.555 273.446 195.51L273.332 195.595L273.173 199.346L273.287 199.435C274.051 200.025 274.917 200.469 275.842 200.744C276.428 200.916 277.046 200.947 277.646 200.833C278.09 200.731 278.506 200.532 278.864 200.251C279.223 199.97 279.516 199.614 279.722 199.208L280.27 199.244L280.676 199.167C280.757 199.599 280.93 200.009 281.182 200.369C281.434 200.73 281.76 201.032 282.139 201.256C283.954 202.284 286.607 201.256 286.717 201.236L286.855 201.183L287.83 197.554L287.781 197.424ZM286.404 200.724C285.864 200.906 283.824 201.508 282.455 200.724C282.115 200.51 281.827 200.221 281.616 199.878C281.405 199.536 281.275 199.149 281.237 198.749L281.188 198.452L280.298 198.635L279.405 198.602L279.319 198.773C279.156 199.142 278.911 199.469 278.602 199.728C278.292 199.987 277.928 200.172 277.536 200.268C276.005 200.598 274.234 199.411 273.77 199.074L273.905 195.904C276.204 194.356 278.738 196.867 279.47 197.688L279.547 197.773L281.03 197.92L281.119 197.859C281.16 197.834 284.844 195.359 286.944 197.351C287.048 197.447 287.145 197.552 287.232 197.664L286.404 200.724Z" fill="black"/>
<path opacity="0.1" d="M294.435 199.309L287.529 198.736L286.96 198.627L287.216 197.668C287.128 197.556 287.032 197.451 286.928 197.355L287.765 197.436L293.415 197.989L294.435 199.309Z" fill="black"/>
</g>
<path d="M287.854 197.164C285.709 194.238 281.619 196.639 280.948 197.058L279.896 196.952C278.978 195.953 276.163 193.295 273.519 195.25L273.405 195.335L273.247 199.086L273.36 199.175C274.124 199.765 274.99 200.209 275.915 200.484C276.501 200.656 277.119 200.687 277.719 200.573C278.163 200.471 278.579 200.272 278.937 199.991C279.296 199.71 279.589 199.354 279.795 198.948L280.343 198.984L280.749 198.907C280.831 199.339 281.003 199.749 281.255 200.109C281.507 200.469 281.834 200.772 282.212 200.996C284.027 202.024 286.68 200.996 286.79 200.975L286.928 200.923L287.903 197.294L287.854 197.164ZM286.477 200.463C285.937 200.646 283.898 201.248 282.529 200.463C282.188 200.25 281.901 199.96 281.689 199.618C281.478 199.276 281.348 198.889 281.31 198.488L281.261 198.192L280.372 198.375L279.49 198.318L279.405 198.488C279.245 198.86 279.001 199.189 278.693 199.451C278.386 199.713 278.022 199.901 277.63 200C276.098 200.329 274.327 199.143 273.864 198.805L273.998 195.636C276.297 194.087 278.832 196.599 279.563 197.42L279.64 197.505L281.123 197.651L281.212 197.59C281.253 197.566 284.937 195.091 287.038 197.082C287.142 197.179 287.238 197.284 287.326 197.395L286.477 200.463Z" fill="#472727"/>
<path d="M294.5 199.049L287.618 198.476L287.05 198.367L287.306 197.407C287.218 197.296 287.121 197.191 287.017 197.095L287.854 197.176L293.504 197.729L294.5 199.049Z" fill="#472727"/>
<path d="M247.31 241.845H126.705V290.517H247.31V241.845Z" fill="#6F7D95"/>
<path d="M181.901 322.394C200.488 322.394 215.556 305.897 215.556 285.547C215.556 265.197 200.488 248.701 181.901 248.701C163.314 248.701 148.246 265.197 148.246 285.547C148.246 305.897 163.314 322.394 181.901 322.394Z" fill="#4B5C7A"/>
<path opacity="0.05" d="M181.901 322.394C200.488 322.394 215.556 305.897 215.556 285.547C215.556 265.197 200.488 248.701 181.901 248.701C163.314 248.701 148.246 265.197 148.246 285.547C148.246 305.897 163.314 322.394 181.901 322.394Z" fill="black"/>
<path d="M189.379 322.394C207.967 322.394 223.034 305.897 223.034 285.547C223.034 265.197 207.967 248.701 189.379 248.701C170.792 248.701 155.725 265.197 155.725 285.547C155.725 305.897 170.792 322.394 189.379 322.394Z" fill="#4B5C7A"/>
<path opacity="0.05" d="M188.632 300.697C196.893 300.697 203.589 293.998 203.589 285.734C203.589 277.47 196.893 270.771 188.632 270.771C180.372 270.771 173.675 277.47 173.675 285.734C173.675 293.998 180.372 300.697 188.632 300.697Z" fill="black"/>
<path d="M188.632 290.225C191.111 290.225 193.121 288.214 193.121 285.734C193.121 283.254 191.111 281.244 188.632 281.244C186.153 281.244 184.144 283.254 184.144 285.734C184.144 288.214 186.153 290.225 188.632 290.225Z" stroke="#6F7D95" stroke-width="2" stroke-miterlimit="10"/>
<path d="M188.632 279C189.251 279 189.753 278.498 189.753 277.879C189.753 277.259 189.251 276.757 188.632 276.757C188.013 276.757 187.511 277.259 187.511 277.879C187.511 278.498 188.013 279 188.632 279Z" fill="#6F7D95"/>
<path d="M195.488 280.904C195.962 280.506 196.024 279.798 195.626 279.324C195.228 278.849 194.521 278.787 194.047 279.186C193.572 279.584 193.51 280.291 193.908 280.766C194.306 281.24 195.014 281.302 195.488 280.904Z" fill="#6F7D95"/>
<path d="M198.165 286.335C198.272 285.725 197.865 285.143 197.255 285.036C196.645 284.928 196.064 285.336 195.956 285.946C195.849 286.556 196.256 287.137 196.866 287.245C197.476 287.353 198.057 286.945 198.165 286.335Z" fill="#6F7D95"/>
<path d="M194.416 292.786C194.952 292.477 195.136 291.791 194.826 291.254C194.517 290.718 193.831 290.534 193.295 290.844C192.759 291.153 192.575 291.839 192.885 292.376C193.194 292.912 193.88 293.096 194.416 292.786Z" fill="#6F7D95"/>
<path d="M188.513 293.394C188.725 292.811 188.425 292.168 187.843 291.956C187.261 291.744 186.618 292.044 186.406 292.626C186.194 293.208 186.494 293.852 187.076 294.064C187.658 294.276 188.301 293.976 188.513 293.394Z" fill="#6F7D95"/>
<path d="M182.814 289.93C183.396 289.718 183.696 289.074 183.484 288.492C183.272 287.91 182.629 287.61 182.047 287.822C181.465 288.034 181.165 288.677 181.377 289.259C181.589 289.841 182.232 290.141 182.814 289.93Z" fill="#6F7D95"/>
<path d="M183.337 282.923C183.647 282.386 183.463 281.7 182.927 281.39C182.391 281.081 181.705 281.265 181.395 281.801C181.086 282.337 181.269 283.023 181.806 283.333C182.342 283.643 183.028 283.459 183.337 282.923Z" fill="#6F7D95"/>
<path d="M431.203 257.072C430.053 265.013 426.856 273.705 426.856 273.705C426.878 273.163 426.892 272.628 426.897 272.1C426.897 271.417 426.897 270.743 426.897 270.068C426.491 248.181 414.568 234.677 406.879 228.211C404.88 226.507 402.731 224.989 400.457 223.676H421.356C421.356 223.676 429.578 240.472 431.292 248.697C431.788 251.005 431.65 253.984 431.203 257.072Z" fill="#FF4D52"/>
<path opacity="0.05" d="M431.203 257.072C430.053 265.013 426.856 273.705 426.856 273.705C426.878 273.163 426.892 272.628 426.897 272.1C426.897 271.417 426.897 270.743 426.897 270.068C426.491 248.181 414.568 234.677 406.879 228.211C404.88 226.507 402.731 224.989 400.457 223.676H421.356C421.356 223.676 429.578 240.472 431.292 248.697C431.788 251.005 431.65 253.984 431.203 257.072Z" fill="black"/>
<path d="M395.57 285.807C409.706 285.807 421.166 273.261 421.166 257.783C421.166 242.306 409.706 229.759 395.57 229.759C381.434 229.759 369.974 242.306 369.974 257.783C369.974 273.261 381.434 285.807 395.57 285.807Z" fill="#4B5C7A"/>
<path opacity="0.05" d="M395.57 285.807C409.706 285.807 421.166 273.261 421.166 257.783C421.166 242.306 409.706 229.759 395.57 229.759C381.434 229.759 369.974 242.306 369.974 257.783C369.974 273.261 381.434 285.807 395.57 285.807Z" fill="black"/>
<path d="M401.257 285.807C415.393 285.807 426.853 273.261 426.853 257.783C426.853 242.306 415.393 229.759 401.257 229.759C387.121 229.759 375.661 242.306 375.661 257.783C375.661 273.261 387.121 285.807 401.257 285.807Z" fill="#4B5C7A"/>
<path opacity="0.05" d="M400.688 269.304C406.97 269.304 412.062 264.21 412.062 257.926C412.062 251.641 406.97 246.547 400.688 246.547C394.407 246.547 389.314 251.641 389.314 257.926C389.314 264.21 394.407 269.304 400.688 269.304Z" fill="black"/>
<path d="M400.688 261.339C402.573 261.339 404.101 259.811 404.101 257.926C404.101 256.04 402.573 254.512 400.688 254.512C398.804 254.512 397.276 256.04 397.276 257.926C397.276 259.811 398.804 261.339 400.688 261.339Z" stroke="#6F7D95" stroke-width="2" stroke-miterlimit="10"/>
<path d="M400.688 252.805C401.159 252.805 401.541 252.423 401.541 251.952C401.541 251.48 401.159 251.098 400.688 251.098C400.217 251.098 399.835 251.48 399.835 251.952C399.835 252.423 400.217 252.805 400.688 252.805Z" fill="#6F7D95"/>
<path d="M405.905 254.252C406.266 253.949 406.313 253.411 406.01 253.05C405.707 252.689 405.169 252.642 404.809 252.945C404.448 253.248 404.401 253.786 404.703 254.147C405.006 254.508 405.544 254.555 405.905 254.252Z" fill="#6F7D95"/>
<path d="M407.938 258.386C408.02 257.922 407.71 257.479 407.246 257.398C406.782 257.316 406.34 257.626 406.258 258.09C406.176 258.554 406.486 258.997 406.95 259.078C407.414 259.16 407.856 258.85 407.938 258.386Z" fill="#6F7D95"/>
<path d="M405.091 263.292C405.499 263.056 405.638 262.534 405.403 262.126C405.167 261.718 404.646 261.578 404.238 261.814C403.83 262.049 403.69 262.571 403.925 262.979C404.161 263.388 404.683 263.527 405.091 263.292Z" fill="#6F7D95"/>
<path d="M400.6 263.752C400.761 263.309 400.533 262.819 400.09 262.658C399.647 262.497 399.158 262.725 398.997 263.168C398.835 263.611 399.064 264.101 399.506 264.262C399.949 264.423 400.439 264.195 400.6 263.752Z" fill="#6F7D95"/>
<path d="M396.264 261.114C396.706 260.953 396.935 260.463 396.774 260.02C396.613 259.577 396.123 259.349 395.68 259.51C395.238 259.671 395.009 260.161 395.17 260.604C395.332 261.047 395.821 261.275 396.264 261.114Z" fill="#6F7D95"/>
<path d="M396.666 255.786C396.902 255.378 396.762 254.856 396.354 254.621C395.946 254.385 395.425 254.525 395.189 254.933C394.953 255.341 395.093 255.863 395.501 256.099C395.909 256.334 396.431 256.195 396.666 255.786Z" fill="#6F7D95"/>
<path d="M45.6771 289.318L42.5818 264.98H79.2426L98.0869 281.776L88.8374 303.371C88.8374 303.371 51.5185 297.202 45.6771 289.318Z" fill="#FF4D52"/>
<path opacity="0.05" d="M98.099 281.776L88.8495 303.371C88.8495 303.371 51.5185 297.202 45.6771 289.318L45.543 288.258L42.6995 265.752L42.6711 265.529L42.6021 264.984H79.2629L98.099 281.776Z" fill="black"/>
<path d="M249.885 190.259V198.143C249.885 198.143 230.939 213.585 226.43 228.154C225.643 230.52 225.346 233.021 225.557 235.506C227.271 251.614 176.226 222.477 176.226 222.477L178.497 221.372C190.233 215.711 243.788 189.95 249.885 190.259Z" fill="#7597CE"/>
<path d="M293.058 228.309C293.058 228.309 310.801 219.588 313.649 213.134C314.031 212.269 314.392 211.395 314.815 210.546C316.573 207.006 320.27 198.704 318.41 194.717C316.013 189.577 324.235 195.404 324.235 195.404L319.437 219.734L307.787 226.236L292.712 228.309" fill="#FF4D52"/>
<path opacity="0.05" d="M293.058 228.309C293.058 228.309 310.801 219.588 313.649 213.134C314.031 212.269 314.392 211.395 314.815 210.546C316.573 207.006 320.27 198.704 318.41 194.717C316.013 189.577 324.235 195.404 324.235 195.404L319.437 219.734L307.787 226.236L292.712 228.309" fill="black"/>
<path opacity="0.05" d="M98.0993 281.776L88.8498 303.371C88.8498 303.371 51.5187 297.202 45.6773 289.318L45.5433 288.258C45.6936 288.156 45.852 288.051 46.0185 287.949C46.0185 287.949 57.3235 296.861 83.0247 298.921C83.0247 298.921 98.4608 286.579 73.4299 272.872C73.4299 272.872 51.6568 273.555 42.6876 265.757L42.5901 265.675L42.6591 265.533C42.7187 265.416 42.8149 265.235 42.9476 264.988H79.2509L98.0993 281.776Z" fill="black"/>
<path opacity="0.05" d="M225.557 235.502C227.271 251.615 176.226 222.477 176.226 222.477L178.497 221.372C180 222.973 186 228.374 197.995 227.788C205.713 227.411 217.433 227.756 226.451 228.15C225.657 230.514 225.353 233.016 225.557 235.502V235.502Z" fill="black"/>
<path opacity="0.05" d="M247.314 241.845V290.517H224.907C226.386 279.195 225.533 262.692 211.161 253.232C205.801 249.727 199.577 247.771 193.176 247.58C186.775 247.389 180.445 248.971 174.886 252.151C165.466 257.531 154.933 268.471 148.238 290.517H126.709V241.845H247.314Z" fill="black"/>
<path opacity="0.05" d="M431.203 257.072C430.358 262.445 429.001 267.662 426.901 272.108C426.63 272.707 426.335 273.291 426.016 273.86C426.068 273.661 426.454 272.271 426.901 270.084C429.078 259.437 432.803 229.975 407.846 228.292C407.521 228.272 407.2 228.252 406.879 228.24C404.881 226.526 402.732 224.998 400.457 223.676H421.356C421.356 223.676 429.578 240.472 431.292 248.697C431.788 251.005 431.65 253.984 431.203 257.072Z" fill="black"/>
<path d="M426.694 273.526C427.019 272.352 438.596 229.991 408.524 227.963C378.03 225.907 374.26 248.871 370.836 280.065C370.836 280.065 274.563 287.262 222.819 302.347C222.819 302.347 235.241 268.292 211.851 252.891C206.491 249.385 200.267 247.43 193.866 247.239C187.465 247.048 181.136 248.63 175.577 251.81C164.04 258.401 150.826 273.348 145.045 306.801H87.4768C87.4768 306.801 76.509 307.488 72.7434 302.331C72.7434 302.331 57.3072 302.672 47.7327 294.447C47.7327 294.447 37.4555 292.391 45.6773 287.25C45.6773 287.25 57.3275 296.162 83.0246 298.222C83.0246 298.222 98.4608 285.88 73.4299 272.173C73.4299 272.173 51.4943 272.86 42.5941 264.976C42.5941 264.976 45.7179 258.511 52.847 250.688C62.5978 239.958 75.0222 232.01 88.8498 227.658C98.167 224.777 107.879 223.375 117.63 223.505L178.103 221.62C178.103 221.62 183.945 229.162 197.975 228.475C212.006 227.788 239.433 229.503 239.433 229.503H239.706L296.137 226.947C297.757 226.718 299.36 226.379 300.934 225.931C309.115 223.708 324.633 216.967 321.834 198.139L410.576 203.625C413.92 203.779 417.243 204.248 420.499 205.027C425.057 206.197 429.225 208.335 428.051 212.196C425.654 220.079 432.162 221.108 432.162 221.108C432.162 221.108 432.3 222.16 432.471 223.989C433.283 232.612 434.879 258.539 426.694 273.526Z" fill="#FF4D52"/>
<path opacity="0.05" d="M155.319 235.847C155.319 235.847 118.312 236.188 93.9802 257.791H107.686C107.686 257.791 146.061 247.851 155.31 239.968L155.319 235.847Z" fill="black"/>
<path d="M154.973 235.502C154.973 235.502 117.967 235.843 93.635 257.446H107.341C107.341 257.446 145.716 247.506 154.965 239.622L154.973 235.502Z" fill="#FFEC9F"/>
<path opacity="0.05" d="M89.1909 228.004V237.216L58.018 251.614L53.1921 251.033C62.9418 240.304 75.3647 232.356 89.1909 228.004V228.004Z" fill="black"/>
<path d="M88.8456 227.662V236.875L57.6686 251.269L52.8428 250.688C62.5941 239.959 75.0184 232.013 88.8456 227.662V227.662Z" fill="#FFEC9F"/>
<path opacity="0.05" d="M133.046 269.438C133.046 269.438 116.257 279.72 114.543 302.355H124.138C124.138 302.355 127.907 277.676 138.871 269.438H133.046Z" fill="black"/>
<path opacity="0.05" d="M331.433 270.125L244.401 280.407C244.401 280.407 238.645 243.751 239.71 229.491L296.141 226.935C297.76 226.71 299.361 226.375 300.934 225.931V229.333L343.42 219.051C343.42 219.051 350.618 229.674 331.433 270.125Z" fill="black"/>
<path d="M321.838 188.199C321.838 188.199 340.341 185.801 348.563 201.569L322.102 200.549L321.838 188.199Z" fill="#FF4D52"/>
<path opacity="0.05" d="M347.279 207.096C346.552 209.375 347.1 211.883 351.313 213.618C354.818 215.065 358.929 213.39 360.128 209.794C360.826 207.697 360.347 205.324 356.569 203.393C352.791 201.463 348.551 203.113 347.279 207.096Z" fill="black"/>
<path d="M43.2441 270.117C43.2441 270.117 65.2041 281.496 80.9652 277.188" stroke="#FF4D52" stroke-miterlimit="10"/>
<path d="M44.0198 276.261C44.0198 276.261 58.2088 287.209 86.8876 284.665" stroke="#FF4D52" stroke-miterlimit="10"/>
<path d="M44.6738 281.418C44.6738 281.418 58.7492 293.638 87.6716 289.765" stroke="#FF4D52" stroke-miterlimit="10"/>
<path opacity="0.05" d="M347.503 199.728C347.503 199.728 336.055 209.615 325.608 214.085C325.608 214.085 341.474 216.91 347.503 199.728Z" fill="black"/>
<path opacity="0.1" d="M226.231 228.829C226.231 228.829 280.55 233.961 301.105 229.162C301.105 229.162 302.202 229.889 295.658 226.955L226.231 228.829Z" fill="black"/>
<path opacity="0.05" d="M432.475 223.989C429.091 221.766 423.725 217.153 424.456 212.021C424.821 209.449 423.002 207.043 420.503 205.023C425.061 206.193 429.229 208.331 428.055 212.192C425.658 220.075 432.166 221.103 432.166 221.103C432.166 221.103 432.3 222.16 432.475 223.989Z" fill="black"/>
<path d="M159.462 259.766C159.495 258.409 159.462 256.999 159.36 255.703C159.36 255.455 159.32 255.215 159.295 254.979C160.059 255.556 160.514 255.995 160.514 255.995L159.844 220.705L156.147 202.219C156.147 189.109 149.091 185.415 149.091 185.415C149.091 185.415 145.395 183.733 144.387 181.384C143.38 179.035 134.451 174.069 134.447 174.069C134.377 173.214 134.349 172.355 134.366 171.497C134.366 171.273 134.366 171.042 134.386 170.81C136.625 169.325 138.248 167.078 138.956 164.486C139.663 161.894 139.407 159.134 138.233 156.717C138.729 156.717 139.131 156.509 139.318 155.774C139.911 153.445 139.338 149.938 137.99 148.077C137.701 147.688 137.376 147.327 137.019 147C136.6 146.58 136.159 146.183 135.698 145.809C134.545 144.85 133.261 143.843 131.831 143.924C131.02 144.03 130.241 144.307 129.544 144.737C125.972 146.617 122.41 148.513 118.857 150.426C117.545 151.137 116.192 151.885 115.274 153.161C114.356 154.437 113.986 156.071 113.73 157.676C113.515 158.763 113.465 159.877 113.58 160.98C113.688 161.983 114.147 162.916 114.876 163.613C115.023 163.791 115.191 163.95 115.376 164.088C116.099 164.617 117.029 164.747 117.784 165.173C118.356 166.833 119.312 168.333 120.575 169.55C120.575 169.757 120.547 169.957 120.53 170.184C120.486 170.765 120.417 171.403 120.327 172.049C120.327 172.049 117.845 171.984 114.149 177.023C110.452 182.063 102.389 182.737 102.389 182.737C102.389 182.737 99.3667 181.392 96.0073 196.518C92.6479 211.643 91.6404 221.713 93.3181 223.404C94.0305 224.019 94.8334 224.52 95.6985 224.891C98.5463 226.329 101.611 227.29 104.769 227.736C104.81 227.857 104.878 227.967 104.968 228.057L105.208 230.987C105.411 237.172 105.647 249.579 104.396 252.33C102.714 256.028 104.733 258.381 104.733 258.381L105.139 258.352C105.214 258.48 105.298 258.602 105.391 258.718L107.016 258.608C106.898 265.517 106.581 275.099 105.744 277.204C104.4 280.565 105.744 299.051 105.744 299.051L103.392 332.326C103.392 332.326 102.105 349.694 103.311 351.706C102.653 355.319 101.471 362.203 101.715 363.918C102.052 366.27 109.778 369.631 109.778 369.631C109.778 369.631 118.849 371.663 123.215 370.976C125.498 370.623 126.404 369.079 126.412 367.725C129.374 368.201 133.229 368.656 135.646 368.282C140.012 367.612 139.342 362.568 136.99 362.906C134.638 363.243 131.949 358.513 129.951 356.16C128.935 354.973 128.09 352.852 127.513 351.035C127.938 350.971 128.328 350.763 128.618 350.446C129.626 348.764 131.307 333.305 131.307 333.305L135.674 306.419C135.674 306.419 138.026 293.309 140.041 290.286C141.564 288.002 143.469 270.958 144.31 262.749H144.383H144.408L144.497 262.461L145.76 258.381C146.435 259.571 148.133 260.161 150.111 260.413C149.9 261.274 149.725 261.977 149.623 262.379C149.12 264.411 156.464 267.756 158.235 266.078C158.979 265.375 159.365 262.827 159.454 260.039H159.515L159.462 259.766ZM115.323 351.421C115.209 352.076 115.095 352.758 114.982 353.453C114.726 352.64 114.523 351.909 114.384 351.369C114.717 351.381 115.03 351.397 115.323 351.421Z" fill="url(#paint2_linear)"/>
<path d="M126.587 344.415C126.587 344.415 127.883 350.243 129.837 352.506C131.791 354.77 134.366 359.301 136.629 358.98C138.891 358.659 139.541 363.511 135.333 364.157C131.124 364.803 122.391 362.861 122.391 362.861C122.391 362.861 114.949 359.61 114.628 357.359C114.307 355.107 116.57 343.44 116.57 343.44L126.587 344.415Z" fill="#53526B"/>
<path opacity="0.05" d="M126.587 344.415C126.587 344.415 127.883 350.243 129.837 352.506C131.791 354.77 134.366 359.301 136.629 358.98C138.891 358.659 139.541 363.511 135.333 364.157C131.124 364.803 122.391 362.861 122.391 362.861C122.391 362.861 114.949 359.61 114.628 357.359C114.307 355.107 116.57 343.44 116.57 343.44L126.587 344.415Z" fill="black"/>
<path d="M114.616 347.004C114.616 347.004 115.912 352.831 117.866 355.095C119.819 357.359 122.395 361.89 124.657 361.569C126.92 361.248 127.57 366.1 123.362 366.746C119.153 367.392 110.42 365.454 110.42 365.454C110.42 365.454 102.978 362.203 102.657 359.951C102.336 357.7 104.599 346.033 104.599 346.033L114.616 347.004Z" fill="#53526B"/>
<path d="M144.058 258.324C144.058 258.324 141.471 286.157 139.529 289.071C137.587 291.984 135.325 304.606 135.325 304.606L131.12 330.497C131.12 330.497 129.495 345.387 128.533 347.004C127.57 348.621 115.562 347.926 115.562 347.926L123.012 262.209L144.058 258.324Z" fill="#5F5D7E"/>
<path opacity="0.05" d="M144.058 258.324C144.058 258.324 141.471 286.157 139.529 289.071C137.587 291.984 135.325 304.606 135.325 304.606L131.12 330.497C131.12 330.497 129.495 345.387 128.533 347.004C127.57 348.621 115.562 347.926 115.562 347.926L123.012 262.209L144.058 258.324Z" fill="black"/>
<path d="M149.233 245.056L148.389 247.742L143.819 262.254L143.729 262.53H143.705C143.091 262.668 130.141 265.647 127.347 266.561C127.196 266.608 127.048 266.663 126.904 266.728C125.608 267.374 123.991 290.676 123.991 290.676C123.991 290.676 123.02 312.685 122.366 314.303C121.712 315.92 119.117 349.251 117.512 348.284C115.908 347.317 104.249 348.284 104.249 348.284C102.953 346.988 104.249 329.513 104.249 329.513L106.512 297.47C106.512 297.47 105.216 279.671 106.512 276.432C107.808 273.193 107.808 251.513 107.808 251.513L134.305 247.408L136.864 247.002L149.233 245.056Z" fill="#5F5D7E"/>
<path opacity="0.02" d="M148.388 247.742L143.819 262.254L143.709 262.538C143.095 262.676 130.145 265.655 127.351 266.569H127.07L134.305 247.408L134.512 246.856L136.864 247.006L148.388 247.742Z" fill="black"/>
<path opacity="0.1" d="M118.174 180.327C118.174 180.327 130.146 193.275 137.587 182.591L144.704 187.447L143.408 194.892L147.613 251.208C147.613 251.208 136.612 250.883 128.85 253.472C126.688 254.239 124.352 254.372 122.116 253.856C119.881 253.34 117.84 252.196 116.233 250.558L117.529 201.041L114.616 185.83L118.174 180.327Z" fill="black"/>
<path d="M118.174 179.356C118.174 179.356 130.145 192.303 137.587 181.62L144.704 186.476L143.408 193.921L147.617 250.253C147.617 250.253 136.616 249.928 128.854 252.517C126.692 253.284 124.355 253.417 122.12 252.901C119.885 252.385 117.844 251.241 116.237 249.603L117.532 200.086L114.62 184.875L118.174 179.356Z" fill="#53526B"/>
<path d="M142.068 237.013V239.049H142.722V237.692H145.098V239.049H145.752V237.017L142.068 237.013Z" fill="#E82127"/>
<path d="M142.653 236.355H145.163C145.328 236.316 145.478 236.232 145.599 236.113C145.719 235.994 145.804 235.844 145.846 235.68H141.975C142.016 235.844 142.102 235.994 142.222 236.112C142.342 236.231 142.493 236.315 142.657 236.355" fill="#E82127"/>
<path d="M119.954 235.685C119.996 235.847 120.082 235.995 120.201 236.113C120.321 236.23 120.469 236.314 120.632 236.355H121.688L121.741 236.375V239.041H122.399V236.375L122.46 236.355H123.516C123.678 236.313 123.826 236.229 123.945 236.111C124.065 235.993 124.15 235.846 124.194 235.685H119.954Z" fill="#E82127"/>
<path d="M132.741 223.295C136.563 222.701 140.351 232.235 143.859 251.273C144.118 245.808 144.339 240.08 144.521 234.15C136.966 195.753 128.516 195.753 120.961 234.15C121.155 240.04 121.38 245.76 121.635 251.273C125.143 232.235 128.932 222.701 132.753 223.295" fill="#FCC90E"/>
<path d="M143.087 246.348C143.087 246.348 143.087 254.764 145.029 258.324C146.971 261.884 158.292 259.949 158.292 259.949L156.029 247.973L143.087 246.348Z" fill="#D39999"/>
<path d="M157.061 265.769C155.355 267.394 148.283 264.143 148.77 262.209C149.112 260.839 150.306 255.938 150.984 253.159L151.455 251.204C151.455 251.204 155.599 249.908 157.061 251.204C157.593 251.675 157.967 253.533 158.142 255.776C158.442 259.673 158.146 264.741 157.061 265.769Z" fill="#FDC2CC"/>
<path d="M141.467 185.18L130.145 193.917C130.145 193.917 113.324 192.945 117.528 184.854C119.359 181.296 120.464 177.409 120.778 173.419C120.915 171.947 120.915 170.465 120.778 168.993C120.778 168.993 136.308 154.77 134.366 170.936C134.213 172.177 134.123 173.425 134.098 174.675C133.883 186.809 141.467 185.18 141.467 185.18Z" fill="#FDC2CC"/>
<path opacity="0.1" d="M134.35 170.94C134.197 172.181 134.107 173.429 134.082 174.679C132.339 175.833 130.294 176.447 128.204 176.442C125.307 176.442 123.175 173.622 121.249 171.749C121.465 169.062 120.766 168.997 120.766 168.997C120.766 168.997 136.291 154.754 134.35 170.94Z" fill="black"/>
<path d="M128.204 175.792C134.099 175.792 138.879 171.011 138.879 165.112C138.879 159.214 134.099 154.433 128.204 154.433C122.308 154.433 117.528 159.214 117.528 165.112C117.528 171.011 122.308 175.792 128.204 175.792Z" fill="#FDC2CC"/>
<path opacity="0.1" d="M120.603 175.309C120.603 175.309 118.824 175.471 115.266 180.323C111.707 185.175 103.92 185.826 103.92 185.826C103.92 185.826 101.008 184.529 97.7741 199.094C94.5406 213.659 93.5698 223.367 95.1865 224.984C96.8033 226.602 103.274 228.869 106.508 228.869C106.508 228.869 107.479 249.257 105.862 252.817C104.245 256.377 106.187 258.645 106.187 258.645L120.404 257.674C120.404 257.674 125.259 251.525 126.229 240.845C127.2 230.166 130.434 199.74 128.817 196.18C127.2 192.62 120.083 183.558 120.404 182.587C120.725 181.616 120.603 175.309 120.603 175.309Z" fill="black"/>
<path d="M120.575 175.211C120.575 175.211 118.182 175.146 114.624 180.002C111.066 184.858 103.303 185.505 103.303 185.505C103.303 185.505 100.39 184.208 97.1568 198.773C93.9233 213.338 92.9525 223.046 94.5773 224.651C96.2022 226.256 102.665 228.536 105.899 228.536C105.899 228.536 106.869 248.924 105.253 252.484C103.636 256.044 105.578 258.312 105.578 258.312L119.795 257.34C119.795 257.34 124.649 251.192 125.62 240.512C126.591 229.833 129.825 199.407 128.208 195.847C126.591 192.287 119.474 183.225 119.795 182.254C120.116 181.282 120.575 175.211 120.575 175.211Z" fill="#D39999"/>
<path d="M112.044 216.897C112.044 216.897 128.232 198.326 125.957 211.07C124.332 220.132 118.195 224.988 115.282 225.96C112.369 226.931 112.044 216.897 112.044 216.897Z" fill="#FDC2CC"/>
<path opacity="0.1" d="M158.142 255.776C156.594 254.593 153.673 252.752 150.984 253.159L151.455 251.204C151.455 251.204 155.599 249.908 157.061 251.204C157.597 251.675 157.967 253.533 158.142 255.776Z" fill="black"/>
<path opacity="0.1" d="M134.187 177.251C134.187 177.251 142.438 182.591 143.408 184.858C144.379 187.126 147.938 188.743 147.938 188.743C147.938 188.743 154.73 192.303 154.73 204.926L158.288 222.725L142.104 245.377C142.104 245.377 140.163 222.721 139.192 217.219C138.221 211.716 136.929 201.37 136.929 201.37C136.929 201.37 132.075 195.221 132.725 193.604C133.375 191.986 134.187 177.251 134.187 177.251Z" fill="black"/>
<path d="M134.159 177.154C134.159 177.154 142.762 181.945 143.729 184.208C144.696 186.472 148.263 188.077 148.263 188.077C148.263 188.077 155.054 191.637 155.054 204.259L158.613 222.059L159.259 256.04C159.259 256.04 153.434 250.538 149.229 253.126C145.025 255.715 142.437 244.71 142.437 244.71C142.437 244.71 140.496 222.054 139.525 216.552C138.554 211.05 137.262 200.703 137.262 200.703C137.262 200.703 132.408 194.579 133.058 192.954C133.708 191.328 134.159 177.154 134.159 177.154Z" fill="#D39999"/>
<path opacity="0.1" d="M137.575 152.125C137.027 151.428 136.394 150.802 135.69 150.263C134.577 149.337 133.346 148.37 131.965 148.451C131.184 148.555 130.433 148.824 129.763 149.239C126.324 151.052 122.894 152.883 119.474 154.734C118.211 155.416 116.907 156.14 116.025 157.367C115.144 158.594 114.786 160.171 114.539 161.715C114.331 162.761 114.282 163.832 114.392 164.893C114.493 165.933 114.998 166.892 115.798 167.563C116.72 168.233 117.983 168.238 118.755 169.115C119.202 169.623 119.397 170.334 119.714 170.952C120.031 171.57 120.579 172.171 121.204 172.062C121.83 171.952 122.208 171.289 122.297 170.619C122.337 169.939 122.297 169.257 122.179 168.587C122.058 167.368 122.212 166.076 122.919 165.169C123.406 164.552 124.105 164.178 124.576 163.544C125.705 162.016 125.189 159.48 126.428 158.046C126.788 157.671 127.241 157.398 127.74 157.255C128.24 157.112 128.768 157.105 129.272 157.233C130.275 157.444 131.193 157.989 132.115 158.452C133.361 159.081 134.666 159.584 136.011 159.956C137.14 160.264 138.448 161.004 138.834 159.5C139.423 157.294 138.855 153.917 137.575 152.125Z" fill="black"/>
<path d="M137.25 151.799C136.702 151.102 136.069 150.477 135.365 149.938C134.252 149.012 133.021 148.045 131.64 148.126C130.859 148.23 130.108 148.499 129.438 148.914C126.002 150.727 123.146 149.012 119.149 154.408C118.296 155.563 116.582 155.815 115.7 157.042C114.819 158.269 114.461 159.846 114.214 161.39C114.006 162.436 113.957 163.507 114.067 164.568C114.168 165.608 114.673 166.566 115.473 167.238C116.395 167.908 117.658 167.912 118.43 168.79C118.877 169.298 119.072 170.009 119.389 170.627C119.706 171.245 120.254 171.846 120.88 171.736C121.505 171.627 121.883 170.964 121.972 170.294C122.012 169.614 121.973 168.932 121.854 168.262C121.733 167.043 121.887 165.751 122.594 164.844C123.081 164.227 123.78 163.853 124.251 163.219C125.38 161.691 124.865 159.155 126.103 157.72C126.463 157.345 126.916 157.073 127.416 156.93C127.915 156.787 128.444 156.779 128.947 156.908C129.95 157.119 130.868 157.664 131.79 158.127C133.036 158.756 134.341 159.259 135.686 159.63C136.815 159.939 138.123 160.679 138.509 159.175C139.102 156.969 138.55 153.592 137.25 151.799Z" fill="#865A61"/>
<path d="M108.145 199.744C108.145 199.744 107.82 211.72 106.203 213.338C104.586 214.955 107.174 216.897 107.174 216.897L113.645 215.272C113.645 215.272 112.02 225.952 118.82 224.659C118.82 224.659 114.291 228.865 109.762 229.516C105.232 230.166 105.545 228.548 105.545 228.548L98.7532 220.457L108.145 199.744Z" fill="#D39999"/>
<path opacity="0.1" d="M108.092 201.199C108.092 201.199 103.778 212.204 107.016 216.735L114.132 215.109C114.132 215.109 107.661 217.052 108.632 213.167C109.603 209.282 108.092 201.199 108.092 201.199Z" fill="black"/>
<path opacity="0.1" d="M105.72 228.386C105.72 228.386 115.103 229.032 117.691 227.089C114.286 229.699 110.261 231.379 106.012 231.966L105.72 228.386Z" fill="black"/>
<path opacity="0.1" d="M146.167 207.673C146.167 207.673 151.021 222.562 150.696 224.826C150.371 227.089 149.725 252.013 149.725 252.013L148.754 251.688L149.079 224.501L146.167 207.673Z" fill="black"/>
<path d="M350.541 249.778C350.541 249.778 357.65 263.737 351.857 271.373C346.065 279.009 352.385 299.819 352.385 299.819" stroke="#FCC90E" stroke-miterlimit="10"/>
<path d="M352.645 245.433C352.645 248.124 350.671 250.31 350.671 250.31C350.671 250.31 348.697 248.128 348.697 245.433C348.697 242.739 350.671 240.557 350.671 240.557C350.671 240.557 352.645 242.743 352.645 245.433Z" fill="#FCC90E"/>
<path d="M354.225 249.778C354.225 249.778 347.117 263.737 352.909 271.373C358.702 279.009 352.381 299.819 352.381 299.819" stroke="#FCC90E" stroke-miterlimit="10"/>
<path d="M352.117 245.433C352.117 248.124 354.091 250.31 354.091 250.31C354.091 250.31 356.066 248.128 356.066 245.433C356.066 242.739 354.091 240.557 354.091 240.557C354.091 240.557 352.117 242.743 352.117 245.433Z" fill="#FCC90E"/>
<path opacity="0.1" d="M352.117 245.433C352.117 248.124 354.091 250.31 354.091 250.31C354.091 250.31 356.066 248.128 356.066 245.433C356.066 242.739 354.091 240.557 354.091 240.557C354.091 240.557 352.117 242.743 352.117 245.433Z" fill="black"/>
<path d="M357.122 249.778C357.122 249.778 364.23 263.737 358.438 271.373C352.645 279.009 358.966 299.819 358.966 299.819" stroke="#FCC90E" stroke-miterlimit="10"/>
<path d="M359.226 245.433C359.226 248.124 357.252 250.31 357.252 250.31C357.252 250.31 355.278 248.128 355.278 245.433C355.278 242.739 357.252 240.557 357.252 240.557C357.252 240.557 359.226 242.743 359.226 245.433Z" fill="#FCC90E"/>
<path d="M358.121 256.617C356.257 258.555 353.32 258.759 353.32 258.759C353.32 258.759 353.409 255.816 355.273 253.882C357.138 251.948 360.075 251.74 360.075 251.74C360.075 251.74 359.986 254.679 358.121 256.617Z" fill="#FCC90E"/>
<path d="M358.304 266.248C356.439 268.187 353.502 268.39 353.502 268.39C353.502 268.39 353.592 265.448 355.456 263.513C357.321 261.579 360.242 261.368 360.242 261.368C360.242 261.368 360.168 264.306 358.304 266.248Z" fill="#FCC90E"/>
<path d="M348.193 271.543C349.956 273.575 349.895 276.517 349.895 276.517C349.895 276.517 346.975 276.164 345.212 274.132C343.449 272.1 343.51 269.158 343.51 269.158C343.51 269.158 346.43 269.511 348.193 271.543Z" fill="#FCC90E"/>
<path d="M349.83 251.009C352.073 252.496 352.8 255.349 352.8 255.349C352.8 255.349 349.887 255.788 347.649 254.317C345.411 252.846 344.679 249.977 344.679 249.977C344.679 249.977 347.588 249.522 349.83 251.009Z" fill="#FCC90E"/>
<path opacity="0.1" d="M349.83 251.009C352.073 252.496 352.8 255.349 352.8 255.349C352.8 255.349 349.887 255.788 347.649 254.317C345.411 252.846 344.679 249.977 344.679 249.977C344.679 249.977 347.588 249.522 349.83 251.009Z" fill="black"/>
<path d="M360.806 249.778C360.806 249.778 353.697 263.737 359.49 271.373C365.283 279.009 358.962 299.819 358.962 299.819" stroke="#FCC90E" stroke-miterlimit="10"/>
<path d="M358.702 245.433C358.702 248.124 360.676 250.31 360.676 250.31C360.676 250.31 362.65 248.128 362.65 245.433C362.65 242.739 360.676 240.557 360.676 240.557C360.676 240.557 358.702 242.743 358.702 245.433Z" fill="#FCC90E"/>
<path opacity="0.1" d="M358.702 245.433C358.702 248.124 360.676 250.31 360.676 250.31C360.676 250.31 362.65 248.128 362.65 245.433C362.65 242.739 360.676 240.557 360.676 240.557C360.676 240.557 358.702 242.743 358.702 245.433Z" fill="black"/>
<path d="M359.271 256.824C357.382 258.742 357.24 261.701 357.24 261.701C357.24 261.701 360.176 261.534 362.065 259.616C363.954 257.698 364.096 254.74 364.096 254.74C364.096 254.74 361.155 254.906 359.271 256.824Z" fill="#FCC90E"/>
<path opacity="0.1" d="M359.271 256.824C357.382 258.742 357.24 261.701 357.24 261.701C357.24 261.701 360.176 261.534 362.065 259.616C363.954 257.698 364.096 254.74 364.096 254.74C364.096 254.74 361.155 254.906 359.271 256.824Z" fill="black"/>
<path d="M362.971 270.166C361.082 272.084 360.94 275.042 360.94 275.042C360.94 275.042 363.877 274.876 365.766 272.958C367.655 271.039 367.797 268.081 367.797 268.081C367.797 268.081 364.86 268.24 362.971 270.166Z" fill="#FCC90E"/>
<path d="M357.524 267.228C357.524 267.228 361.801 260.482 367.809 260.319" stroke="#FCC90E" stroke-miterlimit="10"/>
<path d="M354.193 263.152C354.193 263.152 349.916 256.406 343.908 256.243" stroke="#FCC90E" stroke-miterlimit="10"/>
<path d="M353.636 272.783C353.636 272.783 357.914 266.037 363.922 265.874" stroke="#FCC90E" stroke-miterlimit="10"/>
<path d="M367.61 261.392C368.223 261.392 368.719 260.895 368.719 260.283C368.719 259.67 368.223 259.173 367.61 259.173C366.998 259.173 366.501 259.67 366.501 260.283C366.501 260.895 366.998 261.392 367.61 261.392Z" fill="#FCC90E"/>
<path d="M344.009 257.41C344.622 257.41 345.118 256.913 345.118 256.3C345.118 255.687 344.622 255.191 344.009 255.191C343.397 255.191 342.9 255.687 342.9 256.3C342.9 256.913 343.397 257.41 344.009 257.41Z" fill="#FCC90E"/>
<path d="M356.785 275.006C356.785 275.006 352.507 268.26 346.499 268.097" stroke="#FCC90E" stroke-miterlimit="10"/>
<path d="M346.601 269.264C347.213 269.264 347.71 268.767 347.71 268.154C347.71 267.541 347.213 267.045 346.601 267.045C345.988 267.045 345.492 267.541 345.492 268.154C345.492 268.767 345.988 269.264 346.601 269.264Z" fill="#FCC90E"/>
<path d="M364.003 267.041C364.615 267.041 365.112 266.544 365.112 265.931C365.112 265.319 364.615 264.822 364.003 264.822C363.391 264.822 362.894 265.319 362.894 265.931C362.894 266.544 363.391 267.041 364.003 267.041Z" fill="#FCC90E"/>
<path d="M380.434 291.704C380.434 291.704 370.125 289.639 367.375 286.888C364.625 284.137 352.251 279.338 350.878 282.763C349.505 286.189 332.318 297.905 343.993 299.966C355.668 302.026 371.49 302.717 374.926 301.339C378.363 299.961 380.434 291.704 380.434 291.704Z" fill="#A8A8A8"/>
<path opacity="0.2" d="M343.993 298.69C355.68 300.754 371.49 301.441 374.926 300.063C377.542 299.015 379.362 293.967 380.081 291.643L380.426 291.716C380.426 291.716 378.363 299.97 374.926 301.343C371.49 302.717 355.68 302.03 343.993 299.97C340.621 299.372 339.655 297.974 340.02 296.207C340.317 297.357 341.491 298.247 343.993 298.69Z" fill="black"/>
<path d="M78.0321 326.108C78.0321 326.108 81.4362 330.578 76.46 337.283C71.4839 343.989 67.3811 349.682 69.0426 353.88C69.0426 353.88 76.5494 341.392 82.6589 341.217C88.7683 341.042 84.7509 333.618 78.0321 326.108Z" fill="#FCC90E"/>
<path opacity="0.1" d="M78.0322 326.108C78.3288 326.539 78.5627 327.009 78.7268 327.506C84.69 334.512 87.8626 341.051 82.1349 341.217C76.7973 341.372 70.3954 350.917 68.8599 353.331C68.9105 353.518 68.9716 353.701 69.0427 353.88C69.0427 353.88 76.5495 341.392 82.659 341.217C88.7684 341.042 84.751 333.618 78.0322 326.108Z" fill="black"/>
<path d="M84.361 331.781C84.361 333.35 84.1863 334.626 83.9548 334.626C83.7233 334.626 83.5486 333.354 83.5486 331.781C83.5486 330.208 83.7679 330.968 83.9832 330.968C84.1985 330.968 84.361 330.216 84.361 331.781Z" fill="#FFD037"/>
<path d="M86.5301 333.654C85.153 334.406 83.9547 334.874 83.8531 334.666C83.7516 334.459 84.7793 333.711 86.1563 332.964C87.5334 332.216 86.9891 332.76 87.0947 332.964C87.2003 333.167 87.9071 332.903 86.5301 333.654Z" fill="#FFD037"/>
<path d="M60.0491 326.108C60.0491 326.108 56.645 330.578 61.6211 337.283C66.5973 343.989 70.7 349.682 69.0386 353.876C69.0386 353.876 61.5318 341.388 55.4223 341.213C49.3128 341.038 53.3303 333.618 60.0491 326.108Z" fill="#FCC90E"/>
<path opacity="0.1" d="M60.0491 326.108C59.7525 326.539 59.5186 327.009 59.3545 327.506C53.3912 334.512 50.2187 341.051 55.9463 341.217C61.284 341.372 67.6859 350.917 69.2214 353.331C69.1707 353.518 69.1097 353.701 69.0386 353.88C69.0386 353.88 61.5318 341.392 55.4223 341.217C49.3128 341.042 53.3303 333.618 60.0491 326.108Z" fill="black"/>
<path d="M53.7202 331.781C53.7202 333.35 53.8949 334.626 54.1264 334.626C54.358 334.626 54.5326 333.354 54.5326 331.781C54.5326 330.208 54.3133 330.968 54.098 330.968C53.8827 330.968 53.7202 330.216 53.7202 331.781Z" fill="#FFD037"/>
<path d="M51.551 333.654C52.9281 334.406 54.1264 334.874 54.2279 334.666C54.3295 334.459 53.3018 333.711 51.9247 332.964C50.5476 332.216 51.092 332.76 50.9864 332.964C50.8807 333.167 50.1739 332.903 51.551 333.654Z" fill="#FFD037"/>
<path d="M54.8049 353.291C54.8049 353.291 64.3225 352.998 67.1904 350.954C70.0583 348.91 81.8141 346.484 82.5412 349.735C83.2684 352.986 96.8441 366.035 86.0997 366.12C75.3553 366.205 61.1338 364.446 58.2699 362.702C55.4061 360.959 54.8049 353.291 54.8049 353.291Z" fill="#A8A8A8"/>
<path opacity="0.2" d="M86.2948 364.994C75.5504 365.08 61.3288 363.32 58.465 361.577C56.2836 360.248 55.4143 355.481 55.1259 353.283H54.8091C54.8091 353.283 55.4103 360.963 58.2741 362.706C61.1379 364.45 75.3595 366.214 86.1038 366.124C89.2073 366.1 90.2757 364.994 90.2188 363.361C89.7841 364.36 88.6021 364.974 86.2948 364.994Z" fill="black"/>
</g>
</g>
<defs>
<linearGradient id="paint0_linear" x1="237.825" y1="323.588" x2="237.825" y2="179.494" gradientUnits="userSpaceOnUse">
<stop stop-color="#808080" stop-opacity="0.25"/>
<stop offset="0.54" stop-color="#808080" stop-opacity="0.12"/>
<stop offset="1" stop-color="#808080" stop-opacity="0.1"/>
</linearGradient>
<linearGradient id="paint1_linear" x1="28083.1" y1="70973.2" x2="35484.6" y2="43495.9" gradientUnits="userSpaceOnUse">
<stop stop-color="#808080" stop-opacity="0.25"/>
<stop offset="0.54" stop-color="#808080" stop-opacity="0.12"/>
<stop offset="1" stop-color="#808080" stop-opacity="0.1"/>
</linearGradient>
<linearGradient id="paint2_linear" x1="21894.4" y1="176300" x2="21894.4" y2="49293.8" gradientUnits="userSpaceOnUse">
<stop stop-color="#808080" stop-opacity="0.25"/>
<stop offset="0.54" stop-color="#808080" stop-opacity="0.12"/>
<stop offset="1" stop-color="#808080" stop-opacity="0.1"/>
</linearGradient>
<clipPath id="clip0">
<rect width="416" height="319" fill="white" transform="translate(32 81)"/>
</clipPath>
</defs>
</svg>
