<svg width="482" height="482" viewBox="0 0 482 482" fill="none" xmlns="http://www.w3.org/2000/svg">
<circle cx="241" cy="241" r="233.5" fill="#F3F6FF" stroke="#FCC90E" stroke-width="15"/>
<mask id="mask0" mask-type="alpha" maskUnits="userSpaceOnUse" x="15" y="15" width="452" height="452">
<circle cx="241" cy="241" r="226" fill="#FCFCFF"/>
</mask>
<g mask="url(#mask0)">
<g clip-path="url(#clip0)">
<path opacity="0.1" d="M104.006 128.908C101.78 131.61 100.923 135.41 99.9643 138.982C92.2462 167.77 73.2273 190.926 51.5679 207.465C42.3956 214.471 31.2288 223.867 33.2355 236.428C34.316 243.174 39.0565 248.14 42.5784 253.634C49.9674 265.139 52.3641 280.776 48.8422 294.548C44.8369 310.218 33.6417 324.84 37.1067 340.685C39.2434 350.438 46.4984 357.379 53.4731 363.344C64.3542 372.645 75.582 381.358 87.1564 389.483C94.915 394.928 103.169 400.227 112.212 400.918C120.173 401.528 127.973 398.5 135.532 395.513C142.137 392.9 148.909 390.182 154.243 384.948C157.724 381.53 160.498 377.121 164.366 374.325C173.448 367.758 185.115 371.919 195.53 374.731C220.106 381.331 246.409 378.921 269.794 367.928C305.667 351.064 333.009 315.648 368.098 296.645C383.185 288.473 399.596 283.401 413.566 272.876C421.436 266.883 428.2 259.561 433.552 251.24C444.113 234.941 449.824 214.158 448.175 193.815C446.526 173.472 437.285 153.868 422.771 142.384C407.233 130.091 387.609 127.794 369.93 120.415C351.683 112.783 335.443 99.673 317.37 91.5007C302.737 84.8984 286.812 81.6581 270.763 82.0174C254.715 82.3768 238.951 86.3267 224.627 93.5773C204.946 103.534 185.005 126.762 163.086 128.526C147.471 129.745 116.201 114.108 104.006 128.908Z" fill="#FCC90E"/>
<path d="M385.647 223.046C385.647 223.046 379.732 202.951 386.756 188.163C389.743 181.978 390.644 174.991 389.323 168.25C388.671 165.055 387.727 161.926 386.504 158.903" stroke="#535461" stroke-width="2" stroke-miterlimit="10"/>
<path d="M390.895 149.561C390.895 152.023 386.427 159.163 386.427 159.163C386.427 159.163 381.958 152.023 381.958 149.561C381.913 148.948 381.995 148.332 382.198 147.751C382.401 147.171 382.722 146.639 383.141 146.189C383.559 145.738 384.065 145.379 384.629 145.133C385.192 144.887 385.8 144.761 386.415 144.761C387.029 144.761 387.637 144.887 388.201 145.133C388.764 145.379 389.271 145.738 389.689 146.189C390.107 146.639 390.428 147.171 390.631 147.751C390.835 148.332 390.916 148.948 390.871 149.561H390.895Z" fill="#FCC90E"/>
<path d="M398.244 163.199C396.907 165.267 389.27 168.839 389.27 168.839C389.27 168.839 389.408 160.423 390.745 158.355C391.425 157.451 392.422 156.838 393.535 156.64C394.649 156.443 395.796 156.675 396.745 157.29C397.694 157.905 398.375 158.857 398.65 159.954C398.925 161.052 398.774 162.212 398.227 163.203L398.244 163.199Z" fill="#FCC90E"/>
<path d="M397.922 186.513C395.725 187.622 387.361 186.854 387.361 186.854C387.361 186.854 391.728 179.657 393.925 178.548C394.967 178.115 396.134 178.093 397.192 178.485C398.25 178.877 399.12 179.656 399.628 180.663C400.136 181.671 400.244 182.834 399.931 183.918C399.618 185.002 398.906 185.928 397.939 186.509L397.922 186.513Z" fill="#FCC90E"/>
<path d="M393.71 204.113C391.732 205.576 383.34 206.238 383.34 206.238C383.34 206.238 386.427 198.407 388.409 196.94C389.363 196.361 390.499 196.159 391.595 196.375C392.69 196.591 393.664 197.21 394.327 198.109C394.989 199.008 395.291 200.122 395.173 201.233C395.055 202.343 394.526 203.369 393.69 204.109L393.71 204.113Z" fill="#FCC90E"/>
<path d="M379.927 169.315C381.694 171.03 389.92 172.81 389.92 172.81C389.92 172.81 387.889 164.637 386.138 162.918C385.73 162.46 385.231 162.091 384.674 161.834C384.117 161.577 383.512 161.438 382.899 161.425C382.285 161.412 381.676 161.525 381.108 161.758C380.54 161.992 380.026 162.339 379.599 162.779C379.171 163.22 378.839 163.744 378.622 164.318C378.406 164.893 378.31 165.505 378.341 166.119C378.372 166.732 378.529 167.332 378.802 167.882C379.074 168.432 379.458 168.92 379.927 169.315V169.315Z" fill="#FCC90E"/>
<path d="M375.26 189.943C377.458 191.052 385.822 190.284 385.822 190.284C385.822 190.284 381.455 183.087 379.257 181.978C378.215 181.545 377.048 181.522 375.99 181.915C374.932 182.307 374.062 183.085 373.554 184.093C373.046 185.101 372.938 186.264 373.251 187.348C373.565 188.432 374.276 189.358 375.244 189.939L375.26 189.943Z" fill="#FCC90E"/>
<path d="M373.473 210.615C375.451 212.078 383.843 212.74 383.843 212.74C383.843 212.74 380.756 204.91 378.774 203.443C378.309 203.031 377.764 202.722 377.173 202.533C376.582 202.344 375.959 202.28 375.342 202.346C374.725 202.411 374.128 202.604 373.59 202.913C373.052 203.222 372.584 203.639 372.216 204.139C371.848 204.638 371.588 205.209 371.453 205.815C371.317 206.42 371.309 207.047 371.43 207.656C371.55 208.265 371.795 208.842 372.15 209.351C372.506 209.86 372.963 210.289 373.493 210.611L373.473 210.615Z" fill="#FCC90E"/>
<path opacity="0.1" d="M390.895 149.561C390.895 152.023 386.427 159.163 386.427 159.163C386.427 159.163 381.958 152.023 381.958 149.561C381.913 148.948 381.995 148.332 382.198 147.751C382.401 147.171 382.722 146.639 383.141 146.189C383.559 145.738 384.065 145.379 384.629 145.133C385.192 144.887 385.8 144.761 386.415 144.761C387.029 144.761 387.637 144.887 388.201 145.133C388.764 145.379 389.271 145.738 389.689 146.189C390.107 146.639 390.428 147.171 390.631 147.751C390.835 148.332 390.916 148.948 390.871 149.561H390.895Z" fill="#FCC90E"/>
<path opacity="0.1" d="M398.244 163.199C396.907 165.267 389.27 168.839 389.27 168.839C389.27 168.839 389.408 160.423 390.745 158.355C391.425 157.451 392.422 156.838 393.535 156.64C394.649 156.443 395.796 156.675 396.745 157.29C397.694 157.905 398.375 158.857 398.65 159.954C398.925 161.052 398.774 162.212 398.227 163.203L398.244 163.199Z" fill="#FCC90E"/>
<path opacity="0.1" d="M397.922 186.513C395.725 187.622 387.361 186.854 387.361 186.854C387.361 186.854 391.728 179.657 393.925 178.548C394.967 178.115 396.134 178.093 397.192 178.485C398.25 178.877 399.12 179.656 399.628 180.663C400.136 181.671 400.244 182.834 399.931 183.918C399.618 185.002 398.906 185.928 397.939 186.509L397.922 186.513Z" fill="#FCC90E"/>
<path opacity="0.1" d="M393.71 204.113C391.732 205.576 383.34 206.238 383.34 206.238C383.34 206.238 386.427 198.407 388.409 196.94C389.363 196.361 390.499 196.159 391.595 196.375C392.69 196.591 393.664 197.21 394.327 198.109C394.989 199.008 395.291 200.122 395.173 201.233C395.055 202.343 394.526 203.369 393.69 204.109L393.71 204.113Z" fill="#FCC90E"/>
<path opacity="0.1" d="M379.927 169.315C381.694 171.03 389.92 172.81 389.92 172.81C389.92 172.81 387.889 164.637 386.138 162.918C385.73 162.46 385.231 162.091 384.674 161.834C384.117 161.577 383.512 161.438 382.899 161.425C382.285 161.412 381.676 161.525 381.108 161.758C380.54 161.992 380.026 162.339 379.599 162.779C379.171 163.22 378.839 163.744 378.622 164.318C378.406 164.893 378.31 165.505 378.341 166.119C378.372 166.732 378.529 167.332 378.802 167.882C379.074 168.432 379.458 168.92 379.927 169.315V169.315Z" fill="#FCC90E"/>
<path opacity="0.1" d="M375.26 189.943C377.458 191.052 385.822 190.284 385.822 190.284C385.822 190.284 381.455 183.087 379.257 181.978C378.215 181.545 377.048 181.522 375.99 181.915C374.932 182.307 374.062 183.085 373.554 184.093C373.046 185.101 372.938 186.264 373.251 187.348C373.565 188.432 374.276 189.358 375.244 189.939L375.26 189.943Z" fill="#FCC90E"/>
<path opacity="0.1" d="M373.473 210.615C375.451 212.078 383.843 212.74 383.843 212.74C383.843 212.74 380.756 204.91 378.774 203.443C378.309 203.031 377.764 202.722 377.173 202.533C376.582 202.344 375.959 202.28 375.342 202.346C374.725 202.411 374.128 202.604 373.59 202.913C373.052 203.222 372.584 203.639 372.216 204.139C371.848 204.638 371.588 205.209 371.453 205.815C371.317 206.42 371.309 207.047 371.43 207.656C371.55 208.265 371.795 208.842 372.15 209.351C372.506 209.86 372.963 210.289 373.493 210.611L373.473 210.615Z" fill="#FCC90E"/>
<path d="M410.426 255.15C410.426 255.15 404.511 235.055 411.535 220.267C414.522 214.082 415.423 207.095 414.102 200.354C413.45 197.159 412.506 194.03 411.283 191.007" stroke="#535461" stroke-width="2" stroke-miterlimit="10"/>
<path d="M415.674 181.665C415.674 184.127 411.206 191.267 411.206 191.267C411.206 191.267 406.738 184.127 406.738 181.665C406.692 181.052 406.774 180.436 406.977 179.855C407.181 179.275 407.501 178.743 407.92 178.293C408.338 177.842 408.844 177.483 409.408 177.237C409.971 176.991 410.579 176.865 411.194 176.865C411.808 176.865 412.416 176.991 412.98 177.237C413.543 177.483 414.05 177.842 414.468 178.293C414.886 178.743 415.207 179.275 415.41 179.855C415.614 180.436 415.695 181.052 415.65 181.665H415.674Z" fill="#FCC90E"/>
<path d="M423.023 195.303C421.686 197.371 414.066 200.939 414.066 200.939C414.066 200.939 414.204 192.523 415.54 190.455C415.837 189.918 416.24 189.447 416.726 189.073C417.212 188.699 417.77 188.429 418.365 188.28C418.959 188.131 419.579 188.105 420.183 188.206C420.788 188.306 421.366 188.53 421.881 188.864C422.395 189.197 422.836 189.633 423.175 190.144C423.514 190.655 423.744 191.231 423.851 191.835C423.959 192.439 423.94 193.058 423.798 193.655C423.655 194.252 423.391 194.813 423.023 195.303V195.303Z" fill="#FCC90E"/>
<path d="M422.702 218.617C420.504 219.726 412.14 218.958 412.14 218.958C412.14 218.958 416.507 211.761 418.705 210.652C419.231 210.335 419.818 210.131 420.427 210.051C421.036 209.972 421.656 210.019 422.246 210.19C422.836 210.361 423.385 210.651 423.858 211.044C424.331 211.436 424.718 211.922 424.994 212.471C425.271 213.02 425.432 213.62 425.466 214.234C425.5 214.848 425.408 215.462 425.194 216.038C424.981 216.615 424.65 217.141 424.224 217.584C423.798 218.027 423.285 218.377 422.718 218.613L422.702 218.617Z" fill="#FCC90E"/>
<path d="M418.489 236.217C416.511 237.68 408.119 238.342 408.119 238.342C408.119 238.342 411.206 230.511 413.188 229.044C414.142 228.465 415.279 228.263 416.374 228.479C417.469 228.695 418.443 229.314 419.106 230.213C419.768 231.112 420.07 232.226 419.952 233.337C419.834 234.447 419.305 235.473 418.469 236.213L418.489 236.217Z" fill="#FCC90E"/>
<path d="M404.706 201.419C406.474 203.134 414.699 204.914 414.699 204.914C414.699 204.914 412.668 196.741 410.918 195.022C410.053 194.295 408.945 193.922 407.816 193.978C406.688 194.035 405.623 194.517 404.836 195.328C404.049 196.139 403.598 197.218 403.574 198.348C403.55 199.478 403.954 200.575 404.706 201.419V201.419Z" fill="#FCC90E"/>
<path d="M400.039 222.047C402.237 223.156 410.601 222.388 410.601 222.388C410.601 222.388 406.234 215.191 404.036 214.082C402.994 213.649 401.827 213.626 400.769 214.019C399.712 214.411 398.841 215.189 398.333 216.197C397.825 217.205 397.717 218.368 398.03 219.452C398.344 220.536 399.055 221.462 400.023 222.043L400.039 222.047Z" fill="#FCC90E"/>
<path d="M398.252 242.719C400.23 244.182 408.622 244.844 408.622 244.844C408.622 244.844 405.535 237.014 403.553 235.547C403.088 235.135 402.543 234.826 401.952 234.637C401.361 234.448 400.738 234.384 400.121 234.45C399.504 234.515 398.907 234.708 398.369 235.017C397.831 235.326 397.363 235.743 396.995 236.243C396.627 236.742 396.367 237.313 396.232 237.919C396.096 238.524 396.088 239.151 396.209 239.76C396.329 240.369 396.574 240.946 396.929 241.455C397.285 241.964 397.742 242.393 398.272 242.715L398.252 242.719Z" fill="#FCC90E"/>
<path opacity="0.1" d="M415.674 181.665C415.674 184.127 411.206 191.267 411.206 191.267C411.206 191.267 406.738 184.127 406.738 181.665C406.692 181.052 406.774 180.436 406.977 179.855C407.181 179.275 407.501 178.743 407.92 178.293C408.338 177.842 408.844 177.483 409.408 177.237C409.971 176.991 410.579 176.865 411.194 176.865C411.808 176.865 412.416 176.991 412.98 177.237C413.543 177.483 414.05 177.842 414.468 178.293C414.886 178.743 415.207 179.275 415.41 179.855C415.614 180.436 415.695 181.052 415.65 181.665H415.674Z" fill="#FCC90E"/>
<path opacity="0.1" d="M423.023 195.303C421.686 197.371 414.066 200.939 414.066 200.939C414.066 200.939 414.204 192.523 415.54 190.455C415.837 189.918 416.24 189.447 416.726 189.073C417.212 188.699 417.77 188.429 418.365 188.28C418.959 188.131 419.579 188.105 420.183 188.206C420.788 188.306 421.366 188.53 421.881 188.864C422.395 189.197 422.836 189.633 423.175 190.144C423.514 190.655 423.744 191.231 423.851 191.835C423.959 192.439 423.94 193.058 423.798 193.655C423.655 194.252 423.391 194.813 423.023 195.303V195.303Z" fill="#FCC90E"/>
<path opacity="0.1" d="M422.702 218.617C420.504 219.726 412.14 218.958 412.14 218.958C412.14 218.958 416.507 211.761 418.705 210.652C419.231 210.335 419.818 210.131 420.427 210.051C421.036 209.972 421.656 210.019 422.246 210.19C422.836 210.361 423.385 210.651 423.858 211.044C424.331 211.436 424.718 211.922 424.994 212.471C425.271 213.02 425.432 213.62 425.466 214.234C425.5 214.848 425.408 215.462 425.194 216.038C424.981 216.615 424.65 217.141 424.224 217.584C423.798 218.027 423.285 218.377 422.718 218.613L422.702 218.617Z" fill="#FCC90E"/>
<path opacity="0.1" d="M418.489 236.217C416.511 237.68 408.119 238.342 408.119 238.342C408.119 238.342 411.206 230.511 413.188 229.044C414.142 228.465 415.279 228.263 416.374 228.479C417.469 228.695 418.443 229.314 419.106 230.213C419.768 231.112 420.07 232.226 419.952 233.337C419.834 234.447 419.305 235.473 418.469 236.213L418.489 236.217Z" fill="#FCC90E"/>
<path opacity="0.1" d="M404.706 201.419C406.474 203.134 414.699 204.914 414.699 204.914C414.699 204.914 412.668 196.741 410.918 195.022C410.053 194.295 408.945 193.922 407.816 193.978C406.688 194.035 405.623 194.517 404.836 195.328C404.049 196.139 403.598 197.218 403.574 198.348C403.55 199.478 403.954 200.575 404.706 201.419V201.419Z" fill="#FCC90E"/>
<path opacity="0.1" d="M400.039 222.047C402.237 223.156 410.601 222.388 410.601 222.388C410.601 222.388 406.234 215.191 404.036 214.082C402.994 213.649 401.827 213.626 400.769 214.019C399.712 214.411 398.841 215.189 398.333 216.197C397.825 217.205 397.717 218.368 398.03 219.452C398.344 220.536 399.055 221.462 400.023 222.043L400.039 222.047Z" fill="#FCC90E"/>
<path opacity="0.1" d="M398.252 242.719C400.23 244.182 408.622 244.844 408.622 244.844C408.622 244.844 405.535 237.014 403.553 235.547C403.088 235.135 402.543 234.826 401.952 234.637C401.361 234.448 400.738 234.384 400.121 234.45C399.504 234.515 398.907 234.708 398.369 235.017C397.831 235.326 397.363 235.743 396.995 236.243C396.627 236.742 396.367 237.313 396.232 237.919C396.096 238.524 396.088 239.151 396.209 239.76C396.329 240.369 396.574 240.946 396.929 241.455C397.285 241.964 397.742 242.393 398.272 242.715L398.252 242.719Z" fill="#FCC90E"/>
<path opacity="0.1" d="M252.333 322.337C362.668 311.573 450.708 288.443 448.976 270.676C447.244 252.908 356.395 247.231 246.06 257.996C135.726 268.76 47.6856 291.89 49.4176 309.657C51.1496 327.425 141.998 333.102 252.333 322.337Z" fill="#FCC90E"/>
<path d="M431.59 273.506C439.101 258.105 437.549 233.035 436.749 224.526C436.574 222.664 436.436 221.596 436.436 221.596C436.436 221.596 429.814 220.551 432.256 212.533C433.45 208.608 429.209 206.438 424.578 205.247C421.267 204.455 417.889 203.977 414.488 203.82L350.351 199.858C341.556 185.895 324.252 188.138 324.252 188.138C324.252 188.138 308.815 186.533 297.872 186.366C296.211 184.903 294.391 183.631 292.445 182.575C291.286 181.878 290.051 181.315 288.765 180.897C287.201 180.445 285.553 180.366 283.953 180.666C282.354 180.966 280.846 181.637 279.552 182.624C278.921 183.078 278.407 183.675 278.053 184.367C277.916 184.682 277.814 185.01 277.748 185.346C277.583 185.92 277.448 186.502 277.342 187.09C277.247 187.373 277.11 187.64 276.936 187.882C276.497 188.504 275.741 188.971 275.644 189.723C275.642 189.766 275.642 189.81 275.644 189.853C275.564 189.997 275.51 190.154 275.486 190.316C275.456 190.651 275.528 190.987 275.693 191.28C275.717 191.328 275.746 191.373 275.774 191.418C275.234 192.2 274.793 193.046 274.462 193.937C274.312 194.019 274.166 194.11 274.027 194.21L273.905 194.299V194.547L273.836 194.6L273.686 198.603L273.771 198.668C273.894 200.535 274.457 202.347 275.415 203.954C276.372 205.562 277.697 206.92 279.28 207.917C279.332 208.173 279.381 208.433 279.43 208.705C279.653 210.018 279.754 211.348 279.731 212.68H279.661C277.752 211.867 274.486 213.062 271.679 214.455H235.315C242.408 205.328 251.084 198.249 251.084 198.249V190.227C244.885 189.918 190.428 216.089 178.49 221.868L177.962 222.124L116.603 224.026C105.489 223.957 95.7723 225.59 87.3555 228.252C73.2906 232.672 60.6516 240.75 50.7312 251.66C43.4844 259.616 40.3078 266.192 40.3078 266.192L40.3768 266.744L40.3078 266.887L40.4053 266.972L42.0585 280.025L43.1959 289.006C35.291 294.118 45.5317 296.166 45.5317 296.166C55.2808 304.53 70.9648 304.184 70.9648 304.184C74.7954 309.414 85.9459 308.715 85.9459 308.715H144.477C145.389 303.339 146.61 298.02 148.133 292.785C150.632 310.784 164.829 324.572 181.963 324.572C183.234 324.571 184.503 324.494 185.765 324.341C187.027 324.494 188.296 324.571 189.567 324.572C206.9 324.572 221.223 310.459 223.478 292.159H226.342C225.807 296.248 224.878 300.275 223.567 304.184C276.176 288.847 374.078 281.528 374.078 281.528C374.484 277.668 374.931 273.937 375.414 270.357C379.448 280.374 388.592 287.368 399.235 287.368C400.201 287.367 401.167 287.307 402.127 287.189C403.087 287.307 404.052 287.367 405.019 287.368C417.657 287.368 428.173 277.505 430.546 264.428C430.86 266.736 431.039 269.06 431.082 271.389C430.631 273.608 430.237 275.026 430.184 275.225C430.501 274.646 430.802 274.052 431.086 273.446C431.086 273.681 431.086 273.925 431.086 274.169C430.988 274.575 430.919 274.803 430.899 274.88L431.078 274.547C431.078 274.726 431.078 274.9 431.078 275.079C431.037 275.095 431.253 274.51 431.59 273.506Z" fill="url(#paint0_linear)"/>
<path d="M425.452 218.166H304.847V266.838H425.452V218.166Z" fill="#6F7D95"/>
<path d="M274.182 195.372L291.312 233.763L325.235 231.706L326.604 215.939L327.631 197.428L279.666 193.998L274.182 195.372Z" fill="#4B5C7A"/>
<path d="M274.182 195.372C274.182 195.372 280.681 189.203 288.574 187.829C296.467 186.456 322.838 189.199 322.838 189.199L326.608 195.701L325.901 198.798L274.182 195.372Z" fill="#FF4D52"/>
<path d="M338.766 215.081H217.133V250.729H338.766V215.081Z" fill="#4B5C7A"/>
<path d="M308.84 239.334C312.053 228.585 305.647 221.522 305.647 221.522L295.029 214.11C295.02 214.135 295.009 214.16 294.996 214.183C293.615 212.564 292.627 210.648 292.108 208.583C292.075 208.453 292.047 208.319 292.014 208.177C292.985 207.455 293.835 206.584 294.533 205.596C296.263 204.536 297.035 202.829 297.328 201.126C298.441 199.473 299.328 197.679 299.964 195.79C300.069 195.485 300.159 195.174 300.232 194.86C300.437 194.274 300.528 193.655 300.5 193.035C300.414 192.345 300.184 191.681 299.826 191.085C298.039 187.833 294.821 185.57 291.559 183.725C290.419 183.04 289.205 182.486 287.94 182.075C286.402 181.632 284.782 181.554 283.209 181.849C281.636 182.144 280.154 182.803 278.882 183.774C278.261 184.22 277.756 184.808 277.407 185.489C277.273 185.798 277.172 186.121 277.106 186.452C276.949 187.016 276.82 187.589 276.72 188.167C276.632 188.443 276.503 188.704 276.339 188.943C275.904 189.552 275.165 190.012 275.067 190.755C275.065 190.799 275.065 190.842 275.067 190.885C274.989 191.027 274.936 191.181 274.913 191.341C274.883 191.669 274.954 192 275.116 192.287C275.14 192.336 275.169 192.381 275.197 192.426C274.666 193.195 274.232 194.028 273.905 194.904C273.757 194.985 273.613 195.075 273.475 195.173L273.357 195.258V195.502L273.288 195.555L273.138 199.493L273.219 199.558C273.339 201.394 273.892 203.176 274.833 204.758C275.775 206.339 277.077 207.675 278.634 208.656C278.687 208.908 278.735 209.164 278.78 209.433C279.025 210.85 279.123 212.29 279.072 213.728C279.056 213.604 279.056 213.478 279.072 213.354C276.136 212.025 269.73 215.699 267.15 217.324C266.759 217.51 266.394 217.746 266.065 218.027L266.021 218.06C264.246 219.499 260.74 223.497 257.957 233.775C254.098 248.116 254.501 251.367 251.69 254.691C248.879 258.015 246.088 281.435 246.088 281.435L251.746 282.959L252.469 280.634C259.196 286.771 278.033 289.725 278.033 289.725L278.609 287.933C281.498 288.973 286.327 287.392 286.327 287.392C293.387 284.897 296.032 278.566 301.154 270.215C306.277 261.864 308.84 239.334 308.84 239.334ZM280.364 282.544L293.404 242.081C294.586 248.364 289.37 258.259 288.907 264.729C288.618 268.89 283.776 277.16 280.364 282.544Z" fill="url(#paint1_linear)"/>
<path d="M296.678 196.758C296.678 196.758 298.948 205.409 292.209 206.917C285.47 208.425 289.91 203.028 289.91 203.028L296.41 196.693L296.678 196.758Z" fill="#472727"/>
<path d="M268.503 217.377C268.503 217.377 263.49 219.409 259.806 233.096C256.121 246.783 256.487 249.871 253.835 253.053C251.182 256.235 248.464 278.562 248.464 278.562L253.77 279.992L258.388 265.07L271.09 225.651L268.503 217.377Z" fill="#DDE0E4"/>
<path opacity="0.05" d="M268.503 217.377C268.503 217.377 263.49 219.409 259.806 233.096C256.121 246.783 256.487 249.871 253.835 253.053C251.182 256.235 248.464 278.562 248.464 278.562L253.77 279.992L258.388 265.07L271.09 225.651L268.503 217.377Z" fill="black"/>
<path d="M296.336 215.833C296.336 215.833 275.351 226.505 278.422 219.543C279.942 216.105 279.885 212.541 279.442 209.79C279.189 208.17 278.746 206.585 278.122 205.068C278.122 205.068 292.388 193.779 291.551 202.996C291.351 204.979 291.488 206.983 291.957 208.921C293.192 213.809 296.336 215.833 296.336 215.833Z" fill="#DB8B8B"/>
<path opacity="0.1" d="M291.958 208.937C290.608 210.021 289.021 210.77 287.327 211.124C285.632 211.477 283.878 211.424 282.208 210.969C281.232 210.706 280.296 210.311 279.426 209.794C279.173 208.174 278.73 206.589 278.106 205.072C278.106 205.072 292.372 193.783 291.535 203C291.339 204.988 291.482 206.996 291.958 208.937Z" fill="black"/>
<path d="M295.838 202.67C297.415 196.81 293.945 190.78 288.088 189.202C282.23 187.624 276.203 191.096 274.625 196.956C273.048 202.816 276.518 208.845 282.376 210.423C288.234 212.001 294.261 208.53 295.838 202.67Z" fill="#DB8B8B"/>
<path opacity="0.1" d="M279.714 194.453C279.413 194.638 279.077 194.759 278.728 194.81C278.379 194.861 278.023 194.841 277.681 194.751C277.34 194.661 277.02 194.503 276.741 194.287C276.462 194.07 276.23 193.799 276.058 193.49C275.908 193.215 275.843 192.901 275.871 192.588C275.965 191.881 276.664 191.442 277.09 190.857C277.752 189.91 277.626 188.614 278.106 187.561C278.436 186.918 278.911 186.362 279.495 185.936C280.682 185.007 282.072 184.373 283.551 184.085C285.03 183.797 286.556 183.863 288.005 184.278C289.19 184.665 290.327 185.187 291.393 185.834C294.448 187.577 297.458 189.711 299.111 192.812C299.446 193.381 299.659 194.013 299.737 194.669C299.755 195.377 299.631 196.082 299.371 196.741C298.76 198.563 297.909 200.294 296.84 201.89C296.483 201.446 296.034 201.084 295.524 200.83C295.267 200.708 294.978 200.67 294.698 200.722C294.418 200.774 294.161 200.912 293.964 201.118C293.611 201.569 293.396 202.431 292.859 202.227C292.51 202.097 292.514 201.614 292.53 201.24C292.603 199.614 291.718 198.082 290.528 196.985C289.337 195.888 287.863 195.165 286.409 194.453C285.365 193.941 283.971 192.767 282.826 192.56C281.404 192.296 280.734 193.824 279.714 194.453Z" fill="black"/>
<path d="M279.865 193.897C279.563 194.081 279.228 194.202 278.878 194.253C278.529 194.305 278.173 194.285 277.831 194.195C277.49 194.105 277.17 193.947 276.891 193.73C276.612 193.513 276.38 193.242 276.209 192.934C276.058 192.658 275.993 192.344 276.022 192.031C276.115 191.324 276.814 190.885 277.24 190.3C277.903 189.353 277.777 188.057 278.256 187.004C278.586 186.362 279.062 185.805 279.645 185.379C280.832 184.45 282.222 183.816 283.701 183.528C285.181 183.24 286.707 183.306 288.155 183.721C289.341 184.108 290.478 184.63 291.543 185.277C294.598 187.021 297.608 189.154 299.261 192.255C299.596 192.824 299.809 193.456 299.887 194.112C299.905 194.82 299.781 195.525 299.521 196.185C298.91 198.006 298.059 199.737 296.991 201.333C296.633 200.889 296.184 200.528 295.674 200.273C295.417 200.151 295.128 200.113 294.848 200.165C294.568 200.217 294.311 200.356 294.115 200.561C293.761 201.012 293.546 201.874 293.01 201.671C292.66 201.541 292.664 201.057 292.681 200.683C292.754 199.058 291.868 197.526 290.678 196.428C289.488 195.331 288.013 194.608 286.559 193.897C285.515 193.385 284.122 192.21 282.976 192.003C281.554 191.735 280.884 193.267 279.865 193.897Z" fill="#472727"/>
<path d="M285.617 217.288C285.617 217.288 294.305 215.585 294.683 214.191L304.619 221.209C304.619 221.209 310.599 227.911 307.54 238.168C307.54 238.168 305.05 259.661 300.208 267.638C295.366 275.616 292.583 285.95 285.95 288.364C285.95 288.364 279.572 284.251 277.468 284.3C277.468 284.3 288.269 268.642 288.732 262.477C289.195 256.313 294.131 246.86 293.05 240.878L278.427 286.352C278.427 286.352 254.866 282.695 252.478 274.872C252.478 274.872 254.509 271.82 254.131 268.727C253.753 265.635 263.019 242.37 263.019 242.37L267.455 218.109C267.455 218.109 276.229 211.977 279.722 213.57C279.706 213.545 279.072 216.573 285.617 217.288Z" fill="#DDE0E4"/>
<g opacity="0.1">
<path opacity="0.1" d="M288.781 198.424C286.636 195.498 282.545 197.899 281.875 198.318L280.823 198.212C279.905 197.213 277.09 194.555 274.446 196.51L274.332 196.595L274.173 200.346L274.287 200.435C275.051 201.025 275.917 201.469 276.842 201.744C277.428 201.916 278.046 201.947 278.646 201.833C279.09 201.731 279.506 201.532 279.864 201.251C280.223 200.97 280.516 200.614 280.722 200.208L281.27 200.244L281.676 200.167C281.757 200.599 281.93 201.009 282.182 201.369C282.434 201.73 282.76 202.032 283.139 202.256C284.954 203.284 287.607 202.256 287.717 202.236L287.855 202.183L288.83 198.554L288.781 198.424ZM287.404 201.724C286.864 201.906 284.824 202.508 283.455 201.724C283.115 201.51 282.827 201.221 282.616 200.878C282.405 200.536 282.275 200.149 282.237 199.749L282.188 199.452L281.298 199.635L280.405 199.602L280.319 199.773C280.156 200.142 279.911 200.469 279.602 200.728C279.292 200.987 278.928 201.172 278.536 201.268C277.005 201.598 275.234 200.411 274.77 200.074L274.905 196.904C277.204 195.356 279.738 197.867 280.47 198.688L280.547 198.773L282.03 198.92L282.119 198.859C282.16 198.834 285.844 196.359 287.944 198.351C288.048 198.447 288.145 198.552 288.232 198.663L287.404 201.724Z" fill="black"/>
<path opacity="0.1" d="M295.435 200.309L288.529 199.736L287.96 199.627L288.216 198.668C288.128 198.556 288.032 198.451 287.928 198.355L288.765 198.436L294.415 198.989L295.435 200.309Z" fill="black"/>
</g>
<path d="M288.854 198.164C286.709 195.238 282.619 197.639 281.948 198.058L280.896 197.952C279.978 196.953 277.163 194.295 274.519 196.25L274.405 196.335L274.247 200.086L274.36 200.175C275.124 200.765 275.99 201.209 276.915 201.484C277.501 201.656 278.119 201.687 278.719 201.573C279.163 201.471 279.579 201.272 279.937 200.991C280.296 200.71 280.589 200.354 280.795 199.948L281.343 199.984L281.749 199.907C281.831 200.339 282.003 200.749 282.255 201.109C282.507 201.469 282.834 201.772 283.212 201.996C285.027 203.024 287.68 201.996 287.79 201.975L287.928 201.923L288.903 198.294L288.854 198.164ZM287.477 201.463C286.937 201.646 284.898 202.248 283.529 201.463C283.188 201.25 282.901 200.96 282.689 200.618C282.478 200.276 282.348 199.889 282.31 199.488L282.261 199.192L281.372 199.375L280.49 199.318L280.405 199.488C280.245 199.86 280.001 200.189 279.693 200.451C279.386 200.713 279.022 200.901 278.63 201C277.098 201.329 275.327 200.143 274.864 199.805L274.998 196.636C277.297 195.087 279.832 197.599 280.563 198.42L280.64 198.505L282.123 198.651L282.212 198.59C282.253 198.566 285.937 196.091 288.038 198.082C288.142 198.179 288.238 198.284 288.326 198.395L287.477 201.463Z" fill="#472727"/>
<path d="M295.5 200.049L288.618 199.476L288.05 199.367L288.306 198.408C288.218 198.296 288.121 198.191 288.017 198.095L288.854 198.176L294.504 198.729L295.5 200.049Z" fill="#472727"/>
<path d="M248.31 242.845H127.705V291.517H248.31V242.845Z" fill="#6F7D95"/>
<path d="M182.901 323.394C201.488 323.394 216.556 306.897 216.556 286.547C216.556 266.197 201.488 249.701 182.901 249.701C164.314 249.701 149.246 266.197 149.246 286.547C149.246 306.897 164.314 323.394 182.901 323.394Z" fill="#4B5C7A"/>
<path opacity="0.05" d="M182.901 323.394C201.488 323.394 216.556 306.897 216.556 286.547C216.556 266.197 201.488 249.701 182.901 249.701C164.314 249.701 149.246 266.197 149.246 286.547C149.246 306.897 164.314 323.394 182.901 323.394Z" fill="black"/>
<path d="M190.379 323.394C208.967 323.394 224.034 306.897 224.034 286.547C224.034 266.197 208.967 249.701 190.379 249.701C171.792 249.701 156.725 266.197 156.725 286.547C156.725 306.897 171.792 323.394 190.379 323.394Z" fill="#4B5C7A"/>
<path opacity="0.05" d="M189.632 301.697C197.893 301.697 204.589 294.998 204.589 286.734C204.589 278.47 197.893 271.771 189.632 271.771C181.372 271.771 174.675 278.47 174.675 286.734C174.675 294.998 181.372 301.697 189.632 301.697Z" fill="black"/>
<path d="M189.632 291.225C192.111 291.225 194.121 289.214 194.121 286.734C194.121 284.254 192.111 282.244 189.632 282.244C187.153 282.244 185.144 284.254 185.144 286.734C185.144 289.214 187.153 291.225 189.632 291.225Z" stroke="#6F7D95" stroke-width="2" stroke-miterlimit="10"/>
<path d="M189.632 280C190.251 280 190.753 279.498 190.753 278.879C190.753 278.259 190.251 277.757 189.632 277.757C189.013 277.757 188.511 278.259 188.511 278.879C188.511 279.498 189.013 280 189.632 280Z" fill="#6F7D95"/>
<path d="M196.488 281.904C196.962 281.506 197.024 280.798 196.626 280.324C196.228 279.849 195.521 279.787 195.047 280.186C194.572 280.584 194.51 281.291 194.908 281.766C195.306 282.24 196.014 282.302 196.488 281.904Z" fill="#6F7D95"/>
<path d="M199.165 287.335C199.272 286.725 198.865 286.143 198.255 286.036C197.645 285.928 197.064 286.336 196.956 286.946C196.849 287.556 197.256 288.137 197.866 288.245C198.476 288.353 199.057 287.945 199.165 287.335Z" fill="#6F7D95"/>
<path d="M195.416 293.786C195.952 293.477 196.136 292.791 195.826 292.254C195.517 291.718 194.831 291.534 194.295 291.844C193.759 292.153 193.575 292.839 193.885 293.376C194.194 293.912 194.88 294.096 195.416 293.786Z" fill="#6F7D95"/>
<path d="M189.513 294.394C189.725 293.811 189.425 293.168 188.843 292.956C188.261 292.744 187.618 293.044 187.406 293.626C187.194 294.208 187.494 294.852 188.076 295.064C188.658 295.276 189.301 294.976 189.513 294.394Z" fill="#6F7D95"/>
<path d="M183.814 290.93C184.396 290.718 184.696 290.074 184.484 289.492C184.272 288.91 183.629 288.61 183.047 288.822C182.465 289.034 182.165 289.677 182.377 290.259C182.589 290.841 183.232 291.141 183.814 290.93Z" fill="#6F7D95"/>
<path d="M184.337 283.923C184.647 283.386 184.463 282.7 183.927 282.39C183.391 282.081 182.705 282.265 182.395 282.801C182.086 283.337 182.269 284.023 182.806 284.333C183.342 284.643 184.028 284.459 184.337 283.923Z" fill="#6F7D95"/>
<path d="M432.203 258.072C431.053 266.013 427.856 274.705 427.856 274.705C427.878 274.163 427.892 273.628 427.897 273.1C427.897 272.417 427.897 271.743 427.897 271.068C427.491 249.181 415.568 235.677 407.879 229.211C405.88 227.507 403.731 225.989 401.457 224.676H422.356C422.356 224.676 430.578 241.472 432.292 249.697C432.788 252.005 432.65 254.984 432.203 258.072Z" fill="#FF4D52"/>
<path opacity="0.05" d="M432.203 258.072C431.053 266.013 427.856 274.705 427.856 274.705C427.878 274.163 427.892 273.628 427.897 273.1C427.897 272.417 427.897 271.743 427.897 271.068C427.491 249.181 415.568 235.677 407.879 229.211C405.88 227.507 403.731 225.989 401.457 224.676H422.356C422.356 224.676 430.578 241.472 432.292 249.697C432.788 252.005 432.65 254.984 432.203 258.072Z" fill="black"/>
<path d="M396.57 286.807C410.706 286.807 422.166 274.261 422.166 258.783C422.166 243.306 410.706 230.759 396.57 230.759C382.434 230.759 370.974 243.306 370.974 258.783C370.974 274.261 382.434 286.807 396.57 286.807Z" fill="#4B5C7A"/>
<path opacity="0.05" d="M396.57 286.807C410.706 286.807 422.166 274.261 422.166 258.783C422.166 243.306 410.706 230.759 396.57 230.759C382.434 230.759 370.974 243.306 370.974 258.783C370.974 274.261 382.434 286.807 396.57 286.807Z" fill="black"/>
<path d="M402.257 286.807C416.393 286.807 427.853 274.261 427.853 258.783C427.853 243.306 416.393 230.759 402.257 230.759C388.121 230.759 376.661 243.306 376.661 258.783C376.661 274.261 388.121 286.807 402.257 286.807Z" fill="#4B5C7A"/>
<path opacity="0.05" d="M401.688 270.304C407.97 270.304 413.062 265.21 413.062 258.926C413.062 252.641 407.97 247.547 401.688 247.547C395.407 247.547 390.314 252.641 390.314 258.926C390.314 265.21 395.407 270.304 401.688 270.304Z" fill="black"/>
<path d="M401.688 262.339C403.573 262.339 405.101 260.811 405.101 258.926C405.101 257.04 403.573 255.512 401.688 255.512C399.804 255.512 398.276 257.04 398.276 258.926C398.276 260.811 399.804 262.339 401.688 262.339Z" stroke="#6F7D95" stroke-width="2" stroke-miterlimit="10"/>
<path d="M401.688 253.805C402.159 253.805 402.541 253.423 402.541 252.952C402.541 252.48 402.159 252.098 401.688 252.098C401.217 252.098 400.835 252.48 400.835 252.952C400.835 253.423 401.217 253.805 401.688 253.805Z" fill="#6F7D95"/>
<path d="M406.905 255.252C407.266 254.949 407.313 254.411 407.01 254.05C406.707 253.689 406.169 253.642 405.809 253.945C405.448 254.247 405.401 254.786 405.703 255.147C406.006 255.508 406.544 255.555 406.905 255.252Z" fill="#6F7D95"/>
<path d="M408.938 259.386C409.02 258.922 408.71 258.479 408.246 258.398C407.782 258.316 407.34 258.626 407.258 259.09C407.176 259.554 407.486 259.997 407.95 260.078C408.414 260.16 408.856 259.85 408.938 259.386Z" fill="#6F7D95"/>
<path d="M406.091 264.292C406.499 264.056 406.638 263.534 406.403 263.126C406.167 262.718 405.646 262.578 405.238 262.814C404.83 263.049 404.69 263.571 404.925 263.979C405.161 264.388 405.683 264.527 406.091 264.292Z" fill="#6F7D95"/>
<path d="M401.6 264.752C401.761 264.309 401.533 263.819 401.09 263.658C400.647 263.497 400.158 263.725 399.997 264.168C399.835 264.611 400.064 265.101 400.506 265.262C400.949 265.423 401.439 265.195 401.6 264.752Z" fill="#6F7D95"/>
<path d="M397.264 262.114C397.706 261.953 397.935 261.463 397.774 261.02C397.613 260.577 397.123 260.349 396.68 260.51C396.238 260.671 396.009 261.161 396.17 261.604C396.332 262.047 396.821 262.275 397.264 262.114Z" fill="#6F7D95"/>
<path d="M397.666 256.786C397.902 256.378 397.762 255.856 397.354 255.621C396.946 255.385 396.425 255.525 396.189 255.933C395.953 256.341 396.093 256.863 396.501 257.099C396.909 257.334 397.431 257.195 397.666 256.786Z" fill="#6F7D95"/>
<path d="M46.6771 290.318L43.5818 265.98H80.2426L99.0869 282.776L89.8374 304.371C89.8374 304.371 52.5185 298.202 46.6771 290.318Z" fill="#FF4D52"/>
<path opacity="0.05" d="M99.099 282.776L89.8495 304.371C89.8495 304.371 52.5185 298.202 46.6771 290.318L46.543 289.258L43.6995 266.752L43.6711 266.529L43.6021 265.984H80.2629L99.099 282.776Z" fill="black"/>
<path d="M250.885 191.259V199.143C250.885 199.143 231.939 214.585 227.43 229.154C226.643 231.52 226.346 234.021 226.557 236.506C228.271 252.614 177.226 223.477 177.226 223.477L179.497 222.372C191.233 216.711 244.788 190.95 250.885 191.259Z" fill="#7597CE"/>
<path d="M294.058 229.309C294.058 229.309 311.801 220.588 314.649 214.134C315.031 213.269 315.392 212.395 315.815 211.546C317.573 208.006 321.27 199.704 319.41 195.717C317.013 190.577 325.235 196.404 325.235 196.404L320.437 220.734L308.787 227.236L293.712 229.309" fill="#FF4D52"/>
<path opacity="0.05" d="M294.058 229.309C294.058 229.309 311.801 220.588 314.649 214.134C315.031 213.269 315.392 212.395 315.815 211.546C317.573 208.006 321.27 199.704 319.41 195.717C317.013 190.577 325.235 196.404 325.235 196.404L320.437 220.734L308.787 227.236L293.712 229.309" fill="black"/>
<path opacity="0.05" d="M99.0993 282.776L89.8498 304.371C89.8498 304.371 52.5187 298.202 46.6773 290.318L46.5433 289.258C46.6936 289.156 46.852 289.051 47.0185 288.949C47.0185 288.949 58.3235 297.861 84.0247 299.921C84.0247 299.921 99.4608 287.579 74.4299 273.872C74.4299 273.872 52.6568 274.555 43.6876 266.757L43.5901 266.675L43.6591 266.533C43.7187 266.417 43.8149 266.235 43.9476 265.988H80.2509L99.0993 282.776Z" fill="black"/>
<path opacity="0.05" d="M226.557 236.502C228.271 252.614 177.226 223.477 177.226 223.477L179.497 222.372C181 223.973 187 229.374 198.995 228.788C206.713 228.411 218.433 228.756 227.451 229.15C226.657 231.514 226.353 234.016 226.557 236.502V236.502Z" fill="black"/>
<path opacity="0.05" d="M248.314 242.845V291.517H225.907C227.386 280.195 226.533 263.692 212.161 254.232C206.801 250.727 200.577 248.771 194.176 248.58C187.775 248.389 181.445 249.971 175.886 253.151C166.466 258.531 155.933 269.471 149.238 291.517H127.709V242.845H248.314Z" fill="black"/>
<path opacity="0.05" d="M432.203 258.072C431.358 263.445 430.001 268.662 427.901 273.108C427.63 273.707 427.335 274.291 427.016 274.86C427.068 274.661 427.454 273.271 427.901 271.084C430.078 260.437 433.803 230.975 408.846 229.292C408.521 229.272 408.2 229.252 407.879 229.24C405.881 227.526 403.732 225.998 401.457 224.676H422.356C422.356 224.676 430.578 241.472 432.292 249.697C432.788 252.005 432.65 254.984 432.203 258.072Z" fill="black"/>
<path d="M427.694 274.527C428.019 273.352 439.596 230.991 409.524 228.963C379.03 226.907 375.26 249.871 371.836 281.065C371.836 281.065 275.563 288.262 223.819 303.347C223.819 303.347 236.241 269.292 212.851 253.891C207.491 250.385 201.267 248.43 194.866 248.239C188.465 248.048 182.136 249.63 176.577 252.81C165.04 259.401 151.826 274.348 146.045 307.801H88.4768C88.4768 307.801 77.509 308.488 73.7434 303.331C73.7434 303.331 58.3072 303.672 48.7327 295.447C48.7327 295.447 38.4555 293.391 46.6773 288.25C46.6773 288.25 58.3275 297.162 84.0246 299.222C84.0246 299.222 99.4608 286.88 74.4299 273.173C74.4299 273.173 52.4943 273.86 43.5941 265.976C43.5941 265.976 46.7179 259.511 53.847 251.688C63.5978 240.958 76.0222 233.01 89.8498 228.658C99.167 225.777 108.879 224.375 118.63 224.505L179.103 222.62C179.103 222.62 184.945 230.162 198.975 229.475C213.006 228.788 240.433 230.503 240.433 230.503H240.706L297.137 227.947C298.757 227.718 300.36 227.379 301.934 226.931C310.115 224.708 325.633 217.967 322.834 199.139L411.576 204.625C414.92 204.779 418.243 205.248 421.499 206.027C426.057 207.197 430.225 209.335 429.051 213.196C426.654 221.079 433.162 222.108 433.162 222.108C433.162 222.108 433.3 223.16 433.471 224.989C434.283 233.612 435.879 259.539 427.694 274.527Z" fill="#FF4D52"/>
<path opacity="0.05" d="M156.319 236.847C156.319 236.847 119.312 237.188 94.9802 258.791H108.686C108.686 258.791 147.061 248.851 156.31 240.968L156.319 236.847Z" fill="black"/>
<path d="M155.973 236.502C155.973 236.502 118.967 236.843 94.635 258.446H108.341C108.341 258.446 146.716 248.506 155.965 240.622L155.973 236.502Z" fill="#FFEC9F"/>
<path opacity="0.05" d="M90.1909 229.004V238.216L59.018 252.615L54.1921 252.033C63.9418 241.304 76.3647 233.356 90.1909 229.004V229.004Z" fill="black"/>
<path d="M89.8456 228.662V237.875L58.6686 252.269L53.8428 251.688C63.5941 240.959 76.0184 233.013 89.8456 228.662V228.662Z" fill="#FFEC9F"/>
<path opacity="0.05" d="M134.046 270.438C134.046 270.438 117.257 280.72 115.543 303.355H125.138C125.138 303.355 128.907 278.676 139.871 270.438H134.046Z" fill="black"/>
<path opacity="0.05" d="M332.433 271.125L245.401 281.406C245.401 281.406 239.645 244.751 240.71 230.491L297.141 227.935C298.76 227.71 300.361 227.375 301.934 226.931V230.333L344.42 220.051C344.42 220.051 351.618 230.674 332.433 271.125Z" fill="black"/>
<path d="M322.838 189.199C322.838 189.199 341.341 186.801 349.563 202.569L323.102 201.549L322.838 189.199Z" fill="#FF4D52"/>
<path opacity="0.05" d="M348.279 208.096C347.552 210.375 348.1 212.883 352.313 214.618C355.818 216.065 359.929 214.39 361.128 210.794C361.826 208.697 361.347 206.324 357.569 204.393C353.791 202.463 349.551 204.113 348.279 208.096Z" fill="black"/>
<path d="M44.2441 271.117C44.2441 271.117 66.2041 282.496 81.9652 278.188" stroke="#FF4D52" stroke-miterlimit="10"/>
<path d="M45.0198 277.261C45.0198 277.261 59.2088 288.209 87.8876 285.665" stroke="#FF4D52" stroke-miterlimit="10"/>
<path d="M45.6738 282.418C45.6738 282.418 59.7492 294.638 88.6716 290.765" stroke="#FF4D52" stroke-miterlimit="10"/>
<path opacity="0.05" d="M348.503 200.728C348.503 200.728 337.055 210.615 326.608 215.085C326.608 215.085 342.474 217.91 348.503 200.728Z" fill="black"/>
<path opacity="0.1" d="M227.231 229.829C227.231 229.829 281.55 234.961 302.105 230.162C302.105 230.162 303.202 230.889 296.658 227.955L227.231 229.829Z" fill="black"/>
<path opacity="0.05" d="M433.475 224.989C430.091 222.766 424.725 218.154 425.456 213.021C425.821 210.449 424.002 208.043 421.503 206.023C426.061 207.193 430.229 209.331 429.055 213.192C426.658 221.075 433.166 222.104 433.166 222.104C433.166 222.104 433.3 223.16 433.475 224.989Z" fill="black"/>
<path d="M160.462 260.766C160.495 259.409 160.462 257.999 160.36 256.703C160.36 256.455 160.32 256.215 160.295 255.979C161.059 256.556 161.514 256.995 161.514 256.995L160.844 221.705L157.147 203.219C157.147 190.109 150.091 186.415 150.091 186.415C150.091 186.415 146.395 184.733 145.387 182.384C144.38 180.035 135.451 175.069 135.447 175.069C135.377 174.214 135.349 173.355 135.366 172.497C135.366 172.273 135.366 172.042 135.386 171.81C137.625 170.325 139.248 168.078 139.956 165.486C140.663 162.894 140.407 160.134 139.233 157.717C139.729 157.717 140.131 157.509 140.318 156.774C140.911 154.445 140.338 150.938 138.99 149.077C138.701 148.688 138.376 148.327 138.019 148C137.6 147.58 137.159 147.183 136.698 146.809C135.545 145.85 134.261 144.843 132.831 144.924C132.02 145.03 131.241 145.307 130.544 145.737C126.972 147.617 123.41 149.513 119.857 151.426C118.545 152.137 117.192 152.885 116.274 154.161C115.356 155.437 114.986 157.071 114.73 158.676C114.515 159.763 114.465 160.877 114.58 161.98C114.688 162.983 115.147 163.916 115.876 164.613C116.023 164.791 116.191 164.95 116.376 165.088C117.099 165.617 118.029 165.747 118.784 166.173C119.356 167.833 120.312 169.333 121.575 170.55C121.575 170.757 121.547 170.957 121.53 171.184C121.486 171.765 121.417 172.403 121.327 173.049C121.327 173.049 118.845 172.984 115.149 178.023C111.452 183.063 103.389 183.737 103.389 183.737C103.389 183.737 100.367 182.392 97.0073 197.518C93.6479 212.643 92.6404 222.713 94.3181 224.404C95.0305 225.019 95.8334 225.52 96.6985 225.891C99.5463 227.329 102.611 228.29 105.769 228.736C105.81 228.857 105.878 228.967 105.968 229.057L106.208 231.987C106.411 238.172 106.647 250.579 105.396 253.33C103.714 257.028 105.733 259.381 105.733 259.381L106.139 259.352C106.214 259.48 106.298 259.602 106.391 259.718L108.016 259.608C107.898 266.517 107.581 276.099 106.744 278.204C105.4 281.565 106.744 300.051 106.744 300.051L104.392 333.326C104.392 333.326 103.105 350.694 104.311 352.706C103.653 356.319 102.471 363.203 102.715 364.918C103.052 367.27 110.778 370.631 110.778 370.631C110.778 370.631 119.849 372.663 124.215 371.976C126.498 371.623 127.404 370.079 127.412 368.725C130.374 369.201 134.229 369.656 136.646 369.282C141.012 368.612 140.342 363.568 137.99 363.906C135.638 364.243 132.949 359.513 130.951 357.16C129.935 355.973 129.09 353.852 128.513 352.035C128.938 351.971 129.328 351.763 129.618 351.446C130.626 349.764 132.307 334.305 132.307 334.305L136.674 307.419C136.674 307.419 139.026 294.309 141.041 291.286C142.564 289.002 144.469 271.958 145.31 263.749H145.383H145.408L145.497 263.461L146.76 259.381C147.435 260.571 149.133 261.161 151.111 261.413C150.9 262.274 150.725 262.977 150.623 263.379C150.12 265.411 157.464 268.756 159.235 267.078C159.979 266.375 160.365 263.827 160.454 261.039H160.515L160.462 260.766ZM116.323 352.421C116.209 353.076 116.095 353.758 115.982 354.453C115.726 353.64 115.523 352.909 115.384 352.369C115.717 352.381 116.03 352.397 116.323 352.421Z" fill="url(#paint2_linear)"/>
<path d="M127.587 345.415C127.587 345.415 128.883 351.243 130.837 353.506C132.791 355.77 135.366 360.301 137.629 359.98C139.891 359.659 140.541 364.511 136.333 365.157C132.124 365.803 123.391 363.861 123.391 363.861C123.391 363.861 115.949 360.61 115.628 358.359C115.307 356.107 117.57 344.44 117.57 344.44L127.587 345.415Z" fill="#53526B"/>
<path opacity="0.05" d="M127.587 345.415C127.587 345.415 128.883 351.243 130.837 353.506C132.791 355.77 135.366 360.301 137.629 359.98C139.891 359.659 140.541 364.511 136.333 365.157C132.124 365.803 123.391 363.861 123.391 363.861C123.391 363.861 115.949 360.61 115.628 358.359C115.307 356.107 117.57 344.44 117.57 344.44L127.587 345.415Z" fill="black"/>
<path d="M115.616 348.004C115.616 348.004 116.912 353.831 118.866 356.095C120.819 358.359 123.395 362.89 125.657 362.569C127.92 362.248 128.57 367.1 124.362 367.746C120.153 368.392 111.42 366.454 111.42 366.454C111.42 366.454 103.978 363.203 103.657 360.951C103.336 358.7 105.599 347.033 105.599 347.033L115.616 348.004Z" fill="#53526B"/>
<path d="M145.058 259.324C145.058 259.324 142.471 287.157 140.529 290.071C138.587 292.984 136.325 305.606 136.325 305.606L132.12 331.497C132.12 331.497 130.495 346.387 129.533 348.004C128.57 349.621 116.562 348.926 116.562 348.926L124.012 263.209L145.058 259.324Z" fill="#5F5D7E"/>
<path opacity="0.05" d="M145.058 259.324C145.058 259.324 142.471 287.157 140.529 290.071C138.587 292.984 136.325 305.606 136.325 305.606L132.12 331.497C132.12 331.497 130.495 346.387 129.533 348.004C128.57 349.621 116.562 348.926 116.562 348.926L124.012 263.209L145.058 259.324Z" fill="black"/>
<path d="M150.233 246.056L149.389 248.742L144.819 263.254L144.729 263.53H144.705C144.091 263.668 131.141 266.647 128.347 267.561C128.196 267.608 128.048 267.663 127.904 267.728C126.608 268.374 124.991 291.676 124.991 291.676C124.991 291.676 124.02 313.685 123.366 315.303C122.712 316.92 120.117 350.251 118.512 349.284C116.908 348.317 105.249 349.284 105.249 349.284C103.953 347.988 105.249 330.513 105.249 330.513L107.512 298.47C107.512 298.47 106.216 280.671 107.512 277.432C108.808 274.193 108.808 252.513 108.808 252.513L135.305 248.408L137.864 248.002L150.233 246.056Z" fill="#5F5D7E"/>
<path opacity="0.02" d="M149.388 248.742L144.819 263.254L144.709 263.538C144.095 263.676 131.145 266.655 128.351 267.569H128.07L135.305 248.409L135.512 247.856L137.864 248.006L149.388 248.742Z" fill="black"/>
<path opacity="0.1" d="M119.174 181.327C119.174 181.327 131.146 194.275 138.587 183.591L145.704 188.447L144.408 195.892L148.613 252.208C148.613 252.208 137.612 251.883 129.85 254.472C127.688 255.239 125.352 255.372 123.116 254.856C120.881 254.34 118.84 253.196 117.233 251.558L118.529 202.041L115.616 186.83L119.174 181.327Z" fill="black"/>
<path d="M119.174 180.356C119.174 180.356 131.145 193.303 138.587 182.62L145.704 187.476L144.408 194.921L148.617 251.253C148.617 251.253 137.616 250.928 129.854 253.517C127.692 254.284 125.355 254.417 123.12 253.901C120.885 253.385 118.844 252.241 117.237 250.603L118.532 201.086L115.62 185.875L119.174 180.356Z" fill="#53526B"/>
<path d="M143.068 238.013V240.049H143.722V238.692H146.098V240.049H146.752V238.017L143.068 238.013Z" fill="#E82127"/>
<path d="M143.653 237.355H146.163C146.328 237.316 146.478 237.232 146.599 237.113C146.719 236.994 146.804 236.844 146.846 236.68H142.975C143.016 236.844 143.102 236.994 143.222 237.112C143.342 237.231 143.493 237.315 143.657 237.355" fill="#E82127"/>
<path d="M120.954 236.685C120.996 236.847 121.082 236.995 121.201 237.113C121.321 237.23 121.469 237.314 121.632 237.355H122.688L122.741 237.375V240.041H123.399V237.375L123.46 237.355H124.516C124.678 237.313 124.826 237.229 124.945 237.111C125.065 236.993 125.15 236.846 125.194 236.685H120.954Z" fill="#E82127"/>
<path d="M133.741 224.295C137.563 223.701 141.351 233.235 144.859 252.273C145.118 246.808 145.339 241.08 145.521 235.15C137.966 196.753 129.516 196.753 121.961 235.15C122.155 241.04 122.38 246.76 122.635 252.273C126.143 233.235 129.932 223.701 133.753 224.295" fill="#FCC90E"/>
<path d="M144.087 247.348C144.087 247.348 144.087 255.764 146.029 259.324C147.971 262.884 159.292 260.949 159.292 260.949L157.029 248.973L144.087 247.348Z" fill="#D39999"/>
<path d="M158.061 266.769C156.355 268.394 149.283 265.143 149.77 263.209C150.112 261.839 151.306 256.938 151.984 254.159L152.455 252.204C152.455 252.204 156.599 250.908 158.061 252.204C158.593 252.675 158.967 254.533 159.142 256.776C159.442 260.673 159.146 265.741 158.061 266.769Z" fill="#FDC2CC"/>
<path d="M142.467 186.18L131.145 194.917C131.145 194.917 114.324 193.945 118.528 185.854C120.359 182.296 121.464 178.409 121.778 174.419C121.915 172.947 121.915 171.465 121.778 169.993C121.778 169.993 137.308 155.77 135.366 171.936C135.213 173.177 135.123 174.425 135.098 175.675C134.883 187.809 142.467 186.18 142.467 186.18Z" fill="#FDC2CC"/>
<path opacity="0.1" d="M135.35 171.94C135.197 173.181 135.107 174.429 135.082 175.679C133.339 176.833 131.294 177.447 129.204 177.442C126.307 177.442 124.175 174.622 122.249 172.749C122.465 170.063 121.766 169.998 121.766 169.998C121.766 169.998 137.291 155.754 135.35 171.94Z" fill="black"/>
<path d="M129.204 176.792C135.099 176.792 139.879 172.011 139.879 166.112C139.879 160.214 135.099 155.433 129.204 155.433C123.308 155.433 118.528 160.214 118.528 166.112C118.528 172.011 123.308 176.792 129.204 176.792Z" fill="#FDC2CC"/>
<path opacity="0.1" d="M121.603 176.309C121.603 176.309 119.824 176.471 116.266 181.323C112.707 186.175 104.92 186.826 104.92 186.826C104.92 186.826 102.008 185.529 98.7741 200.094C95.5406 214.659 94.5698 224.367 96.1865 225.984C97.8033 227.602 104.274 229.869 107.508 229.869C107.508 229.869 108.479 250.257 106.862 253.817C105.245 257.377 107.187 259.645 107.187 259.645L121.404 258.674C121.404 258.674 126.259 252.525 127.229 241.845C128.2 231.166 131.434 200.74 129.817 197.18C128.2 193.62 121.083 184.558 121.404 183.587C121.725 182.616 121.603 176.309 121.603 176.309Z" fill="black"/>
<path d="M121.575 176.211C121.575 176.211 119.182 176.146 115.624 181.002C112.066 185.858 104.303 186.505 104.303 186.505C104.303 186.505 101.39 185.208 98.1568 199.773C94.9233 214.338 93.9525 224.046 95.5773 225.651C97.2022 227.256 103.665 229.536 106.899 229.536C106.899 229.536 107.869 249.924 106.253 253.484C104.636 257.044 106.578 259.312 106.578 259.312L120.795 258.34C120.795 258.34 125.649 252.192 126.62 241.512C127.591 230.832 130.825 200.407 129.208 196.847C127.591 193.287 120.474 184.225 120.795 183.254C121.116 182.282 121.575 176.211 121.575 176.211Z" fill="#D39999"/>
<path d="M113.044 217.897C113.044 217.897 129.232 199.326 126.957 212.07C125.332 221.132 119.195 225.988 116.282 226.96C113.369 227.931 113.044 217.897 113.044 217.897Z" fill="#FDC2CC"/>
<path opacity="0.1" d="M159.142 256.776C157.594 255.593 154.673 253.752 151.984 254.159L152.455 252.204C152.455 252.204 156.599 250.908 158.061 252.204C158.597 252.675 158.967 254.533 159.142 256.776Z" fill="black"/>
<path opacity="0.1" d="M135.187 178.251C135.187 178.251 143.438 183.591 144.408 185.858C145.379 188.126 148.938 189.743 148.938 189.743C148.938 189.743 155.73 193.303 155.73 205.925L159.288 223.725L143.104 246.377C143.104 246.377 141.163 223.721 140.192 218.218C139.221 212.716 137.929 202.37 137.929 202.37C137.929 202.37 133.075 196.221 133.725 194.604C134.375 192.986 135.187 178.251 135.187 178.251Z" fill="black"/>
<path d="M135.159 178.154C135.159 178.154 143.762 182.945 144.729 185.208C145.696 187.472 149.263 189.077 149.263 189.077C149.263 189.077 156.054 192.637 156.054 205.259L159.613 223.058L160.259 257.04C160.259 257.04 154.434 251.538 150.229 254.126C146.025 256.715 143.437 245.71 143.437 245.71C143.437 245.71 141.496 223.054 140.525 217.552C139.554 212.05 138.262 201.703 138.262 201.703C138.262 201.703 133.408 195.579 134.058 193.954C134.708 192.328 135.159 178.154 135.159 178.154Z" fill="#D39999"/>
<path opacity="0.1" d="M138.575 153.125C138.027 152.428 137.394 151.802 136.69 151.263C135.577 150.337 134.346 149.37 132.965 149.451C132.184 149.555 131.433 149.824 130.763 150.239C127.324 152.052 123.894 153.883 120.474 155.734C119.211 156.416 117.907 157.14 117.025 158.367C116.144 159.594 115.786 161.171 115.539 162.715C115.331 163.761 115.282 164.832 115.392 165.893C115.493 166.933 115.998 167.892 116.798 168.563C117.72 169.234 118.983 169.238 119.755 170.115C120.202 170.623 120.397 171.334 120.714 171.952C121.031 172.57 121.579 173.171 122.204 173.062C122.83 172.952 123.208 172.289 123.297 171.619C123.337 170.939 123.297 170.257 123.179 169.587C123.058 168.368 123.212 167.076 123.919 166.169C124.406 165.552 125.105 165.178 125.576 164.544C126.705 163.016 126.189 160.48 127.428 159.046C127.788 158.671 128.241 158.398 128.74 158.255C129.24 158.112 129.768 158.105 130.272 158.233C131.275 158.444 132.193 158.989 133.115 159.452C134.361 160.081 135.666 160.584 137.011 160.956C138.14 161.264 139.448 162.004 139.834 160.5C140.423 158.294 139.855 154.917 138.575 153.125Z" fill="black"/>
<path d="M138.25 152.799C137.702 152.102 137.069 151.477 136.365 150.938C135.252 150.012 134.021 149.045 132.64 149.126C131.859 149.23 131.108 149.499 130.438 149.914C127.002 151.727 124.146 150.012 120.149 155.408C119.296 156.563 117.582 156.815 116.7 158.042C115.819 159.269 115.461 160.846 115.214 162.39C115.006 163.436 114.957 164.507 115.067 165.568C115.168 166.608 115.673 167.567 116.473 168.238C117.395 168.908 118.658 168.912 119.43 169.79C119.877 170.298 120.072 171.009 120.389 171.627C120.706 172.245 121.254 172.846 121.88 172.736C122.505 172.627 122.883 171.964 122.972 171.294C123.012 170.614 122.973 169.932 122.854 169.262C122.733 168.043 122.887 166.751 123.594 165.844C124.081 165.227 124.78 164.853 125.251 164.219C126.38 162.691 125.865 160.155 127.103 158.72C127.463 158.345 127.916 158.073 128.416 157.93C128.915 157.787 129.444 157.779 129.947 157.908C130.95 158.119 131.868 158.664 132.79 159.127C134.036 159.756 135.341 160.259 136.686 160.63C137.815 160.939 139.123 161.679 139.509 160.175C140.102 157.969 139.55 154.592 138.25 152.799Z" fill="#865A61"/>
<path d="M109.145 200.744C109.145 200.744 108.82 212.72 107.203 214.338C105.586 215.955 108.174 217.898 108.174 217.898L114.645 216.272C114.645 216.272 113.02 226.952 119.82 225.659C119.82 225.659 115.291 229.865 110.762 230.516C106.232 231.166 106.545 229.548 106.545 229.548L99.7532 221.457L109.145 200.744Z" fill="#D39999"/>
<path opacity="0.1" d="M109.092 202.199C109.092 202.199 104.778 213.204 108.016 217.735L115.132 216.109C115.132 216.109 108.661 218.052 109.632 214.167C110.603 210.282 109.092 202.199 109.092 202.199Z" fill="black"/>
<path opacity="0.1" d="M106.72 229.386C106.72 229.386 116.103 230.032 118.691 228.089C115.286 230.699 111.261 232.379 107.012 232.966L106.72 229.386Z" fill="black"/>
<path opacity="0.1" d="M147.167 208.673C147.167 208.673 152.021 223.562 151.696 225.826C151.371 228.09 150.725 253.013 150.725 253.013L149.754 252.688L150.079 225.501L147.167 208.673Z" fill="black"/>
<path d="M351.541 250.778C351.541 250.778 358.65 264.737 352.857 272.373C347.065 280.009 353.385 300.819 353.385 300.819" stroke="#FCC90E" stroke-miterlimit="10"/>
<path d="M353.645 246.433C353.645 249.124 351.671 251.31 351.671 251.31C351.671 251.31 349.697 249.128 349.697 246.433C349.697 243.739 351.671 241.557 351.671 241.557C351.671 241.557 353.645 243.743 353.645 246.433Z" fill="#FCC90E"/>
<path d="M355.225 250.778C355.225 250.778 348.117 264.737 353.909 272.373C359.702 280.009 353.381 300.819 353.381 300.819" stroke="#FCC90E" stroke-miterlimit="10"/>
<path d="M353.117 246.433C353.117 249.124 355.091 251.31 355.091 251.31C355.091 251.31 357.066 249.128 357.066 246.433C357.066 243.739 355.091 241.557 355.091 241.557C355.091 241.557 353.117 243.743 353.117 246.433Z" fill="#FCC90E"/>
<path opacity="0.1" d="M353.117 246.433C353.117 249.124 355.091 251.31 355.091 251.31C355.091 251.31 357.066 249.128 357.066 246.433C357.066 243.739 355.091 241.557 355.091 241.557C355.091 241.557 353.117 243.743 353.117 246.433Z" fill="black"/>
<path d="M358.122 250.778C358.122 250.778 365.23 264.737 359.438 272.373C353.645 280.009 359.966 300.819 359.966 300.819" stroke="#FCC90E" stroke-miterlimit="10"/>
<path d="M360.226 246.433C360.226 249.124 358.252 251.31 358.252 251.31C358.252 251.31 356.278 249.128 356.278 246.433C356.278 243.739 358.252 241.557 358.252 241.557C358.252 241.557 360.226 243.743 360.226 246.433Z" fill="#FCC90E"/>
<path d="M359.121 257.617C357.257 259.555 354.32 259.759 354.32 259.759C354.32 259.759 354.409 256.816 356.273 254.882C358.138 252.948 361.075 252.74 361.075 252.74C361.075 252.74 360.986 255.679 359.121 257.617Z" fill="#FCC90E"/>
<path d="M359.304 267.248C357.439 269.187 354.502 269.39 354.502 269.39C354.502 269.39 354.592 266.448 356.456 264.513C358.321 262.579 361.242 262.368 361.242 262.368C361.242 262.368 361.168 265.306 359.304 267.248Z" fill="#FCC90E"/>
<path d="M349.193 272.543C350.956 274.575 350.895 277.517 350.895 277.517C350.895 277.517 347.975 277.164 346.212 275.132C344.449 273.1 344.51 270.158 344.51 270.158C344.51 270.158 347.43 270.511 349.193 272.543Z" fill="#FCC90E"/>
<path d="M350.83 252.009C353.073 253.496 353.8 256.349 353.8 256.349C353.8 256.349 350.887 256.788 348.649 255.317C346.411 253.846 345.679 250.977 345.679 250.977C345.679 250.977 348.588 250.522 350.83 252.009Z" fill="#FCC90E"/>
<path opacity="0.1" d="M350.83 252.009C353.073 253.496 353.8 256.349 353.8 256.349C353.8 256.349 350.887 256.788 348.649 255.317C346.411 253.846 345.679 250.977 345.679 250.977C345.679 250.977 348.588 250.522 350.83 252.009Z" fill="black"/>
<path d="M361.806 250.778C361.806 250.778 354.697 264.737 360.49 272.373C366.283 280.009 359.962 300.819 359.962 300.819" stroke="#FCC90E" stroke-miterlimit="10"/>
<path d="M359.702 246.433C359.702 249.124 361.676 251.31 361.676 251.31C361.676 251.31 363.65 249.128 363.65 246.433C363.65 243.739 361.676 241.557 361.676 241.557C361.676 241.557 359.702 243.743 359.702 246.433Z" fill="#FCC90E"/>
<path opacity="0.1" d="M359.702 246.433C359.702 249.124 361.676 251.31 361.676 251.31C361.676 251.31 363.65 249.128 363.65 246.433C363.65 243.739 361.676 241.557 361.676 241.557C361.676 241.557 359.702 243.743 359.702 246.433Z" fill="black"/>
<path d="M360.271 257.824C358.382 259.742 358.24 262.701 358.24 262.701C358.24 262.701 361.176 262.534 363.065 260.616C364.954 258.698 365.096 255.74 365.096 255.74C365.096 255.74 362.155 255.906 360.271 257.824Z" fill="#FCC90E"/>
<path opacity="0.1" d="M360.271 257.824C358.382 259.742 358.24 262.701 358.24 262.701C358.24 262.701 361.176 262.534 363.065 260.616C364.954 258.698 365.096 255.74 365.096 255.74C365.096 255.74 362.155 255.906 360.271 257.824Z" fill="black"/>
<path d="M363.971 271.166C362.082 273.084 361.94 276.042 361.94 276.042C361.94 276.042 364.877 275.876 366.766 273.958C368.655 272.039 368.797 269.081 368.797 269.081C368.797 269.081 365.86 269.24 363.971 271.166Z" fill="#FCC90E"/>
<path d="M358.524 268.228C358.524 268.228 362.801 261.482 368.809 261.319" stroke="#FCC90E" stroke-miterlimit="10"/>
<path d="M355.193 264.152C355.193 264.152 350.916 257.406 344.908 257.243" stroke="#FCC90E" stroke-miterlimit="10"/>
<path d="M354.636 273.783C354.636 273.783 358.914 267.037 364.922 266.874" stroke="#FCC90E" stroke-miterlimit="10"/>
<path d="M368.61 262.392C369.223 262.392 369.719 261.895 369.719 261.283C369.719 260.67 369.223 260.173 368.61 260.173C367.998 260.173 367.501 260.67 367.501 261.283C367.501 261.895 367.998 262.392 368.61 262.392Z" fill="#FCC90E"/>
<path d="M345.009 258.409C345.622 258.409 346.118 257.913 346.118 257.3C346.118 256.687 345.622 256.191 345.009 256.191C344.397 256.191 343.9 256.687 343.9 257.3C343.9 257.913 344.397 258.409 345.009 258.409Z" fill="#FCC90E"/>
<path d="M357.785 276.006C357.785 276.006 353.507 269.26 347.499 269.097" stroke="#FCC90E" stroke-miterlimit="10"/>
<path d="M347.601 270.264C348.213 270.264 348.71 269.767 348.71 269.154C348.71 268.541 348.213 268.045 347.601 268.045C346.988 268.045 346.492 268.541 346.492 269.154C346.492 269.767 346.988 270.264 347.601 270.264Z" fill="#FCC90E"/>
<path d="M365.003 268.041C365.615 268.041 366.112 267.544 366.112 266.931C366.112 266.319 365.615 265.822 365.003 265.822C364.391 265.822 363.894 266.319 363.894 266.931C363.894 267.544 364.391 268.041 365.003 268.041Z" fill="#FCC90E"/>
<path d="M381.434 292.704C381.434 292.704 371.125 290.639 368.375 287.888C365.625 285.137 353.251 280.338 351.878 283.763C350.505 287.189 333.318 298.905 344.993 300.966C356.668 303.026 372.49 303.717 375.926 302.339C379.363 300.961 381.434 292.704 381.434 292.704Z" fill="#A8A8A8"/>
<path opacity="0.2" d="M344.993 299.69C356.68 301.754 372.49 302.441 375.926 301.063C378.542 300.015 380.362 294.967 381.081 292.643L381.426 292.716C381.426 292.716 379.363 300.97 375.926 302.343C372.49 303.717 356.68 303.03 344.993 300.97C341.621 300.372 340.655 298.974 341.02 297.207C341.317 298.357 342.491 299.247 344.993 299.69Z" fill="black"/>
<path d="M79.0321 327.108C79.0321 327.108 82.4362 331.578 77.46 338.283C72.4839 344.989 68.3811 350.682 70.0426 354.88C70.0426 354.88 77.5494 342.392 83.6589 342.217C89.7683 342.042 85.7509 334.618 79.0321 327.108Z" fill="#FCC90E"/>
<path opacity="0.1" d="M79.0322 327.108C79.3288 327.539 79.5627 328.009 79.7268 328.506C85.69 335.512 88.8626 342.051 83.1349 342.217C77.7973 342.372 71.3954 351.917 69.8599 354.331C69.9105 354.518 69.9716 354.701 70.0427 354.88C70.0427 354.88 77.5495 342.392 83.659 342.217C89.7684 342.042 85.751 334.618 79.0322 327.108Z" fill="black"/>
<path d="M85.361 332.781C85.361 334.35 85.1863 335.626 84.9548 335.626C84.7233 335.626 84.5486 334.354 84.5486 332.781C84.5486 331.208 84.7679 331.968 84.9832 331.968C85.1985 331.968 85.361 331.216 85.361 332.781Z" fill="#FFD037"/>
<path d="M87.5301 334.654C86.153 335.406 84.9547 335.874 84.8531 335.666C84.7516 335.459 85.7793 334.711 87.1563 333.964C88.5334 333.216 87.9891 333.76 88.0947 333.964C88.2003 334.167 88.9071 333.903 87.5301 334.654Z" fill="#FFD037"/>
<path d="M61.0491 327.108C61.0491 327.108 57.645 331.578 62.6211 338.283C67.5973 344.989 71.7 350.682 70.0386 354.876C70.0386 354.876 62.5318 342.388 56.4223 342.213C50.3128 342.038 54.3303 334.618 61.0491 327.108Z" fill="#FCC90E"/>
<path opacity="0.1" d="M61.0491 327.108C60.7525 327.539 60.5186 328.009 60.3545 328.506C54.3912 335.512 51.2187 342.051 56.9463 342.217C62.284 342.372 68.6859 351.917 70.2214 354.331C70.1707 354.518 70.1097 354.701 70.0386 354.88C70.0386 354.88 62.5318 342.392 56.4223 342.217C50.3128 342.042 54.3303 334.618 61.0491 327.108Z" fill="black"/>
<path d="M54.7202 332.781C54.7202 334.35 54.8949 335.626 55.1264 335.626C55.358 335.626 55.5326 334.354 55.5326 332.781C55.5326 331.208 55.3133 331.968 55.098 331.968C54.8827 331.968 54.7202 331.216 54.7202 332.781Z" fill="#FFD037"/>
<path d="M52.551 334.654C53.9281 335.406 55.1264 335.874 55.2279 335.666C55.3295 335.459 54.3018 334.711 52.9247 333.964C51.5476 333.216 52.092 333.76 51.9864 333.964C51.8807 334.167 51.1739 333.903 52.551 334.654Z" fill="#FFD037"/>
<path d="M55.8049 354.291C55.8049 354.291 65.3225 353.998 68.1904 351.954C71.0583 349.91 82.8141 347.484 83.5412 350.735C84.2684 353.986 97.8441 367.035 87.0997 367.12C76.3553 367.205 62.1338 365.446 59.2699 363.702C56.4061 361.959 55.8049 354.291 55.8049 354.291Z" fill="#A8A8A8"/>
<path opacity="0.2" d="M87.2948 365.994C76.5504 366.08 62.3288 364.32 59.465 362.577C57.2836 361.248 56.4143 356.481 56.1259 354.283H55.8091C55.8091 354.283 56.4103 361.963 59.2741 363.706C62.1379 365.45 76.3595 367.214 87.1038 367.124C90.2073 367.1 91.2757 365.994 91.2188 364.361C90.7841 365.36 89.6021 365.974 87.2948 365.994Z" fill="black"/>
</g>
</g>
<defs>
<linearGradient id="paint0_linear" x1="238.825" y1="324.588" x2="238.825" y2="180.494" gradientUnits="userSpaceOnUse">
<stop stop-color="#808080" stop-opacity="0.25"/>
<stop offset="0.54" stop-color="#808080" stop-opacity="0.12"/>
<stop offset="1" stop-color="#808080" stop-opacity="0.1"/>
</linearGradient>
<linearGradient id="paint1_linear" x1="28084.1" y1="70974.2" x2="35485.6" y2="43496.9" gradientUnits="userSpaceOnUse">
<stop stop-color="#808080" stop-opacity="0.25"/>
<stop offset="0.54" stop-color="#808080" stop-opacity="0.12"/>
<stop offset="1" stop-color="#808080" stop-opacity="0.1"/>
</linearGradient>
<linearGradient id="paint2_linear" x1="21895.4" y1="176301" x2="21895.4" y2="49294.8" gradientUnits="userSpaceOnUse">
<stop stop-color="#808080" stop-opacity="0.25"/>
<stop offset="0.54" stop-color="#808080" stop-opacity="0.12"/>
<stop offset="1" stop-color="#808080" stop-opacity="0.1"/>
</linearGradient>
<clipPath id="clip0">
<rect width="416" height="319" fill="white" transform="translate(33 82)"/>
</clipPath>
</defs>
</svg>
