<svg width="482" height="482" viewBox="0 0 482 482" fill="none" xmlns="http://www.w3.org/2000/svg">
<circle cx="241" cy="241" r="233.5" fill="#F3F6FF" stroke="#CDD2E3" stroke-width="15"/>
<mask id="mask0" mask-type="alpha" maskUnits="userSpaceOnUse" x="15" y="15" width="452" height="452">
<circle cx="241" cy="241" r="226" fill="#F3F6FF"/>
</mask>
<g mask="url(#mask0)">
<g clip-path="url(#clip0)">
<path opacity="0.2" d="M68.5095 236.576C62.8936 238.272 57.6372 242.376 56.2343 248.071C54.6298 254.616 58.3299 261.213 58.8647 267.932C60.592 289.949 29.2465 305.483 33.7182 327.109C35.4937 335.709 42.6703 342.034 49.7416 347.26C61.0699 355.605 73.6387 362.978 87.5579 365.058C108.684 368.221 130.758 358.926 151.292 364.8C167.855 369.54 180.529 383.43 196.978 388.556C209.498 392.459 222.988 390.921 235.995 389.34C243.01 388.49 250.357 387.509 256.017 383.303C266.538 375.475 267.2 360.016 274.245 348.938C285.126 331.854 308.984 328.498 328.988 331.819C348.992 335.139 368.418 343.313 388.685 342.647C393.016 342.503 397.453 341.916 401.232 339.791C405.826 337.211 408.93 332.664 411.675 328.165C428.827 299.94 438.242 267.701 438.974 234.688C439.092 229.016 438.89 223.097 436.22 218.09C432.845 211.756 426.098 207.967 419.382 205.417C403.253 199.285 385.436 198.282 369.632 191.365C354.389 184.693 342.044 172.993 328.769 162.965C302.315 143.022 271.653 129.377 239.121 123.072C231.497 121.6 223.584 120.548 216.009 122.248C207.28 124.206 199.757 129.642 192.993 135.495C174.996 151.063 160.573 170.272 143.989 187.334C132.548 199.101 120.09 209.836 106.76 219.413C100.622 223.833 94.0988 229.081 87.2598 232.349C80.9995 235.337 75.1293 234.583 68.5095 236.576Z" fill="#FCC90E"/>
<path d="M148.728 98.2119C148.728 98.2119 131.784 120.697 143.905 146.906C156.027 173.115 122.779 215.226 122.779 215.226" stroke="#535461" stroke-width="2" stroke-miterlimit="10"/>
<path d="M156.325 89.7968C154.979 95.5836 148.539 99.0311 148.539 99.0311C148.539 99.0311 144.287 93.0954 145.633 87.3087C146.979 81.522 150.455 77.3867 153.419 78.0745C156.382 78.7622 157.671 84.0101 156.325 89.7968Z" fill="#8ED16F"/>
<path d="M151.999 88.7885C152.423 86.9717 152.213 85.3705 151.532 85.212C150.85 85.0536 149.955 86.3979 149.531 88.2146C149.108 90.0314 149.318 91.6326 149.999 91.7911C150.681 91.9496 151.576 90.6053 151.999 88.7885Z" fill="#8ED16F"/>
<path opacity="0.3" d="M151.999 88.7885C152.423 86.9717 152.213 85.3705 151.532 85.212C150.85 85.0536 149.955 86.3979 149.531 88.2146C149.108 90.0314 149.318 91.6326 149.999 91.7911C150.681 91.9496 151.576 90.6053 151.999 88.7885Z" fill="black"/>
<path d="M153.397 115.506C147.803 117.521 141.406 113.991 141.406 113.991C141.406 113.991 144.081 107.196 149.679 105.186C155.277 103.175 160.639 103.872 161.669 106.701C162.699 109.531 158.991 113.491 153.397 115.506Z" fill="#8ED16F"/>
<path d="M151.825 111.045C153.58 110.411 154.81 109.364 154.572 108.707C154.334 108.049 152.719 108.031 150.964 108.665C149.209 109.299 147.979 110.346 148.217 111.003C148.455 111.66 150.071 111.679 151.825 111.045Z" fill="#8ED16F"/>
<path opacity="0.3" d="M151.825 111.045C153.58 110.411 154.81 109.364 154.572 108.707C154.334 108.049 152.719 108.031 150.964 108.665C149.209 109.299 147.979 110.346 148.217 111.003C148.455 111.66 150.071 111.679 151.825 111.045Z" fill="black"/>
<path d="M152.095 135.994C146.501 138.009 140.104 134.479 140.104 134.479C140.104 134.479 142.779 127.684 148.377 125.674C153.975 123.663 159.337 124.36 160.367 127.189C161.397 130.019 157.689 133.984 152.095 135.994Z" fill="#8ED16F"/>
<path d="M150.588 131.842C152.345 131.211 153.576 130.165 153.339 129.507C153.102 128.849 151.486 128.828 149.73 129.46C147.974 130.092 146.742 131.137 146.979 131.795C147.216 132.453 148.832 132.474 150.588 131.842Z" fill="#8ED16F"/>
<path opacity="0.3" d="M150.588 131.842C152.345 131.211 153.576 130.165 153.339 129.507C153.102 128.849 151.486 128.828 149.73 129.46C147.974 130.092 146.742 131.137 146.979 131.795C147.216 132.453 148.832 132.474 150.588 131.842Z" fill="black"/>
<path d="M158.631 160.03C153.037 162.045 146.641 158.515 146.641 158.515C146.641 158.515 149.315 151.721 154.913 149.71C160.512 147.699 165.873 148.396 166.904 151.225C167.934 154.055 164.225 158.029 158.631 160.03Z" fill="#8ED16F"/>
<path d="M157.126 155.889C158.882 155.257 160.114 154.212 159.877 153.554C159.64 152.896 158.024 152.875 156.267 153.507C154.511 154.139 153.279 155.184 153.516 155.842C153.753 156.5 155.369 156.521 157.126 155.889Z" fill="#8ED16F"/>
<path opacity="0.3" d="M157.126 155.889C158.882 155.257 160.114 154.212 159.877 153.554C159.64 152.896 158.024 152.875 156.267 153.507C154.511 154.139 153.279 155.184 153.516 155.842C153.753 156.5 155.369 156.521 157.126 155.889Z" fill="black"/>
<path d="M154.379 182.012C148.785 184.027 142.388 180.496 142.388 180.496C142.388 180.496 145.063 173.702 150.661 171.691C156.259 169.681 161.621 170.377 162.651 173.207C163.681 176.037 159.977 180.001 154.379 182.012Z" fill="#8ED16F"/>
<path d="M152.885 177.497C154.64 176.863 155.87 175.816 155.632 175.159C155.394 174.502 153.778 174.483 152.024 175.117C150.269 175.752 149.039 176.798 149.277 177.456C149.515 178.113 151.13 178.132 152.885 177.497Z" fill="#8ED16F"/>
<path opacity="0.3" d="M152.885 177.497C154.64 176.863 155.87 175.816 155.632 175.159C155.394 174.502 153.778 174.483 152.024 175.117C150.269 175.752 149.039 176.798 149.277 177.456C149.515 178.113 151.13 178.132 152.885 177.497Z" fill="black"/>
<path d="M128.141 121.328C132.27 125.604 139.57 125.271 139.57 125.271C139.57 125.271 140.17 117.995 136.04 113.719C131.911 109.444 126.795 107.683 124.611 109.777C122.428 111.871 124.011 117.053 128.141 121.328Z" fill="#8ED16F"/>
<path d="M134.595 119.811C135.099 119.325 134.456 117.844 133.159 116.502C131.863 115.16 130.403 114.465 129.9 114.951C129.397 115.437 130.04 116.918 131.336 118.26C132.633 119.602 134.092 120.296 134.595 119.811Z" fill="#8ED16F"/>
<path opacity="0.3" d="M134.595 119.811C135.099 119.325 134.456 117.844 133.159 116.502C131.863 115.16 130.403 114.465 129.9 114.951C129.397 115.437 130.04 116.918 131.336 118.26C132.633 119.602 134.092 120.296 134.595 119.811Z" fill="black"/>
<path d="M125.769 189.223C129.898 193.498 137.198 193.165 137.198 193.165C137.198 193.165 137.798 185.889 133.669 181.613C129.539 177.338 124.423 175.577 122.24 177.671C120.056 179.765 121.639 184.947 125.769 189.223Z" fill="#8ED16F"/>
<path d="M132.217 187.711C132.721 187.226 132.078 185.744 130.781 184.402C129.485 183.06 128.026 182.366 127.522 182.851C127.019 183.337 127.662 184.819 128.958 186.161C130.255 187.503 131.714 188.197 132.217 187.711Z" fill="#8ED16F"/>
<path opacity="0.3" d="M132.217 187.711C132.721 187.226 132.078 185.744 130.781 184.402C129.485 183.06 128.026 182.366 127.522 182.851C127.019 183.337 127.662 184.819 128.958 186.161C130.255 187.503 131.714 188.197 132.217 187.711Z" fill="black"/>
<path d="M131.244 145.325C136.566 147.979 143.331 145.22 143.331 145.22C143.331 145.22 141.468 138.163 136.15 135.508C130.832 132.853 125.418 132.88 124.063 135.613C122.709 138.347 125.922 142.67 131.244 145.325Z" fill="#8ED16F"/>
<path d="M136.807 141.73C137.12 141.104 136.019 139.922 134.348 139.089C132.678 138.256 131.071 138.088 130.758 138.714C130.446 139.34 131.547 140.522 133.217 141.355C134.887 142.188 136.495 142.356 136.807 141.73Z" fill="#8ED16F"/>
<path opacity="0.3" d="M136.807 141.73C137.12 141.104 136.019 139.922 134.348 139.089C132.678 138.256 131.071 138.088 130.758 138.714C130.446 139.34 131.547 140.522 133.217 141.355C134.887 142.188 136.495 142.356 136.807 141.73Z" fill="black"/>
<path d="M133.476 169.23C138.798 171.884 145.562 169.124 145.562 169.124C145.562 169.124 143.699 162.067 138.381 159.413C133.064 156.758 127.649 156.784 126.295 159.518C124.94 162.251 128.176 166.601 133.476 169.23Z" fill="#8ED16F"/>
<path d="M139.041 165.638C139.353 165.012 138.252 163.83 136.582 162.997C134.912 162.164 133.304 161.996 132.992 162.622C132.679 163.247 133.78 164.43 135.45 165.263C137.121 166.096 138.728 166.264 139.041 165.638Z" fill="#8ED16F"/>
<path opacity="0.3" d="M139.041 165.638C139.353 165.012 138.252 163.83 136.582 162.997C134.912 162.164 133.304 161.996 132.992 162.622C132.679 163.247 133.78 164.43 135.45 165.263C137.121 166.096 138.728 166.264 139.041 165.638Z" fill="black"/>
<path d="M329.352 194.286H99.4824C96.7047 194.286 94.0407 195.389 92.0766 197.352C90.1125 199.314 89.009 201.976 89.009 204.752V339.379C89.009 342.155 90.1125 344.817 92.0766 346.779C94.0407 348.742 96.7047 349.845 99.4824 349.845H329.352C332.13 349.845 334.794 348.742 336.758 346.779C338.722 344.817 339.826 342.155 339.826 339.379V204.752C339.826 201.976 338.722 199.314 336.758 197.352C334.794 195.389 332.13 194.286 329.352 194.286V194.286Z" fill="url(#paint0_linear)"/>
<path d="M325.994 196.118H102.836C96.8291 196.118 91.9595 200.983 91.9595 206.986V337.145C91.9595 343.148 96.8291 348.014 102.836 348.014H325.994C332.001 348.014 336.871 343.148 336.871 337.145V206.986C336.871 200.983 332.001 196.118 325.994 196.118Z" fill="#FCC90E"/>
<path d="M336.871 222.699H91.9595V250.546H336.871V222.699Z" fill="#FCC90E"/>
<path opacity="0.3" d="M336.871 222.699H91.9595V250.546H336.871V222.699Z" fill="black"/>
<path d="M313.649 271.222H115.186V284.723H313.649V271.222Z" fill="#D6D6E3"/>
<path d="M131.652 337.89C142.38 337.89 151.077 329.2 151.077 318.48C151.077 307.76 142.38 299.07 131.652 299.07C120.924 299.07 112.227 307.76 112.227 318.48C112.227 329.2 120.924 337.89 131.652 337.89Z" fill="#FCC90E"/>
<path opacity="0.3" d="M131.652 337.89C142.38 337.89 151.077 329.2 151.077 318.48C151.077 307.76 142.38 299.07 131.652 299.07C120.924 299.07 112.227 307.76 112.227 318.48C112.227 329.2 120.924 337.89 131.652 337.89Z" fill="black"/>
<path d="M322.947 158.664C323.261 159.654 323.927 160.496 324.819 161.029C328.848 163.688 337.607 163.123 338.659 163.123C338.883 163.123 339.177 163.522 339.501 164.192C341.049 167.381 343.447 176.729 343.609 178.832C343.824 181.377 346.191 193.288 350.067 197.725C350.185 197.861 350.303 197.988 350.417 198.106C354.218 201.922 358.677 197.725 358.677 197.725L359.317 195.504C359.137 196.38 358.935 197.401 358.734 198.544C358.633 199.118 358.532 199.727 358.436 200.354C357.858 203.883 357.555 207.452 357.528 211.029C357.518 212.328 357.574 213.626 357.695 214.919C357.73 215.278 357.769 215.633 357.817 215.979C358.015 217.554 358.112 219.14 358.107 220.728C358.072 230.154 355.665 241.881 355.665 241.881L355.757 241.851C355.7 242.144 355.665 242.289 355.665 242.289L355.805 242.245C355.738 242.68 355.674 243.125 355.612 243.581C354.797 249.495 354.328 256.854 354.104 261.103C353.989 263.345 354.088 265.592 354.402 267.814L358.681 297.913V311.931C358.667 314.055 358.926 316.172 359.453 318.23C360.847 323.526 359.698 342.012 359.054 350.782C358.874 353.174 358.734 354.847 358.694 355.329V355.474L358.817 355.425C358.817 355.526 358.817 355.579 358.817 355.579C359 355.501 359.191 355.445 359.387 355.412C357.69 358.041 354.617 362.386 352.254 363.118C350.862 363.542 349.623 364.362 348.69 365.479L348.629 365.562L348.541 365.685C348.249 366.075 348.071 366.539 348.028 367.025C347.994 366.942 347.967 366.855 347.949 366.767C347.769 367.744 348.357 368.637 350.202 369.071C351.278 369.276 352.374 369.364 353.469 369.334C359.869 369.334 371.228 367.367 372.482 365.251V357.953L372.688 358.019V358.084L373.473 358.343L375.625 351.124C378.207 349.214 376.064 315.032 375.625 307.178C375.231 300.02 379.663 271.546 380.448 266.531L380.342 266.404L380.461 265.672C380.619 265.787 380.765 265.916 380.899 266.058C381.157 266.363 381.381 266.695 381.57 267.048C381.94 267.674 382.259 268.331 382.521 269.01C386.853 279.804 388.803 310.669 388.803 313.438V342.463C388.794 345.328 389.193 348.179 389.987 350.931C390.385 352.379 390.692 353.851 390.908 355.338C391 355.92 391.079 356.499 391.153 357.051C391.228 357.603 391.302 358.233 391.359 358.75C391.359 358.886 391.39 359.018 391.403 359.14C391.416 359.263 391.403 359.258 391.403 359.32C391.521 360.463 391.583 361.212 391.583 361.212C391.599 361.149 391.629 361.091 391.671 361.041L391.692 361.317C391.723 361.213 391.782 361.119 391.863 361.046C392.042 360.871 392.235 360.713 392.442 360.573V364.261L392.337 364.182V364.817C396.8 368.182 404.064 369.198 409.641 369.159C413.257 369.159 416.186 368.72 417.203 368.212C418.658 367.498 417.86 365.834 416.537 364.559C415.511 363.569 414.174 362.807 413.327 362.903C411.916 363.056 407.089 357.594 404.559 354.602L404.844 354.475L405.248 354.3V305.903C405.248 305.903 405.897 286.795 407.83 267.897C408.747 258.371 407.619 248.759 404.52 239.704L404.459 239.525L405.046 239.617C405.669 239.713 406.002 239.77 406.002 239.77C406.002 239.77 406.002 239.621 405.962 239.332H406.002C406.002 239.332 405.248 231.136 405.239 220.841C405.239 209.172 406.225 194.944 410.307 186.892C412.657 182.257 413.441 178.569 413.376 175.66C413.478 173.101 412.741 170.578 411.276 168.476C410.661 167.63 409.826 166.969 408.86 166.566L408.777 166.518H408.733C408.028 166.233 407.275 166.084 406.515 166.08H397.699C396.678 166.081 395.675 165.817 394.788 165.313L391.337 163.36C390.189 160.85 390.022 157.739 390.268 154.822C390.268 154.59 390.311 154.358 390.333 154.13L390.583 153.867C390.776 153.661 390.956 153.429 391.131 153.232C391.127 153.405 391.114 153.577 391.092 153.749C391.048 154.025 390.973 154.187 390.855 154.222C392.74 153.977 394.845 153.604 396.002 152.15C396.05 152.093 396.094 152.032 396.138 151.97C396.48 151.417 396.763 150.83 396.984 150.218C397.146 149.8 397.363 149.405 397.628 149.044C397.918 148.667 398.295 148.361 398.606 148.001L398.659 147.94C399.768 146.626 399.829 144.742 399.842 143.025C399.864 138.855 399.741 134.264 396.949 131.136C394.63 128.534 390.93 127.549 387.418 127.435C383.907 127.321 380.404 127.952 376.897 127.969C374.512 127.969 371.636 127.93 370.321 129.901C369.676 130.869 369.597 132.135 368.896 133.064C368.492 133.598 367.874 134.058 367.839 134.724C367.835 135.031 367.914 135.334 368.067 135.6V135.631C368.918 137.304 370.724 138.347 372.609 138.675C372.29 139.058 371.997 139.462 371.732 139.884C370.581 141.723 369.973 143.849 369.979 146.017C369.979 146.271 369.979 146.521 370.005 146.77C370.201 149.716 371.515 152.475 373.679 154.485C373.644 154.73 373.609 154.975 373.569 155.216L373.648 155.286C373.896 155.511 374.155 155.724 374.424 155.926L374.52 156C374.52 156.154 374.52 156.307 374.52 156.438C374.52 156.692 374.52 156.951 374.494 157.201C374.468 157.45 374.494 157.604 374.468 157.805L374.411 157.757L370.128 154.182L363.24 147.813C363.24 147.813 346.02 135.289 345.156 141.242C345.052 142.3 345.344 143.358 345.976 144.212C349.137 149.031 360.005 153.131 360.005 153.131C360.005 153.131 366.485 159.978 370.82 167.359C370.667 167.442 370.513 167.521 370.351 167.596C366.493 169.387 360.864 168.629 360.864 168.629C354.363 169.641 353.775 176.76 353.81 179.638C353.81 179.774 353.81 179.905 353.81 180.023C353.81 180.142 353.81 180.168 353.81 180.234L345.183 159.991L345.156 159.93C344.875 159.271 344.432 158.693 343.868 158.251C343.304 157.808 342.637 157.515 341.93 157.398C336.161 156.43 321.742 154.41 322.947 158.664ZM359.067 355.351C359.193 355.321 359.32 355.298 359.448 355.281L359.409 355.342L359.067 355.351Z" fill="url(#paint1_linear)"/>
<path d="M402.174 351.211C402.174 351.211 410.346 361.475 412.236 361.265C414.125 361.054 418.522 365.242 416.01 366.521C413.498 367.801 399.036 368.615 391.898 363.17V354.965L402.174 351.211Z" fill="#ACA9C9"/>
<path d="M360.882 351.838C360.882 351.838 356.059 360.424 352.71 361.475C349.361 362.526 346.423 366.294 350.825 367.341C355.226 368.388 370.947 366.083 372.412 363.569V352.464L360.882 351.838Z" fill="#ACA9C9"/>
<path d="M354.828 267.49L358.992 297.181V310.985C358.98 313.079 359.233 315.166 359.746 317.196C361.105 322.422 359.987 340.654 359.356 349.306C359.15 352.127 358.992 353.932 358.992 353.932C361.715 352.674 373.245 356.652 373.245 356.652L374.411 352.688L375.34 349.534C377.857 347.65 375.779 313.933 375.34 306.166C375.055 300.861 377.423 283.663 378.939 273.356C379.378 270.443 379.733 268.099 379.948 266.688C380.084 265.812 380.158 265.326 380.158 265.326C380.62 265.702 381.004 266.165 381.289 266.688C381.65 267.307 381.959 267.955 382.214 268.625C386.432 279.274 388.352 309.719 388.352 312.43V341.062C388.343 343.886 388.731 346.698 389.505 349.415C390.024 351.397 390.403 353.413 390.64 355.447C390.938 357.721 391.079 359.552 391.079 359.552C391.289 358.295 404.283 352.639 404.283 352.639V304.891C404.283 304.891 404.91 286.055 406.8 267.402C407.612 258.918 406.793 250.357 404.388 242.179C403.867 240.396 403.345 238.885 402.894 237.689C402.126 235.652 401.578 234.526 401.578 234.526H358.773C358.054 234.662 357.458 236.108 356.919 238.302C356.568 239.774 356.261 241.579 355.994 243.559C355.2 249.39 354.744 256.648 354.525 260.845C354.414 263.064 354.516 265.29 354.828 267.49V267.49Z" fill="#618FD8"/>
<g opacity="0.1">
<path opacity="0.1" d="M403.529 352.775V305.027C403.529 305.027 404.156 286.191 406.046 267.538C407.935 248.886 400.785 234.658 400.785 234.658H401.622C401.622 234.658 408.746 248.899 406.883 267.538C405.02 286.177 404.367 305.027 404.367 305.027V352.775C404.367 352.775 391.372 358.431 391.162 359.688C391.162 359.688 391.162 359.407 391.096 358.925C393.928 356.959 403.529 352.775 403.529 352.775Z" fill="black"/>
<path opacity="0.1" d="M360.25 353.8C359.855 353.808 359.464 353.889 359.097 354.037V353.827C359.48 353.788 359.866 353.779 360.25 353.8V353.8Z" fill="black"/>
<path opacity="0.1" d="M374.608 349.639C377.124 347.755 375.046 314.038 374.608 306.271C374.17 298.504 379.43 265.436 379.43 265.436C379.706 265.648 379.949 265.899 380.154 266.18C379.382 271.122 375.068 299.214 375.45 306.271C375.888 314.02 377.966 347.738 375.45 349.639L373.354 356.757L372.591 356.503L374.608 349.639Z" fill="black"/>
</g>
<path d="M363.394 182.831L359.01 198.33C359.01 198.33 354.398 202.71 350.628 198.33C346.857 193.949 344.534 182.205 344.306 179.69C344.078 177.176 340.742 164.192 339.484 164.192C338.225 164.192 325.652 165.029 324.183 159.811C323.009 155.615 337.046 157.621 342.666 158.563C343.358 158.681 344.01 158.971 344.559 159.408C345.109 159.844 345.539 160.413 345.81 161.06L354.429 181.627C354.429 181.627 358.992 176.339 363.394 182.831Z" fill="#F7C4A7"/>
<path d="M391.688 146.81C391.688 146.81 386.239 162.098 393.157 167.543C400.075 172.988 368.418 174.456 368.418 174.456L372.714 170.373C372.714 170.373 375.752 158.331 373.657 148.277L391.688 146.81Z" fill="#F7C4A7"/>
<path opacity="0.1" d="M384.981 167.543C384.981 167.543 390.535 166.181 390.535 164.718L395.458 167.543H407.826C407.826 167.543 416.839 172.568 409.294 187.65C401.749 202.732 405.103 239.779 405.103 239.779C405.103 239.779 378.277 234.96 356.059 242.293C356.059 242.293 359.413 225.748 358.155 216.325C356.897 206.902 360.251 193.708 360.251 193.708L362.136 185.749C362.136 185.749 362.03 178.302 354.275 182.082C354.275 182.082 353.122 171.297 361.088 170.04C361.088 170.04 370.294 171.297 373.034 166.689C373.034 166.706 379.115 170.268 384.981 167.543Z" fill="black"/>
<path d="M384.981 167.127C384.981 167.127 390.535 165.765 390.535 164.301L394.143 166.373C395.005 166.867 395.981 167.127 396.975 167.127H405.625C406.529 167.124 407.421 167.337 408.226 167.746C409.032 168.156 409.729 168.752 410.259 169.484C412.245 172.274 414.024 177.776 409.294 187.234C401.749 202.312 405.103 239.362 405.103 239.362C405.103 239.362 378.277 234.544 356.059 241.877C356.059 241.877 359.413 225.331 358.155 215.909C356.897 206.486 360.25 193.323 360.25 193.323L362.136 185.363C362.136 185.363 362.03 177.916 354.275 181.697C354.275 181.697 353.153 171.21 360.759 169.711C360.97 169.664 361.188 169.65 361.403 169.668C363.03 169.838 370.61 170.386 373.039 166.281C373.034 166.286 379.115 169.847 384.981 167.127Z" fill="#E14B5A"/>
<path opacity="0.1" d="M406.151 186.182C406.151 186.182 399.443 190.37 388.545 186.182C388.545 186.182 376.598 181.802 372.824 173.198C369.049 164.595 391.894 174.666 391.894 174.666C391.894 174.666 396.716 174.666 398.181 173.619C399.645 172.572 409.921 181.574 406.151 186.182Z" fill="black"/>
<path d="M406.151 185.346C406.151 185.346 399.443 189.533 388.545 185.346C388.545 185.346 376.598 180.965 372.824 172.362C369.049 163.758 360.25 154.336 360.25 154.336C360.25 154.336 344.95 148.47 345.783 142.609C346.616 136.748 363.389 149.101 363.389 149.101L370.097 155.383L391.894 173.812C391.894 173.812 396.716 173.812 398.181 172.765C399.645 171.718 409.921 180.737 406.151 185.346Z" fill="#F7C4A7"/>
<path opacity="0.1" d="M373.455 148.904L391.478 147.436C390.551 150.205 389.921 153.064 389.597 155.965C387.502 158.136 384.637 159.398 381.62 159.48C378.603 159.562 375.674 158.457 373.464 156.403C373.923 153.924 373.92 151.382 373.455 148.904V148.904Z" fill="black"/>
<path d="M381.526 158.852C387.891 158.852 393.052 153.696 393.052 147.336C393.052 140.975 387.891 135.819 381.526 135.819C375.161 135.819 370 140.975 370 147.336C370 153.696 375.161 158.852 381.526 158.852Z" fill="#F7C4A7"/>
<path opacity="0.1" d="M387.852 149.837C387.177 148.724 388.549 147.274 388.098 146.056C387.681 144.935 386.024 144.742 385.467 143.695C385.029 142.85 385.467 141.812 385.292 140.879C385.042 139.674 383.744 138.925 382.512 138.864C381.281 138.802 380.092 139.262 378.922 139.656C377.015 140.3 375.007 140.795 373.008 140.568C371.009 140.34 369.014 139.253 368.124 137.471C367.979 137.211 367.902 136.918 367.901 136.621C367.936 135.964 368.541 135.512 368.931 134.987C369.615 134.071 369.694 132.823 370.316 131.868C371.588 129.923 374.38 129.971 376.704 129.962C380.123 129.962 383.525 129.323 386.945 129.437C390.364 129.55 393.959 130.519 396.226 133.086C398.944 136.174 399.066 140.695 399.044 144.812C399.044 146.508 398.974 148.352 397.891 149.662C397.576 150.043 397.19 150.358 396.888 150.748C396.23 151.624 396.055 152.746 395.436 153.635C394.34 155.216 392.201 155.602 390.294 155.856C390.855 155.781 390.39 152.027 390.294 151.681C389.926 149.955 389.527 149.99 387.852 149.837Z" fill="black"/>
<path d="M387.852 149.421C387.177 148.308 388.549 146.858 388.098 145.64C387.681 144.519 386.024 144.326 385.467 143.279C385.029 142.434 385.467 141.396 385.292 140.462C385.042 139.258 383.744 138.509 382.512 138.447C381.281 138.386 380.092 138.846 378.922 139.24C377.015 139.884 375.007 140.379 373.008 140.151C371.009 139.924 369.014 138.837 368.124 137.054C367.979 136.795 367.902 136.502 367.901 136.205C367.936 135.547 368.541 135.096 368.931 134.571C369.615 133.655 369.694 132.407 370.316 131.452C371.588 129.507 374.38 129.555 376.704 129.546C380.123 129.546 383.525 128.907 386.945 129.02C390.364 129.134 393.959 130.102 396.226 132.669C398.944 135.758 399.066 140.278 399.044 144.396C399.044 146.091 398.974 147.936 397.891 149.245C397.576 149.627 397.19 149.942 396.888 150.332C396.23 151.208 396.055 152.329 395.436 153.219C394.34 154.8 392.201 155.186 390.294 155.44C390.855 155.365 390.39 151.611 390.294 151.265C389.926 149.517 389.527 149.57 387.852 149.421Z" fill="#281C1C"/>
<path opacity="0.1" d="M406.046 186.708C406.046 186.708 400.386 172.046 395.984 171.63C391.583 171.214 404.367 171.63 404.367 171.63L408.558 179.169L406.046 186.708Z" fill="black"/>
<path d="M406.466 186.708C406.466 186.708 400.807 172.046 396.405 171.63C392.004 171.214 404.787 171.63 404.787 171.63L408.978 179.169L406.466 186.708Z" fill="#E14B5A"/>
<path d="M390.623 355.482C390.921 357.756 391.061 359.587 391.061 359.587C391.272 358.33 404.266 352.674 404.266 352.674V349.271C403.935 349.258 403.603 349.275 403.275 349.319C400.754 349.656 398.418 350.878 396.261 352.184C394.439 353.379 392.557 354.48 390.623 355.482V355.482Z" fill="#618FD8"/>
<path opacity="0.3" d="M390.623 355.482C390.921 357.756 391.061 359.587 391.061 359.587C391.272 358.33 404.266 352.674 404.266 352.674V349.271C403.935 349.258 403.603 349.275 403.275 349.319C400.754 349.656 398.418 350.878 396.261 352.184C394.439 353.379 392.557 354.48 390.623 355.482V355.482Z" fill="black"/>
<path d="M358.992 353.932C361.715 352.674 373.244 356.652 373.244 356.652L374.411 352.688C372.398 352.28 370.399 351.772 368.435 351.168C367.518 350.902 366.622 350.571 365.752 350.178C365.172 349.868 364.575 349.59 363.964 349.345C362.46 348.828 360.895 349.047 359.352 349.306C359.15 352.127 358.992 353.932 358.992 353.932Z" fill="#618FD8"/>
<path opacity="0.3" d="M358.992 353.932C361.715 352.674 373.244 356.652 373.244 356.652L374.411 352.688C372.398 352.28 370.399 351.772 368.435 351.168C367.518 350.902 366.622 350.571 365.752 350.178C365.172 349.868 364.575 349.59 363.964 349.345C362.46 348.828 360.895 349.047 359.352 349.306C359.15 352.127 358.992 353.932 358.992 353.932Z" fill="black"/>
<path opacity="0.4" d="M415.896 365.869C416.072 365.794 416.228 365.68 416.352 365.536C416.477 365.391 416.567 365.221 416.615 365.036C416.693 365.325 416.664 365.633 416.531 365.901C416.399 366.17 416.173 366.381 415.896 366.495C413.38 367.752 398.922 368.589 391.784 363.144V362.518C398.922 367.963 413.38 367.126 415.896 365.869Z" fill="white"/>
<path opacity="0.4" d="M350.715 366.705C355.099 367.752 370.838 365.448 372.302 362.934V363.56C370.833 366.075 355.117 368.379 350.715 367.332C348.918 366.894 348.344 366.018 348.523 365.058C348.664 365.768 349.321 366.355 350.715 366.705Z" fill="white"/>
<path opacity="0.1" d="M376.283 214.144C376.283 214.144 371.671 212.676 370.412 214.144C369.154 215.611 358.4 219.05 358.4 219.05" fill="black"/>
<path d="M324.1 156.6H346.524V156.127H324.1V156.6Z" fill="#8ED16F"/>
<path d="M324.1 157.074H346.524V156.6H324.1V157.074Z" fill="#8ED16F"/>
<path opacity="0.1" d="M324.1 157.074H346.524V156.6H324.1V157.074Z" fill="black"/>
<path d="M324.1 157.547H346.524V157.074H324.1V157.547Z" fill="#8ED16F"/>
<path d="M324.1 158.015H346.524V157.542H324.1V158.015Z" fill="#8ED16F"/>
<path opacity="0.1" d="M324.1 158.015H346.524V157.542H324.1V158.015Z" fill="black"/>
<path d="M324.1 158.488H346.524V158.015H324.1V158.488Z" fill="#8ED16F"/>
<path d="M324.1 158.957H346.524V158.484H324.1V158.957Z" fill="#8ED16F"/>
<path opacity="0.1" d="M324.1 158.957H346.524V158.484H324.1V158.957Z" fill="black"/>
<path d="M324.1 159.43H346.524V158.957H324.1V159.43Z" fill="#8ED16F"/>
<path d="M324.1 159.899H346.524V159.426H324.1V159.899Z" fill="#8ED16F"/>
<path opacity="0.1" d="M324.1 159.899H346.524V159.426H324.1V159.899Z" fill="black"/>
<path d="M324.1 152.833H346.524V152.36H324.1V152.833Z" fill="#8ED16F"/>
<path d="M339.961 141.632L357.202 155.96L357.505 155.596L340.264 141.269L339.961 141.632Z" fill="#8ED16F"/>
<path d="M324.243 134.094L341.483 148.422L341.786 148.058L324.546 133.73L324.243 134.094Z" fill="#8ED16F"/>
<path d="M324.1 153.302H346.524V152.829H324.1V153.302Z" fill="#8ED16F"/>
<path opacity="0.1" d="M324.1 153.302H346.524V152.829H324.1V153.302Z" fill="black"/>
<path d="M324.1 153.779H346.524V153.306H324.1V153.779Z" fill="#8ED16F"/>
<path d="M324.1 154.248H346.524V153.775H324.1V154.248Z" fill="#8ED16F"/>
<path opacity="0.1" d="M324.1 154.248H346.524V153.775H324.1V154.248Z" fill="black"/>
<path d="M324.1 154.717H346.524V154.244H324.1V154.717Z" fill="#8ED16F"/>
<path d="M324.1 155.19H346.524V154.717H324.1V155.19Z" fill="#8ED16F"/>
<path opacity="0.1" d="M324.1 155.19H346.524V154.717H324.1V155.19Z" fill="black"/>
<path d="M324.1 155.659H346.524V155.186H324.1V155.659Z" fill="#8ED16F"/>
<path d="M324.1 156.132H346.524V155.659H324.1V156.132Z" fill="#8ED16F"/>
<path opacity="0.1" d="M324.1 156.132H346.524V155.659H324.1V156.132Z" fill="black"/>
<path d="M321.258 174.501L329.292 175.991L332.2 160.344L324.166 158.854L321.258 174.501Z" fill="#8ED16F"/>
<path d="M328.487 167.778C328.826 165.958 328.363 164.346 327.453 164.178C326.544 164.009 325.533 165.347 325.194 167.167C324.856 168.987 325.319 170.598 326.229 170.767C327.138 170.936 328.149 169.598 328.487 167.778Z" fill="#8ED16F"/>
<path opacity="0.1" d="M328.487 167.778C328.826 165.958 328.363 164.346 327.453 164.178C326.544 164.009 325.533 165.347 325.194 167.167C324.856 168.987 325.319 170.598 326.229 170.767C327.138 170.936 328.149 169.598 328.487 167.778Z" fill="black"/>
<path d="M322.633 207.527L330.667 209.018L333.575 193.371L325.541 191.88L322.633 207.527Z" fill="#8ED16F"/>
<path d="M329.858 200.801C330.196 198.981 329.733 197.369 328.824 197.201C327.914 197.032 326.903 198.37 326.565 200.19C326.227 202.01 326.69 203.622 327.599 203.79C328.508 203.959 329.52 202.621 329.858 200.801Z" fill="#8ED16F"/>
<path opacity="0.1" d="M329.858 200.801C330.196 198.981 329.733 197.369 328.824 197.201C327.914 197.032 326.903 198.37 326.565 200.19C326.227 202.01 326.69 203.622 327.599 203.79C328.508 203.959 329.52 202.621 329.858 200.801Z" fill="black"/>
<path d="M293.573 126.349L289.684 133.53L303.691 141.104L307.581 133.923L293.573 126.349Z" fill="#8ED16F"/>
<path d="M302.947 135.643C303.391 134.83 302.43 133.45 300.8 132.562C299.17 131.673 297.489 131.613 297.045 132.426C296.601 133.239 297.562 134.619 299.192 135.507C300.822 136.395 302.503 136.456 302.947 135.643Z" fill="#8ED16F"/>
<path opacity="0.1" d="M302.947 135.643C303.391 134.83 302.43 133.45 300.8 132.562C299.17 131.673 297.489 131.613 297.045 132.426C296.601 133.239 297.562 134.619 299.192 135.507C300.822 136.395 302.503 136.456 302.947 135.643Z" fill="black"/>
<path d="M262.816 268.07L258.927 275.251L272.934 282.826L276.823 275.644L262.816 268.07Z" fill="#8ED16F"/>
<path d="M270.779 277.139C271.22 276.326 270.256 274.953 268.627 274.072C266.998 273.191 265.32 273.136 264.88 273.949C264.44 274.762 265.404 276.135 267.033 277.016C268.662 277.896 270.339 277.952 270.779 277.139Z" fill="#8ED16F"/>
<path opacity="0.1" d="M270.779 277.139C271.22 276.326 270.256 274.953 268.627 274.072C266.998 273.191 265.32 273.136 264.88 273.949C264.44 274.762 265.404 276.135 267.033 277.016C268.662 277.896 270.339 277.952 270.779 277.139Z" fill="black"/>
<path d="M243.998 151.117L240.109 158.298L254.116 165.872L258.005 158.691L243.998 151.117Z" fill="#8ED16F"/>
<path d="M251.957 160.179C252.398 159.366 251.434 157.993 249.805 157.112C248.176 156.231 246.498 156.176 246.058 156.989C245.618 157.802 246.582 159.175 248.211 160.056C249.84 160.937 251.517 160.992 251.957 160.179Z" fill="#8ED16F"/>
<path opacity="0.1" d="M251.957 160.179C252.398 159.366 251.434 157.993 249.805 157.112C248.176 156.231 246.498 156.176 246.058 156.989C245.618 157.802 246.582 159.175 248.211 160.056C249.84 160.937 251.517 160.992 251.957 160.179Z" fill="black"/>
<path d="M267.583 126.347L263.694 133.528L277.702 141.102L281.591 133.921L267.583 126.347Z" fill="#8ED16F"/>
<path d="M275.543 135.409C275.983 134.596 275.019 133.223 273.39 132.342C271.761 131.461 270.084 131.406 269.644 132.219C269.204 133.032 270.167 134.405 271.796 135.286C273.425 136.167 275.103 136.222 275.543 135.409Z" fill="#8ED16F"/>
<path opacity="0.1" d="M275.543 135.409C275.983 134.596 275.019 133.223 273.39 132.342C271.761 131.461 270.084 131.406 269.644 132.219C269.204 133.032 270.167 134.405 271.796 135.286C273.425 136.167 275.103 136.222 275.543 135.409Z" fill="black"/>
<path d="M291.131 155.574L283.008 156.461L284.739 172.282L292.862 171.394L291.131 155.574Z" fill="#8ED16F"/>
<path d="M288.192 167.272C289.112 167.172 289.694 165.599 289.492 163.759C289.291 161.919 288.383 160.509 287.463 160.61C286.544 160.71 285.962 162.283 286.163 164.123C286.364 165.963 287.273 167.373 288.192 167.272Z" fill="#8ED16F"/>
<path opacity="0.1" d="M288.192 167.272C289.112 167.172 289.694 165.599 289.492 163.759C289.291 161.919 288.383 160.509 287.463 160.61C286.544 160.71 285.962 162.283 286.163 164.123C286.364 165.963 287.273 167.373 288.192 167.272Z" fill="black"/>
<path d="M346.826 242.203L338.702 243.09L340.434 258.911L348.557 258.023L346.826 242.203Z" fill="#8ED16F"/>
<path d="M343.891 253.901C344.81 253.801 345.392 252.228 345.191 250.388C344.99 248.549 344.081 247.139 343.162 247.239C342.242 247.339 341.66 248.912 341.861 250.752C342.063 252.592 342.971 254.002 343.891 253.901Z" fill="#8ED16F"/>
<path opacity="0.1" d="M343.891 253.901C344.81 253.801 345.392 252.228 345.191 250.388C344.99 248.549 344.081 247.139 343.162 247.239C342.242 247.339 341.66 248.912 341.861 250.752C342.063 252.592 342.971 254.002 343.891 253.901Z" fill="black"/>
<path d="M259.322 189.18L255.433 196.361L269.441 203.936L273.33 196.754L259.322 189.18Z" fill="#8ED16F"/>
<path d="M267.279 198.248C267.72 197.436 266.756 196.063 265.127 195.182C263.498 194.301 261.82 194.246 261.38 195.058C260.94 195.871 261.904 197.244 263.533 198.125C265.162 199.006 266.839 199.061 267.279 198.248Z" fill="#8ED16F"/>
<path opacity="0.1" d="M267.279 198.248C267.72 197.436 266.756 196.063 265.127 195.182C263.498 194.301 261.82 194.246 261.38 195.058C260.94 195.871 261.904 197.244 263.533 198.125C265.162 199.006 266.839 199.061 267.279 198.248Z" fill="black"/>
<path d="M223.975 179.093L220.085 186.274L234.093 193.848L237.982 186.667L223.975 179.093Z" fill="#8ED16F"/>
<path d="M233.098 188.638C233.542 187.824 232.58 186.445 230.95 185.556C229.32 184.668 227.639 184.607 227.195 185.421C226.751 186.234 227.713 187.613 229.343 188.502C230.973 189.39 232.654 189.451 233.098 188.638Z" fill="#8ED16F"/>
<path opacity="0.1" d="M233.098 188.638C233.542 187.824 232.58 186.445 230.95 185.556C229.32 184.668 227.639 184.607 227.195 185.421C226.751 186.234 227.713 187.613 229.343 188.502C230.973 189.39 232.654 189.451 233.098 188.638Z" fill="black"/>
<path d="M212.654 348.93L208.765 356.111L222.772 363.686L226.661 356.504L212.654 348.93Z" fill="#8ED16F"/>
<path d="M220.613 357.994C221.053 357.181 220.089 355.808 218.46 354.928C216.831 354.047 215.154 353.992 214.714 354.804C214.274 355.617 215.237 356.99 216.866 357.871C218.495 358.752 220.173 358.807 220.613 357.994Z" fill="#8ED16F"/>
<path opacity="0.1" d="M220.613 357.994C221.053 357.181 220.089 355.808 218.46 354.928C216.831 354.047 215.154 353.992 214.714 354.804C214.274 355.617 215.237 356.99 216.866 357.871C218.495 358.752 220.173 358.807 220.613 357.994Z" fill="black"/>
<path d="M202.463 351.698L200.972 359.726L216.632 362.629L218.122 354.601L202.463 351.698Z" fill="#8ED16F"/>
<path opacity="0.05" d="M202.463 351.698L200.972 359.726L216.632 362.629L218.122 354.601L202.463 351.698Z" fill="black"/>
<path d="M212.829 357.877C212.997 356.968 211.658 355.958 209.837 355.62C208.016 355.282 206.402 355.745 206.234 356.654C206.065 357.563 207.405 358.573 209.226 358.911C211.047 359.248 212.66 358.785 212.829 357.877Z" fill="#8ED16F"/>
<path opacity="0.1" d="M212.829 357.877C212.997 356.968 211.658 355.958 209.837 355.62C208.016 355.282 206.402 355.745 206.234 356.654C206.065 357.563 207.405 358.573 209.226 358.911C211.047 359.248 212.66 358.785 212.829 357.877Z" fill="black"/>
<path d="M203.93 356.513L202.439 364.541L218.099 367.444L219.59 359.415L203.93 356.513Z" fill="#8ED16F"/>
<path d="M214.292 362.691C214.46 361.783 213.121 360.772 211.3 360.435C209.478 360.097 207.865 360.56 207.697 361.469C207.528 362.377 208.867 363.388 210.689 363.725C212.51 364.063 214.123 363.6 214.292 362.691Z" fill="#8ED16F"/>
<path opacity="0.1" d="M214.292 362.691C214.46 361.783 213.121 360.772 211.3 360.435C209.478 360.097 207.865 360.56 207.697 361.469C207.528 362.377 208.867 363.388 210.689 363.725C212.51 364.063 214.123 363.6 214.292 362.691Z" fill="black"/>
<path d="M229.177 369.57L225.288 376.752L239.295 384.326L243.184 377.145L229.177 369.57Z" fill="#8ED16F"/>
<path d="M237.14 378.635C237.58 377.822 236.617 376.449 234.988 375.568C233.359 374.687 231.681 374.632 231.241 375.445C230.801 376.258 231.765 377.631 233.394 378.512C235.023 379.392 236.7 379.448 237.14 378.635Z" fill="#8ED16F"/>
<path opacity="0.1" d="M237.14 378.635C237.58 377.822 236.617 376.449 234.988 375.568C233.359 374.687 231.681 374.632 231.241 375.445C230.801 376.258 231.765 377.631 233.394 378.512C235.023 379.392 236.7 379.448 237.14 378.635Z" fill="black"/>
<path d="M218.989 372.333L217.498 380.361L233.158 383.264L234.648 375.236L218.989 372.333Z" fill="#8ED16F"/>
<path opacity="0.05" d="M218.989 372.333L217.498 380.361L233.158 383.264L234.648 375.236L218.989 372.333Z" fill="black"/>
<path d="M229.35 378.512C229.519 377.603 228.18 376.593 226.358 376.255C224.537 375.917 222.924 376.38 222.755 377.289C222.587 378.198 223.926 379.208 225.747 379.546C227.569 379.883 229.182 379.42 229.35 378.512Z" fill="#8ED16F"/>
<path opacity="0.1" d="M229.35 378.512C229.519 377.603 228.18 376.593 226.358 376.255C224.537 375.917 222.924 376.38 222.755 377.289C222.587 378.198 223.926 379.208 225.747 379.546C227.569 379.883 229.182 379.42 229.35 378.512Z" fill="black"/>
<path d="M220.455 377.153L218.964 385.181L234.624 388.084L236.115 380.056L220.455 377.153Z" fill="#8ED16F"/>
<path d="M230.821 383.331C230.99 382.423 229.65 381.412 227.829 381.075C226.008 380.737 224.395 381.2 224.226 382.109C224.057 383.017 225.397 384.028 227.218 384.365C229.039 384.703 230.652 384.24 230.821 383.331Z" fill="#8ED16F"/>
<path opacity="0.1" d="M230.821 383.331C230.99 382.423 229.65 381.412 227.829 381.075C226.008 380.737 224.395 381.2 224.226 382.109C224.057 383.017 225.397 384.028 227.218 384.365C229.039 384.703 230.652 384.24 230.821 383.331Z" fill="black"/>
<path d="M253.967 356.269L250.078 363.45L264.086 371.024L267.975 363.843L253.967 356.269Z" fill="#8ED16F"/>
<path d="M261.923 365.331C262.363 364.518 261.399 363.145 259.77 362.264C258.141 361.383 256.464 361.328 256.023 362.141C255.583 362.954 256.547 364.327 258.176 365.208C259.805 366.089 261.482 366.144 261.923 365.331Z" fill="#8ED16F"/>
<path opacity="0.1" d="M261.923 365.331C262.363 364.518 261.399 363.145 259.77 362.264C258.141 361.383 256.464 361.328 256.023 362.141C255.583 362.954 256.547 364.327 258.176 365.208C259.805 366.089 261.482 366.144 261.923 365.331Z" fill="black"/>
<path d="M243.777 359.034L242.286 367.062L257.946 369.965L259.437 361.937L243.777 359.034Z" fill="#8ED16F"/>
<path opacity="0.05" d="M243.777 359.034L242.286 367.062L257.946 369.965L259.437 361.937L243.777 359.034Z" fill="black"/>
<path d="M254.139 365.212C254.307 364.304 252.968 363.294 251.147 362.956C249.326 362.618 247.712 363.081 247.544 363.99C247.375 364.899 248.715 365.909 250.536 366.247C252.357 366.584 253.97 366.121 254.139 365.212Z" fill="#8ED16F"/>
<path opacity="0.1" d="M254.139 365.212C254.307 364.304 252.968 363.294 251.147 362.956C249.326 362.618 247.712 363.081 247.544 363.99C247.375 364.899 248.715 365.909 250.536 366.247C252.357 366.584 253.97 366.121 254.139 365.212Z" fill="black"/>
<path d="M245.243 363.853L243.752 371.881L259.412 374.784L260.903 366.756L245.243 363.853Z" fill="#8ED16F"/>
<path d="M255.609 370.032C255.778 369.124 254.438 368.113 252.617 367.776C250.796 367.438 249.183 367.901 249.014 368.81C248.846 369.718 250.185 370.729 252.006 371.066C253.827 371.404 255.44 370.941 255.609 370.032Z" fill="#8ED16F"/>
<path opacity="0.1" d="M255.609 370.032C255.778 369.124 254.438 368.113 252.617 367.776C250.796 367.438 249.183 367.901 249.014 368.81C248.846 369.718 250.185 370.729 252.006 371.066C253.827 371.404 255.44 370.941 255.609 370.032Z" fill="black"/>
</g>
</g>
<defs>
<linearGradient id="paint0_linear" x1="214.417" y1="349.845" x2="214.417" y2="194.286" gradientUnits="userSpaceOnUse">
<stop stop-color="#808080" stop-opacity="0.25"/>
<stop offset="0.54" stop-color="#808080" stop-opacity="0.12"/>
<stop offset="1" stop-color="#808080" stop-opacity="0.1"/>
</linearGradient>
<linearGradient id="paint1_linear" x1="-281658" y1="183449" x2="-281658" y2="49865.9" gradientUnits="userSpaceOnUse">
<stop stop-color="#808080" stop-opacity="0.25"/>
<stop offset="0.54" stop-color="#808080" stop-opacity="0.12"/>
<stop offset="1" stop-color="#808080" stop-opacity="0.1"/>
</linearGradient>
<clipPath id="clip0">
<rect width="427" height="313" fill="white" transform="translate(12 78)"/>
</clipPath>
</defs>
</svg>
