<svg width="482" height="482" viewBox="0 0 482 482" fill="none" xmlns="http://www.w3.org/2000/svg">
<circle cx="241" cy="241" r="233.5" fill="#F3F6FF" stroke="#FCC90E" stroke-width="15"/>
<mask id="mask0" mask-type="alpha" maskUnits="userSpaceOnUse" x="15" y="15" width="452" height="452">
<circle cx="241" cy="241" r="226" fill="#FCFCFF"/>
</mask>
<g mask="url(#mask0)">
<g clip-path="url(#clip0)">
<path opacity="0.2" d="M68.5095 235.576C62.8936 237.272 57.6372 241.376 56.2343 247.071C54.6298 253.616 58.3299 260.213 58.8647 266.932C60.592 288.949 29.2465 304.483 33.7182 326.109C35.4937 334.709 42.6703 341.034 49.7416 346.26C61.0699 354.605 73.6387 361.978 87.5579 364.058C108.684 367.221 130.758 357.925 151.292 363.8C167.855 368.54 180.529 382.43 196.978 387.556C209.498 391.459 222.988 389.921 235.995 388.34C243.01 387.49 250.357 386.509 256.017 382.303C266.538 374.475 267.2 359.016 274.245 347.938C285.126 330.854 308.984 327.498 328.988 330.819C348.992 334.139 368.418 342.313 388.685 341.647C393.016 341.503 397.453 340.916 401.232 338.791C405.826 336.211 408.93 331.664 411.675 327.165C428.827 298.94 438.242 266.701 438.974 233.688C439.092 228.016 438.89 222.097 436.22 217.09C432.845 210.756 426.098 206.967 419.382 204.417C403.253 198.285 385.436 197.281 369.632 190.365C354.389 183.693 342.044 171.993 328.769 161.965C302.315 142.022 271.653 128.377 239.121 122.072C231.497 120.6 223.584 119.548 216.009 121.248C207.28 123.206 199.757 128.642 192.993 134.495C174.996 150.063 160.573 169.272 143.989 186.334C132.548 198.101 120.09 208.836 106.76 218.413C100.622 222.833 94.0988 228.081 87.2598 231.349C80.9995 234.337 75.1293 233.583 68.5095 235.576Z" fill="#FCC90E"/>
<path d="M148.728 97.2119C148.728 97.2119 131.784 119.697 143.905 145.906C156.027 172.115 122.779 214.226 122.779 214.226" stroke="#535461" stroke-width="2" stroke-miterlimit="10"/>
<path d="M156.325 88.7968C154.979 94.5836 148.539 98.0311 148.539 98.0311C148.539 98.0311 144.287 92.0954 145.633 86.3087C146.979 80.5219 150.455 76.3867 153.419 77.0744C156.382 77.7622 157.671 83.0101 156.325 88.7968Z" fill="#8ED16F"/>
<path d="M151.999 87.7885C152.423 85.9717 152.213 84.3705 151.532 84.212C150.85 84.0536 149.955 85.3979 149.531 87.2146C149.108 89.0314 149.318 90.6326 149.999 90.7911C150.681 90.9496 151.576 89.6052 151.999 87.7885Z" fill="#8ED16F"/>
<path opacity="0.3" d="M151.999 87.7885C152.423 85.9717 152.213 84.3705 151.532 84.212C150.85 84.0536 149.955 85.3979 149.531 87.2146C149.108 89.0314 149.318 90.6326 149.999 90.7911C150.681 90.9496 151.576 89.6052 151.999 87.7885Z" fill="black"/>
<path d="M153.397 114.506C147.803 116.521 141.406 112.991 141.406 112.991C141.406 112.991 144.081 106.196 149.679 104.186C155.277 102.175 160.639 102.872 161.669 105.701C162.699 108.531 158.991 112.491 153.397 114.506Z" fill="#8ED16F"/>
<path d="M151.825 110.045C153.58 109.411 154.81 108.364 154.572 107.706C154.334 107.049 152.719 107.031 150.964 107.665C149.209 108.299 147.979 109.346 148.217 110.003C148.455 110.66 150.071 110.679 151.825 110.045Z" fill="#8ED16F"/>
<path opacity="0.3" d="M151.825 110.045C153.58 109.411 154.81 108.364 154.572 107.706C154.334 107.049 152.719 107.031 150.964 107.665C149.209 108.299 147.979 109.346 148.217 110.003C148.455 110.66 150.071 110.679 151.825 110.045Z" fill="black"/>
<path d="M152.095 134.994C146.501 137.009 140.104 133.479 140.104 133.479C140.104 133.479 142.779 126.684 148.377 124.674C153.975 122.663 159.337 123.36 160.367 126.189C161.397 129.019 157.689 132.984 152.095 134.994Z" fill="#8ED16F"/>
<path d="M150.588 130.842C152.345 130.211 153.576 129.165 153.339 128.507C153.102 127.849 151.486 127.828 149.73 128.46C147.974 129.092 146.742 130.137 146.979 130.795C147.216 131.453 148.832 131.474 150.588 130.842Z" fill="#8ED16F"/>
<path opacity="0.3" d="M150.588 130.842C152.345 130.211 153.576 129.165 153.339 128.507C153.102 127.849 151.486 127.828 149.73 128.46C147.974 129.092 146.742 130.137 146.979 130.795C147.216 131.453 148.832 131.474 150.588 130.842Z" fill="black"/>
<path d="M158.631 159.03C153.037 161.046 146.641 157.515 146.641 157.515C146.641 157.515 149.315 150.721 154.913 148.71C160.512 146.699 165.873 147.396 166.904 150.226C167.934 153.055 164.225 157.029 158.631 159.03Z" fill="#8ED16F"/>
<path d="M157.126 154.889C158.882 154.257 160.114 153.212 159.877 152.554C159.64 151.896 158.024 151.875 156.267 152.507C154.511 153.139 153.279 154.184 153.516 154.842C153.753 155.5 155.369 155.521 157.126 154.889Z" fill="#8ED16F"/>
<path opacity="0.3" d="M157.126 154.889C158.882 154.257 160.114 153.212 159.877 152.554C159.64 151.896 158.024 151.875 156.267 152.507C154.511 153.139 153.279 154.184 153.516 154.842C153.753 155.5 155.369 155.521 157.126 154.889Z" fill="black"/>
<path d="M154.379 181.012C148.785 183.027 142.388 179.496 142.388 179.496C142.388 179.496 145.063 172.702 150.661 170.691C156.259 168.681 161.621 169.377 162.651 172.207C163.681 175.037 159.977 179.001 154.379 181.012Z" fill="#8ED16F"/>
<path d="M152.885 176.497C154.64 175.863 155.87 174.816 155.632 174.159C155.394 173.502 153.778 173.483 152.024 174.117C150.269 174.752 149.039 175.798 149.277 176.456C149.515 177.113 151.13 177.132 152.885 176.497Z" fill="#8ED16F"/>
<path opacity="0.3" d="M152.885 176.497C154.64 175.863 155.87 174.816 155.632 174.159C155.394 173.502 153.778 173.483 152.024 174.117C150.269 174.752 149.039 175.798 149.277 176.456C149.515 177.113 151.13 177.132 152.885 176.497Z" fill="black"/>
<path d="M128.141 120.328C132.27 124.604 139.57 124.271 139.57 124.271C139.57 124.271 140.17 116.995 136.04 112.719C131.911 108.444 126.795 106.683 124.611 108.777C122.428 110.87 124.011 116.053 128.141 120.328Z" fill="#8ED16F"/>
<path d="M134.595 118.811C135.099 118.325 134.456 116.844 133.159 115.502C131.863 114.16 130.403 113.465 129.9 113.951C129.397 114.437 130.04 115.918 131.336 117.26C132.633 118.602 134.092 119.297 134.595 118.811Z" fill="#8ED16F"/>
<path opacity="0.3" d="M134.595 118.811C135.099 118.325 134.456 116.844 133.159 115.502C131.863 114.16 130.403 113.465 129.9 113.951C129.397 114.437 130.04 115.918 131.336 117.26C132.633 118.602 134.092 119.297 134.595 118.811Z" fill="black"/>
<path d="M125.769 188.222C129.898 192.498 137.198 192.165 137.198 192.165C137.198 192.165 137.798 184.889 133.669 180.613C129.539 176.338 124.423 174.577 122.24 176.671C120.056 178.765 121.639 183.947 125.769 188.222Z" fill="#8ED16F"/>
<path d="M132.217 186.711C132.721 186.226 132.078 184.744 130.781 183.402C129.485 182.06 128.026 181.366 127.522 181.851C127.019 182.337 127.662 183.819 128.958 185.161C130.255 186.503 131.714 187.197 132.217 186.711Z" fill="#8ED16F"/>
<path opacity="0.3" d="M132.217 186.711C132.721 186.226 132.078 184.744 130.781 183.402C129.485 182.06 128.026 181.366 127.522 181.851C127.019 182.337 127.662 183.819 128.958 185.161C130.255 186.503 131.714 187.197 132.217 186.711Z" fill="black"/>
<path d="M131.244 144.325C136.566 146.979 143.331 144.22 143.331 144.22C143.331 144.22 141.468 137.163 136.15 134.508C130.832 131.853 125.418 131.88 124.063 134.613C122.709 137.347 125.922 141.67 131.244 144.325Z" fill="#8ED16F"/>
<path d="M136.807 140.73C137.12 140.104 136.019 138.922 134.348 138.089C132.678 137.256 131.071 137.088 130.758 137.714C130.446 138.34 131.547 139.522 133.217 140.355C134.887 141.188 136.495 141.356 136.807 140.73Z" fill="#8ED16F"/>
<path opacity="0.3" d="M136.807 140.73C137.12 140.104 136.019 138.922 134.348 138.089C132.678 137.256 131.071 137.088 130.758 137.714C130.446 138.34 131.547 139.522 133.217 140.355C134.887 141.188 136.495 141.356 136.807 140.73Z" fill="black"/>
<path d="M133.476 168.23C138.798 170.884 145.562 168.124 145.562 168.124C145.562 168.124 143.699 161.067 138.381 158.413C133.064 155.758 127.649 155.784 126.295 158.518C124.94 161.251 128.176 165.601 133.476 168.23Z" fill="#8ED16F"/>
<path d="M139.041 164.638C139.353 164.012 138.252 162.83 136.582 161.997C134.912 161.164 133.304 160.996 132.992 161.622C132.679 162.247 133.78 163.43 135.45 164.263C137.121 165.095 138.728 165.264 139.041 164.638Z" fill="#8ED16F"/>
<path opacity="0.3" d="M139.041 164.638C139.353 164.012 138.252 162.83 136.582 161.997C134.912 161.164 133.304 160.996 132.992 161.622C132.679 162.247 133.78 163.43 135.45 164.263C137.121 165.095 138.728 165.264 139.041 164.638Z" fill="black"/>
<path d="M329.352 193.286H99.4824C96.7047 193.286 94.0407 194.389 92.0766 196.352C90.1125 198.314 89.009 200.976 89.009 203.752V338.379C89.009 341.155 90.1125 343.817 92.0766 345.779C94.0407 347.742 96.7047 348.845 99.4824 348.845H329.352C332.13 348.845 334.794 347.742 336.758 345.779C338.722 343.817 339.826 341.155 339.826 338.379V203.752C339.826 200.976 338.722 198.314 336.758 196.352C334.794 194.389 332.13 193.286 329.352 193.286V193.286Z" fill="url(#paint0_linear)"/>
<path d="M325.994 195.117H102.836C96.8291 195.117 91.9595 199.983 91.9595 205.986V336.145C91.9595 342.148 96.8291 347.014 102.836 347.014H325.994C332.001 347.014 336.871 342.148 336.871 336.145V205.986C336.871 199.983 332.001 195.117 325.994 195.117Z" fill="#FCC90E"/>
<path d="M336.871 221.699H91.9595V249.546H336.871V221.699Z" fill="#FCC90E"/>
<path opacity="0.3" d="M336.871 221.699H91.9595V249.546H336.871V221.699Z" fill="black"/>
<path d="M313.649 270.222H115.186V283.723H313.649V270.222Z" fill="#D6D6E3"/>
<path d="M131.652 336.89C142.38 336.89 151.077 328.2 151.077 317.48C151.077 306.76 142.38 298.07 131.652 298.07C120.924 298.07 112.227 306.76 112.227 317.48C112.227 328.2 120.924 336.89 131.652 336.89Z" fill="#FCC90E"/>
<path opacity="0.3" d="M131.652 336.89C142.38 336.89 151.077 328.2 151.077 317.48C151.077 306.76 142.38 298.07 131.652 298.07C120.924 298.07 112.227 306.76 112.227 317.48C112.227 328.2 120.924 336.89 131.652 336.89Z" fill="black"/>
<path d="M322.947 157.664C323.261 158.654 323.927 159.496 324.819 160.029C328.848 162.688 337.607 162.123 338.659 162.123C338.883 162.123 339.177 162.522 339.501 163.192C341.049 166.381 343.447 175.729 343.609 177.832C343.824 180.377 346.191 192.288 350.067 196.725C350.185 196.861 350.303 196.988 350.417 197.106C354.218 200.922 358.677 196.725 358.677 196.725L359.317 194.504C359.137 195.38 358.935 196.401 358.734 197.544C358.633 198.118 358.532 198.727 358.436 199.353C357.858 202.883 357.555 206.452 357.528 210.029C357.518 211.328 357.574 212.626 357.695 213.919C357.73 214.278 357.769 214.633 357.817 214.979C358.015 216.554 358.112 218.14 358.107 219.727C358.072 229.154 355.665 240.881 355.665 240.881L355.757 240.851C355.7 241.144 355.665 241.289 355.665 241.289L355.805 241.245C355.738 241.68 355.674 242.125 355.612 242.581C354.797 248.495 354.328 255.854 354.104 260.103C353.989 262.345 354.088 264.592 354.402 266.814L358.681 296.913V310.931C358.667 313.055 358.926 315.172 359.453 317.23C360.847 322.526 359.698 341.012 359.054 349.782C358.874 352.174 358.734 353.847 358.694 354.329V354.474L358.817 354.425C358.817 354.526 358.817 354.579 358.817 354.579C359 354.501 359.191 354.445 359.387 354.412C357.69 357.041 354.617 361.386 352.254 362.118C350.862 362.542 349.623 363.362 348.69 364.479L348.629 364.562L348.541 364.685C348.249 365.075 348.071 365.539 348.028 366.025C347.994 365.942 347.967 365.855 347.949 365.767C347.769 366.744 348.357 367.637 350.202 368.071C351.278 368.276 352.374 368.364 353.469 368.334C359.869 368.334 371.228 366.367 372.482 364.251V356.953L372.688 357.019V357.084L373.473 357.343L375.625 350.124C378.207 348.214 376.064 314.032 375.625 306.178C375.231 299.02 379.663 270.546 380.448 265.531L380.342 265.404L380.461 264.672C380.619 264.787 380.765 264.916 380.899 265.058C381.157 265.363 381.381 265.695 381.57 266.048C381.94 266.674 382.259 267.331 382.521 268.01C386.853 278.804 388.803 309.669 388.803 312.438V341.463C388.794 344.328 389.193 347.179 389.987 349.931C390.385 351.379 390.692 352.851 390.908 354.338C391 354.92 391.079 355.499 391.153 356.051C391.228 356.603 391.302 357.233 391.359 357.75C391.359 357.886 391.39 358.018 391.403 358.14C391.416 358.263 391.403 358.258 391.403 358.32C391.521 359.463 391.583 360.212 391.583 360.212C391.599 360.149 391.629 360.091 391.671 360.041L391.692 360.317C391.723 360.213 391.782 360.119 391.863 360.046C392.042 359.871 392.235 359.713 392.442 359.573V363.261L392.337 363.182V363.817C396.8 367.182 404.064 368.198 409.641 368.159C413.257 368.159 416.186 367.72 417.203 367.212C418.658 366.498 417.86 364.834 416.537 363.559C415.511 362.569 414.174 361.807 413.327 361.903C411.916 362.056 407.089 356.594 404.559 353.602L404.844 353.475L405.248 353.3V304.903C405.248 304.903 405.897 285.795 407.83 266.897C408.747 257.371 407.619 247.759 404.52 238.704L404.459 238.524L405.046 238.616C405.669 238.713 406.002 238.77 406.002 238.77C406.002 238.77 406.002 238.621 405.962 238.332H406.002C406.002 238.332 405.248 230.136 405.239 219.841C405.239 208.172 406.225 193.944 410.307 185.892C412.657 181.257 413.441 177.569 413.376 174.66C413.478 172.101 412.741 169.578 411.276 167.476C410.661 166.63 409.826 165.969 408.86 165.566L408.777 165.518H408.733C408.028 165.233 407.275 165.084 406.515 165.08H397.699C396.678 165.081 395.675 164.817 394.788 164.313L391.337 162.36C390.189 159.85 390.022 156.739 390.268 153.822C390.268 153.59 390.311 153.358 390.333 153.13L390.583 152.867C390.776 152.661 390.956 152.429 391.131 152.232C391.127 152.405 391.114 152.577 391.092 152.749C391.048 153.025 390.973 153.187 390.855 153.222C392.74 152.976 394.845 152.604 396.002 151.15C396.05 151.093 396.094 151.032 396.138 150.97C396.48 150.417 396.763 149.83 396.984 149.218C397.146 148.8 397.363 148.405 397.628 148.044C397.918 147.667 398.295 147.361 398.606 147.001L398.659 146.94C399.768 145.626 399.829 143.742 399.842 142.025C399.864 137.855 399.741 133.264 396.949 130.136C394.63 127.534 390.93 126.549 387.418 126.435C383.907 126.321 380.404 126.952 376.897 126.969C374.512 126.969 371.636 126.93 370.321 128.901C369.676 129.869 369.597 131.135 368.896 132.064C368.492 132.598 367.874 133.058 367.839 133.724C367.835 134.031 367.914 134.334 368.067 134.6V134.631C368.918 136.304 370.724 137.347 372.609 137.675C372.29 138.058 371.997 138.462 371.732 138.884C370.581 140.723 369.973 142.848 369.979 145.017C369.979 145.271 369.979 145.521 370.005 145.77C370.201 148.716 371.515 151.475 373.679 153.485C373.644 153.73 373.609 153.975 373.569 154.216L373.648 154.286C373.896 154.511 374.155 154.724 374.424 154.926L374.52 155C374.52 155.154 374.52 155.307 374.52 155.438C374.52 155.692 374.52 155.951 374.494 156.201C374.468 156.45 374.494 156.604 374.468 156.805L374.411 156.757L370.128 153.182L363.24 146.813C363.24 146.813 346.02 134.289 345.156 140.242C345.052 141.299 345.344 142.358 345.976 143.212C349.137 148.031 360.005 152.131 360.005 152.131C360.005 152.131 366.485 158.978 370.82 166.359C370.667 166.442 370.513 166.521 370.351 166.596C366.493 168.387 360.864 167.629 360.864 167.629C354.363 168.641 353.775 175.76 353.81 178.638C353.81 178.774 353.81 178.905 353.81 179.023C353.81 179.142 353.81 179.168 353.81 179.234L345.183 158.991L345.156 158.93C344.875 158.271 344.432 157.693 343.868 157.251C343.304 156.808 342.637 156.515 341.93 156.398C336.161 155.43 321.742 153.41 322.947 157.664ZM359.067 354.351C359.193 354.321 359.32 354.298 359.448 354.281L359.409 354.342L359.067 354.351Z" fill="url(#paint1_linear)"/>
<path d="M402.174 350.211C402.174 350.211 410.346 360.475 412.236 360.265C414.125 360.054 418.522 364.242 416.01 365.521C413.498 366.801 399.036 367.615 391.898 362.17V353.965L402.174 350.211Z" fill="#ACA9C9"/>
<path d="M360.882 350.838C360.882 350.838 356.059 359.424 352.71 360.475C349.361 361.526 346.423 365.294 350.825 366.341C355.226 367.388 370.947 365.083 372.412 362.569V351.464L360.882 350.838Z" fill="#ACA9C9"/>
<path d="M354.828 266.49L358.992 296.182V309.985C358.98 312.079 359.233 314.166 359.746 316.196C361.105 321.422 359.987 339.654 359.356 348.306C359.15 351.127 358.992 352.932 358.992 352.932C361.715 351.674 373.245 355.652 373.245 355.652L374.411 351.688L375.34 348.534C377.857 346.65 375.779 312.933 375.34 305.166C375.055 299.861 377.423 282.663 378.939 272.356C379.378 269.443 379.733 267.099 379.948 265.688C380.084 264.812 380.158 264.326 380.158 264.326C380.62 264.702 381.004 265.165 381.289 265.688C381.65 266.307 381.959 266.955 382.214 267.625C386.432 278.274 388.352 308.719 388.352 311.43V340.062C388.343 342.886 388.731 345.698 389.505 348.415C390.024 350.397 390.403 352.413 390.64 354.447C390.938 356.721 391.079 358.552 391.079 358.552C391.289 357.295 404.283 351.639 404.283 351.639V303.891C404.283 303.891 404.91 285.055 406.8 266.402C407.612 257.918 406.793 249.357 404.388 241.179C403.867 239.396 403.345 237.885 402.894 236.689C402.126 234.652 401.578 233.526 401.578 233.526H358.773C358.054 233.662 357.458 235.108 356.919 237.302C356.568 238.774 356.261 240.579 355.994 242.559C355.2 248.39 354.744 255.648 354.525 259.845C354.414 262.064 354.516 264.29 354.828 266.49V266.49Z" fill="#618FD8"/>
<g opacity="0.1">
<path opacity="0.1" d="M403.529 351.775V304.027C403.529 304.027 404.156 285.191 406.046 266.538C407.935 247.886 400.785 233.658 400.785 233.658H401.622C401.622 233.658 408.746 247.899 406.883 266.538C405.02 285.177 404.367 304.027 404.367 304.027V351.775C404.367 351.775 391.372 357.431 391.162 358.688C391.162 358.688 391.162 358.407 391.096 357.925C393.928 355.959 403.529 351.775 403.529 351.775Z" fill="black"/>
<path opacity="0.1" d="M360.25 352.8C359.855 352.808 359.464 352.889 359.097 353.037V352.827C359.48 352.788 359.866 352.779 360.25 352.8V352.8Z" fill="black"/>
<path opacity="0.1" d="M374.608 348.639C377.124 346.755 375.046 313.038 374.608 305.271C374.17 297.504 379.43 264.436 379.43 264.436C379.706 264.648 379.949 264.899 380.154 265.18C379.382 270.122 375.068 298.214 375.45 305.271C375.888 313.02 377.966 346.738 375.45 348.639L373.354 355.757L372.591 355.503L374.608 348.639Z" fill="black"/>
</g>
<path d="M363.394 181.831L359.01 197.33C359.01 197.33 354.398 201.71 350.628 197.33C346.857 192.949 344.534 181.205 344.306 178.69C344.078 176.176 340.742 163.192 339.484 163.192C338.225 163.192 325.652 164.029 324.183 158.811C323.009 154.615 337.046 156.621 342.666 157.563C343.358 157.681 344.01 157.971 344.559 158.408C345.109 158.844 345.539 159.413 345.81 160.06L354.429 180.627C354.429 180.627 358.992 175.339 363.394 181.831Z" fill="#F7C4A7"/>
<path d="M391.688 145.81C391.688 145.81 386.239 161.098 393.157 166.543C400.075 171.988 368.418 173.456 368.418 173.456L372.714 169.373C372.714 169.373 375.752 157.331 373.657 147.277L391.688 145.81Z" fill="#F7C4A7"/>
<path opacity="0.1" d="M384.981 166.543C384.981 166.543 390.535 165.181 390.535 163.718L395.458 166.543H407.826C407.826 166.543 416.839 171.568 409.294 186.65C401.749 201.732 405.103 238.779 405.103 238.779C405.103 238.779 378.277 233.96 356.059 241.293C356.059 241.293 359.413 224.748 358.155 215.325C356.897 205.902 360.251 192.708 360.251 192.708L362.136 184.749C362.136 184.749 362.03 177.302 354.275 181.082C354.275 181.082 353.122 170.297 361.088 169.04C361.088 169.04 370.294 170.297 373.034 165.689C373.034 165.706 379.115 169.268 384.981 166.543Z" fill="black"/>
<path d="M384.981 166.127C384.981 166.127 390.535 164.765 390.535 163.301L394.143 165.373C395.005 165.867 395.981 166.127 396.975 166.127H405.625C406.529 166.124 407.421 166.337 408.226 166.746C409.032 167.156 409.729 167.752 410.259 168.484C412.245 171.274 414.024 176.776 409.294 186.234C401.749 201.312 405.103 238.362 405.103 238.362C405.103 238.362 378.277 233.544 356.059 240.877C356.059 240.877 359.413 224.331 358.155 214.909C356.897 205.486 360.25 192.323 360.25 192.323L362.136 184.363C362.136 184.363 362.03 176.916 354.275 180.697C354.275 180.697 353.153 170.21 360.759 168.711C360.97 168.664 361.188 168.65 361.403 168.668C363.03 168.838 370.61 169.386 373.039 165.281C373.034 165.286 379.115 168.847 384.981 166.127Z" fill="#E14B5A"/>
<path opacity="0.1" d="M406.151 185.182C406.151 185.182 399.443 189.37 388.545 185.182C388.545 185.182 376.598 180.802 372.824 172.198C369.049 163.595 391.894 173.666 391.894 173.666C391.894 173.666 396.716 173.666 398.181 172.619C399.645 171.572 409.921 180.574 406.151 185.182Z" fill="black"/>
<path d="M406.151 184.346C406.151 184.346 399.443 188.534 388.545 184.346C388.545 184.346 376.598 179.965 372.824 171.362C369.049 162.758 360.25 153.336 360.25 153.336C360.25 153.336 344.95 147.47 345.783 141.609C346.616 135.748 363.389 148.101 363.389 148.101L370.097 154.383L391.894 172.812C391.894 172.812 396.716 172.812 398.181 171.765C399.645 170.718 409.921 179.737 406.151 184.346Z" fill="#F7C4A7"/>
<path opacity="0.1" d="M373.455 147.904L391.478 146.436C390.551 149.205 389.921 152.064 389.597 154.965C387.502 157.136 384.637 158.398 381.62 158.48C378.603 158.562 375.674 157.457 373.464 155.403C373.923 152.924 373.92 150.382 373.455 147.904V147.904Z" fill="black"/>
<path d="M381.526 157.852C387.891 157.852 393.052 152.696 393.052 146.336C393.052 139.975 387.891 134.819 381.526 134.819C375.161 134.819 370 139.975 370 146.336C370 152.696 375.161 157.852 381.526 157.852Z" fill="#F7C4A7"/>
<path opacity="0.1" d="M387.852 148.837C387.177 147.724 388.549 146.274 388.098 145.056C387.681 143.935 386.024 143.742 385.467 142.695C385.029 141.85 385.467 140.812 385.292 139.879C385.042 138.674 383.744 137.925 382.512 137.864C381.281 137.802 380.092 138.262 378.922 138.656C377.015 139.3 375.007 139.795 373.008 139.568C371.009 139.34 369.014 138.253 368.124 136.471C367.979 136.211 367.902 135.918 367.901 135.621C367.936 134.964 368.541 134.512 368.931 133.987C369.615 133.071 369.694 131.823 370.316 130.868C371.588 128.923 374.38 128.971 376.704 128.962C380.123 128.962 383.525 128.323 386.945 128.437C390.364 128.55 393.959 129.519 396.226 132.086C398.944 135.174 399.066 139.695 399.044 143.812C399.044 145.508 398.974 147.352 397.891 148.662C397.576 149.043 397.19 149.358 396.888 149.748C396.23 150.624 396.055 151.746 395.436 152.635C394.34 154.216 392.201 154.602 390.294 154.856C390.855 154.781 390.39 151.027 390.294 150.681C389.926 148.955 389.527 148.99 387.852 148.837Z" fill="black"/>
<path d="M387.852 148.421C387.177 147.308 388.549 145.858 388.098 144.64C387.681 143.519 386.024 143.326 385.467 142.279C385.029 141.434 385.467 140.396 385.292 139.462C385.042 138.258 383.744 137.509 382.512 137.447C381.281 137.386 380.092 137.846 378.922 138.24C377.015 138.884 375.007 139.379 373.008 139.151C371.009 138.924 369.014 137.837 368.124 136.054C367.979 135.795 367.902 135.502 367.901 135.205C367.936 134.547 368.541 134.096 368.931 133.571C369.615 132.655 369.694 131.407 370.316 130.452C371.588 128.507 374.38 128.555 376.704 128.546C380.123 128.546 383.525 127.907 386.945 128.02C390.364 128.134 393.959 129.102 396.226 131.669C398.944 134.758 399.066 139.278 399.044 143.396C399.044 145.091 398.974 146.936 397.891 148.245C397.576 148.627 397.19 148.942 396.888 149.332C396.23 150.208 396.055 151.329 395.436 152.219C394.34 153.8 392.201 154.186 390.294 154.44C390.855 154.365 390.39 150.611 390.294 150.265C389.926 148.517 389.527 148.57 387.852 148.421Z" fill="#281C1C"/>
<path opacity="0.1" d="M406.046 185.708C406.046 185.708 400.386 171.046 395.984 170.63C391.583 170.214 404.367 170.63 404.367 170.63L408.558 178.169L406.046 185.708Z" fill="black"/>
<path d="M406.466 185.708C406.466 185.708 400.807 171.046 396.405 170.63C392.004 170.214 404.787 170.63 404.787 170.63L408.978 178.169L406.466 185.708Z" fill="#E14B5A"/>
<path d="M390.623 354.482C390.921 356.756 391.061 358.587 391.061 358.587C391.272 357.33 404.266 351.674 404.266 351.674V348.271C403.935 348.258 403.603 348.275 403.275 348.319C400.754 348.656 398.418 349.878 396.261 351.184C394.439 352.379 392.557 353.48 390.623 354.482V354.482Z" fill="#618FD8"/>
<path opacity="0.3" d="M390.623 354.482C390.921 356.756 391.061 358.587 391.061 358.587C391.272 357.33 404.266 351.674 404.266 351.674V348.271C403.935 348.258 403.603 348.275 403.275 348.319C400.754 348.656 398.418 349.878 396.261 351.184C394.439 352.379 392.557 353.48 390.623 354.482V354.482Z" fill="black"/>
<path d="M358.992 352.932C361.715 351.674 373.244 355.652 373.244 355.652L374.411 351.688C372.398 351.28 370.399 350.772 368.435 350.168C367.518 349.902 366.622 349.571 365.752 349.178C365.172 348.868 364.575 348.59 363.964 348.345C362.46 347.828 360.895 348.047 359.352 348.306C359.15 351.127 358.992 352.932 358.992 352.932Z" fill="#618FD8"/>
<path opacity="0.3" d="M358.992 352.932C361.715 351.674 373.244 355.652 373.244 355.652L374.411 351.688C372.398 351.28 370.399 350.772 368.435 350.168C367.518 349.902 366.622 349.571 365.752 349.178C365.172 348.868 364.575 348.59 363.964 348.345C362.46 347.828 360.895 348.047 359.352 348.306C359.15 351.127 358.992 352.932 358.992 352.932Z" fill="black"/>
<path opacity="0.4" d="M415.896 364.869C416.072 364.794 416.228 364.68 416.352 364.536C416.477 364.391 416.567 364.221 416.615 364.036C416.693 364.325 416.664 364.633 416.531 364.901C416.399 365.17 416.173 365.381 415.896 365.495C413.38 366.752 398.922 367.589 391.784 362.144V361.518C398.922 366.963 413.38 366.126 415.896 364.869Z" fill="white"/>
<path opacity="0.4" d="M350.715 365.705C355.099 366.752 370.838 364.448 372.302 361.934V362.56C370.833 365.075 355.117 367.379 350.715 366.332C348.918 365.894 348.344 365.018 348.523 364.058C348.664 364.768 349.321 365.355 350.715 365.705Z" fill="white"/>
<path opacity="0.1" d="M376.283 213.144C376.283 213.144 371.671 211.676 370.412 213.144C369.154 214.611 358.4 218.05 358.4 218.05" fill="black"/>
<path d="M324.1 155.6H346.524V155.127H324.1V155.6Z" fill="#8ED16F"/>
<path d="M324.1 156.073H346.524V155.6H324.1V156.073Z" fill="#8ED16F"/>
<path opacity="0.1" d="M324.1 156.073H346.524V155.6H324.1V156.073Z" fill="black"/>
<path d="M324.1 156.547H346.524V156.074H324.1V156.547Z" fill="#8ED16F"/>
<path d="M324.1 157.015H346.524V156.542H324.1V157.015Z" fill="#8ED16F"/>
<path opacity="0.1" d="M324.1 157.015H346.524V156.542H324.1V157.015Z" fill="black"/>
<path d="M324.1 157.488H346.524V157.015H324.1V157.488Z" fill="#8ED16F"/>
<path d="M324.1 157.957H346.524V157.484H324.1V157.957Z" fill="#8ED16F"/>
<path opacity="0.1" d="M324.1 157.957H346.524V157.484H324.1V157.957Z" fill="black"/>
<path d="M324.1 158.43H346.524V157.957H324.1V158.43Z" fill="#8ED16F"/>
<path d="M324.1 158.899H346.524V158.426H324.1V158.899Z" fill="#8ED16F"/>
<path opacity="0.1" d="M324.1 158.899H346.524V158.426H324.1V158.899Z" fill="black"/>
<path d="M324.1 151.833H346.524V151.36H324.1V151.833Z" fill="#8ED16F"/>
<path d="M339.961 140.632L357.202 154.96L357.505 154.596L340.264 140.269L339.961 140.632Z" fill="#8ED16F"/>
<path d="M324.243 133.094L341.483 147.422L341.786 147.058L324.546 132.73L324.243 133.094Z" fill="#8ED16F"/>
<path d="M324.1 152.302H346.524V151.829H324.1V152.302Z" fill="#8ED16F"/>
<path opacity="0.1" d="M324.1 152.302H346.524V151.829H324.1V152.302Z" fill="black"/>
<path d="M324.1 152.779H346.524V152.306H324.1V152.779Z" fill="#8ED16F"/>
<path d="M324.1 153.248H346.524V152.775H324.1V153.248Z" fill="#8ED16F"/>
<path opacity="0.1" d="M324.1 153.248H346.524V152.775H324.1V153.248Z" fill="black"/>
<path d="M324.1 153.717H346.524V153.244H324.1V153.717Z" fill="#8ED16F"/>
<path d="M324.1 154.19H346.524V153.717H324.1V154.19Z" fill="#8ED16F"/>
<path opacity="0.1" d="M324.1 154.19H346.524V153.717H324.1V154.19Z" fill="black"/>
<path d="M324.1 154.659H346.524V154.186H324.1V154.659Z" fill="#8ED16F"/>
<path d="M324.1 155.132H346.524V154.659H324.1V155.132Z" fill="#8ED16F"/>
<path opacity="0.1" d="M324.1 155.132H346.524V154.659H324.1V155.132Z" fill="black"/>
<path d="M321.258 173.501L329.292 174.991L332.2 159.344L324.166 157.854L321.258 173.501Z" fill="#8ED16F"/>
<path d="M328.487 166.778C328.826 164.958 328.363 163.346 327.453 163.178C326.544 163.009 325.533 164.347 325.194 166.167C324.856 167.986 325.319 169.598 326.229 169.767C327.138 169.936 328.149 168.598 328.487 166.778Z" fill="#8ED16F"/>
<path opacity="0.1" d="M328.487 166.778C328.826 164.958 328.363 163.346 327.453 163.178C326.544 163.009 325.533 164.347 325.194 166.167C324.856 167.986 325.319 169.598 326.229 169.767C327.138 169.936 328.149 168.598 328.487 166.778Z" fill="black"/>
<path d="M322.633 206.527L330.667 208.018L333.575 192.371L325.541 190.88L322.633 206.527Z" fill="#8ED16F"/>
<path d="M329.858 199.801C330.196 197.981 329.733 196.369 328.824 196.201C327.914 196.032 326.903 197.37 326.565 199.19C326.227 201.01 326.69 202.622 327.599 202.79C328.508 202.959 329.52 201.621 329.858 199.801Z" fill="#8ED16F"/>
<path opacity="0.1" d="M329.858 199.801C330.196 197.981 329.733 196.369 328.824 196.201C327.914 196.032 326.903 197.37 326.565 199.19C326.227 201.01 326.69 202.622 327.599 202.79C328.508 202.959 329.52 201.621 329.858 199.801Z" fill="black"/>
<path d="M293.573 125.349L289.684 132.53L303.691 140.104L307.581 132.923L293.573 125.349Z" fill="#8ED16F"/>
<path d="M302.947 134.643C303.391 133.83 302.43 132.45 300.8 131.562C299.17 130.673 297.489 130.613 297.045 131.426C296.601 132.239 297.562 133.619 299.192 134.507C300.822 135.395 302.503 135.456 302.947 134.643Z" fill="#8ED16F"/>
<path opacity="0.1" d="M302.947 134.643C303.391 133.83 302.43 132.45 300.8 131.562C299.17 130.673 297.489 130.613 297.045 131.426C296.601 132.239 297.562 133.619 299.192 134.507C300.822 135.395 302.503 135.456 302.947 134.643Z" fill="black"/>
<path d="M262.816 267.07L258.927 274.251L272.934 281.826L276.823 274.644L262.816 267.07Z" fill="#8ED16F"/>
<path d="M270.779 276.139C271.22 275.326 270.256 273.953 268.627 273.072C266.998 272.191 265.32 272.136 264.88 272.949C264.44 273.762 265.404 275.135 267.033 276.016C268.662 276.896 270.339 276.952 270.779 276.139Z" fill="#8ED16F"/>
<path opacity="0.1" d="M270.779 276.139C271.22 275.326 270.256 273.953 268.627 273.072C266.998 272.191 265.32 272.136 264.88 272.949C264.44 273.762 265.404 275.135 267.033 276.016C268.662 276.896 270.339 276.952 270.779 276.139Z" fill="black"/>
<path d="M243.998 150.117L240.109 157.298L254.116 164.872L258.005 157.691L243.998 150.117Z" fill="#8ED16F"/>
<path d="M251.957 159.179C252.398 158.366 251.434 156.993 249.805 156.112C248.176 155.231 246.498 155.176 246.058 155.989C245.618 156.802 246.582 158.175 248.211 159.056C249.84 159.937 251.517 159.992 251.957 159.179Z" fill="#8ED16F"/>
<path opacity="0.1" d="M251.957 159.179C252.398 158.366 251.434 156.993 249.805 156.112C248.176 155.231 246.498 155.176 246.058 155.989C245.618 156.802 246.582 158.175 248.211 159.056C249.84 159.937 251.517 159.992 251.957 159.179Z" fill="black"/>
<path d="M267.583 125.347L263.694 132.528L277.702 140.102L281.591 132.921L267.583 125.347Z" fill="#8ED16F"/>
<path d="M275.543 134.409C275.983 133.596 275.019 132.223 273.39 131.342C271.761 130.461 270.084 130.406 269.644 131.219C269.204 132.032 270.167 133.405 271.796 134.286C273.425 135.167 275.103 135.222 275.543 134.409Z" fill="#8ED16F"/>
<path opacity="0.1" d="M275.543 134.409C275.983 133.596 275.019 132.223 273.39 131.342C271.761 130.461 270.084 130.406 269.644 131.219C269.204 132.032 270.167 133.405 271.796 134.286C273.425 135.167 275.103 135.222 275.543 134.409Z" fill="black"/>
<path d="M291.131 154.574L283.008 155.461L284.739 171.282L292.862 170.394L291.131 154.574Z" fill="#8ED16F"/>
<path d="M288.192 166.272C289.112 166.172 289.694 164.599 289.492 162.759C289.291 160.919 288.383 159.509 287.463 159.61C286.544 159.71 285.962 161.283 286.163 163.123C286.364 164.963 287.273 166.373 288.192 166.272Z" fill="#8ED16F"/>
<path opacity="0.1" d="M288.192 166.272C289.112 166.172 289.694 164.599 289.492 162.759C289.291 160.919 288.383 159.509 287.463 159.61C286.544 159.71 285.962 161.283 286.163 163.123C286.364 164.963 287.273 166.373 288.192 166.272Z" fill="black"/>
<path d="M346.826 241.203L338.702 242.09L340.434 257.911L348.557 257.023L346.826 241.203Z" fill="#8ED16F"/>
<path d="M343.891 252.901C344.81 252.801 345.392 251.228 345.191 249.388C344.99 247.549 344.081 246.139 343.162 246.239C342.242 246.339 341.66 247.912 341.861 249.752C342.063 251.592 342.971 253.002 343.891 252.901Z" fill="#8ED16F"/>
<path opacity="0.1" d="M343.891 252.901C344.81 252.801 345.392 251.228 345.191 249.388C344.99 247.549 344.081 246.139 343.162 246.239C342.242 246.339 341.66 247.912 341.861 249.752C342.063 251.592 342.971 253.002 343.891 252.901Z" fill="black"/>
<path d="M259.322 188.18L255.433 195.361L269.441 202.936L273.33 195.754L259.322 188.18Z" fill="#8ED16F"/>
<path d="M267.279 197.248C267.72 196.436 266.756 195.063 265.127 194.182C263.498 193.301 261.82 193.246 261.38 194.059C260.94 194.871 261.904 196.244 263.533 197.125C265.162 198.006 266.839 198.061 267.279 197.248Z" fill="#8ED16F"/>
<path opacity="0.1" d="M267.279 197.248C267.72 196.436 266.756 195.063 265.127 194.182C263.498 193.301 261.82 193.246 261.38 194.059C260.94 194.871 261.904 196.244 263.533 197.125C265.162 198.006 266.839 198.061 267.279 197.248Z" fill="black"/>
<path d="M223.975 178.093L220.085 185.274L234.093 192.848L237.982 185.667L223.975 178.093Z" fill="#8ED16F"/>
<path d="M233.098 187.638C233.542 186.824 232.58 185.445 230.95 184.556C229.32 183.668 227.639 183.607 227.195 184.42C226.751 185.234 227.713 186.613 229.343 187.502C230.973 188.39 232.654 188.451 233.098 187.638Z" fill="#8ED16F"/>
<path opacity="0.1" d="M233.098 187.638C233.542 186.824 232.58 185.445 230.95 184.556C229.32 183.668 227.639 183.607 227.195 184.42C226.751 185.234 227.713 186.613 229.343 187.502C230.973 188.39 232.654 188.451 233.098 187.638Z" fill="black"/>
<path d="M212.654 347.93L208.765 355.111L222.772 362.686L226.661 355.504L212.654 347.93Z" fill="#8ED16F"/>
<path d="M220.613 356.994C221.053 356.181 220.089 354.808 218.46 353.928C216.831 353.047 215.154 352.992 214.714 353.804C214.274 354.617 215.237 355.99 216.866 356.871C218.495 357.752 220.173 357.807 220.613 356.994Z" fill="#8ED16F"/>
<path opacity="0.1" d="M220.613 356.994C221.053 356.181 220.089 354.808 218.46 353.928C216.831 353.047 215.154 352.992 214.714 353.804C214.274 354.617 215.237 355.99 216.866 356.871C218.495 357.752 220.173 357.807 220.613 356.994Z" fill="black"/>
<path d="M202.463 350.698L200.972 358.726L216.632 361.629L218.122 353.601L202.463 350.698Z" fill="#8ED16F"/>
<path opacity="0.05" d="M202.463 350.698L200.972 358.726L216.632 361.629L218.122 353.601L202.463 350.698Z" fill="black"/>
<path d="M212.829 356.877C212.997 355.968 211.658 354.958 209.837 354.62C208.016 354.282 206.402 354.745 206.234 355.654C206.065 356.563 207.405 357.573 209.226 357.911C211.047 358.248 212.66 357.785 212.829 356.877Z" fill="#8ED16F"/>
<path opacity="0.1" d="M212.829 356.877C212.997 355.968 211.658 354.958 209.837 354.62C208.016 354.282 206.402 354.745 206.234 355.654C206.065 356.563 207.405 357.573 209.226 357.911C211.047 358.248 212.66 357.785 212.829 356.877Z" fill="black"/>
<path d="M203.93 355.513L202.439 363.541L218.099 366.444L219.59 358.415L203.93 355.513Z" fill="#8ED16F"/>
<path d="M214.292 361.691C214.46 360.783 213.121 359.772 211.3 359.435C209.478 359.097 207.865 359.56 207.697 360.469C207.528 361.377 208.867 362.388 210.689 362.725C212.51 363.063 214.123 362.6 214.292 361.691Z" fill="#8ED16F"/>
<path opacity="0.1" d="M214.292 361.691C214.46 360.783 213.121 359.772 211.3 359.435C209.478 359.097 207.865 359.56 207.697 360.469C207.528 361.377 208.867 362.388 210.689 362.725C212.51 363.063 214.123 362.6 214.292 361.691Z" fill="black"/>
<path d="M229.177 368.57L225.288 375.752L239.295 383.326L243.184 376.145L229.177 368.57Z" fill="#8ED16F"/>
<path d="M237.14 377.635C237.58 376.822 236.617 375.449 234.988 374.568C233.359 373.687 231.681 373.632 231.241 374.445C230.801 375.258 231.765 376.631 233.394 377.512C235.023 378.392 236.7 378.448 237.14 377.635Z" fill="#8ED16F"/>
<path opacity="0.1" d="M237.14 377.635C237.58 376.822 236.617 375.449 234.988 374.568C233.359 373.687 231.681 373.632 231.241 374.445C230.801 375.258 231.765 376.631 233.394 377.512C235.023 378.392 236.7 378.448 237.14 377.635Z" fill="black"/>
<path d="M218.989 371.333L217.498 379.361L233.158 382.264L234.648 374.236L218.989 371.333Z" fill="#8ED16F"/>
<path opacity="0.05" d="M218.989 371.333L217.498 379.361L233.158 382.264L234.648 374.236L218.989 371.333Z" fill="black"/>
<path d="M229.35 377.512C229.519 376.603 228.18 375.593 226.358 375.255C224.537 374.917 222.924 375.38 222.755 376.289C222.587 377.198 223.926 378.208 225.747 378.546C227.569 378.883 229.182 378.42 229.35 377.512Z" fill="#8ED16F"/>
<path opacity="0.1" d="M229.35 377.512C229.519 376.603 228.18 375.593 226.358 375.255C224.537 374.917 222.924 375.38 222.755 376.289C222.587 377.198 223.926 378.208 225.747 378.546C227.569 378.883 229.182 378.42 229.35 377.512Z" fill="black"/>
<path d="M220.455 376.153L218.964 384.181L234.624 387.084L236.115 379.056L220.455 376.153Z" fill="#8ED16F"/>
<path d="M230.821 382.331C230.99 381.423 229.65 380.412 227.829 380.075C226.008 379.737 224.395 380.2 224.226 381.109C224.057 382.017 225.397 383.028 227.218 383.365C229.039 383.703 230.652 383.24 230.821 382.331Z" fill="#8ED16F"/>
<path opacity="0.1" d="M230.821 382.331C230.99 381.423 229.65 380.412 227.829 380.075C226.008 379.737 224.395 380.2 224.226 381.109C224.057 382.017 225.397 383.028 227.218 383.365C229.039 383.703 230.652 383.24 230.821 382.331Z" fill="black"/>
<path d="M253.967 355.269L250.078 362.45L264.086 370.024L267.975 362.843L253.967 355.269Z" fill="#8ED16F"/>
<path d="M261.923 364.331C262.363 363.518 261.399 362.145 259.77 361.264C258.141 360.383 256.464 360.328 256.023 361.141C255.583 361.954 256.547 363.327 258.176 364.208C259.805 365.089 261.482 365.144 261.923 364.331Z" fill="#8ED16F"/>
<path opacity="0.1" d="M261.923 364.331C262.363 363.518 261.399 362.145 259.77 361.264C258.141 360.383 256.464 360.328 256.023 361.141C255.583 361.954 256.547 363.327 258.176 364.208C259.805 365.089 261.482 365.144 261.923 364.331Z" fill="black"/>
<path d="M243.777 358.034L242.286 366.062L257.946 368.965L259.437 360.937L243.777 358.034Z" fill="#8ED16F"/>
<path opacity="0.05" d="M243.777 358.034L242.286 366.062L257.946 368.965L259.437 360.937L243.777 358.034Z" fill="black"/>
<path d="M254.139 364.212C254.307 363.304 252.968 362.294 251.147 361.956C249.326 361.618 247.712 362.081 247.544 362.99C247.375 363.899 248.715 364.909 250.536 365.247C252.357 365.584 253.97 365.121 254.139 364.212Z" fill="#8ED16F"/>
<path opacity="0.1" d="M254.139 364.212C254.307 363.304 252.968 362.294 251.147 361.956C249.326 361.618 247.712 362.081 247.544 362.99C247.375 363.899 248.715 364.909 250.536 365.247C252.357 365.584 253.97 365.121 254.139 364.212Z" fill="black"/>
<path d="M245.243 362.853L243.752 370.881L259.412 373.784L260.903 365.756L245.243 362.853Z" fill="#8ED16F"/>
<path d="M255.609 369.032C255.778 368.124 254.438 367.113 252.617 366.776C250.796 366.438 249.183 366.901 249.014 367.81C248.846 368.718 250.185 369.729 252.006 370.066C253.827 370.404 255.44 369.941 255.609 369.032Z" fill="#8ED16F"/>
<path opacity="0.1" d="M255.609 369.032C255.778 368.124 254.438 367.113 252.617 366.776C250.796 366.438 249.183 366.901 249.014 367.81C248.846 368.718 250.185 369.729 252.006 370.066C253.827 370.404 255.44 369.941 255.609 369.032Z" fill="black"/>
</g>
</g>
<defs>
<linearGradient id="paint0_linear" x1="214.417" y1="348.845" x2="214.417" y2="193.286" gradientUnits="userSpaceOnUse">
<stop stop-color="#808080" stop-opacity="0.25"/>
<stop offset="0.54" stop-color="#808080" stop-opacity="0.12"/>
<stop offset="1" stop-color="#808080" stop-opacity="0.1"/>
</linearGradient>
<linearGradient id="paint1_linear" x1="-281658" y1="183448" x2="-281658" y2="49864.9" gradientUnits="userSpaceOnUse">
<stop stop-color="#808080" stop-opacity="0.25"/>
<stop offset="0.54" stop-color="#808080" stop-opacity="0.12"/>
<stop offset="1" stop-color="#808080" stop-opacity="0.1"/>
</linearGradient>
<clipPath id="clip0">
<rect width="427" height="313" fill="white" transform="translate(12 77)"/>
</clipPath>
</defs>
</svg>
