<?xml version="1.0" standalone="no"?>
<!DOCTYPE svg PUBLIC "-//W3C//DTD SVG 20010904//EN"
 "http://www.w3.org/TR/2001/REC-SVG-20010904/DTD/svg10.dtd">
<svg version="1.0" xmlns="http://www.w3.org/2000/svg"
 width="1024.000000pt" height="1024.000000pt" viewBox="0 0 1024.000000 1024.000000"
 preserveAspectRatio="xMidYMid meet">
<metadata>
Created by potrace 1.11, written by Peter Selinger 2001-2013
</metadata>
<g transform="translate(0.000000,1024.000000) scale(0.100000,-0.100000)"
fill="#000000" stroke="none">
<path d="M1708 9295 c-2 -2 -37 -5 -78 -8 -41 -3 -86 -9 -100 -12 -14 -3 -39
-8 -57 -11 -17 -2 -44 -9 -60 -15 -15 -6 -37 -13 -48 -15 -11 -2 -50 -15 -85
-30 -151 -61 -269 -135 -386 -239 -24 -22 -50 -45 -57 -51 -23 -20 -101 -116
-137 -168 -19 -28 -38 -52 -42 -54 -5 -2 -8 -8 -8 -14 0 -5 -16 -36 -35 -69
-19 -32 -32 -59 -28 -59 3 0 1 -6 -4 -12 -15 -19 -61 -147 -69 -190 -3 -21 -9
-38 -13 -38 -3 0 -6 -10 -7 -22 -1 -13 -5 -48 -10 -78 -10 -63 -11 -335 0
-395 5 -33 27 -127 39 -170 26 -91 82 -210 175 -370 41 -71 85 -148 96 -170
12 -22 23 -42 26 -45 10 -10 41 -65 47 -82 3 -10 9 -18 14 -18 5 0 9 -6 9 -12
0 -7 17 -40 38 -73 21 -33 44 -75 51 -92 7 -18 17 -33 21 -33 3 0 17 -22 30
-50 13 -27 27 -50 32 -50 4 0 8 -6 8 -13 0 -8 17 -41 38 -73 20 -33 38 -66 40
-74 2 -8 7 -17 11 -20 4 -3 40 -63 81 -135 41 -71 76 -132 79 -135 3 -3 14
-21 24 -40 9 -19 25 -48 35 -65 10 -16 30 -50 44 -75 14 -25 39 -69 57 -98 17
-29 31 -55 31 -58 0 -3 5 -10 10 -17 6 -7 34 -52 62 -102 91 -161 79 -140 234
-407 20 -35 48 -83 62 -108 34 -62 150 -262 162 -280 6 -8 16 -26 22 -40 7
-14 33 -59 58 -100 25 -41 52 -88 60 -105 8 -16 19 -34 23 -40 16 -20 197
-338 197 -346 0 -5 4 -9 8 -9 4 0 13 -12 19 -27 7 -16 23 -46 36 -68 13 -22
50 -85 82 -140 32 -55 60 -102 64 -105 3 -3 7 -12 9 -20 2 -8 14 -31 26 -50
42 -64 126 -210 126 -219 0 -5 7 -14 15 -21 8 -7 12 -16 9 -21 -3 -5 -1 -9 5
-9 5 0 15 -16 22 -35 7 -19 17 -35 21 -35 4 0 8 -7 8 -15 0 -8 3 -15 8 -15 4
0 18 -23 31 -50 14 -28 29 -50 34 -50 4 0 5 -4 2 -10 -3 -5 -1 -10 4 -10 6 0
10 -3 9 -7 -1 -5 5 -19 13 -33 34 -54 79 -131 79 -135 0 -3 16 -29 35 -60 20
-30 33 -55 30 -55 -3 0 -1 -6 5 -13 17 -20 110 -179 110 -189 0 -4 5 -8 12 -8
6 0 8 -3 5 -6 -4 -4 2 -19 12 -33 10 -14 31 -48 45 -76 15 -27 35 -63 45 -80
10 -16 28 -47 40 -68 22 -40 40 -69 68 -114 10 -16 18 -30 18 -33 0 -3 17 -33
38 -66 20 -34 37 -66 37 -72 0 -6 4 -12 8 -14 5 -1 28 -39 52 -83 24 -44 46
-82 49 -85 6 -5 10 -12 57 -99 16 -29 34 -60 39 -69 6 -9 24 -39 40 -67 52
-86 65 -109 83 -145 9 -19 20 -36 25 -38 4 -2 7 -10 7 -18 0 -8 5 -14 11 -14
5 0 8 -4 4 -9 -3 -5 -1 -12 3 -15 5 -3 33 -47 63 -98 84 -147 150 -237 232
-319 58 -57 138 -126 152 -130 6 -2 20 -12 32 -23 24 -20 33 -26 114 -71 279
-153 620 -195 934 -113 44 11 86 25 93 31 6 5 12 7 12 4 0 -9 133 49 190 83
28 17 55 30 60 30 6 0 10 4 10 8 0 5 13 15 29 23 58 28 215 172 283 259 40 51
103 140 109 155 4 10 76 137 108 190 10 17 28 48 41 70 12 22 62 108 110 190
48 83 89 155 91 160 4 10 80 141 108 185 8 14 16 27 16 30 0 3 9 19 19 35 53
83 64 103 77 132 7 18 17 33 20 33 3 0 16 23 29 50 13 27 27 50 32 50 4 0 8 5
8 11 0 6 24 52 54 102 29 51 66 115 81 142 16 28 45 79 67 114 21 34 38 64 38
66 0 2 97 169 158 272 17 28 28 54 25 57 -4 3 -1 6 5 6 7 0 12 7 12 15 0 8 3
15 8 15 4 0 12 10 18 23 16 33 53 98 75 132 10 17 22 38 25 48 4 9 10 17 15
17 5 0 9 5 9 12 0 6 25 54 56 107 72 121 96 164 129 226 15 28 33 57 41 66 8
8 14 23 14 32 0 9 4 17 10 17 5 0 16 15 25 33 14 32 38 74 101 178 19 31 34
62 34 68 0 6 4 11 8 11 5 0 14 16 22 35 8 19 17 35 20 35 4 0 17 23 30 50 13
28 26 50 29 50 3 0 15 20 26 45 11 25 22 45 26 45 3 0 11 12 18 27 7 14 31 58
54 97 23 39 40 75 39 79 -1 4 5 10 13 13 8 4 15 13 15 21 0 9 8 22 18 30 10 9
11 12 2 7 -8 -4 -5 4 8 18 12 13 22 28 22 32 0 4 32 61 70 126 39 65 70 123
70 129 0 5 4 11 8 13 4 2 34 50 67 108 33 57 65 112 70 121 6 9 22 38 37 65
16 27 44 76 64 109 19 33 38 68 41 78 3 9 9 17 13 17 4 0 11 11 14 25 4 14 11
25 16 25 6 0 10 4 10 9 0 5 38 75 84 154 46 80 86 151 90 159 3 7 17 31 31 53
14 22 32 56 42 75 9 19 20 37 24 40 3 3 16 23 28 45 44 82 89 160 98 170 4 6
21 35 37 65 16 30 35 62 42 71 8 8 14 21 14 27 0 7 5 12 11 12 5 0 8 4 5 8 -3
5 3 19 12 32 24 34 81 132 88 153 4 9 11 17 16 17 5 0 7 4 4 9 -3 5 1 14 9 21
8 7 15 16 15 20 0 4 36 68 79 143 157 268 213 372 204 381 -4 3 -1 6 5 6 7 0
12 8 12 18 0 10 4 22 8 27 10 11 45 123 45 142 0 7 4 13 8 13 4 0 6 9 4 20 -2
11 0 22 5 25 4 3 6 14 3 25 -3 11 -1 20 3 20 24 0 21 414 -3 453 -2 4 -6 21
-8 37 -5 39 -33 135 -53 180 -8 19 -14 36 -13 38 4 5 -74 148 -113 207 -71
109 -173 221 -256 285 -18 14 -44 35 -59 48 -14 12 -38 28 -53 35 -16 6 -28
15 -28 18 0 6 -184 99 -196 99 -3 0 -20 6 -37 14 -56 26 -189 58 -292 72 -72
10 -350 5 -350 -6 0 -1 -7 -3 -15 -5 -32 -6 -86 -16 -108 -20 -13 -2 -29 -9
-37 -15 -8 -7 -15 -10 -15 -7 0 6 -80 -20 -145 -48 -22 -10 -41 -17 -43 -16
-1 1 -10 -5 -18 -14 -9 -8 -22 -15 -30 -15 -8 0 -14 -4 -14 -10 0 -5 -9 -10
-20 -10 -11 0 -20 -4 -20 -8 0 -5 -12 -15 -27 -23 -16 -8 -30 -16 -33 -19 -3
-3 -23 -19 -45 -35 -77 -57 -199 -176 -219 -213 -5 -9 -20 -27 -33 -39 -12
-12 -23 -24 -23 -26 0 -6 -107 -179 -120 -194 -6 -7 -8 -13 -6 -13 3 0 -9 -24
-26 -52 -59 -100 -158 -271 -158 -273 0 -1 -24 -42 -53 -91 -29 -49 -56 -96
-60 -104 -5 -8 -13 -24 -20 -35 -56 -93 -107 -186 -107 -195 0 -5 -4 -10 -8
-10 -4 0 -18 -19 -30 -42 -31 -58 -58 -107 -207 -363 -70 -121 -135 -233 -145
-250 -9 -16 -41 -72 -71 -123 -58 -101 -86 -149 -121 -211 -13 -22 -60 -104
-105 -182 -46 -78 -83 -145 -83 -150 0 -5 -4 -9 -10 -9 -5 0 -10 -4 -10 -10 0
-5 -23 -47 -50 -94 -28 -47 -50 -89 -50 -95 0 -6 -3 -11 -7 -11 -5 0 -24 -31
-43 -68 -19 -37 -38 -69 -41 -72 -3 -3 -20 -32 -38 -65 -18 -32 -41 -71 -52
-86 -10 -14 -16 -29 -12 -33 3 -3 1 -6 -5 -6 -7 0 -12 -4 -12 -10 0 -5 -26
-54 -58 -107 -32 -54 -61 -105 -65 -113 -4 -8 -18 -33 -32 -55 -13 -22 -52
-89 -86 -150 -34 -60 -65 -112 -68 -115 -6 -5 -32 -52 -70 -125 -9 -16 -19
-31 -23 -33 -5 -2 -8 -10 -8 -17 0 -8 -6 -20 -12 -27 -7 -8 -20 -27 -29 -43
-20 -38 -146 -255 -159 -275 -5 -8 -19 -34 -31 -57 -17 -33 -25 -40 -36 -32
-7 6 -10 15 -7 20 3 5 0 9 -6 9 -6 0 -9 4 -6 9 4 5 3 11 -2 13 -7 3 -92 145
-160 267 -14 25 -36 63 -49 83 -12 21 -23 42 -23 48 0 5 -4 10 -8 10 -4 0 -15
15 -23 33 -26 55 -54 102 -61 105 -5 2 -8 10 -8 18 0 8 -5 14 -11 14 -5 0 -8
4 -5 9 3 5 -1 14 -9 21 -8 7 -15 16 -15 20 0 4 -18 38 -40 74 -22 36 -40 70
-40 76 0 5 -3 10 -7 10 -5 0 -17 20 -28 45 -11 25 -23 45 -27 45 -3 0 -9 9
-13 19 -3 11 -17 36 -30 55 -13 20 -22 36 -18 36 3 0 -1 8 -9 18 -8 9 -37 55
-63 102 -54 95 -101 177 -115 200 -52 85 -210 364 -210 371 0 5 -4 9 -10 9 -5
0 -10 9 -10 19 0 11 -4 21 -8 23 -7 3 -210 351 -285 488 -17 30 -33 57 -37 60
-3 3 -9 12 -13 20 -3 8 -22 42 -42 75 -19 33 -46 80 -60 105 -14 25 -30 52
-35 60 -17 26 -100 172 -100 175 0 2 -17 32 -38 66 -22 35 -51 87 -67 114 -78
141 -161 281 -170 287 -5 4 -6 8 -1 8 5 0 2 8 -6 18 -22 26 -98 159 -98 171 0
6 -4 11 -8 11 -4 0 -13 12 -20 28 -17 39 -63 116 -74 123 -5 3 -8 8 -7 10 4 5
-60 119 -79 142 -8 9 -11 17 -7 17 4 0 1 8 -7 18 -8 9 -30 44 -48 77 -19 33
-40 66 -47 73 -7 7 -13 20 -13 28 0 8 -4 14 -8 14 -5 0 -15 12 -23 27 -17 33
-57 80 -129 153 -59 61 -176 160 -189 160 -4 0 -17 9 -29 20 -12 12 -22 17
-22 13 0 -4 -4 -3 -8 3 -17 26 -275 137 -350 150 -15 3 -45 9 -67 14 -68 15
-278 33 -287 25z"/>
</g>
</svg>
