<svg width="408" height="301" viewBox="0 0 408 301" fill="none" xmlns="http://www.w3.org/2000/svg">
<g filter="url(#filter0_d)">
<path d="M70.9 208.825C71.425 209.875 72.475 210.75 73.875 210.75H75.625C77.025 210.75 78.075 209.875 78.6 208.825L133.55 91.05C134.6 88.775 133.2 86.5 130.575 86.5H107.3C105.9 86.5 104.675 87.55 104.325 88.425L75.45 152.3H74.4L45.525 88.425C45.175 87.55 43.95 86.5 42.55 86.5H19.275C16.65 86.5 15.25 88.775 16.3 91.05L70.9 208.825ZM147.919 205.675C147.919 207.425 149.319 209 151.244 209H223.694C225.619 209 227.019 207.425 227.019 205.675V186.6C227.019 184.85 225.619 183.275 223.694 183.275H175.219V159.65H215.119C216.869 159.65 218.444 158.25 218.444 156.325V137.25C218.444 135.5 216.869 133.925 215.119 133.925H175.219V112.225H223.694C225.619 112.225 227.019 110.65 227.019 108.9V89.825C227.019 88.075 225.619 86.5 223.694 86.5H151.244C149.319 86.5 147.919 88.075 147.919 89.825V205.675ZM239.608 204.1C238.033 206.375 239.608 209 242.583 209H266.908C268.308 209 269.358 208.125 269.883 207.425L292.283 172.075H292.633L315.558 207.425C316.083 208.3 317.483 209 318.533 209H342.858C345.658 209 347.233 206.55 345.658 204.1L308.908 146.175L344.433 91.4C346.008 89.125 344.433 86.5 341.458 86.5H315.908C314.683 86.5 313.458 87.375 313.108 88.075L292.633 120.625H292.458L272.333 88.075C271.808 87.375 270.758 86.5 269.533 86.5H243.983C241.008 86.5 239.608 89.125 241.008 91.4L276.358 146.175L239.608 204.1ZM365.131 205.675C365.131 207.425 366.706 209 368.456 209H389.456C391.206 209 392.781 207.425 392.781 205.675V89.825C392.781 88.075 391.206 86.5 389.456 86.5H368.456C366.706 86.5 365.131 88.075 365.131 89.825V205.675Z" fill="#FCC90E"/>
</g>
<defs>
<filter id="filter0_d" x="0.949219" y="75.5" width="406.832" height="154.25" filterUnits="userSpaceOnUse" color-interpolation-filters="sRGB">
<feFlood flood-opacity="0" result="BackgroundImageFix"/>
<feColorMatrix in="SourceAlpha" type="matrix" values="0 0 0 0 0 0 0 0 0 0 0 0 0 0 0 0 0 0 127 0"/>
<feOffset dy="4"/>
<feGaussianBlur stdDeviation="7.5"/>
<feColorMatrix type="matrix" values="0 0 0 0 0.988235 0 0 0 0 0.788235 0 0 0 0 0.054902 0 0 0 0.25 0"/>
<feBlend mode="normal" in2="BackgroundImageFix" result="effect1_dropShadow"/>
<feBlend mode="normal" in="SourceGraphic" in2="effect1_dropShadow" result="shape"/>
</filter>
</defs>
</svg>
